  0
SECTION
  2
HEADER
  9
$ACADVER
  1
AC1027
  9
$ACADMAINTVER
 70
105
  9
$DWGCODEPAGE
  3
ANSI_1252
  9
$LASTSAVEDBY
  1

  9
$REQUIREDVERSIONS
160
0
  9
$INSBASE
 10
0.0
 20
0.0
 30
0.0
  9
$EXTMIN
 10
1e+20
 20
1e+20
 30
1e+20
  9
$EXTMAX
 10
-1e+20
 20
-1e+20
 30
-1e+20
  9
$LIMMIN
 10
0.0
 20
0.0
  9
$LIMMAX
 10
420.0
 20
297.0
  9
$ORTHOMODE
 70
0
  9
$REGENMODE
 70
1
  9
$FILLMODE
 70
1
  9
$QTEXTMODE
 70
0
  9
$MIRRTEXT
 70
1
  9
$LTSCALE
 40
1.0
  9
$ATTMODE
 70
1
  9
$TEXTSIZE
 40
2.5
  9
$TRACEWID
 40
1.0
  9
$TEXTSTYLE
  7
ПТ
  9
$CLAYER
  8
0
  9
$CELTYPE
  6
ByLayer
  9
$CECOLOR
 62
256
  9
$CELTSCALE
 40
1.0
  9
$DISPSILH
 70
0
  9
$DIMSCALE
 40
1.0
  9
$DIMASZ
 40
0.175
  9
$DIMEXO
 40
0.125
  9
$DIMDLI
 40
3.75
  9
$DIMRND
 40
0.0
  9
$DIMDLE
 40
0.0
  9
$DIMEXE
 40
0.375
  9
$DIMTP
 40
0.0
  9
$DIMTM
 40
0.0
  9
$DIMTXT
 40
0.25
  9
$DIMCEN
 40
2.5
  9
$DIMTSZ
 40
0.0
  9
$DIMTOL
 70
0
  9
$DIMLIM
 70
0
  9
$DIMTIH
 70
0
  9
$DIMTOH
 70
0
  9
$DIMSE1
 70
0
  9
$DIMSE2
 70
0
  9
$DIMTAD
 70
1
  9
$DIMZIN
 70
12
  9
$DIMBLK
  1
ARCHTICK
  9
$DIMASO
 70
1
  9
$DIMSHO
 70
1
  9
$DIMPOST
  1

  9
$DIMAPOST
  1

  9
$DIMALT
 70
0
  9
$DIMALTD
 70
3
  9
$DIMALTF
 40
0.03937007874
  9
$DIMLFAC
 40
100.0
  9
$DIMTOFL
 70
1
  9
$DIMTVP
 40
0.0
  9
$DIMTIX
 70
0
  9
$DIMSOXD
 70
0
  9
$DIMSAH
 70
0
  9
$DIMBLK1
  1

  9
$DIMBLK2
  1

  9
$DIMSTYLE
  2
ПТ100
  9
$DIMCLRD
 70
0
  9
$DIMCLRE
 70
0
  9
$DIMCLRT
 70
0
  9
$DIMTFAC
 40
0.5
  9
$DIMGAP
 40
0.1
  9
$DIMJUST
 70
0
  9
$DIMSD1
 70
0
  9
$DIMSD2
 70
0
  9
$DIMTOLJ
 70
0
  9
$DIMTZIN
 70
8
  9
$DIMALTZ
 70
0
  9
$DIMALTTZ
 70
0
  9
$DIMUPT
 70
1
  9
$DIMDEC
 70
2
  9
$DIMTDEC
 70
2
  9
$DIMALTU
 70
2
  9
$DIMALTTD
 70
3
  9
$DIMTXSTY
  7
OpenSansCondensed-Light
  9
$DIMAUNIT
 70
0
  9
$DIMADEC
 70
2
  9
$DIMALTRND
 40
0.0
  9
$DIMAZIN
 70
3
  9
$DIMDSEP
 70
46
  9
$DIMATFIT
 70
3
  9
$DIMFRAC
 70
0
  9
$DIMLDRBLK
  1

  9
$DIMLUNIT
 70
2
  9
$DIMLWD
 70
-2
  9
$DIMLWE
 70
-2
  9
$DIMTMOVE
 70
2
  9
$DIMFXL
 40
1.0
  9
$DIMFXLON
 70
0
  9
$DIMJOGANG
 40
0.785398163397
  9
$DIMTFILL
 70
0
  9
$DIMTFILLCLR
 70
0
  9
$DIMARCSYM
 70
0
  9
$DIMLTYPE
  6

  9
$DIMLTEX1
  6

  9
$DIMLTEX2
  6

  9
$DIMTXTDIRECTION
 70
0
  9
$LUNITS
 70
2
  9
$LUPREC
 70
4
  9
$SKETCHINC
 40
1.0
  9
$FILLETRAD
 40
10.0
  9
$AUNITS
 70
0
  9
$AUPREC
 70
2
  9
$MENU
  1
.
  9
$ELEVATION
 40
0.0
  9
$PELEVATION
 40
0.0
  9
$THICKNESS
 40
0.0
  9
$LIMCHECK
 70
0
  9
$CHAMFERA
 40
0.0
  9
$CHAMFERB
 40
0.0
  9
$CHAMFERC
 40
0.0
  9
$CHAMFERD
 40
0.0
  9
$SKPOLY
 70
0
  9
$TDCREATE
 40
2461323.625358796
  9
$TDUCREATE
 40
2458532.153996898
  9
$TDUPDATE
 40
2461323.625358796
  9
$TDUUPDATE
 40
2458532.1544311
  9
$TDINDWG
 40
0.0
  9
$TDUSRTIMER
 40
0.0
  9
$USRTIMER
 70
1
  9
$ANGBASE
 50
0.0
  9
$ANGDIR
 70
0
  9
$PDMODE
 70
0
  9
$PDSIZE
 40
0.0
  9
$PLINEWID
 40
0.0
  9
$SPLFRAME
 70
0
  9
$SPLINETYPE
 70
6
  9
$SPLINESEGS
 70
8
  9
$HANDSEED
  5
366
  9
$SURFTAB1
 70
6
  9
$SURFTAB2
 70
6
  9
$SURFTYPE
 70
6
  9
$SURFU
 70
6
  9
$SURFV
 70
6
  9
$UCSBASE
  2

  9
$UCSNAME
  2

  9
$UCSORG
 10
0.0
 20
0.0
 30
0.0
  9
$UCSXDIR
 10
1.0
 20
0.0
 30
0.0
  9
$UCSYDIR
 10
0.0
 20
1.0
 30
0.0
  9
$UCSORTHOREF
  2

  9
$UCSORTHOVIEW
 70
0
  9
$UCSORGTOP
 10
0.0
 20
0.0
 30
0.0
  9
$UCSORGBOTTOM
 10
0.0
 20
0.0
 30
0.0
  9
$UCSORGLEFT
 10
0.0
 20
0.0
 30
0.0
  9
$UCSORGRIGHT
 10
0.0
 20
0.0
 30
0.0
  9
$UCSORGFRONT
 10
0.0
 20
0.0
 30
0.0
  9
$UCSORGBACK
 10
0.0
 20
0.0
 30
0.0
  9
$PUCSBASE
  2

  9
$PUCSNAME
  2

  9
$PUCSORG
 10
0.0
 20
0.0
 30
0.0
  9
$PUCSXDIR
 10
1.0
 20
0.0
 30
0.0
  9
$PUCSYDIR
 10
0.0
 20
1.0
 30
0.0
  9
$PUCSORTHOREF
  2

  9
$PUCSORTHOVIEW
 70
0
  9
$PUCSORGTOP
 10
0.0
 20
0.0
 30
0.0
  9
$PUCSORGBOTTOM
 10
0.0
 20
0.0
 30
0.0
  9
$PUCSORGLEFT
 10
0.0
 20
0.0
 30
0.0
  9
$PUCSORGRIGHT
 10
0.0
 20
0.0
 30
0.0
  9
$PUCSORGFRONT
 10
0.0
 20
0.0
 30
0.0
  9
$PUCSORGBACK
 10
0.0
 20
0.0
 30
0.0
  9
$USERI1
 70
0
  9
$USERI2
 70
0
  9
$USERI3
 70
0
  9
$USERI4
 70
0
  9
$USERI5
 70
0
  9
$USERR1
 40
0.0
  9
$USERR2
 40
0.0
  9
$USERR3
 40
0.0
  9
$USERR4
 40
0.0
  9
$USERR5
 40
0.0
  9
$WORLDVIEW
 70
1
  9
$SHADEDGE
 70
3
  9
$SHADEDIF
 70
70
  9
$TILEMODE
 70
1
  9
$MAXACTVP
 70
64
  9
$PINSBASE
 10
0.0
 20
0.0
 30
0.0
  9
$PLIMCHECK
 70
0
  9
$PEXTMIN
 10
1e+20
 20
1e+20
 30
1e+20
  9
$PEXTMAX
 10
-1e+20
 20
-1e+20
 30
-1e+20
  9
$PLIMMIN
 10
0.0
 20
0.0
  9
$PLIMMAX
 10
420.0
 20
297.0
  9
$UNITMODE
 70
0
  9
$VISRETAIN
 70
1
  9
$PLINEGEN
 70
0
  9
$PSLTSCALE
 70
0
  9
$TREEDEPTH
 70
3020
  9
$CMLSTYLE
  2
Standard
  9
$CMLJUST
 70
0
  9
$CMLSCALE
 40
20.0
  9
$PROXYGRAPHICS
 70
1
  9
$MEASUREMENT
 70
1
  9
$CELWEIGHT
370
-1
  9
$ENDCAPS
280
0
  9
$JOINSTYLE
280
0
  9
$LWDISPLAY
290
0
  9
$INSUNITS
 70
4
  9
$HYPERLINKBASE
  1

  9
$STYLESHEET
  1

  9
$XEDIT
290
1
  9
$CEPSNTYPE
380
0
  9
$PSTYLEMODE
290
1
  9
$FINGERPRINTGUID
  2
{FD6D5913-1E72-4591-9F95-202AD30E41AD}
  9
$VERSIONGUID
  2
{F7B51BF7-49F8-4664-871F-F6B6111B2A7F}
  9
$EXTNAMES
290
1
  9
$PSVPSCALE
 40
0.0
  9
$OLESTARTUP
290
0
  9
$SORTENTS
280
127
  9
$INDEXCTL
280
0
  9
$HIDETEXT
280
1
  9
$XCLIPFRAME
280
1
  9
$HALOGAP
280
0
  9
$OBSCOLOR
 70
257
  9
$OBSLTYPE
280
0
  9
$INTERSECTIONDISPLAY
280
0
  9
$INTERSECTIONCOLOR
 70
257
  9
$DIMASSOC
280
2
  9
$PROJECTNAME
  1

  9
$CAMERADISPLAY
290
0
  9
$LENSLENGTH
 40
50.0
  9
$CAMERAHEIGHT
 40
0.0
  9
$STEPSPERSEC
 40
24.0
  9
$STEPSIZE
 40
100.0
  9
$3DDWFPREC
 40
2.0
  9
$PSOLWIDTH
 40
0.005
  9
$PSOLHEIGHT
 40
0.08
  9
$LOFTANG1
 40
1.570796326795
  9
$LOFTANG2
 40
1.570796326795
  9
$LOFTMAG1
 40
0.0
  9
$LOFTMAG2
 40
0.0
  9
$LOFTPARAM
 70
7
  9
$LOFTNORMALS
280
1
  9
$LATITUDE
 40
37.795
  9
$LONGITUDE
 40
-122.394
  9
$NORTHDIRECTION
 40
0.0
  9
$TIMEZONE
 70
-8000
  9
$LIGHTGLYPHDISPLAY
280
1
  9
$TILEMODELIGHTSYNCH
280
1
  9
$CMATERIAL
347
20
  9
$SOLIDHIST
280
0
  9
$SHOWHIST
280
1
  9
$DWFFRAME
280
2
  9
$DGNFRAME
280
2
  9
$REALWORLDSCALE
290
1
  9
$INTERFERECOLOR
 62
256
  9
$CSHADOW
280
0
  9
$SHADOWPLANELOCATION
 40
0.0
  0
ENDSEC
  0
SECTION
  2
CLASSES
  0
CLASS
  1
ACDBDICTIONARYWDFLT
  2
AcDbDictionaryWithDefault
  3
ObjectDBX Classes
 90
0
 91
0
280
0
281
0
  0
CLASS
  1
SUN
  2
AcDbSun
  3
SCENEOE
 90
1153
 91
0
280
0
281
0
  0
CLASS
  1
VISUALSTYLE
  2
AcDbVisualStyle
  3
ObjectDBX Classes
 90
4095
 91
0
280
0
281
0
  0
CLASS
  1
MATERIAL
  2
AcDbMaterial
  3
ObjectDBX Classes
 90
1153
 91
0
280
0
281
0
  0
CLASS
  1
SCALE
  2
AcDbScale
  3
ObjectDBX Classes
 90
1153
 91
0
280
0
281
0
  0
CLASS
  1
TABLESTYLE
  2
AcDbTableStyle
  3
ObjectDBX Classes
 90
4095
 91
0
280
0
281
0
  0
CLASS
  1
MLEADERSTYLE
  2
AcDbMLeaderStyle
  3
ACDB_MLEADERSTYLE_CLASS
 90
4095
 91
0
280
0
281
0
  0
CLASS
  1
DICTIONARYVAR
  2
AcDbDictionaryVar
  3
ObjectDBX Classes
 90
0
 91
0
280
0
281
0
  0
CLASS
  1
CELLSTYLEMAP
  2
AcDbCellStyleMap
  3
ObjectDBX Classes
 90
1152
 91
0
280
0
281
0
  0
CLASS
  1
MENTALRAYRENDERSETTINGS
  2
AcDbMentalRayRenderSettings
  3
SCENEOE
 90
1024
 91
0
280
0
281
0
  0
CLASS
  1
ACDBDETAILVIEWSTYLE
  2
AcDbDetailViewStyle
  3
ObjectDBX Classes
 90
1025
 91
0
280
0
281
0
  0
CLASS
  1
ACDBSECTIONVIEWSTYLE
  2
AcDbSectionViewStyle
  3
ObjectDBX Classes
 90
1025
 91
0
280
0
281
0
  0
CLASS
  1
RASTERVARIABLES
  2
AcDbRasterVariables
  3
ISM
 90
0
 91
0
280
0
281
0
  0
CLASS
  1
ACDBPLACEHOLDER
  2
AcDbPlaceHolder
  3
ObjectDBX Classes
 90
0
 91
0
280
0
281
0
  0
CLASS
  1
LAYOUT
  2
AcDbLayout
  3
ObjectDBX Classes
 90
0
 91
0
280
0
281
0
  0
ENDSEC
  0
SECTION
  2
TABLES
  0
TABLE
  2
VPORT
  5
8
330
0
100
AcDbSymbolTable
 70
1
  0
VPORT
  5
23
330
8
100
AcDbSymbolTableRecord
100
AcDbViewportTableRecord
  2
*Active
 70
0
 10
0.0
 20
0.0
 11
1.0
 21
1.0
 12
0.0
 22
0.0
 13
0.0
 23
0.0
 14
0.5
 24
0.5
 15
0.5
 25
0.5
 16
0.0
 26
0.0
 36
1.0
 17
0.0
 27
0.0
 37
0.0
 40
1000.0
 41
1.34
 42
50.0
 43
0.0
 44
0.0
 50
0.0
 51
0.0
 71
0
 72
1000
 73
1
 74
3
 75
0
 76
0
 77
0
 78
0
281
0
 65
0
146
0.0
  0
ENDTAB
  0
TABLE
  2
LTYPE
  5
2
330
0
100
AcDbSymbolTable
 70
23
  0
LTYPE
  5
24
330
2
100
AcDbSymbolTableRecord
100
AcDbLinetypeTableRecord
  2
ByBlock
 70
0
  3

 72
65
 73
0
 40
0.0
  0
LTYPE
  5
25
330
2
100
AcDbSymbolTableRecord
100
AcDbLinetypeTableRecord
  2
ByLayer
 70
0
  3

 72
65
 73
0
 40
0.0
  0
LTYPE
  5
26
330
2
100
AcDbSymbolTableRecord
100
AcDbLinetypeTableRecord
  2
Continuous
 70
0
  3

 72
65
 73
0
 40
0.0
  0
LTYPE
  5
2F
330
2
100
AcDbSymbolTableRecord
100
AcDbLinetypeTableRecord
  2
CENTER
 70
0
  3
Center ____ _ ____ _ ____ _ ____ _ ____ _ ____
 72
65
 73
4
 40
5.08
 49
3.175
 74
0
 49
-0.635
 74
0
 49
0.635
 74
0
 49
-0.635
 74
0
  0
LTYPE
  5
30
330
2
100
AcDbSymbolTableRecord
100
AcDbLinetypeTableRecord
  2
CENTERX2
 70
0
  3
Center (2x) ________  __  ________  __  ________
 72
65
 73
4
 40
8.89
 49
6.35
 74
0
 49
-0.635
 74
0
 49
1.27
 74
0
 49
-0.635
 74
0
  0
LTYPE
  5
31
330
2
100
AcDbSymbolTableRecord
100
AcDbLinetypeTableRecord
  2
CENTER2
 70
0
  3
Center (.5x) ____ _ ____ _ ____ _ ____ _ ____
 72
65
 73
4
 40
2.54
 49
1.587
 74
0
 49
-0.318
 74
0
 49
0.318
 74
0
 49
-0.318
 74
0
  0
LTYPE
  5
32
330
2
100
AcDbSymbolTableRecord
100
AcDbLinetypeTableRecord
  2
DASHED
 70
0
  3
Dashed __ __ __ __ __ __ __ __ __ __ __ __ __ _
 72
65
 73
2
 40
1.524
 49
1.27
 74
0
 49
-0.254
 74
0
  0
LTYPE
  5
33
330
2
100
AcDbSymbolTableRecord
100
AcDbLinetypeTableRecord
  2
DASHEDX2
 70
0
  3
Dashed (2x) ____  ____  ____  ____  ____  ____
 72
65
 73
2
 40
3.048
 49
2.54
 74
0
 49
-0.508
 74
0
  0
LTYPE
  5
34
330
2
100
AcDbSymbolTableRecord
100
AcDbLinetypeTableRecord
  2
DASHED2
 70
0
  3
Dashed (.5x) _ _ _ _ _ _ _ _ _ _ _ _ _ _
 72
65
 73
2
 40
0.762
 49
0.635
 74
0
 49
-0.127
 74
0
  0
LTYPE
  5
35
330
2
100
AcDbSymbolTableRecord
100
AcDbLinetypeTableRecord
  2
PHANTOM
 70
0
  3
Phantom ______  __  __  ______  __  __  ______
 72
65
 73
6
 40
6.35
 49
3.175
 74
0
 49
-0.635
 74
0
 49
0.635
 74
0
 49
-0.635
 74
0
 49
0.635
 74
0
 49
-0.635
 74
0
  0
LTYPE
  5
36
330
2
100
AcDbSymbolTableRecord
100
AcDbLinetypeTableRecord
  2
PHANTOMX2
 70
0
  3
Phantom (2x)____________    ____    ____    ____________
 72
65
 73
6
 40
10.795
 49
6.35
 74
0
 49
-0.635
 74
0
 49
1.27
 74
0
 49
-0.635
 74
0
 49
1.27
 74
0
 49
-0.635
 74
0
  0
LTYPE
  5
37
330
2
100
AcDbSymbolTableRecord
100
AcDbLinetypeTableRecord
  2
PHANTOM2
 70
0
  3
Phantom (.5x) ___ _ _ ___ _ _ ___ _ _ ___ _ _ ___
 72
65
 73
6
 40
3.175
 49
1.587
 74
0
 49
-0.318
 74
0
 49
0.318
 74
0
 49
-0.318
 74
0
 49
0.318
 74
0
 49
-0.318
 74
0
  0
LTYPE
  5
38
330
2
100
AcDbSymbolTableRecord
100
AcDbLinetypeTableRecord
  2
DASHDOT
 70
0
  3
Dash dot __ . __ . __ . __ . __ . __ . __ . __
 72
65
 73
4
 40
3.556
 49
2.54
 74
0
 49
-0.508
 74
0
 49
0.0
 74
0
 49
-0.508
 74
0
  0
LTYPE
  5
39
330
2
100
AcDbSymbolTableRecord
100
AcDbLinetypeTableRecord
  2
DASHDOTX2
 70
0
  3
Dash dot (2x) ____  .  ____  .  ____  .  ____
 72
65
 73
4
 40
6.096
 49
5.08
 74
0
 49
-0.508
 74
0
 49
0.0
 74
0
 49
-0.508
 74
0
  0
LTYPE
  5
3A
330
2
100
AcDbSymbolTableRecord
100
AcDbLinetypeTableRecord
  2
DASHDOT2
 70
0
  3
Dash dot (.5x) _ . _ . _ . _ . _ . _ . _ . _
 72
65
 73
4
 40
1.778
 49
1.27
 74
0
 49
-0.254
 74
0
 49
0.0
 74
0
 49
-0.254
 74
0
  0
LTYPE
  5
3B
330
2
100
AcDbSymbolTableRecord
100
AcDbLinetypeTableRecord
  2
DOT
 70
0
  3
Dot .  .  .  .  .  .  .  .  .  .  .  .  .  .  .  .
 72
65
 73
2
 40
0.508
 49
0.0
 74
0
 49
-0.508
 74
0
  0
LTYPE
  5
3C
330
2
100
AcDbSymbolTableRecord
100
AcDbLinetypeTableRecord
  2
DOTX2
 70
0
  3
Dot (2x) .    .    .    .    .    .    .    . 
 72
65
 73
2
 40
1.016
 49
0.0
 74
0
 49
-1.016
 74
0
  0
LTYPE
  5
3D
330
2
100
AcDbSymbolTableRecord
100
AcDbLinetypeTableRecord
  2
DOT2
 70
0
  3
Dot (.5) . . . . . . . . . . . . . . . . . . . 
 72
65
 73
2
 40
0.254
 49
0.0
 74
0
 49
-0.254
 74
0
  0
LTYPE
  5
3E
330
2
100
AcDbSymbolTableRecord
100
AcDbLinetypeTableRecord
  2
DIVIDE
 70
0
  3
Divide __ . . __ . . __ . . __ . . __ . . __
 72
65
 73
6
 40
4.064
 49
2.54
 74
0
 49
-0.508
 74
0
 49
0.0
 74
0
 49
-0.508
 74
0
 49
0.0
 74
0
 49
-0.508
 74
0
  0
LTYPE
  5
3F
330
2
100
AcDbSymbolTableRecord
100
AcDbLinetypeTableRecord
  2
DIVIDEX2
 70
0
  3
Divide (2x) ____  . .  ____  . .  ____  . .  ____
 72
65
 73
6
 40
6.604
 49
5.08
 74
0
 49
-0.508
 74
0
 49
0.0
 74
0
 49
-0.508
 74
0
 49
0.0
 74
0
 49
-0.508
 74
0
  0
LTYPE
  5
40
330
2
100
AcDbSymbolTableRecord
100
AcDbLinetypeTableRecord
  2
DIVIDE2
 70
0
  3
Divide(.5x) _ . _ . _ . _ . _ . _ . _ . _
 72
65
 73
6
 40
2.032
 49
1.27
 74
0
 49
-0.254
 74
0
 49
0.0
 74
0
 49
-0.254
 74
0
 49
0.0
 74
0
 49
-0.254
 74
0
  0
LTYPE
  5
A1
330
2
100
AcDbSymbolTableRecord
100
AcDbLinetypeTableRecord
  2
ПТ_ШТРИХ
 70
0
  3
штрих 4-2
 72
65
 73
2
 40
6.0
 49
4.0
 74
0
 49
-2.0
 74
0
  0
LTYPE
  5
A2
330
2
100
AcDbSymbolTableRecord
100
AcDbLinetypeTableRecord
  2
ПТ_ШТРИХПУНКТ
 70
0
  3
штрихпунктир
 72
65
 73
4
 40
16.0
 49
12.0
 74
0
 49
-2.0
 74
0
 49
0.0
 74
0
 49
-2.0
 74
0
  0
ENDTAB
  0
TABLE
  2
LAYER
  5
1
330
0
100
AcDbSymbolTable
 70
23
  0
LAYER
  5
27
330
1
100
AcDbSymbolTableRecord
100
AcDbLayerTableRecord
  2
0
 70
0
 62
7
  6
Continuous
370
-3
390
13
347
21
  0
LAYER
  5
28
330
1
100
AcDbSymbolTableRecord
100
AcDbLayerTableRecord
  2
Defpoints
 70
0
 62
7
  6
Continuous
290
0
370
-3
390
13
347
21
  0
LAYER
  5
8A
330
1
100
AcDbSymbolTableRecord
100
AcDbLayerTableRecord
  2
ПТ_В21
 70
0
 62
1
  6
Continuous
370
50
390
13
347
21
  0
LAYER
  5
8B
330
1
100
AcDbSymbolTableRecord
100
AcDbLayerTableRecord
  2
ПТ_В22
 70
0
 62
6
  6
Continuous
370
50
390
13
347
21
  0
LAYER
  5
8C
330
1
100
AcDbSymbolTableRecord
100
AcDbLayerTableRecord
  2
ПТ_В2
 70
0
 62
3
  6
Continuous
370
50
390
13
347
21
  0
LAYER
  5
8D
330
1
100
AcDbSymbolTableRecord
100
AcDbLayerTableRecord
  2
ПТ_В21_расп
 70
0
 62
1
  6
Continuous
370
30
390
13
347
21
  0
LAYER
  5
8E
330
1
100
AcDbSymbolTableRecord
100
AcDbLayerTableRecord
  2
ПТ_В22_расп
 70
0
 62
6
  6
Continuous
370
30
390
13
347
21
  0
LAYER
  5
8F
330
1
100
AcDbSymbolTableRecord
100
AcDbLayerTableRecord
  2
ПТ_ввод
 70
0
 62
5
  6
Continuous
370
60
390
13
347
21
  0
LAYER
  5
90
330
1
100
AcDbSymbolTableRecord
100
AcDbLayerTableRecord
  2
ПТ_оросители
 70
0
 62
7
  6
Continuous
370
25
390
13
347
21
  0
LAYER
  5
91
330
1
100
AcDbSymbolTableRecord
100
AcDbLayerTableRecord
  2
ПТ_ПК
 70
0
 62
30
  6
Continuous
370
35
390
13
347
21
  0
LAYER
  5
92
330
1
100
AcDbSymbolTableRecord
100
AcDbLayerTableRecord
  2
ПТ_арматура
 70
0
 62
7
  6
Continuous
370
30
390
13
347
21
  0
LAYER
  5
93
330
1
100
AcDbSymbolTableRecord
100
AcDbLayerTableRecord
  2
ПТ_оборудование
 70
0
 62
7
  6
Continuous
370
35
390
13
347
21
  0
LAYER
  5
94
330
1
100
AcDbSymbolTableRecord
100
AcDbLayerTableRecord
  2
ПТ_текст
 70
0
 62
7
  6
Continuous
370
18
390
13
347
21
  0
LAYER
  5
95
330
1
100
AcDbSymbolTableRecord
100
AcDbLayerTableRecord
  2
ПТ_размеры
 70
0
 62
7
  6
Continuous
370
13
390
13
347
21
  0
LAYER
  5
96
330
1
100
AcDbSymbolTableRecord
100
AcDbLayerTableRecord
  2
ПТ_выноски
 70
0
 62
7
  6
Continuous
370
13
390
13
347
21
  0
LAYER
  5
97
330
1
100
AcDbSymbolTableRecord
100
AcDbLayerTableRecord
  2
ПТ_штриховка
 70
0
 62
8
  6
Continuous
370
9
390
13
347
21
  0
LAYER
  5
98
330
1
100
AcDbSymbolTableRecord
100
AcDbLayerTableRecord
  2
ПТ_АУПП
 70
0
 62
4
  6
Continuous
370
35
390
13
347
21
  0
LAYER
  5
99
330
1
100
AcDbSymbolTableRecord
100
AcDbLayerTableRecord
  2
ПТ_кабели
 70
0
 62
5
  6
Continuous
370
25
390
13
347
21
  0
LAYER
  5
9A
330
1
100
AcDbSymbolTableRecord
100
AcDbLayerTableRecord
  2
ПТ_рамка
 70
0
 62
7
  6
Continuous
370
50
390
13
347
21
  0
LAYER
  5
9B
330
1
100
AcDbSymbolTableRecord
100
AcDbLayerTableRecord
  2
ПТ_рамка_тонк
 70
0
 62
7
  6
Continuous
370
18
390
13
347
21
  0
LAYER
  5
9C
330
1
100
AcDbSymbolTableRecord
100
AcDbLayerTableRecord
  2
АР_подоснова
 70
0
 62
8
  6
Continuous
370
13
390
13
347
21
  0
LAYER
  5
9D
330
1
100
AcDbSymbolTableRecord
100
AcDbLayerTableRecord
  2
ПТ_оси
 70
0
 62
8
  6
Continuous
370
13
390
13
347
21
  0
LAYER
  5
9E
330
1
100
AcDbSymbolTableRecord
100
AcDbLayerTableRecord
  2
ПТ_контур
 70
0
 62
7
  6
Continuous
370
35
390
13
347
21
  0
ENDTAB
  0
TABLE
  2
STYLE
  5
5
330
0
100
AcDbSymbolTable
 70
3
  0
STYLE
  5
29
330
5
100
AcDbSymbolTableRecord
100
AcDbTextStyleTableRecord
  2
Standard
 70
0
 40
0.0
 41
1.0
 50
0.0
 71
0
 42
2.5
  3
txt
  4

  0
STYLE
  5
9F
330
5
100
AcDbSymbolTableRecord
100
AcDbTextStyleTableRecord
  2
ПТ
 70
0
 40
0.0
 41
1.0
 50
0.0
 71
0
 42
2.5
  3
isocpeur.ttf
  4

  0
STYLE
  5
A0
330
5
100
AcDbSymbolTableRecord
100
AcDbTextStyleTableRecord
  2
ПТ_загл
 70
0
 40
0.0
 41
1.0
 50
0.0
 71
0
 42
2.5
  3
isocpeur.ttf
  4

  0
ENDTAB
  0
TABLE
  2
VIEW
  5
7
330
0
100
AcDbSymbolTable
 70
0
  0
ENDTAB
  0
TABLE
  2
UCS
  5
6
330
0
100
AcDbSymbolTable
 70
0
  0
ENDTAB
  0
TABLE
  2
APPID
  5
3
330
0
100
AcDbSymbolTable
 70
2
  0
APPID
  5
2A
330
3
100
AcDbSymbolTableRecord
100
AcDbRegAppTableRecord
  2
ACAD
 70
0
  0
APPID
  5
365
330
3
100
AcDbSymbolTableRecord
100
AcDbRegAppTableRecord
  2
HATCHBACKGROUNDCOLOR
 70
0
  0
ENDTAB
  0
TABLE
  2
DIMSTYLE
  5
4
330
0
100
AcDbSymbolTable
 70
2
100
AcDbDimStyleTable
  0
DIMSTYLE
105
2B
330
4
100
AcDbSymbolTableRecord
100
AcDbDimStyleTableRecord
  2
Standard
 70
0
 40
1.0
 41
2.5
 42
0.625
 43
3.75
 44
1.25
 45
0.0
 46
0.0
 47
0.0
 48
0.0
 49
2.5
140
2.5
141
2.5
142
0.0
143
0.03937007874
144
1.0
145
0.0
146
1.0
147
0.625
148
0.0
 69
0
 70
0
 71
0
 72
0
 73
0
 74
0
 75
0
 76
0
 77
1
 78
8
 79
3
170
0
171
3
172
1
173
0
174
0
175
0
176
0
177
0
178
0
179
2
271
2
272
2
273
2
274
3
275
0
276
0
277
2
278
44
279
0
280
0
281
0
282
0
283
0
284
8
285
0
286
0
288
0
289
3
290
0
371
-2
372
-2
  0
DIMSTYLE
105
13C
330
4
100
AcDbSymbolTableRecord
100
AcDbDimStyleTableRecord
  2
ПТ100
 70
0
 40
100.0
 41
1.2
 42
0.0
 43
3.75
 44
1.0
 45
0.0
 46
0.0
 47
0.0
 48
0.0
 49
2.5
140
2.5
141
2.5
142
1.2
143
0.03937007874
144
1.0
145
0.0
146
1.0
147
0.6
148
0.0
 69
0
 70
0
 71
0
 72
0
 73
0
 74
0
 75
0
 76
0
 77
1
 78
8
 79
3
170
0
171
3
172
1
173
0
174
0
175
0
176
7
177
7
178
7
179
2
271
0
272
2
273
2
274
3
275
0
276
0
277
2
278
44
279
0
280
0
281
0
282
0
283
0
284
8
285
0
286
0
288
0
289
3
290
0
340
9F
371
13
372
13
  0
ENDTAB
  0
TABLE
  2
BLOCK_RECORD
  5
9
330
0
100
AcDbSymbolTable
 70
32
  0
BLOCK_RECORD
  5
17
330
9
100
AcDbSymbolTableRecord
100
AcDbBlockTableRecord
  2
*Model_Space
340
1A
 70
0
280
1
281
0
  0
BLOCK_RECORD
  5
1B
330
9
100
AcDbSymbolTableRecord
100
AcDbBlockTableRecord
  2
*Paper_Space
340
1E
 70
0
280
1
281
0
  0
BLOCK_RECORD
  5
74
330
9
100
AcDbSymbolTableRecord
100
AcDbBlockTableRecord
  2
_ARCHTICK
340
0
 70
0
280
1
281
0
  0
BLOCK_RECORD
  5
78
330
9
100
AcDbSymbolTableRecord
100
AcDbBlockTableRecord
  2
_CLOSEDFILLED
340
0
 70
0
280
1
281
0
  0
BLOCK_RECORD
  5
84
330
9
100
AcDbSymbolTableRecord
100
AcDbBlockTableRecord
  2
_CLOSEDBLANK
340
0
 70
0
280
1
281
0
  0
BLOCK_RECORD
  5
A3
330
9
100
AcDbSymbolTableRecord
100
AcDbBlockTableRecord
  2
SPR_DN
340
0
 70
0
280
1
281
0
  0
BLOCK_RECORD
  5
AD
330
9
100
AcDbSymbolTableRecord
100
AcDbBlockTableRecord
  2
SPR_UP
340
0
 70
0
280
1
281
0
  0
BLOCK_RECORD
  5
B7
330
9
100
AcDbSymbolTableRecord
100
AcDbBlockTableRecord
  2
SPR_EXIST
340
0
 70
0
280
1
281
0
  0
BLOCK_RECORD
  5
BB
330
9
100
AcDbSymbolTableRecord
100
AcDbBlockTableRecord
  2
PK2
340
0
 70
0
280
1
281
0
  0
BLOCK_RECORD
  5
C3
330
9
100
AcDbSymbolTableRecord
100
AcDbBlockTableRecord
  2
RISER
340
0
 70
0
280
1
281
0
  0
BLOCK_RECORD
  5
C8
330
9
100
AcDbSymbolTableRecord
100
AcDbBlockTableRecord
  2
V_GATE
340
0
 70
0
280
1
281
0
  0
BLOCK_RECORD
  5
CD
330
9
100
AcDbSymbolTableRecord
100
AcDbBlockTableRecord
  2
V_BFLY
340
0
 70
0
280
1
281
0
  0
BLOCK_RECORD
  5
D2
330
9
100
AcDbSymbolTableRecord
100
AcDbBlockTableRecord
  2
V_CHECK
340
0
 70
0
280
1
281
0
  0
BLOCK_RECORD
  5
D7
330
9
100
AcDbSymbolTableRecord
100
AcDbBlockTableRecord
  2
V_BALL
340
0
 70
0
280
1
281
0
  0
BLOCK_RECORD
  5
DC
330
9
100
AcDbSymbolTableRecord
100
AcDbBlockTableRecord
  2
V_GLOBE
340
0
 70
0
280
1
281
0
  0
BLOCK_RECORD
  5
E1
330
9
100
AcDbSymbolTableRecord
100
AcDbBlockTableRecord
  2
V_MOTOR
340
0
 70
0
280
1
281
0
  0
BLOCK_RECORD
  5
E8
330
9
100
AcDbSymbolTableRecord
100
AcDbBlockTableRecord
  2
MANOM
340
0
 70
0
280
1
281
0
  0
BLOCK_RECORD
  5
EE
330
9
100
AcDbSymbolTableRecord
100
AcDbBlockTableRecord
  2
PSW
340
0
 70
0
280
1
281
0
  0
BLOCK_RECORD
  5
F4
330
9
100
AcDbSymbolTableRecord
100
AcDbBlockTableRecord
  2
FSW
340
0
 70
0
280
1
281
0
  0
BLOCK_RECORD
  5
FA
330
9
100
AcDbSymbolTableRecord
100
AcDbBlockTableRecord
  2
PUMP
340
0
 70
0
280
1
281
0
  0
BLOCK_RECORD
  5
FF
330
9
100
AcDbSymbolTableRecord
100
AcDbBlockTableRecord
  2
TANK
340
0
 70
0
280
1
281
0
  0
BLOCK_RECORD
  5
105
330
9
100
AcDbSymbolTableRecord
100
AcDbBlockTableRecord
  2
UU
340
0
 70
0
280
1
281
0
  0
BLOCK_RECORD
  5
10A
330
9
100
AcDbSymbolTableRecord
100
AcDbBlockTableRecord
  2
GM80
340
0
 70
0
280
1
281
0
  0
BLOCK_RECORD
  5
10F
330
9
100
AcDbSymbolTableRecord
100
AcDbBlockTableRecord
  2
DRAIN
340
0
 70
0
280
1
281
0
  0
BLOCK_RECORD
  5
115
330
9
100
AcDbSymbolTableRecord
100
AcDbBlockTableRecord
  2
ELEV
340
0
 70
0
280
1
281
0
  0
BLOCK_RECORD
  5
11A
330
9
100
AcDbSymbolTableRecord
100
AcDbBlockTableRecord
  2
ARROW
340
0
 70
0
280
1
281
0
  0
BLOCK_RECORD
  5
11E
330
9
100
AcDbSymbolTableRecord
100
AcDbBlockTableRecord
  2
MODULE
340
0
 70
0
280
1
281
0
  0
BLOCK_RECORD
  5
123
330
9
100
AcDbSymbolTableRecord
100
AcDbBlockTableRecord
  2
DETS
340
0
 70
0
280
1
281
0
  0
BLOCK_RECORD
  5
128
330
9
100
AcDbSymbolTableRecord
100
AcDbBlockTableRecord
  2
BTN
340
0
 70
0
280
1
281
0
  0
BLOCK_RECORD
  5
12D
330
9
100
AcDbSymbolTableRecord
100
AcDbBlockTableRecord
  2
SIGN
340
0
 70
0
280
1
281
0
  0
BLOCK_RECORD
  5
133
330
9
100
AcDbSymbolTableRecord
100
AcDbBlockTableRecord
  2
SIREN
340
0
 70
0
280
1
281
0
  0
BLOCK_RECORD
  5
137
330
9
100
AcDbSymbolTableRecord
100
AcDbBlockTableRecord
  2
DOORC
340
0
 70
0
280
1
281
0
  0
ENDTAB
  0
ENDSEC
  0
SECTION
  2
BLOCKS
  0
BLOCK
  5
18
330
17
100
AcDbEntity
  8
0
100
AcDbBlockBegin
  2
*Model_Space
 70
0
 10
0.0
 20
0.0
 30
0.0
  3
*Model_Space
  1

  0
ENDBLK
  5
19
330
17
100
AcDbEntity
  8
0
100
AcDbBlockEnd
  0
BLOCK
  5
1C
330
1B
100
AcDbEntity
  8
0
100
AcDbBlockBegin
  2
*Paper_Space
 70
0
 10
0.0
 20
0.0
 30
0.0
  3
*Paper_Space
  1

  0
ENDBLK
  5
1D
330
1B
100
AcDbEntity
  8
0
100
AcDbBlockEnd
  0
BLOCK
  5
75
330
74
100
AcDbEntity
  8
0
100
AcDbBlockBegin
  2
_ARCHTICK
 70
0
 10
0.0
 20
0.0
 30
0.0
  3
_ARCHTICK
  1

  0
LWPOLYLINE
  5
77
330
74
100
AcDbEntity
  8
0
  6
BYBLOCK
 62
0
100
AcDbPolyline
 90
2
 70
0
 43
0.15
 10
-0.5
 20
-0.5
 10
0.5
 20
0.5
  0
ENDBLK
  5
76
330
74
100
AcDbEntity
  8
0
100
AcDbBlockEnd
  0
BLOCK
  5
79
330
78
100
AcDbEntity
  8
0
100
AcDbBlockBegin
  2
_CLOSEDFILLED
 70
0
 10
0.0
 20
0.0
 30
0.0
  3
_CLOSEDFILLED
  1

  0
SOLID
  5
7B
330
78
100
AcDbEntity
  8
0
  6
BYBLOCK
 62
0
100
AcDbTrace
 10
-1.0
 20
0.16439898372402537
 30
0.0
 11
0.0
 21
0.0
 31
0.0
 12
-1.0
 22
-0.16439898372402537
 32
0.0
 13
-1.0
 23
-0.16439898372402537
 33
0.0
  0
ENDBLK
  5
7A
330
78
100
AcDbEntity
  8
0
100
AcDbBlockEnd
  0
BLOCK
  5
85
330
84
100
AcDbEntity
  8
0
100
AcDbBlockBegin
  2
_CLOSEDBLANK
 70
0
 10
0.0
 20
0.0
 30
0.0
  3
_CLOSEDBLANK
  1

  0
LWPOLYLINE
  5
87
330
84
100
AcDbEntity
  8
0
  6
BYBLOCK
 62
0
100
AcDbPolyline
 90
3
 70
1
 10
-1.0
 20
0.16439898372402537
 10
0.0
 20
0.0
 10
-1.0
 20
-0.16439898372402537
  0
ENDBLK
  5
86
330
84
100
AcDbEntity
  8
0
100
AcDbBlockEnd
  0
BLOCK
  5
A4
330
A3
100
AcDbEntity
  8
0
100
AcDbBlockBegin
  2
SPR_DN
 70
0
 10
0.0
 20
0.0
 30
0.0
  3
SPR_DN
  1

  0
CIRCLE
  5
A6
330
A3
100
AcDbEntity
  8
0
100
AcDbCircle
 10
0.0
 20
0.0
 30
0.0
 40
1.1
  0
LINE
  5
A7
330
A3
100
AcDbEntity
  8
0
100
AcDbLine
 10
-1.1
 20
0.0
 30
0.0
 11
1.1
 21
0.0
 31
0.0
  0
LINE
  5
A8
330
A3
100
AcDbEntity
  8
0
100
AcDbLine
 10
-1.0846146269015964
 20
-0.18333333333333335
 30
0.0
 11
1.0846146269015964
 21
-0.18333333333333335
 31
0.0
  0
LINE
  5
A9
330
A3
100
AcDbEntity
  8
0
100
AcDbLine
 10
-1.0370899457402698
 20
-0.3666666666666667
 30
0.0
 11
1.0370899457402698
 21
-0.3666666666666667
 31
0.0
  0
LINE
  5
AA
330
A3
100
AcDbEntity
  8
0
100
AcDbLine
 10
-0.9526279441628827
 20
-0.55
 30
0.0
 11
0.9526279441628827
 21
-0.55
 31
0.0
  0
LINE
  5
AB
330
A3
100
AcDbEntity
  8
0
100
AcDbLine
 10
-0.8198915917499229
 20
-0.7333333333333334
 30
0.0
 11
0.8198915917499229
 21
-0.7333333333333334
 31
0.0
  0
LINE
  5
AC
330
A3
100
AcDbEntity
  8
0
100
AcDbLine
 10
-0.6080478782318235
 20
-0.9166666666666666
 30
0.0
 11
0.6080478782318235
 21
-0.9166666666666666
 31
0.0
  0
ENDBLK
  5
A5
330
A3
100
AcDbEntity
  8
0
100
AcDbBlockEnd
  0
BLOCK
  5
AE
330
AD
100
AcDbEntity
  8
0
100
AcDbBlockBegin
  2
SPR_UP
 70
0
 10
0.0
 20
0.0
 30
0.0
  3
SPR_UP
  1

  0
CIRCLE
  5
B0
330
AD
100
AcDbEntity
  8
0
100
AcDbCircle
 10
0.0
 20
0.0
 30
0.0
 40
1.1
  0
LINE
  5
B1
330
AD
100
AcDbEntity
  8
0
100
AcDbLine
 10
-1.1
 20
0.0
 30
0.0
 11
1.1
 21
0.0
 31
0.0
  0
LINE
  5
B2
330
AD
100
AcDbEntity
  8
0
100
AcDbLine
 10
-1.0846146269015964
 20
0.18333333333333335
 30
0.0
 11
1.0846146269015964
 21
0.18333333333333335
 31
0.0
  0
LINE
  5
B3
330
AD
100
AcDbEntity
  8
0
100
AcDbLine
 10
-1.0370899457402698
 20
0.3666666666666667
 30
0.0
 11
1.0370899457402698
 21
0.3666666666666667
 31
0.0
  0
LINE
  5
B4
330
AD
100
AcDbEntity
  8
0
100
AcDbLine
 10
-0.9526279441628827
 20
0.55
 30
0.0
 11
0.9526279441628827
 21
0.55
 31
0.0
  0
LINE
  5
B5
330
AD
100
AcDbEntity
  8
0
100
AcDbLine
 10
-0.8198915917499229
 20
0.7333333333333334
 30
0.0
 11
0.8198915917499229
 21
0.7333333333333334
 31
0.0
  0
LINE
  5
B6
330
AD
100
AcDbEntity
  8
0
100
AcDbLine
 10
-0.6080478782318235
 20
0.9166666666666666
 30
0.0
 11
0.6080478782318235
 21
0.9166666666666666
 31
0.0
  0
ENDBLK
  5
AF
330
AD
100
AcDbEntity
  8
0
100
AcDbBlockEnd
  0
BLOCK
  5
B8
330
B7
100
AcDbEntity
  8
0
100
AcDbBlockBegin
  2
SPR_EXIST
 70
0
 10
0.0
 20
0.0
 30
0.0
  3
SPR_EXIST
  1

  0
CIRCLE
  5
BA
330
B7
100
AcDbEntity
  8
0
100
AcDbCircle
 10
0.0
 20
0.0
 30
0.0
 40
1.1
  0
ENDBLK
  5
B9
330
B7
100
AcDbEntity
  8
0
100
AcDbBlockEnd
  0
BLOCK
  5
BC
330
BB
100
AcDbEntity
  8
0
100
AcDbBlockBegin
  2
PK2
 70
0
 10
0.0
 20
0.0
 30
0.0
  3
PK2
  1

  0
LWPOLYLINE
  5
BE
330
BB
100
AcDbEntity
  8
0
100
AcDbPolyline
 90
4
 70
1
 10
-4.0
 20
0.0
 10
4.0
 20
0.0
 10
4.0
 20
2.6
 10
-4.0
 20
2.6
  0
CIRCLE
  5
BF
330
BB
100
AcDbEntity
  8
0
100
AcDbCircle
 10
-1.8
 20
1.3
 30
0.0
 40
0.8
  0
HATCH
  5
C0
330
BB
100
AcDbEntity
  8
0
 62
7
100
AcDbHatch
 10
0.0
 20
0.0
 30
0.0
210
0.0
220
0.0
230
1.0
  2
SOLID
 70
1
 71
0
 91
1
 92
3
 72
1
 73
1
 93
2
 10
-2.6
 20
1.3
 42
1.0
 10
-1.0
 20
1.3
 42
0.0
 97
0
 75
1
 76
1
 98
0
  0
CIRCLE
  5
C1
330
BB
100
AcDbEntity
  8
0
100
AcDbCircle
 10
1.8
 20
1.3
 30
0.0
 40
0.8
  0
HATCH
  5
C2
330
BB
100
AcDbEntity
  8
0
 62
7
100
AcDbHatch
 10
0.0
 20
0.0
 30
0.0
210
0.0
220
0.0
230
1.0
  2
SOLID
 70
1
 71
0
 91
1
 92
3
 72
1
 73
1
 93
2
 10
1.0
 20
1.3
 42
1.0
 10
2.6
 20
1.3
 42
0.0
 97
0
 75
1
 76
1
 98
0
  0
ENDBLK
  5
BD
330
BB
100
AcDbEntity
  8
0
100
AcDbBlockEnd
  0
BLOCK
  5
C4
330
C3
100
AcDbEntity
  8
0
100
AcDbBlockBegin
  2
RISER
 70
0
 10
0.0
 20
0.0
 30
0.0
  3
RISER
  1

  0
CIRCLE
  5
C6
330
C3
100
AcDbEntity
  8
0
100
AcDbCircle
 10
0.0
 20
0.0
 30
0.0
 40
1.0
  0
CIRCLE
  5
C7
330
C3
100
AcDbEntity
  8
0
100
AcDbCircle
 10
0.0
 20
0.0
 30
0.0
 40
0.35
  0
ENDBLK
  5
C5
330
C3
100
AcDbEntity
  8
0
100
AcDbBlockEnd
  0
BLOCK
  5
C9
330
C8
100
AcDbEntity
  8
0
100
AcDbBlockBegin
  2
V_GATE
 70
0
 10
0.0
 20
0.0
 30
0.0
  3
V_GATE
  1

  0
LWPOLYLINE
  5
CB
330
C8
100
AcDbEntity
  8
0
100
AcDbPolyline
 90
4
 70
1
 10
-2.0
 20
-1.0
 10
-2.0
 20
1.0
 10
2.0
 20
-1.0
 10
2.0
 20
1.0
  0
LINE
  5
CC
330
C8
100
AcDbEntity
  8
0
100
AcDbLine
 10
0.0
 20
0.0
 30
0.0
 11
0.0
 21
2.2
 31
0.0
  0
ENDBLK
  5
CA
330
C8
100
AcDbEntity
  8
0
100
AcDbBlockEnd
  0
BLOCK
  5
CE
330
CD
100
AcDbEntity
  8
0
100
AcDbBlockBegin
  2
V_BFLY
 70
0
 10
0.0
 20
0.0
 30
0.0
  3
V_BFLY
  1

  0
LWPOLYLINE
  5
D0
330
CD
100
AcDbEntity
  8
0
100
AcDbPolyline
 90
4
 70
1
 10
-2.0
 20
-1.0
 10
-2.0
 20
1.0
 10
2.0
 20
-1.0
 10
2.0
 20
1.0
  0
CIRCLE
  5
D1
330
CD
100
AcDbEntity
  8
0
100
AcDbCircle
 10
0.0
 20
0.0
 30
0.0
 40
0.55
  0
ENDBLK
  5
CF
330
CD
100
AcDbEntity
  8
0
100
AcDbBlockEnd
  0
BLOCK
  5
D3
330
D2
100
AcDbEntity
  8
0
100
AcDbBlockBegin
  2
V_CHECK
 70
0
 10
0.0
 20
0.0
 30
0.0
  3
V_CHECK
  1

  0
LWPOLYLINE
  5
D5
330
D2
100
AcDbEntity
  8
0
100
AcDbPolyline
 90
4
 70
1
 10
-2.0
 20
-1.0
 10
-2.0
 20
1.0
 10
2.0
 20
-1.0
 10
2.0
 20
1.0
  0
HATCH
  5
D6
330
D2
100
AcDbEntity
  8
0
 62
7
100
AcDbHatch
 10
0.0
 20
0.0
 30
0.0
210
0.0
220
0.0
230
1.0
  2
SOLID
 70
1
 71
0
 91
1
 92
3
 72
0
 73
1
 93
3
 10
0.0
 20
0.0
 10
2.0
 20
1.0
 10
2.0
 20
-1.0
 97
0
 75
1
 76
1
 98
0
  0
ENDBLK
  5
D4
330
D2
100
AcDbEntity
  8
0
100
AcDbBlockEnd
  0
BLOCK
  5
D8
330
D7
100
AcDbEntity
  8
0
100
AcDbBlockBegin
  2
V_BALL
 70
0
 10
0.0
 20
0.0
 30
0.0
  3
V_BALL
  1

  0
LWPOLYLINE
  5
DA
330
D7
100
AcDbEntity
  8
0
100
AcDbPolyline
 90
4
 70
1
 10
-2.0
 20
-1.0
 10
-2.0
 20
1.0
 10
2.0
 20
-1.0
 10
2.0
 20
1.0
  0
HATCH
  5
DB
330
D7
100
AcDbEntity
  8
0
 62
7
100
AcDbHatch
 10
0.0
 20
0.0
 30
0.0
210
0.0
220
0.0
230
1.0
  2
SOLID
 70
1
 71
0
 91
1
 92
3
 72
1
 73
1
 93
2
 10
0.5
 20
0.0
 42
1.0
 10
-0.5
 20
0.0
 42
1.0
 97
0
 75
1
 76
1
 98
0
  0
ENDBLK
  5
D9
330
D7
100
AcDbEntity
  8
0
100
AcDbBlockEnd
  0
BLOCK
  5
DD
330
DC
100
AcDbEntity
  8
0
100
AcDbBlockBegin
  2
V_GLOBE
 70
0
 10
0.0
 20
0.0
 30
0.0
  3
V_GLOBE
  1

  0
LWPOLYLINE
  5
DF
330
DC
100
AcDbEntity
  8
0
100
AcDbPolyline
 90
4
 70
1
 10
-2.0
 20
-1.0
 10
-2.0
 20
1.0
 10
2.0
 20
-1.0
 10
2.0
 20
1.0
  0
CIRCLE
  5
E0
330
DC
100
AcDbEntity
  8
0
100
AcDbCircle
 10
0.0
 20
0.0
 30
0.0
 40
0.35
  0
ENDBLK
  5
DE
330
DC
100
AcDbEntity
  8
0
100
AcDbBlockEnd
  0
BLOCK
  5
E2
330
E1
100
AcDbEntity
  8
0
100
AcDbBlockBegin
  2
V_MOTOR
 70
0
 10
0.0
 20
0.0
 30
0.0
  3
V_MOTOR
  1

  0
LWPOLYLINE
  5
E4
330
E1
100
AcDbEntity
  8
0
100
AcDbPolyline
 90
4
 70
1
 10
-2.0
 20
-1.0
 10
-2.0
 20
1.0
 10
2.0
 20
-1.0
 10
2.0
 20
1.0
  0
LINE
  5
E5
330
E1
100
AcDbEntity
  8
0
100
AcDbLine
 10
0.0
 20
0.0
 30
0.0
 11
0.0
 21
1.8
 31
0.0
  0
CIRCLE
  5
E6
330
E1
100
AcDbEntity
  8
0
100
AcDbCircle
 10
0.0
 20
2.6
 30
0.0
 40
0.8
  0
TEXT
  5
E7
330
E1
100
AcDbEntity
  8
0
100
AcDbText
 10
0.0
 20
2.6
 30
0.0
 40
0.9
  1
М
  7
ПТ
 72
1
 11
0.0
 21
2.6
 31
0.0
100
AcDbText
 73
2
  0
ENDBLK
  5
E3
330
E1
100
AcDbEntity
  8
0
100
AcDbBlockEnd
  0
BLOCK
  5
E9
330
E8
100
AcDbEntity
  8
0
100
AcDbBlockBegin
  2
MANOM
 70
0
 10
0.0
 20
0.0
 30
0.0
  3
MANOM
  1

  0
LINE
  5
EB
330
E8
100
AcDbEntity
  8
0
100
AcDbLine
 10
0.0
 20
0.0
 30
0.0
 11
0.0
 21
2.0
 31
0.0
  0
CIRCLE
  5
EC
330
E8
100
AcDbEntity
  8
0
100
AcDbCircle
 10
0.0
 20
3.0
 30
0.0
 40
1.0
  0
LINE
  5
ED
330
E8
100
AcDbEntity
  8
0
100
AcDbLine
 10
-0.5
 20
2.5
 30
0.0
 11
0.6
 21
3.6
 31
0.0
  0
ENDBLK
  5
EA
330
E8
100
AcDbEntity
  8
0
100
AcDbBlockEnd
  0
BLOCK
  5
EF
330
EE
100
AcDbEntity
  8
0
100
AcDbBlockBegin
  2
PSW
 70
0
 10
0.0
 20
0.0
 30
0.0
  3
PSW
  1

  0
LINE
  5
F1
330
EE
100
AcDbEntity
  8
0
100
AcDbLine
 10
0.0
 20
0.0
 30
0.0
 11
0.0
 21
1.6
 31
0.0
  0
LWPOLYLINE
  5
F2
330
EE
100
AcDbEntity
  8
0
100
AcDbPolyline
 90
4
 70
1
 10
-1.0
 20
1.6
 10
1.0
 20
1.6
 10
1.0
 20
3.6
 10
-1.0
 20
3.6
  0
TEXT
  5
F3
330
EE
100
AcDbEntity
  8
0
100
AcDbText
 10
0.0
 20
2.6
 30
0.0
 40
1.2
  1
Р
  7
ПТ
 72
1
 11
0.0
 21
2.6
 31
0.0
100
AcDbText
 73
2
  0
ENDBLK
  5
F0
330
EE
100
AcDbEntity
  8
0
100
AcDbBlockEnd
  0
BLOCK
  5
F5
330
F4
100
AcDbEntity
  8
0
100
AcDbBlockBegin
  2
FSW
 70
0
 10
0.0
 20
0.0
 30
0.0
  3
FSW
  1

  0
LINE
  5
F7
330
F4
100
AcDbEntity
  8
0
100
AcDbLine
 10
0.0
 20
0.0
 30
0.0
 11
0.0
 21
1.6
 31
0.0
  0
LWPOLYLINE
  5
F8
330
F4
100
AcDbEntity
  8
0
100
AcDbPolyline
 90
4
 70
1
 10
-1.0
 20
1.6
 10
1.0
 20
1.6
 10
1.0
 20
3.6
 10
-1.0
 20
3.6
  0
TEXT
  5
F9
330
F4
100
AcDbEntity
  8
0
100
AcDbText
 10
0.0
 20
2.6
 30
0.0
 40
1.2
  1
F
  7
ПТ
 72
1
 11
0.0
 21
2.6
 31
0.0
100
AcDbText
 73
2
  0
ENDBLK
  5
F6
330
F4
100
AcDbEntity
  8
0
100
AcDbBlockEnd
  0
BLOCK
  5
FB
330
FA
100
AcDbEntity
  8
0
100
AcDbBlockBegin
  2
PUMP
 70
0
 10
0.0
 20
0.0
 30
0.0
  3
PUMP
  1

  0
CIRCLE
  5
FD
330
FA
100
AcDbEntity
  8
0
100
AcDbCircle
 10
0.0
 20
0.0
 30
0.0
 40
3.0
  0
LWPOLYLINE
  5
FE
330
FA
100
AcDbEntity
  8
0
100
AcDbPolyline
 90
3
 70
0
 10
-2.1
 20
-2.1
 10
3.0
 20
0.0
 10
-2.1
 20
2.1
  0
ENDBLK
  5
FC
330
FA
100
AcDbEntity
  8
0
100
AcDbBlockEnd
  0
BLOCK
  5
100
330
FF
100
AcDbEntity
  8
0
100
AcDbBlockBegin
  2
TANK
 70
0
 10
0.0
 20
0.0
 30
0.0
  3
TANK
  1

  0
LWPOLYLINE
  5
102
330
FF
100
AcDbEntity
  8
0
100
AcDbPolyline
 90
4
 70
1
 10
-2.0
 20
-4.0
 10
2.0
 20
-4.0
 10
2.0
 20
2.0
 10
-2.0
 20
2.0
  0
ARC
  5
103
330
FF
100
AcDbEntity
  8
0
100
AcDbCircle
 10
0.0
 20
2.0
 30
0.0
 40
2.0
100
AcDbArc
 50
0.0
 51
180.0
  0
LINE
  5
104
330
FF
100
AcDbEntity
  8
0
100
AcDbLine
 10
-2.0
 20
-1.0
 30
0.0
 11
2.0
 21
-1.0
 31
0.0
  0
ENDBLK
  5
101
330
FF
100
AcDbEntity
  8
0
100
AcDbBlockEnd
  0
BLOCK
  5
106
330
105
100
AcDbEntity
  8
0
100
AcDbBlockBegin
  2
UU
 70
0
 10
0.0
 20
0.0
 30
0.0
  3
UU
  1

  0
CIRCLE
  5
108
330
105
100
AcDbEntity
  8
0
100
AcDbCircle
 10
0.0
 20
0.0
 30
0.0
 40
2.5
  0
TEXT
  5
109
330
105
100
AcDbEntity
  8
0
100
AcDbText
 10
0.0
 20
0.0
 30
0.0
 40
1.6
  1
УУ
  7
ПТ
 72
1
 11
0.0
 21
0.0
 31
0.0
100
AcDbText
 73
2
  0
ENDBLK
  5
107
330
105
100
AcDbEntity
  8
0
100
AcDbBlockEnd
  0
BLOCK
  5
10B
330
10A
100
AcDbEntity
  8
0
100
AcDbBlockBegin
  2
GM80
 70
0
 10
0.0
 20
0.0
 30
0.0
  3
GM80
  1

  0
LWPOLYLINE
  5
10D
330
10A
100
AcDbEntity
  8
0
100
AcDbPolyline
 90
2
 70
0
 10
0.0
 20
-1.5
 10
0.0
 20
1.5
  0
ARC
  5
10E
330
10A
100
AcDbEntity
  8
0
100
AcDbCircle
 10
0.0
 20
0.0
 30
0.0
 40
1.5
100
AcDbArc
 50
-90.0
 51
90.0
  0
ENDBLK
  5
10C
330
10A
100
AcDbEntity
  8
0
100
AcDbBlockEnd
  0
BLOCK
  5
110
330
10F
100
AcDbEntity
  8
0
100
AcDbBlockBegin
  2
DRAIN
 70
0
 10
0.0
 20
0.0
 30
0.0
  3
DRAIN
  1

  0
CIRCLE
  5
112
330
10F
100
AcDbEntity
  8
0
100
AcDbCircle
 10
0.0
 20
0.0
 30
0.0
 40
1.5
  0
LINE
  5
113
330
10F
100
AcDbEntity
  8
0
100
AcDbLine
 10
-1.06
 20
-1.06
 30
0.0
 11
1.06
 21
1.06
 31
0.0
  0
LINE
  5
114
330
10F
100
AcDbEntity
  8
0
100
AcDbLine
 10
-1.06
 20
1.06
 30
0.0
 11
1.06
 21
-1.06
 31
0.0
  0
ENDBLK
  5
111
330
10F
100
AcDbEntity
  8
0
100
AcDbBlockEnd
  0
BLOCK
  5
116
330
115
100
AcDbEntity
  8
0
100
AcDbBlockBegin
  2
ELEV
 70
0
 10
0.0
 20
0.0
 30
0.0
  3
ELEV
  1

  0
LWPOLYLINE
  5
118
330
115
100
AcDbEntity
  8
0
100
AcDbPolyline
 90
3
 70
1
 10
0.0
 20
0.0
 10
-1.2
 20
1.6
 10
1.2
 20
1.6
  0
LINE
  5
119
330
115
100
AcDbEntity
  8
0
100
AcDbLine
 10
0.0
 20
1.6
 30
0.0
 11
9.0
 21
1.6
 31
0.0
  0
ENDBLK
  5
117
330
115
100
AcDbEntity
  8
0
100
AcDbBlockEnd
  0
BLOCK
  5
11B
330
11A
100
AcDbEntity
  8
0
100
AcDbBlockBegin
  2
ARROW
 70
0
 10
0.0
 20
0.0
 30
0.0
  3
ARROW
  1

  0
HATCH
  5
11D
330
11A
100
AcDbEntity
  8
0
 62
7
100
AcDbHatch
 10
0.0
 20
0.0
 30
0.0
210
0.0
220
0.0
230
1.0
  2
SOLID
 70
1
 71
0
 91
1
 92
3
 72
0
 73
1
 93
3
 10
0.0
 20
0.0
 10
-2.5
 20
0.6
 10
-2.5
 20
-0.6
 97
0
 75
1
 76
1
 98
0
  0
ENDBLK
  5
11C
330
11A
100
AcDbEntity
  8
0
100
AcDbBlockEnd
  0
BLOCK
  5
11F
330
11E
100
AcDbEntity
  8
0
100
AcDbBlockBegin
  2
MODULE
 70
0
 10
0.0
 20
0.0
 30
0.0
  3
MODULE
  1

  0
CIRCLE
  5
121
330
11E
100
AcDbEntity
  8
0
100
AcDbCircle
 10
0.0
 20
0.0
 30
0.0
 40
1.6
  0
HATCH
  5
122
330
11E
100
AcDbEntity
  8
0
 62
7
100
AcDbHatch
 10
0.0
 20
0.0
 30
0.0
210
0.0
220
0.0
230
1.0
  2
SOLID
 70
1
 71
0
 91
1
 92
3
 72
1
 73
1
 93
2
 10
0.0
 20
1.6
 42
1.0
 10
0.0
 20
-1.6
 42
0.0
 97
0
 75
1
 76
1
 98
0
  0
ENDBLK
  5
120
330
11E
100
AcDbEntity
  8
0
100
AcDbBlockEnd
  0
BLOCK
  5
124
330
123
100
AcDbEntity
  8
0
100
AcDbBlockBegin
  2
DETS
 70
0
 10
0.0
 20
0.0
 30
0.0
  3
DETS
  1

  0
CIRCLE
  5
126
330
123
100
AcDbEntity
  8
0
100
AcDbCircle
 10
0.0
 20
0.0
 30
0.0
 40
1.3
  0
LINE
  5
127
330
123
100
AcDbEntity
  8
0
100
AcDbLine
 10
-0.9
 20
-0.9
 30
0.0
 11
0.9
 21
0.9
 31
0.0
  0
ENDBLK
  5
125
330
123
100
AcDbEntity
  8
0
100
AcDbBlockEnd
  0
BLOCK
  5
129
330
128
100
AcDbEntity
  8
0
100
AcDbBlockBegin
  2
BTN
 70
0
 10
0.0
 20
0.0
 30
0.0
  3
BTN
  1

  0
LWPOLYLINE
  5
12B
330
128
100
AcDbEntity
  8
0
100
AcDbPolyline
 90
4
 70
1
 10
-1.3
 20
-1.3
 10
1.3
 20
-1.3
 10
1.3
 20
1.3
 10
-1.3
 20
1.3
  0
CIRCLE
  5
12C
330
128
100
AcDbEntity
  8
0
100
AcDbCircle
 10
0.0
 20
0.0
 30
0.0
 40
0.7
  0
ENDBLK
  5
12A
330
128
100
AcDbEntity
  8
0
100
AcDbBlockEnd
  0
BLOCK
  5
12E
330
12D
100
AcDbEntity
  8
0
100
AcDbBlockBegin
  2
SIGN
 70
0
 10
0.0
 20
0.0
 30
0.0
  3
SIGN
  1

  0
LWPOLYLINE
  5
130
330
12D
100
AcDbEntity
  8
0
100
AcDbPolyline
 90
4
 70
1
 10
-2.2
 20
-1.0
 10
2.2
 20
-1.0
 10
2.2
 20
1.0
 10
-2.2
 20
1.0
  0
LINE
  5
131
330
12D
100
AcDbEntity
  8
0
100
AcDbLine
 10
-2.2
 20
-1.0
 30
0.0
 11
2.2
 21
1.0
 31
0.0
  0
LINE
  5
132
330
12D
100
AcDbEntity
  8
0
100
AcDbLine
 10
-2.2
 20
1.0
 30
0.0
 11
2.2
 21
-1.0
 31
0.0
  0
ENDBLK
  5
12F
330
12D
100
AcDbEntity
  8
0
100
AcDbBlockEnd
  0
BLOCK
  5
134
330
133
100
AcDbEntity
  8
0
100
AcDbBlockBegin
  2
SIREN
 70
0
 10
0.0
 20
0.0
 30
0.0
  3
SIREN
  1

  0
LWPOLYLINE
  5
136
330
133
100
AcDbEntity
  8
0
100
AcDbPolyline
 90
6
 70
1
 10
-1.2
 20
-1.0
 10
0.0
 20
-1.0
 10
1.4
 20
-2.0
 10
1.4
 20
2.0
 10
0.0
 20
1.0
 10
-1.2
 20
1.0
  0
ENDBLK
  5
135
330
133
100
AcDbEntity
  8
0
100
AcDbBlockEnd
  0
BLOCK
  5
138
330
137
100
AcDbEntity
  8
0
100
AcDbBlockBegin
  2
DOORC
 70
0
 10
0.0
 20
0.0
 30
0.0
  3
DOORC
  1

  0
LWPOLYLINE
  5
13A
330
137
100
AcDbEntity
  8
0
100
AcDbPolyline
 90
4
 70
1
 10
-1.2
 20
-0.8
 10
1.2
 20
-0.8
 10
1.2
 20
0.8
 10
-1.2
 20
0.8
  0
LINE
  5
13B
330
137
100
AcDbEntity
  8
0
100
AcDbLine
 10
-1.2
 20
-0.8
 30
0.0
 11
1.2
 21
0.8
 31
0.0
  0
ENDBLK
  5
139
330
137
100
AcDbEntity
  8
0
100
AcDbBlockEnd
  0
ENDSEC
  0
SECTION
  2
ENTITIES
  0
LWPOLYLINE
  5
13D
330
17
100
AcDbEntity
  8
ПТ_рамка_тонк
370
13
100
AcDbPolyline
 90
4
 70
1
 10
0.0
 20
0.0
 10
841.0
 20
0.0
 10
841.0
 20
594.0
 10
0.0
 20
594.0
  0
LWPOLYLINE
  5
13E
330
17
100
AcDbEntity
  8
ПТ_рамка
370
70
100
AcDbPolyline
 90
4
 70
1
 10
20.0
 20
5.0
 10
836.0
 20
5.0
 10
836.0
 20
589.0
 10
20.0
 20
589.0
  0
LWPOLYLINE
  5
13F
330
17
100
AcDbEntity
  8
ПТ_рамка
370
70
100
AcDbPolyline
 90
4
 70
1
 10
651.0
 20
5.0
 10
836.0
 20
5.0
 10
836.0
 20
60.0
 10
651.0
 20
60.0
  0
LINE
  5
140
330
17
100
AcDbEntity
  8
ПТ_рамка
370
18
100
AcDbLine
 10
651.0
 20
10.0
 30
0.0
 11
716.0
 21
10.0
 31
0.0
  0
LINE
  5
141
330
17
100
AcDbEntity
  8
ПТ_рамка
370
18
100
AcDbLine
 10
651.0
 20
15.0
 30
0.0
 11
716.0
 21
15.0
 31
0.0
  0
LINE
  5
142
330
17
100
AcDbEntity
  8
ПТ_рамка
370
18
100
AcDbLine
 10
651.0
 20
20.0
 30
0.0
 11
716.0
 21
20.0
 31
0.0
  0
LINE
  5
143
330
17
100
AcDbEntity
  8
ПТ_рамка
370
18
100
AcDbLine
 10
651.0
 20
25.0
 30
0.0
 11
716.0
 21
25.0
 31
0.0
  0
LINE
  5
144
330
17
100
AcDbEntity
  8
ПТ_рамка
370
50
100
AcDbLine
 10
651.0
 20
30.0
 30
0.0
 11
716.0
 21
30.0
 31
0.0
  0
LINE
  5
145
330
17
100
AcDbEntity
  8
ПТ_рамка
370
50
100
AcDbLine
 10
651.0
 20
35.0
 30
0.0
 11
716.0
 21
35.0
 31
0.0
  0
LINE
  5
146
330
17
100
AcDbEntity
  8
ПТ_рамка
370
18
100
AcDbLine
 10
651.0
 20
40.0
 30
0.0
 11
716.0
 21
40.0
 31
0.0
  0
LINE
  5
147
330
17
100
AcDbEntity
  8
ПТ_рамка
370
18
100
AcDbLine
 10
651.0
 20
45.0
 30
0.0
 11
716.0
 21
45.0
 31
0.0
  0
LINE
  5
148
330
17
100
AcDbEntity
  8
ПТ_рамка
370
18
100
AcDbLine
 10
651.0
 20
50.0
 30
0.0
 11
716.0
 21
50.0
 31
0.0
  0
LINE
  5
149
330
17
100
AcDbEntity
  8
ПТ_рамка
370
18
100
AcDbLine
 10
651.0
 20
55.0
 30
0.0
 11
716.0
 21
55.0
 31
0.0
  0
LINE
  5
14A
330
17
100
AcDbEntity
  8
ПТ_рамка
370
50
100
AcDbLine
 10
661.0
 20
30.0
 30
0.0
 11
661.0
 21
60.0
 31
0.0
  0
LINE
  5
14B
330
17
100
AcDbEntity
  8
ПТ_рамка
370
50
100
AcDbLine
 10
671.0
 20
30.0
 30
0.0
 11
671.0
 21
60.0
 31
0.0
  0
LINE
  5
14C
330
17
100
AcDbEntity
  8
ПТ_рамка
370
50
100
AcDbLine
 10
681.0
 20
30.0
 30
0.0
 11
681.0
 21
60.0
 31
0.0
  0
LINE
  5
14D
330
17
100
AcDbEntity
  8
ПТ_рамка
370
50
100
AcDbLine
 10
691.0
 20
30.0
 30
0.0
 11
691.0
 21
60.0
 31
0.0
  0
LINE
  5
14E
330
17
100
AcDbEntity
  8
ПТ_рамка
370
50
100
AcDbLine
 10
706.0
 20
30.0
 30
0.0
 11
706.0
 21
60.0
 31
0.0
  0
LINE
  5
14F
330
17
100
AcDbEntity
  8
ПТ_рамка
370
50
100
AcDbLine
 10
671.0
 20
5.0
 30
0.0
 11
671.0
 21
30.0
 31
0.0
  0
LINE
  5
150
330
17
100
AcDbEntity
  8
ПТ_рамка
370
50
100
AcDbLine
 10
691.0
 20
5.0
 30
0.0
 11
691.0
 21
30.0
 31
0.0
  0
LINE
  5
151
330
17
100
AcDbEntity
  8
ПТ_рамка
370
50
100
AcDbLine
 10
706.0
 20
5.0
 30
0.0
 11
706.0
 21
30.0
 31
0.0
  0
LINE
  5
152
330
17
100
AcDbEntity
  8
ПТ_рамка
370
70
100
AcDbLine
 10
716.0
 20
5.0
 30
0.0
 11
716.0
 21
60.0
 31
0.0
  0
TEXT
  5
153
330
17
100
AcDbEntity
  8
ПТ_текст
100
AcDbText
 10
656.0
 20
32.5
 30
0.0
 40
1.8
  1
Изм.
  7
ПТ
 72
1
 11
656.0
 21
32.5
 31
0.0
100
AcDbText
 73
2
  0
TEXT
  5
154
330
17
100
AcDbEntity
  8
ПТ_текст
100
AcDbText
 10
666.0
 20
32.5
 30
0.0
 40
1.8
  1
Кол.уч
  7
ПТ
 72
1
 11
666.0
 21
32.5
 31
0.0
100
AcDbText
 73
2
  0
TEXT
  5
155
330
17
100
AcDbEntity
  8
ПТ_текст
100
AcDbText
 10
676.0
 20
32.5
 30
0.0
 40
1.8
  1
Лист
  7
ПТ
 72
1
 11
676.0
 21
32.5
 31
0.0
100
AcDbText
 73
2
  0
TEXT
  5
156
330
17
100
AcDbEntity
  8
ПТ_текст
100
AcDbText
 10
686.0
 20
32.5
 30
0.0
 40
1.8
  1
№ док.
  7
ПТ
 72
1
 11
686.0
 21
32.5
 31
0.0
100
AcDbText
 73
2
  0
TEXT
  5
157
330
17
100
AcDbEntity
  8
ПТ_текст
100
AcDbText
 10
698.5
 20
32.5
 30
0.0
 40
1.8
  1
Подп.
  7
ПТ
 72
1
 11
698.5
 21
32.5
 31
0.0
100
AcDbText
 73
2
  0
TEXT
  5
158
330
17
100
AcDbEntity
  8
ПТ_текст
100
AcDbText
 10
711.0
 20
32.5
 30
0.0
 40
1.8
  1
Дата
  7
ПТ
 72
1
 11
711.0
 21
32.5
 31
0.0
100
AcDbText
 73
2
  0
TEXT
  5
159
330
17
100
AcDbEntity
  8
ПТ_текст
100
AcDbText
 10
652.0
 20
27.5
 30
0.0
 40
1.8
  1
Разраб.
  7
ПТ
 11
652.0
 21
27.5
 31
0.0
100
AcDbText
 73
2
  0
TEXT
  5
15A
330
17
100
AcDbEntity
  8
ПТ_текст
100
AcDbText
 10
652.0
 20
22.5
 30
0.0
 40
1.8
  1
Пров.
  7
ПТ
 11
652.0
 21
22.5
 31
0.0
100
AcDbText
 73
2
  0
TEXT
  5
15B
330
17
100
AcDbEntity
  8
ПТ_текст
100
AcDbText
 10
652.0
 20
17.5
 30
0.0
 40
1.8
  1

  7
ПТ
 11
652.0
 21
17.5
 31
0.0
100
AcDbText
 73
2
  0
TEXT
  5
15C
330
17
100
AcDbEntity
  8
ПТ_текст
100
AcDbText
 10
652.0
 20
12.5
 30
0.0
 40
1.8
  1
Н.контр.
  7
ПТ
 11
652.0
 21
12.5
 31
0.0
100
AcDbText
 73
2
  0
TEXT
  5
15D
330
17
100
AcDbEntity
  8
ПТ_текст
100
AcDbText
 10
652.0
 20
7.5
 30
0.0
 40
1.8
  1
ГИП
  7
ПТ
 11
652.0
 21
7.5
 31
0.0
100
AcDbText
 73
2
  0
LINE
  5
15E
330
17
100
AcDbEntity
  8
ПТ_рамка
370
70
100
AcDbLine
 10
716.0
 20
45.0
 30
0.0
 11
836.0
 21
45.0
 31
0.0
  0
LINE
  5
15F
330
17
100
AcDbEntity
  8
ПТ_рамка
370
50
100
AcDbLine
 10
716.0
 20
35.0
 30
0.0
 11
836.0
 21
35.0
 31
0.0
  0
LINE
  5
160
330
17
100
AcDbEntity
  8
ПТ_рамка
370
70
100
AcDbLine
 10
716.0
 20
20.0
 30
0.0
 11
836.0
 21
20.0
 31
0.0
  0
LINE
  5
161
330
17
100
AcDbEntity
  8
ПТ_рамка
370
70
100
AcDbLine
 10
786.0
 20
5.0
 30
0.0
 11
786.0
 21
35.0
 31
0.0
  0
LINE
  5
162
330
17
100
AcDbEntity
  8
ПТ_рамка
370
50
100
AcDbLine
 10
786.0
 20
30.0
 30
0.0
 11
836.0
 21
30.0
 31
0.0
  0
LINE
  5
163
330
17
100
AcDbEntity
  8
ПТ_рамка
370
50
100
AcDbLine
 10
801.0
 20
20.0
 30
0.0
 11
801.0
 21
35.0
 31
0.0
  0
LINE
  5
164
330
17
100
AcDbEntity
  8
ПТ_рамка
370
50
100
AcDbLine
 10
816.0
 20
20.0
 30
0.0
 11
816.0
 21
35.0
 31
0.0
  0
TEXT
  5
165
330
17
100
AcDbEntity
  8
ПТ_текст
100
AcDbText
 10
776.0
 20
52.5
 30
0.0
 40
5.0
  1
ОПР-01/24/2024-ДП1-ПТ
  7
ПТ_загл
 72
1
 11
776.0
 21
52.5
 31
0.0
100
AcDbText
 73
2
  0
MTEXT
  5
166
330
17
100
AcDbEntity
  8
ПТ_текст
100
AcDbMText
 10
776.0
 20
40.0
 30
0.0
 40
1.9
 41
116.0
 71
5
  1
«Современный коммерческий оптово-продовольственный рынок (ОПР) по адресу: Донецкая область, г. Макеевка, Горняцкий район»
  7
ПТ
  0
MTEXT
  5
167
330
17
100
AcDbEntity
  8
ПТ_текст
100
AcDbMText
 10
751.0
 20
27.5
 30
0.0
 40
2.5
 41
66.0
 71
5
  1
Док-павильон №23, №23.2 Рыба-Мясо. Пожаротушение (ВПВ, АУПТ, АУПП ВРУ)
  7
ПТ
  0
TEXT
  5
168
330
17
100
AcDbEntity
  8
ПТ_текст
100
AcDbText
 10
793.5
 20
32.5
 30
0.0
 40
1.8
  1
Стадия
  7
ПТ
 72
1
 11
793.5
 21
32.5
 31
0.0
100
AcDbText
 73
2
  0
TEXT
  5
169
330
17
100
AcDbEntity
  8
ПТ_текст
100
AcDbText
 10
808.5
 20
32.5
 30
0.0
 40
1.8
  1
Лист
  7
ПТ
 72
1
 11
808.5
 21
32.5
 31
0.0
100
AcDbText
 73
2
  0
TEXT
  5
16A
330
17
100
AcDbEntity
  8
ПТ_текст
100
AcDbText
 10
826.0
 20
32.5
 30
0.0
 40
1.8
  1
Листов
  7
ПТ
 72
1
 11
826.0
 21
32.5
 31
0.0
100
AcDbText
 73
2
  0
TEXT
  5
16B
330
17
100
AcDbEntity
  8
ПТ_текст
100
AcDbText
 10
793.5
 20
25.0
 30
0.0
 40
3.5
  1
Р
  7
ПТ
 72
1
 11
793.5
 21
25.0
 31
0.0
100
AcDbText
 73
2
  0
TEXT
  5
16C
330
17
100
AcDbEntity
  8
ПТ_текст
100
AcDbText
 10
808.5
 20
25.0
 30
0.0
 40
3.5
  1
1
  7
ПТ
 72
1
 11
808.5
 21
25.0
 31
0.0
100
AcDbText
 73
2
  0
TEXT
  5
16D
330
17
100
AcDbEntity
  8
ПТ_текст
100
AcDbText
 10
826.0
 20
25.0
 30
0.0
 40
3.5
  1
1
  7
ПТ
 72
1
 11
826.0
 21
25.0
 31
0.0
100
AcDbText
 73
2
  0
MTEXT
  5
16E
330
17
100
AcDbEntity
  8
ПТ_текст
100
AcDbMText
 10
751.0
 20
12.5
 30
0.0
 40
2.5
 41
66.0
 71
5
  1
Насосная станция пожаротушения. Решения для согласования
  7
ПТ
  0
TEXT
  5
16F
330
17
100
AcDbEntity
  8
ПТ_текст
100
AcDbText
 10
811.0
 20
12.5
 30
0.0
 40
3.5
  1
ООО «Технология»
  7
ПТ
 72
1
 11
811.0
 21
12.5
 31
0.0
100
AcDbText
 73
2
  0
LWPOLYLINE
  5
170
330
17
100
AcDbEntity
  8
ПТ_рамка
370
50
100
AcDbPolyline
 90
4
 70
1
 10
8.0
 20
5.0
 10
20.0
 20
5.0
 10
20.0
 20
30.0
 10
8.0
 20
30.0
  0
LINE
  5
171
330
17
100
AcDbEntity
  8
ПТ_рамка
370
50
100
AcDbLine
 10
13.0
 20
5.0
 30
0.0
 11
13.0
 21
30.0
 31
0.0
  0
TEXT
  5
172
330
17
100
AcDbEntity
  8
ПТ_текст
100
AcDbText
 10
10.5
 20
17.5
 30
0.0
 40
1.8
  1
Инв. № подл.
 50
90.0
  7
ПТ
 72
1
 11
10.5
 21
17.5
 31
0.0
100
AcDbText
 73
2
  0
LWPOLYLINE
  5
173
330
17
100
AcDbEntity
  8
ПТ_рамка
370
50
100
AcDbPolyline
 90
4
 70
1
 10
8.0
 20
30.0
 10
20.0
 20
30.0
 10
20.0
 20
65.0
 10
8.0
 20
65.0
  0
LINE
  5
174
330
17
100
AcDbEntity
  8
ПТ_рамка
370
50
100
AcDbLine
 10
13.0
 20
30.0
 30
0.0
 11
13.0
 21
65.0
 31
0.0
  0
TEXT
  5
175
330
17
100
AcDbEntity
  8
ПТ_текст
100
AcDbText
 10
10.5
 20
47.5
 30
0.0
 40
1.8
  1
Подп. и дата
 50
90.0
  7
ПТ
 72
1
 11
10.5
 21
47.5
 31
0.0
100
AcDbText
 73
2
  0
LWPOLYLINE
  5
176
330
17
100
AcDbEntity
  8
ПТ_рамка
370
50
100
AcDbPolyline
 90
4
 70
1
 10
8.0
 20
65.0
 10
20.0
 20
65.0
 10
20.0
 20
90.0
 10
8.0
 20
90.0
  0
LINE
  5
177
330
17
100
AcDbEntity
  8
ПТ_рамка
370
50
100
AcDbLine
 10
13.0
 20
65.0
 30
0.0
 11
13.0
 21
90.0
 31
0.0
  0
TEXT
  5
178
330
17
100
AcDbEntity
  8
ПТ_текст
100
AcDbText
 10
10.5
 20
77.5
 30
0.0
 40
1.8
  1
Взам. инв. №
 50
90.0
  7
ПТ
 72
1
 11
10.5
 21
77.5
 31
0.0
100
AcDbText
 73
2
  0
TEXT
  5
179
330
17
100
AcDbEntity
  8
ПТ_текст
100
AcDbText
 10
796.0
 20
1.2
 30
0.0
 40
2.5
  1
Формат A1
  7
ПТ
 11
796.0
 21
1.2
 31
0.0
100
AcDbText
 73
1
  0
TEXT
  5
17A
330
17
100
AcDbEntity
  8
ПТ_текст
100
AcDbText
 10
446.6666666666667
 20
580.0
 30
0.0
 40
3.5
  1
Схема размещения насосной станции в техническом подвале (отм. -2,200)  М 1:150
  7
ПТ_загл
 72
1
 11
446.6666666666667
 21
580.0
 31
0.0
100
AcDbText
 73
1
  0
LINE
  5
17B
330
17
100
AcDbEntity
  8
ПТ_контур
370
35
100
AcDbLine
 10
371.5916666666667
 20
578.8
 30
0.0
 11
521.7416666666667
 21
578.8
 31
0.0
  0
LWPOLYLINE
  5
17C
330
17
100
AcDbEntity
  8
ПТ_контур
  6
ПТ_ШТРИХ
370
18
100
AcDbPolyline
 90
4
 70
1
 10
119.16666666666667
 20
295.1666666666667
 10
774.1666666666666
 20
295.1666666666667
 10
774.1666666666666
 20
563.5
 10
119.16666666666667
 20
563.5
  0
TEXT
  5
17D
330
17
100
AcDbEntity
  8
ПТ_текст
100
AcDbText
 10
520.0
 20
566.6666666666667
 30
0.0
 40
1.8
  1
контур здания по 1 этажу
  7
ПТ
 11
520.0
 21
566.6666666666667
 31
0.0
100
AcDbText
 73
1
  0
LINE
  5
17E
330
17
100
AcDbEntity
  8
ПТ_оси
  6
ПТ_ШТРИХПУНКТ
370
13
100
AcDbLine
 10
120.0
 20
284.6666666666667
 30
0.0
 11
120.0
 21
570.6666666666667
 31
0.0
  0
CIRCLE
  5
17F
330
17
100
AcDbEntity
  8
ПТ_контур
370
25
100
AcDbCircle
 10
120.0
 20
281.1666666666667
 30
0.0
 40
3.5
  0
TEXT
  5
180
330
17
100
AcDbEntity
  8
ПТ_текст
100
AcDbText
 10
120.0
 20
281.1666666666667
 30
0.0
 40
2.5
  1
1
  7
ПТ
 72
1
 11
120.0
 21
281.1666666666667
 31
0.0
100
AcDbText
 73
2
  0
LINE
  5
181
330
17
100
AcDbEntity
  8
ПТ_оси
  6
ПТ_ШТРИХПУНКТ
370
13
100
AcDbLine
 10
146.66666666666666
 20
284.6666666666667
 30
0.0
 11
146.66666666666666
 21
570.6666666666667
 31
0.0
  0
CIRCLE
  5
182
330
17
100
AcDbEntity
  8
ПТ_контур
370
25
100
AcDbCircle
 10
146.66666666666666
 20
281.1666666666667
 30
0.0
 40
3.5
  0
TEXT
  5
183
330
17
100
AcDbEntity
  8
ПТ_текст
100
AcDbText
 10
146.66666666666666
 20
281.1666666666667
 30
0.0
 40
2.5
  1
2
  7
ПТ
 72
1
 11
146.66666666666666
 21
281.1666666666667
 31
0.0
100
AcDbText
 73
2
  0
LINE
  5
184
330
17
100
AcDbEntity
  8
ПТ_оси
  6
ПТ_ШТРИХПУНКТ
370
13
100
AcDbLine
 10
186.66666666666669
 20
284.6666666666667
 30
0.0
 11
186.66666666666669
 21
570.6666666666667
 31
0.0
  0
CIRCLE
  5
185
330
17
100
AcDbEntity
  8
ПТ_контур
370
25
100
AcDbCircle
 10
186.66666666666669
 20
281.1666666666667
 30
0.0
 40
3.5
  0
TEXT
  5
186
330
17
100
AcDbEntity
  8
ПТ_текст
100
AcDbText
 10
186.66666666666669
 20
281.1666666666667
 30
0.0
 40
2.5
  1
3
  7
ПТ
 72
1
 11
186.66666666666669
 21
281.1666666666667
 31
0.0
100
AcDbText
 73
2
  0
LINE
  5
187
330
17
100
AcDbEntity
  8
ПТ_оси
  6
ПТ_ШТРИХПУНКТ
370
13
100
AcDbLine
 10
226.66666666666669
 20
284.6666666666667
 30
0.0
 11
226.66666666666669
 21
570.6666666666667
 31
0.0
  0
CIRCLE
  5
188
330
17
100
AcDbEntity
  8
ПТ_контур
370
25
100
AcDbCircle
 10
226.66666666666669
 20
281.1666666666667
 30
0.0
 40
3.5
  0
TEXT
  5
189
330
17
100
AcDbEntity
  8
ПТ_текст
100
AcDbText
 10
226.66666666666669
 20
281.1666666666667
 30
0.0
 40
2.5
  1
4
  7
ПТ
 72
1
 11
226.66666666666669
 21
281.1666666666667
 31
0.0
100
AcDbText
 73
2
  0
LINE
  5
18A
330
17
100
AcDbEntity
  8
ПТ_оси
  6
ПТ_ШТРИХПУНКТ
370
13
100
AcDbLine
 10
266.66666666666663
 20
284.6666666666667
 30
0.0
 11
266.66666666666663
 21
570.6666666666667
 31
0.0
  0
CIRCLE
  5
18B
330
17
100
AcDbEntity
  8
ПТ_контур
370
25
100
AcDbCircle
 10
266.66666666666663
 20
281.1666666666667
 30
0.0
 40
3.5
  0
TEXT
  5
18C
330
17
100
AcDbEntity
  8
ПТ_текст
100
AcDbText
 10
266.66666666666663
 20
281.1666666666667
 30
0.0
 40
2.5
  1
5
  7
ПТ
 72
1
 11
266.66666666666663
 21
281.1666666666667
 31
0.0
100
AcDbText
 73
2
  0
LINE
  5
18D
330
17
100
AcDbEntity
  8
ПТ_оси
  6
ПТ_ШТРИХПУНКТ
370
13
100
AcDbLine
 10
306.66666666666663
 20
284.6666666666667
 30
0.0
 11
306.66666666666663
 21
570.6666666666667
 31
0.0
  0
CIRCLE
  5
18E
330
17
100
AcDbEntity
  8
ПТ_контур
370
25
100
AcDbCircle
 10
306.66666666666663
 20
281.1666666666667
 30
0.0
 40
3.5
  0
TEXT
  5
18F
330
17
100
AcDbEntity
  8
ПТ_текст
100
AcDbText
 10
306.66666666666663
 20
281.1666666666667
 30
0.0
 40
2.5
  1
6
  7
ПТ
 72
1
 11
306.66666666666663
 21
281.1666666666667
 31
0.0
100
AcDbText
 73
2
  0
LINE
  5
190
330
17
100
AcDbEntity
  8
ПТ_оси
  6
ПТ_ШТРИХПУНКТ
370
13
100
AcDbLine
 10
346.66666666666663
 20
284.6666666666667
 30
0.0
 11
346.66666666666663
 21
570.6666666666667
 31
0.0
  0
CIRCLE
  5
191
330
17
100
AcDbEntity
  8
ПТ_контур
370
25
100
AcDbCircle
 10
346.66666666666663
 20
281.1666666666667
 30
0.0
 40
3.5
  0
TEXT
  5
192
330
17
100
AcDbEntity
  8
ПТ_текст
100
AcDbText
 10
346.66666666666663
 20
281.1666666666667
 30
0.0
 40
2.5
  1
7
  7
ПТ
 72
1
 11
346.66666666666663
 21
281.1666666666667
 31
0.0
100
AcDbText
 73
2
  0
LINE
  5
193
330
17
100
AcDbEntity
  8
ПТ_оси
  6
ПТ_ШТРИХПУНКТ
370
13
100
AcDbLine
 10
386.6666666666667
 20
284.6666666666667
 30
0.0
 11
386.6666666666667
 21
570.6666666666667
 31
0.0
  0
CIRCLE
  5
194
330
17
100
AcDbEntity
  8
ПТ_контур
370
25
100
AcDbCircle
 10
386.6666666666667
 20
281.1666666666667
 30
0.0
 40
3.5
  0
TEXT
  5
195
330
17
100
AcDbEntity
  8
ПТ_текст
100
AcDbText
 10
386.6666666666667
 20
281.1666666666667
 30
0.0
 40
2.5
  1
8
  7
ПТ
 72
1
 11
386.6666666666667
 21
281.1666666666667
 31
0.0
100
AcDbText
 73
2
  0
LINE
  5
196
330
17
100
AcDbEntity
  8
ПТ_оси
  6
ПТ_ШТРИХПУНКТ
370
13
100
AcDbLine
 10
426.6666666666667
 20
284.6666666666667
 30
0.0
 11
426.6666666666667
 21
570.6666666666667
 31
0.0
  0
CIRCLE
  5
197
330
17
100
AcDbEntity
  8
ПТ_контур
370
25
100
AcDbCircle
 10
426.6666666666667
 20
281.1666666666667
 30
0.0
 40
3.5
  0
TEXT
  5
198
330
17
100
AcDbEntity
  8
ПТ_текст
100
AcDbText
 10
426.6666666666667
 20
281.1666666666667
 30
0.0
 40
2.5
  1
9
  7
ПТ
 72
1
 11
426.6666666666667
 21
281.1666666666667
 31
0.0
100
AcDbText
 73
2
  0
LINE
  5
199
330
17
100
AcDbEntity
  8
ПТ_оси
  6
ПТ_ШТРИХПУНКТ
370
13
100
AcDbLine
 10
466.6666666666667
 20
284.6666666666667
 30
0.0
 11
466.6666666666667
 21
570.6666666666667
 31
0.0
  0
CIRCLE
  5
19A
330
17
100
AcDbEntity
  8
ПТ_контур
370
25
100
AcDbCircle
 10
466.6666666666667
 20
281.1666666666667
 30
0.0
 40
3.5
  0
TEXT
  5
19B
330
17
100
AcDbEntity
  8
ПТ_текст
100
AcDbText
 10
466.6666666666667
 20
281.1666666666667
 30
0.0
 40
2.5
  1
10
  7
ПТ
 72
1
 11
466.6666666666667
 21
281.1666666666667
 31
0.0
100
AcDbText
 73
2
  0
LINE
  5
19C
330
17
100
AcDbEntity
  8
ПТ_оси
  6
ПТ_ШТРИХПУНКТ
370
13
100
AcDbLine
 10
506.6666666666667
 20
284.6666666666667
 30
0.0
 11
506.6666666666667
 21
570.6666666666667
 31
0.0
  0
CIRCLE
  5
19D
330
17
100
AcDbEntity
  8
ПТ_контур
370
25
100
AcDbCircle
 10
506.6666666666667
 20
281.1666666666667
 30
0.0
 40
3.5
  0
TEXT
  5
19E
330
17
100
AcDbEntity
  8
ПТ_текст
100
AcDbText
 10
506.6666666666667
 20
281.1666666666667
 30
0.0
 40
2.5
  1
11
  7
ПТ
 72
1
 11
506.6666666666667
 21
281.1666666666667
 31
0.0
100
AcDbText
 73
2
  0
LINE
  5
19F
330
17
100
AcDbEntity
  8
ПТ_оси
  6
ПТ_ШТРИХПУНКТ
370
13
100
AcDbLine
 10
546.6666666666667
 20
284.6666666666667
 30
0.0
 11
546.6666666666667
 21
570.6666666666667
 31
0.0
  0
CIRCLE
  5
1A0
330
17
100
AcDbEntity
  8
ПТ_контур
370
25
100
AcDbCircle
 10
546.6666666666667
 20
281.1666666666667
 30
0.0
 40
3.5
  0
TEXT
  5
1A1
330
17
100
AcDbEntity
  8
ПТ_текст
100
AcDbText
 10
546.6666666666667
 20
281.1666666666667
 30
0.0
 40
2.5
  1
12
  7
ПТ
 72
1
 11
546.6666666666667
 21
281.1666666666667
 31
0.0
100
AcDbText
 73
2
  0
LINE
  5
1A2
330
17
100
AcDbEntity
  8
ПТ_оси
  6
ПТ_ШТРИХПУНКТ
370
13
100
AcDbLine
 10
586.6666666666667
 20
284.6666666666667
 30
0.0
 11
586.6666666666667
 21
570.6666666666667
 31
0.0
  0
CIRCLE
  5
1A3
330
17
100
AcDbEntity
  8
ПТ_контур
370
25
100
AcDbCircle
 10
586.6666666666667
 20
281.1666666666667
 30
0.0
 40
3.5
  0
TEXT
  5
1A4
330
17
100
AcDbEntity
  8
ПТ_текст
100
AcDbText
 10
586.6666666666667
 20
281.1666666666667
 30
0.0
 40
2.5
  1
13
  7
ПТ
 72
1
 11
586.6666666666667
 21
281.1666666666667
 31
0.0
100
AcDbText
 73
2
  0
LINE
  5
1A5
330
17
100
AcDbEntity
  8
ПТ_оси
  6
ПТ_ШТРИХПУНКТ
370
13
100
AcDbLine
 10
626.6666666666667
 20
284.6666666666667
 30
0.0
 11
626.6666666666667
 21
570.6666666666667
 31
0.0
  0
CIRCLE
  5
1A6
330
17
100
AcDbEntity
  8
ПТ_контур
370
25
100
AcDbCircle
 10
626.6666666666667
 20
281.1666666666667
 30
0.0
 40
3.5
  0
TEXT
  5
1A7
330
17
100
AcDbEntity
  8
ПТ_текст
100
AcDbText
 10
626.6666666666667
 20
281.1666666666667
 30
0.0
 40
2.5
  1
14
  7
ПТ
 72
1
 11
626.6666666666667
 21
281.1666666666667
 31
0.0
100
AcDbText
 73
2
  0
LINE
  5
1A8
330
17
100
AcDbEntity
  8
ПТ_оси
  6
ПТ_ШТРИХПУНКТ
370
13
100
AcDbLine
 10
666.6666666666666
 20
284.6666666666667
 30
0.0
 11
666.6666666666666
 21
570.6666666666667
 31
0.0
  0
CIRCLE
  5
1A9
330
17
100
AcDbEntity
  8
ПТ_контур
370
25
100
AcDbCircle
 10
666.6666666666666
 20
281.1666666666667
 30
0.0
 40
3.5
  0
TEXT
  5
1AA
330
17
100
AcDbEntity
  8
ПТ_текст
100
AcDbText
 10
666.6666666666666
 20
281.1666666666667
 30
0.0
 40
2.5
  1
15
  7
ПТ
 72
1
 11
666.6666666666666
 21
281.1666666666667
 31
0.0
100
AcDbText
 73
2
  0
LINE
  5
1AB
330
17
100
AcDbEntity
  8
ПТ_оси
  6
ПТ_ШТРИХПУНКТ
370
13
100
AcDbLine
 10
706.6666666666666
 20
284.6666666666667
 30
0.0
 11
706.6666666666666
 21
570.6666666666667
 31
0.0
  0
CIRCLE
  5
1AC
330
17
100
AcDbEntity
  8
ПТ_контур
370
25
100
AcDbCircle
 10
706.6666666666666
 20
281.1666666666667
 30
0.0
 40
3.5
  0
TEXT
  5
1AD
330
17
100
AcDbEntity
  8
ПТ_текст
100
AcDbText
 10
706.6666666666666
 20
281.1666666666667
 30
0.0
 40
2.5
  1
16
  7
ПТ
 72
1
 11
706.6666666666666
 21
281.1666666666667
 31
0.0
100
AcDbText
 73
2
  0
LINE
  5
1AE
330
17
100
AcDbEntity
  8
ПТ_оси
  6
ПТ_ШТРИХПУНКТ
370
13
100
AcDbLine
 10
746.6666666666666
 20
284.6666666666667
 30
0.0
 11
746.6666666666666
 21
570.6666666666667
 31
0.0
  0
CIRCLE
  5
1AF
330
17
100
AcDbEntity
  8
ПТ_контур
370
25
100
AcDbCircle
 10
746.6666666666666
 20
281.1666666666667
 30
0.0
 40
3.5
  0
TEXT
  5
1B0
330
17
100
AcDbEntity
  8
ПТ_текст
100
AcDbText
 10
746.6666666666666
 20
281.1666666666667
 30
0.0
 40
2.5
  1
17
  7
ПТ
 72
1
 11
746.6666666666666
 21
281.1666666666667
 31
0.0
100
AcDbText
 73
2
  0
LINE
  5
1B1
330
17
100
AcDbEntity
  8
ПТ_оси
  6
ПТ_ШТРИХПУНКТ
370
13
100
AcDbLine
 10
773.3333333333334
 20
284.6666666666667
 30
0.0
 11
773.3333333333334
 21
570.6666666666667
 31
0.0
  0
CIRCLE
  5
1B2
330
17
100
AcDbEntity
  8
ПТ_контур
370
25
100
AcDbCircle
 10
773.3333333333334
 20
281.1666666666667
 30
0.0
 40
3.5
  0
TEXT
  5
1B3
330
17
100
AcDbEntity
  8
ПТ_текст
100
AcDbText
 10
773.3333333333334
 20
281.1666666666667
 30
0.0
 40
2.5
  1
18
  7
ПТ
 72
1
 11
773.3333333333334
 21
281.1666666666667
 31
0.0
100
AcDbText
 73
2
  0
LINE
  5
1B4
330
17
100
AcDbEntity
  8
ПТ_оси
  6
ПТ_ШТРИХПУНКТ
370
13
100
AcDbLine
 10
112.0
 20
296.0
 30
0.0
 11
785.3333333333334
 21
296.0
 31
0.0
  0
CIRCLE
  5
1B5
330
17
100
AcDbEntity
  8
ПТ_контур
370
25
100
AcDbCircle
 10
788.8333333333334
 20
296.0
 30
0.0
 40
3.5
  0
TEXT
  5
1B6
330
17
100
AcDbEntity
  8
ПТ_текст
100
AcDbText
 10
788.8333333333334
 20
296.0
 30
0.0
 40
2.5
  1
А
  7
ПТ
 72
1
 11
788.8333333333334
 21
296.0
 31
0.0
100
AcDbText
 73
2
  0
LINE
  5
1B7
330
17
100
AcDbEntity
  8
ПТ_оси
  6
ПТ_ШТРИХПУНКТ
370
13
100
AcDbLine
 10
112.0
 20
336.0
 30
0.0
 11
785.3333333333334
 21
336.0
 31
0.0
  0
CIRCLE
  5
1B8
330
17
100
AcDbEntity
  8
ПТ_контур
370
25
100
AcDbCircle
 10
788.8333333333334
 20
336.0
 30
0.0
 40
3.5
  0
TEXT
  5
1B9
330
17
100
AcDbEntity
  8
ПТ_текст
100
AcDbText
 10
788.8333333333334
 20
336.0
 30
0.0
 40
2.5
  1
Б
  7
ПТ
 72
1
 11
788.8333333333334
 21
336.0
 31
0.0
100
AcDbText
 73
2
  0
LINE
  5
1BA
330
17
100
AcDbEntity
  8
ПТ_оси
  6
ПТ_ШТРИХПУНКТ
370
13
100
AcDbLine
 10
112.0
 20
376.0
 30
0.0
 11
785.3333333333334
 21
376.0
 31
0.0
  0
CIRCLE
  5
1BB
330
17
100
AcDbEntity
  8
ПТ_контур
370
25
100
AcDbCircle
 10
788.8333333333334
 20
376.0
 30
0.0
 40
3.5
  0
TEXT
  5
1BC
330
17
100
AcDbEntity
  8
ПТ_текст
100
AcDbText
 10
788.8333333333334
 20
376.0
 30
0.0
 40
2.5
  1
В
  7
ПТ
 72
1
 11
788.8333333333334
 21
376.0
 31
0.0
100
AcDbText
 73
2
  0
LINE
  5
1BD
330
17
100
AcDbEntity
  8
ПТ_оси
  6
ПТ_ШТРИХПУНКТ
370
13
100
AcDbLine
 10
112.0
 20
416.0
 30
0.0
 11
785.3333333333334
 21
416.0
 31
0.0
  0
CIRCLE
  5
1BE
330
17
100
AcDbEntity
  8
ПТ_контур
370
25
100
AcDbCircle
 10
788.8333333333334
 20
416.0
 30
0.0
 40
3.5
  0
TEXT
  5
1BF
330
17
100
AcDbEntity
  8
ПТ_текст
100
AcDbText
 10
788.8333333333334
 20
416.0
 30
0.0
 40
2.5
  1
Г
  7
ПТ
 72
1
 11
788.8333333333334
 21
416.0
 31
0.0
100
AcDbText
 73
2
  0
LINE
  5
1C0
330
17
100
AcDbEntity
  8
ПТ_оси
  6
ПТ_ШТРИХПУНКТ
370
13
100
AcDbLine
 10
112.0
 20
442.66666666666663
 30
0.0
 11
785.3333333333334
 21
442.66666666666663
 31
0.0
  0
CIRCLE
  5
1C1
330
17
100
AcDbEntity
  8
ПТ_контур
370
25
100
AcDbCircle
 10
788.8333333333334
 20
442.66666666666663
 30
0.0
 40
3.5
  0
TEXT
  5
1C2
330
17
100
AcDbEntity
  8
ПТ_текст
100
AcDbText
 10
788.8333333333334
 20
442.66666666666663
 30
0.0
 40
2.5
  1
Д
  7
ПТ
 72
1
 11
788.8333333333334
 21
442.66666666666663
 31
0.0
100
AcDbText
 73
2
  0
LINE
  5
1C3
330
17
100
AcDbEntity
  8
ПТ_оси
  6
ПТ_ШТРИХПУНКТ
370
13
100
AcDbLine
 10
112.0
 20
482.66666666666663
 30
0.0
 11
785.3333333333334
 21
482.66666666666663
 31
0.0
  0
CIRCLE
  5
1C4
330
17
100
AcDbEntity
  8
ПТ_контур
370
25
100
AcDbCircle
 10
788.8333333333334
 20
482.66666666666663
 30
0.0
 40
3.5
  0
TEXT
  5
1C5
330
17
100
AcDbEntity
  8
ПТ_текст
100
AcDbText
 10
788.8333333333334
 20
482.66666666666663
 30
0.0
 40
2.5
  1
Е
  7
ПТ
 72
1
 11
788.8333333333334
 21
482.66666666666663
 31
0.0
100
AcDbText
 73
2
  0
LINE
  5
1C6
330
17
100
AcDbEntity
  8
ПТ_оси
  6
ПТ_ШТРИХПУНКТ
370
13
100
AcDbLine
 10
112.0
 20
522.6666666666666
 30
0.0
 11
785.3333333333334
 21
522.6666666666666
 31
0.0
  0
CIRCLE
  5
1C7
330
17
100
AcDbEntity
  8
ПТ_контур
370
25
100
AcDbCircle
 10
788.8333333333334
 20
522.6666666666666
 30
0.0
 40
3.5
  0
TEXT
  5
1C8
330
17
100
AcDbEntity
  8
ПТ_текст
100
AcDbText
 10
788.8333333333334
 20
522.6666666666666
 30
0.0
 40
2.5
  1
Ж
  7
ПТ
 72
1
 11
788.8333333333334
 21
522.6666666666666
 31
0.0
100
AcDbText
 73
2
  0
LINE
  5
1C9
330
17
100
AcDbEntity
  8
ПТ_оси
  6
ПТ_ШТРИХПУНКТ
370
13
100
AcDbLine
 10
112.0
 20
562.6666666666667
 30
0.0
 11
785.3333333333334
 21
562.6666666666667
 31
0.0
  0
CIRCLE
  5
1CA
330
17
100
AcDbEntity
  8
ПТ_контур
370
25
100
AcDbCircle
 10
788.8333333333334
 20
562.6666666666667
 30
0.0
 40
3.5
  0
TEXT
  5
1CB
330
17
100
AcDbEntity
  8
ПТ_текст
100
AcDbText
 10
788.8333333333334
 20
562.6666666666667
 30
0.0
 40
2.5
  1
И
  7
ПТ
 72
1
 11
788.8333333333334
 21
562.6666666666667
 31
0.0
100
AcDbText
 73
2
  0
HATCH
  5
1CC
330
17
100
AcDbEntity
  8
ПТ_штриховка
 62
8
100
AcDbHatch
 10
0.0
 20
0.0
 30
0.0
210
0.0
220
0.0
230
1.0
  2
SOLID
 70
1
 71
0
 91
2
 92
3
 72
0
 73
1
 93
8
 10
120.0
 20
442.66666666666663
 10
773.3333333333334
 20
442.66666666666663
 10
773.3333333333334
 20
482.66666666666663
 10
466.6666666666667
 20
482.66666666666663
 10
466.6666666666667
 20
522.6666666666666
 10
426.6666666666667
 20
522.6666666666666
 10
426.6666666666667
 20
482.66666666666663
 10
120.0
 20
482.66666666666663
 97
0
 92
18
 72
0
 73
1
 93
8
 10
122.0
 20
444.66666666666663
 10
771.3333333333334
 20
444.66666666666663
 10
771.3333333333334
 20
480.66666666666663
 10
464.6666666666667
 20
480.66666666666663
 10
464.6666666666667
 20
520.6666666666666
 10
428.6666666666667
 20
520.6666666666666
 10
428.6666666666667
 20
480.66666666666663
 10
122.0
 20
480.66666666666663
 97
0
 75
1
 76
1
 98
0
  0
LWPOLYLINE
  5
1CD
330
17
100
AcDbEntity
  8
ПТ_контур
370
35
100
AcDbPolyline
 90
8
 70
1
 10
122.0
 20
444.66666666666663
 10
771.3333333333334
 20
444.66666666666663
 10
771.3333333333334
 20
480.66666666666663
 10
464.6666666666667
 20
480.66666666666663
 10
464.6666666666667
 20
520.6666666666666
 10
428.6666666666667
 20
520.6666666666666
 10
428.6666666666667
 20
480.66666666666663
 10
122.0
 20
480.66666666666663
  0
LWPOLYLINE
  5
1CE
330
17
100
AcDbEntity
  8
ПТ_контур
370
35
100
AcDbPolyline
 90
8
 70
1
 10
120.0
 20
442.66666666666663
 10
773.3333333333334
 20
442.66666666666663
 10
773.3333333333334
 20
482.66666666666663
 10
466.6666666666667
 20
482.66666666666663
 10
466.6666666666667
 20
522.6666666666666
 10
426.6666666666667
 20
522.6666666666666
 10
426.6666666666667
 20
482.66666666666663
 10
120.0
 20
482.66666666666663
  0
HATCH
  5
1CF
330
17
100
AcDbEntity
  8
ПТ_штриховка
 62
8
100
AcDbHatch
 10
0.0
 20
0.0
 30
0.0
210
0.0
220
0.0
230
1.0
  2
SOLID
 70
1
 71
0
 91
2
 92
3
 72
0
 73
1
 93
8
 10
466.6666666666667
 20
376.0
 10
773.3333333333334
 20
376.0
 10
773.3333333333334
 20
416.0
 10
120.0
 20
416.0
 10
120.0
 20
376.0
 10
426.6666666666667
 20
376.0
 10
426.6666666666667
 20
336.0
 10
466.6666666666667
 20
336.0
 97
0
 92
18
 72
0
 73
1
 93
8
 10
464.6666666666667
 20
378.0
 10
771.3333333333334
 20
378.0
 10
771.3333333333334
 20
414.0
 10
122.0
 20
414.0
 10
122.0
 20
378.0
 10
428.6666666666667
 20
378.0
 10
428.6666666666667
 20
338.0
 10
464.6666666666667
 20
338.0
 97
0
 75
1
 76
1
 98
0
  0
LWPOLYLINE
  5
1D0
330
17
100
AcDbEntity
  8
ПТ_контур
370
35
100
AcDbPolyline
 90
8
 70
1
 10
464.6666666666667
 20
378.0
 10
771.3333333333334
 20
378.0
 10
771.3333333333334
 20
414.0
 10
122.0
 20
414.0
 10
122.0
 20
378.0
 10
428.6666666666667
 20
378.0
 10
428.6666666666667
 20
338.0
 10
464.6666666666667
 20
338.0
  0
LWPOLYLINE
  5
1D1
330
17
100
AcDbEntity
  8
ПТ_контур
370
35
100
AcDbPolyline
 90
8
 70
1
 10
466.6666666666667
 20
376.0
 10
773.3333333333334
 20
376.0
 10
773.3333333333334
 20
416.0
 10
120.0
 20
416.0
 10
120.0
 20
376.0
 10
426.6666666666667
 20
376.0
 10
426.6666666666667
 20
336.0
 10
466.6666666666667
 20
336.0
  0
TEXT
  5
1D2
330
17
100
AcDbEntity
  8
ПТ_текст
100
AcDbText
 10
560.0
 20
471.33333333333337
 30
0.0
 40
2.5
  1
Технический коридор 1
  7
ПТ
 72
1
 11
560.0
 21
471.33333333333337
 31
0.0
100
AcDbText
 73
1
  0
TEXT
  5
1D3
330
17
100
AcDbEntity
  8
ПТ_текст
100
AcDbText
 10
560.0
 20
399.3333333333333
 30
0.0
 40
2.5
  1
Технический коридор 2
  7
ПТ
 72
1
 11
560.0
 21
399.3333333333333
 31
0.0
100
AcDbText
 73
1
  0
LWPOLYLINE
  5
1D4
330
17
100
AcDbEntity
  8
ПТ_контур
370
25
100
AcDbPolyline
 90
4
 70
1
 10
428.6666666666667
 20
485.83333333333337
 10
436.1666666666667
 20
485.83333333333337
 10
436.1666666666667
 20
504.66666666666663
 10
428.6666666666667
 20
504.66666666666663
  0
LINE
  5
1D5
330
17
100
AcDbEntity
  8
ПТ_контур
370
13
100
AcDbLine
 10
428.6666666666667
 20
487.7166666666667
 30
0.0
 11
436.1666666666667
 21
487.7166666666667
 31
0.0
  0
LINE
  5
1D6
330
17
100
AcDbEntity
  8
ПТ_контур
370
13
100
AcDbLine
 10
428.6666666666667
 20
489.6
 30
0.0
 11
436.1666666666667
 21
489.6
 31
0.0
  0
LINE
  5
1D7
330
17
100
AcDbEntity
  8
ПТ_контур
370
13
100
AcDbLine
 10
428.6666666666667
 20
491.48333333333335
 30
0.0
 11
436.1666666666667
 21
491.48333333333335
 31
0.0
  0
LINE
  5
1D8
330
17
100
AcDbEntity
  8
ПТ_контур
370
13
100
AcDbLine
 10
428.6666666666667
 20
493.3666666666667
 30
0.0
 11
436.1666666666667
 21
493.3666666666667
 31
0.0
  0
LINE
  5
1D9
330
17
100
AcDbEntity
  8
ПТ_контур
370
13
100
AcDbLine
 10
428.6666666666667
 20
495.25
 30
0.0
 11
436.1666666666667
 21
495.25
 31
0.0
  0
LINE
  5
1DA
330
17
100
AcDbEntity
  8
ПТ_контур
370
13
100
AcDbLine
 10
428.6666666666667
 20
497.1333333333333
 30
0.0
 11
436.1666666666667
 21
497.1333333333333
 31
0.0
  0
LINE
  5
1DB
330
17
100
AcDbEntity
  8
ПТ_контур
370
13
100
AcDbLine
 10
428.6666666666667
 20
499.01666666666665
 30
0.0
 11
436.1666666666667
 21
499.01666666666665
 31
0.0
  0
LINE
  5
1DC
330
17
100
AcDbEntity
  8
ПТ_контур
370
13
100
AcDbLine
 10
428.6666666666667
 20
500.9
 30
0.0
 11
436.1666666666667
 21
500.9
 31
0.0
  0
LINE
  5
1DD
330
17
100
AcDbEntity
  8
ПТ_контур
370
13
100
AcDbLine
 10
428.6666666666667
 20
502.7833333333333
 30
0.0
 11
436.1666666666667
 21
502.7833333333333
 31
0.0
  0
LINE
  5
1DE
330
17
100
AcDbEntity
  8
ПТ_контур
370
18
100
AcDbLine
 10
432.4166666666667
 20
487.16666666666663
 30
0.0
 11
432.4166666666667
 21
502.66666666666663
 31
0.0
  0
INSERT
  5
1DF
330
17
100
AcDbEntity
  8
ПТ_текст
100
AcDbBlockReference
  2
ARROW
 10
432.4166666666667
 20
502.66666666666663
 30
0.0
 41
0.8
 42
0.8
 50
90.0
  0
TEXT
  5
1E1
330
17
100
AcDbEntity
  8
ПТ_текст
100
AcDbText
 10
438.0
 20
535.3333333333334
 30
0.0
 40
2.5
  1
Лестница — выход
  7
ПТ
 11
438.0
 21
535.3333333333334
 31
0.0
100
AcDbText
 73
1
  0
TEXT
  5
1E2
330
17
100
AcDbEntity
  8
ПТ_текст
100
AcDbText
 10
438.0
 20
530.0
 30
0.0
 40
2.5
  1
в тамбур-шлюз 94 (1 этаж)
  7
ПТ
 11
438.0
 21
530.0
 31
0.0
100
AcDbText
 73
3
  0
LWPOLYLINE
  5
1E3
330
17
100
AcDbEntity
  8
ПТ_контур
370
25
100
AcDbPolyline
 90
4
 70
1
 10
428.6666666666667
 20
354.0
 10
436.1666666666667
 20
354.0
 10
436.1666666666667
 20
372.8333333333333
 10
428.6666666666667
 20
372.8333333333333
  0
LINE
  5
1E4
330
17
100
AcDbEntity
  8
ПТ_контур
370
13
100
AcDbLine
 10
428.6666666666667
 20
355.8833333333333
 30
0.0
 11
436.1666666666667
 21
355.8833333333333
 31
0.0
  0
LINE
  5
1E5
330
17
100
AcDbEntity
  8
ПТ_контур
370
13
100
AcDbLine
 10
428.6666666666667
 20
357.76666666666665
 30
0.0
 11
436.1666666666667
 21
357.76666666666665
 31
0.0
  0
LINE
  5
1E6
330
17
100
AcDbEntity
  8
ПТ_контур
370
13
100
AcDbLine
 10
428.6666666666667
 20
359.65
 30
0.0
 11
436.1666666666667
 21
359.65
 31
0.0
  0
LINE
  5
1E7
330
17
100
AcDbEntity
  8
ПТ_контур
370
13
100
AcDbLine
 10
428.6666666666667
 20
361.5333333333333
 30
0.0
 11
436.1666666666667
 21
361.5333333333333
 31
0.0
  0
LINE
  5
1E8
330
17
100
AcDbEntity
  8
ПТ_контур
370
13
100
AcDbLine
 10
428.6666666666667
 20
363.4166666666667
 30
0.0
 11
436.1666666666667
 21
363.4166666666667
 31
0.0
  0
LINE
  5
1E9
330
17
100
AcDbEntity
  8
ПТ_контур
370
13
100
AcDbLine
 10
428.6666666666667
 20
365.3
 30
0.0
 11
436.1666666666667
 21
365.3
 31
0.0
  0
LINE
  5
1EA
330
17
100
AcDbEntity
  8
ПТ_контур
370
13
100
AcDbLine
 10
428.6666666666667
 20
367.18333333333334
 30
0.0
 11
436.1666666666667
 21
367.18333333333334
 31
0.0
  0
LINE
  5
1EB
330
17
100
AcDbEntity
  8
ПТ_контур
370
13
100
AcDbLine
 10
428.6666666666667
 20
369.06666666666666
 30
0.0
 11
436.1666666666667
 21
369.06666666666666
 31
0.0
  0
LINE
  5
1EC
330
17
100
AcDbEntity
  8
ПТ_контур
370
13
100
AcDbLine
 10
428.6666666666667
 20
370.95
 30
0.0
 11
436.1666666666667
 21
370.95
 31
0.0
  0
LINE
  5
1ED
330
17
100
AcDbEntity
  8
ПТ_контур
370
18
100
AcDbLine
 10
432.4166666666667
 20
371.5
 30
0.0
 11
432.4166666666667
 21
356.0
 31
0.0
  0
INSERT
  5
1EE
330
17
100
AcDbEntity
  8
ПТ_текст
100
AcDbBlockReference
  2
ARROW
 10
432.4166666666667
 20
356.0
 30
0.0
 41
0.8
 42
0.8
 50
270.0
  0
TEXT
  5
1F0
330
17
100
AcDbEntity
  8
ПТ_текст
100
AcDbText
 10
438.0
 20
329.3333333333333
 30
0.0
 40
2.5
  1
Лестница — выход
  7
ПТ
 11
438.0
 21
329.3333333333333
 31
0.0
100
AcDbText
 73
3
  0
TEXT
  5
1F1
330
17
100
AcDbEntity
  8
ПТ_текст
100
AcDbText
 10
438.0
 20
324.0
 30
0.0
 40
2.5
  1
в тамбур-шлюз 95 (1 этаж)
  7
ПТ
 11
438.0
 21
324.0
 31
0.0
100
AcDbText
 73
3
  0
HATCH
  5
1F2
330
17
100
AcDbEntity
  8
ПТ_штриховка
 62
1
100
AcDbHatch
 10
0.0
 20
0.0
 30
0.0
210
0.0
220
0.0
230
1.0
  2
ANSI31
 70
0
 71
0
 91
1
 92
3
 72
0
 73
1
 93
4
 10
122.0
 20
444.66666666666663
 10
175.33333333333334
 20
444.66666666666663
 10
175.33333333333334
 20
480.66666666666663
 10
122.0
 20
480.66666666666663
 97
0
 75
1
 76
1
 52
0.0
 41
0.6
 77
0
 78
1
 53
45.0
 43
0.0
 44
0.0
 45
-1.3470384182
 46
1.3470384182
 79
0
 98
0
  0
LWPOLYLINE
  5
1F3
330
17
100
AcDbEntity
  8
ПТ_контур
370
70
100
AcDbPolyline
 90
4
 70
1
 10
122.0
 20
444.66666666666663
 10
175.33333333333334
 20
444.66666666666663
 10
175.33333333333334
 20
480.66666666666663
 10
122.0
 20
480.66666666666663
  0
LWPOLYLINE
  5
1F4
330
17
100
AcDbEntity
  8
ПТ_контур
370
50
100
AcDbPolyline
 90
4
 70
1
 10
175.33333333333334
 20
444.66666666666663
 10
176.13333333333333
 20
444.66666666666663
 10
176.13333333333333
 20
471.33333333333337
 10
175.33333333333334
 20
471.33333333333337
  0
LWPOLYLINE
  5
1F5
330
17
100
AcDbEntity
  8
ПТ_контур
370
50
100
AcDbPolyline
 90
4
 70
1
 10
175.33333333333334
 20
478.0
 10
176.13333333333333
 20
478.0
 10
176.13333333333333
 20
480.66666666666663
 10
175.33333333333334
 20
480.66666666666663
  0
LINE
  5
1F6
330
17
100
AcDbEntity
  8
ПТ_контур
370
25
100
AcDbLine
 10
176.13333333333333
 20
471.33333333333337
 30
0.0
 11
182.8
 21
471.33333333333337
 31
0.0
  0
ARC
  5
1F7
330
17
100
AcDbEntity
  8
ПТ_контур
100
AcDbCircle
 10
176.13333333333333
 20
471.33333333333337
 30
0.0
 40
6.666666666666667
100
AcDbArc
 50
0.0
 51
90.0
  0
LINE
  5
1F8
330
17
100
AcDbEntity
  8
ПТ_выноски
100
AcDbLine
 10
148.66666666666666
 20
478.66666666666663
 30
0.0
 11
148.66666666666666
 21
502.66666666666663
 31
0.0
  0
LINE
  5
1F9
330
17
100
AcDbEntity
  8
ПТ_выноски
100
AcDbLine
 10
148.66666666666666
 20
502.66666666666663
 30
0.0
 11
198.66666666666669
 21
502.66666666666663
 31
0.0
  0
TEXT
  5
1FA
330
17
100
AcDbEntity
  8
ПТ_текст
100
AcDbText
 10
150.0
 20
509.33333333333337
 30
0.0
 40
2.5
  1
Насосная станция пожаротушения
  7
ПТ_загл
 11
150.0
 21
509.33333333333337
 31
0.0
100
AcDbText
 73
1
  0
TEXT
  5
1FB
330
17
100
AcDbEntity
  8
ПТ_текст
100
AcDbText
 10
150.0
 20
504.66666666666663
 30
0.0
 40
2.5
  1
8,0×5,4 м, 43,2 м², лист 10
  7
ПТ
 11
150.0
 21
504.66666666666663
 31
0.0
100
AcDbText
 73
1
  0
LINE
  5
1FC
330
17
100
AcDbEntity
  8
ПТ_ввод
370
60
100
AcDbLine
 10
73.33333333333334
 20
477.33333333333337
 30
0.0
 11
128.66666666666666
 21
477.33333333333337
 31
0.0
  0
INSERT
  5
1FD
330
17
100
AcDbEntity
  8
ПТ_ввод
100
AcDbBlockReference
  2
ARROW
 10
128.66666666666666
 20
477.33333333333337
 30
0.0
 41
0.8
 42
0.8
  0
LINE
  5
1FF
330
17
100
AcDbEntity
  8
ПТ_ввод
370
60
100
AcDbLine
 10
73.33333333333334
 20
472.0
 30
0.0
 11
128.66666666666666
 21
472.0
 31
0.0
  0
INSERT
  5
200
330
17
100
AcDbEntity
  8
ПТ_ввод
100
AcDbBlockReference
  2
ARROW
 10
128.66666666666666
 20
472.0
 30
0.0
 41
0.8
 42
0.8
  0
TEXT
  5
202
330
17
100
AcDbEntity
  8
ПТ_текст
100
AcDbText
 10
71.33333333333334
 20
487.33333333333337
 30
0.0
 40
2.5
  1
Вводы 2×Ду150
  7
ПТ
 72
2
 11
71.33333333333334
 21
487.33333333333337
 31
0.0
100
AcDbText
 73
1
  0
TEXT
  5
203
330
17
100
AcDbEntity
  8
ПТ_текст
100
AcDbText
 10
71.33333333333334
 20
481.33333333333337
 30
0.0
 40
2.5
  1
от точки 23.1 (НВК),
  7
ПТ
 72
2
 11
71.33333333333334
 21
481.33333333333337
 31
0.0
100
AcDbText
 73
1
  0
TEXT
  5
204
330
17
100
AcDbEntity
  8
ПТ_текст
100
AcDbText
 10
71.33333333333334
 20
475.33333333333337
 30
0.0
 40
2.5
  1
отм. -1,900
  7
ПТ
 72
2
 11
71.33333333333334
 21
475.33333333333337
 31
0.0
100
AcDbText
 73
1
  0
LINE
  5
205
330
17
100
AcDbEntity
  8
ПТ_В2
370
35
100
AcDbLine
 10
190.66666666666669
 20
447.66666666666663
 30
0.0
 11
190.66666666666669
 21
446.0
 31
0.0
  0
LINE
  5
206
330
17
100
AcDbEntity
  8
ПТ_В2
370
35
100
AcDbLine
 10
190.66666666666669
 20
411.0
 30
0.0
 11
190.66666666666669
 21
412.6666666666667
 31
0.0
  0
LINE
  5
207
330
17
100
AcDbEntity
  8
ПТ_В2
370
35
100
AcDbLine
 10
270.66666666666663
 20
447.66666666666663
 30
0.0
 11
270.66666666666663
 21
446.0
 31
0.0
  0
LINE
  5
208
330
17
100
AcDbEntity
  8
ПТ_В2
370
35
100
AcDbLine
 10
270.66666666666663
 20
411.0
 30
0.0
 11
270.66666666666663
 21
412.6666666666667
 31
0.0
  0
LINE
  5
209
330
17
100
AcDbEntity
  8
ПТ_В2
370
35
100
AcDbLine
 10
350.66666666666663
 20
447.66666666666663
 30
0.0
 11
350.66666666666663
 21
446.0
 31
0.0
  0
LINE
  5
20A
330
17
100
AcDbEntity
  8
ПТ_В2
370
35
100
AcDbLine
 10
350.66666666666663
 20
411.0
 30
0.0
 11
350.66666666666663
 21
412.6666666666667
 31
0.0
  0
LINE
  5
20B
330
17
100
AcDbEntity
  8
ПТ_В2
370
35
100
AcDbLine
 10
422.6666666666667
 20
447.66666666666663
 30
0.0
 11
422.6666666666667
 21
446.0
 31
0.0
  0
LINE
  5
20C
330
17
100
AcDbEntity
  8
ПТ_В2
370
35
100
AcDbLine
 10
422.6666666666667
 20
411.0
 30
0.0
 11
422.6666666666667
 21
412.6666666666667
 31
0.0
  0
LINE
  5
20D
330
17
100
AcDbEntity
  8
ПТ_В2
370
35
100
AcDbLine
 10
470.6666666666667
 20
447.66666666666663
 30
0.0
 11
470.6666666666667
 21
446.0
 31
0.0
  0
LINE
  5
20E
330
17
100
AcDbEntity
  8
ПТ_В2
370
35
100
AcDbLine
 10
470.6666666666667
 20
411.0
 30
0.0
 11
470.6666666666667
 21
412.6666666666667
 31
0.0
  0
LINE
  5
20F
330
17
100
AcDbEntity
  8
ПТ_В2
370
35
100
AcDbLine
 10
550.6666666666667
 20
447.66666666666663
 30
0.0
 11
550.6666666666667
 21
446.0
 31
0.0
  0
LINE
  5
210
330
17
100
AcDbEntity
  8
ПТ_В2
370
35
100
AcDbLine
 10
550.6666666666667
 20
411.0
 30
0.0
 11
550.6666666666667
 21
412.6666666666667
 31
0.0
  0
LINE
  5
211
330
17
100
AcDbEntity
  8
ПТ_В2
370
35
100
AcDbLine
 10
630.6666666666667
 20
447.66666666666663
 30
0.0
 11
630.6666666666667
 21
446.0
 31
0.0
  0
LINE
  5
212
330
17
100
AcDbEntity
  8
ПТ_В2
370
35
100
AcDbLine
 10
630.6666666666667
 20
411.0
 30
0.0
 11
630.6666666666667
 21
412.6666666666667
 31
0.0
  0
LINE
  5
213
330
17
100
AcDbEntity
  8
ПТ_В2
370
35
100
AcDbLine
 10
710.6666666666666
 20
447.66666666666663
 30
0.0
 11
710.6666666666666
 21
446.0
 31
0.0
  0
LINE
  5
214
330
17
100
AcDbEntity
  8
ПТ_В2
370
35
100
AcDbLine
 10
710.6666666666666
 20
411.0
 30
0.0
 11
710.6666666666666
 21
412.6666666666667
 31
0.0
  0
LINE
  5
215
330
17
100
AcDbEntity
  8
ПТ_В2
370
35
100
AcDbLine
 10
196.66666666666669
 20
447.66666666666663
 30
0.0
 11
196.66666666666669
 21
481.66666666666663
 31
0.0
  0
LINE
  5
216
330
17
100
AcDbEntity
  8
ПТ_В2
370
35
100
AcDbLine
 10
196.66666666666669
 20
411.0
 30
0.0
 11
196.66666666666669
 21
377.0
 31
0.0
  0
LINE
  5
217
330
17
100
AcDbEntity
  8
ПТ_В2
370
35
100
AcDbLine
 10
356.66666666666663
 20
447.66666666666663
 30
0.0
 11
356.66666666666663
 21
481.66666666666663
 31
0.0
  0
LINE
  5
218
330
17
100
AcDbEntity
  8
ПТ_В2
370
35
100
AcDbLine
 10
356.66666666666663
 20
411.0
 30
0.0
 11
356.66666666666663
 21
377.0
 31
0.0
  0
LINE
  5
219
330
17
100
AcDbEntity
  8
ПТ_В2
370
35
100
AcDbLine
 10
556.6666666666667
 20
447.66666666666663
 30
0.0
 11
556.6666666666667
 21
481.66666666666663
 31
0.0
  0
LINE
  5
21A
330
17
100
AcDbEntity
  8
ПТ_В2
370
35
100
AcDbLine
 10
556.6666666666667
 20
411.0
 30
0.0
 11
556.6666666666667
 21
377.0
 31
0.0
  0
LINE
  5
21B
330
17
100
AcDbEntity
  8
ПТ_В2
370
35
100
AcDbLine
 10
716.6666666666666
 20
447.66666666666663
 30
0.0
 11
716.6666666666666
 21
481.66666666666663
 31
0.0
  0
LINE
  5
21C
330
17
100
AcDbEntity
  8
ПТ_В2
370
35
100
AcDbLine
 10
716.6666666666666
 20
411.0
 30
0.0
 11
716.6666666666666
 21
377.0
 31
0.0
  0
LINE
  5
21D
330
17
100
AcDbEntity
  8
ПТ_В2
370
35
100
AcDbLine
 10
226.66666666666669
 20
447.66666666666663
 30
0.0
 11
226.66666666666669
 21
445.0
 31
0.0
  0
LINE
  5
21E
330
17
100
AcDbEntity
  8
ПТ_В2
370
35
100
AcDbLine
 10
413.3333333333333
 20
447.66666666666663
 30
0.0
 11
413.3333333333333
 21
445.0
 31
0.0
  0
LINE
  5
21F
330
17
100
AcDbEntity
  8
ПТ_В2
370
35
100
AcDbLine
 10
666.6666666666666
 20
447.66666666666663
 30
0.0
 11
666.6666666666666
 21
445.0
 31
0.0
  0
LINE
  5
220
330
17
100
AcDbEntity
  8
ПТ_В2
370
35
100
AcDbLine
 10
226.66666666666669
 20
411.0
 30
0.0
 11
226.66666666666669
 21
413.6666666666667
 31
0.0
  0
LINE
  5
221
330
17
100
AcDbEntity
  8
ПТ_В2
370
35
100
AcDbLine
 10
480.0
 20
411.0
 30
0.0
 11
480.0
 21
413.6666666666667
 31
0.0
  0
LINE
  5
222
330
17
100
AcDbEntity
  8
ПТ_В2
370
35
100
AcDbLine
 10
666.6666666666666
 20
411.0
 30
0.0
 11
666.6666666666666
 21
413.6666666666667
 31
0.0
  0
LINE
  5
223
330
17
100
AcDbEntity
  8
ПТ_В2
370
35
100
AcDbLine
 10
144.66666666666666
 20
447.66666666666663
 30
0.0
 11
154.66666666666666
 21
447.66666666666663
 31
0.0
  0
LINE
  5
224
330
17
100
AcDbEntity
  8
ПТ_В2
370
35
100
AcDbLine
 10
154.66666666666666
 20
447.66666666666663
 30
0.0
 11
166.66666666666666
 21
447.66666666666663
 31
0.0
  0
LINE
  5
225
330
17
100
AcDbEntity
  8
ПТ_В2
370
35
100
AcDbLine
 10
166.66666666666666
 20
447.66666666666663
 30
0.0
 11
190.66666666666669
 21
447.66666666666663
 31
0.0
  0
LINE
  5
226
330
17
100
AcDbEntity
  8
ПТ_В2
370
35
100
AcDbLine
 10
190.66666666666669
 20
447.66666666666663
 30
0.0
 11
196.66666666666669
 21
447.66666666666663
 31
0.0
  0
LINE
  5
227
330
17
100
AcDbEntity
  8
ПТ_В2
370
35
100
AcDbLine
 10
196.66666666666669
 20
447.66666666666663
 30
0.0
 11
226.66666666666669
 21
447.66666666666663
 31
0.0
  0
LINE
  5
228
330
17
100
AcDbEntity
  8
ПТ_В2
370
35
100
AcDbLine
 10
226.66666666666669
 20
447.66666666666663
 30
0.0
 11
270.66666666666663
 21
447.66666666666663
 31
0.0
  0
LINE
  5
229
330
17
100
AcDbEntity
  8
ПТ_В2
370
35
100
AcDbLine
 10
270.66666666666663
 20
447.66666666666663
 30
0.0
 11
306.66666666666663
 21
447.66666666666663
 31
0.0
  0
LINE
  5
22A
330
17
100
AcDbEntity
  8
ПТ_В2
370
35
100
AcDbLine
 10
306.66666666666663
 20
447.66666666666663
 30
0.0
 11
350.66666666666663
 21
447.66666666666663
 31
0.0
  0
LINE
  5
22B
330
17
100
AcDbEntity
  8
ПТ_В2
370
35
100
AcDbLine
 10
350.66666666666663
 20
447.66666666666663
 30
0.0
 11
356.66666666666663
 21
447.66666666666663
 31
0.0
  0
LINE
  5
22C
330
17
100
AcDbEntity
  8
ПТ_В2
370
35
100
AcDbLine
 10
356.66666666666663
 20
447.66666666666663
 30
0.0
 11
413.3333333333333
 21
447.66666666666663
 31
0.0
  0
LINE
  5
22D
330
17
100
AcDbEntity
  8
ПТ_В2
370
35
100
AcDbLine
 10
413.3333333333333
 20
447.66666666666663
 30
0.0
 11
422.6666666666667
 21
447.66666666666663
 31
0.0
  0
LINE
  5
22E
330
17
100
AcDbEntity
  8
ПТ_В2
370
35
100
AcDbLine
 10
422.6666666666667
 20
447.66666666666663
 30
0.0
 11
446.6666666666667
 21
447.66666666666663
 31
0.0
  0
LINE
  5
22F
330
17
100
AcDbEntity
  8
ПТ_В2
370
35
100
AcDbLine
 10
446.6666666666667
 20
447.66666666666663
 30
0.0
 11
470.6666666666667
 21
447.66666666666663
 31
0.0
  0
LINE
  5
230
330
17
100
AcDbEntity
  8
ПТ_В2
370
35
100
AcDbLine
 10
470.6666666666667
 20
447.66666666666663
 30
0.0
 11
550.6666666666667
 21
447.66666666666663
 31
0.0
  0
LINE
  5
231
330
17
100
AcDbEntity
  8
ПТ_В2
370
35
100
AcDbLine
 10
550.6666666666667
 20
447.66666666666663
 30
0.0
 11
556.6666666666667
 21
447.66666666666663
 31
0.0
  0
LINE
  5
232
330
17
100
AcDbEntity
  8
ПТ_В2
370
35
100
AcDbLine
 10
556.6666666666667
 20
447.66666666666663
 30
0.0
 11
586.6666666666667
 21
447.66666666666663
 31
0.0
  0
LINE
  5
233
330
17
100
AcDbEntity
  8
ПТ_В2
370
35
100
AcDbLine
 10
586.6666666666667
 20
447.66666666666663
 30
0.0
 11
630.6666666666667
 21
447.66666666666663
 31
0.0
  0
LINE
  5
234
330
17
100
AcDbEntity
  8
ПТ_В2
370
35
100
AcDbLine
 10
630.6666666666667
 20
447.66666666666663
 30
0.0
 11
666.6666666666666
 21
447.66666666666663
 31
0.0
  0
LINE
  5
235
330
17
100
AcDbEntity
  8
ПТ_В2
370
35
100
AcDbLine
 10
666.6666666666666
 20
447.66666666666663
 30
0.0
 11
710.6666666666666
 21
447.66666666666663
 31
0.0
  0
LINE
  5
236
330
17
100
AcDbEntity
  8
ПТ_В2
370
35
100
AcDbLine
 10
710.6666666666666
 20
447.66666666666663
 30
0.0
 11
716.6666666666666
 21
447.66666666666663
 31
0.0
  0
LINE
  5
237
330
17
100
AcDbEntity
  8
ПТ_В2
370
35
100
AcDbLine
 10
716.6666666666666
 20
447.66666666666663
 30
0.0
 11
726.6666666666666
 21
447.66666666666663
 31
0.0
  0
LINE
  5
238
330
17
100
AcDbEntity
  8
ПТ_В2
370
35
100
AcDbLine
 10
726.6666666666666
 20
447.66666666666663
 30
0.0
 11
769.3333333333334
 21
447.66666666666663
 31
0.0
  0
LINE
  5
239
330
17
100
AcDbEntity
  8
ПТ_В2
370
35
100
AcDbLine
 10
151.33333333333334
 20
411.0
 30
0.0
 11
166.66666666666666
 21
411.0
 31
0.0
  0
LINE
  5
23A
330
17
100
AcDbEntity
  8
ПТ_В2
370
35
100
AcDbLine
 10
166.66666666666666
 20
411.0
 30
0.0
 11
190.66666666666669
 21
411.0
 31
0.0
  0
LINE
  5
23B
330
17
100
AcDbEntity
  8
ПТ_В2
370
35
100
AcDbLine
 10
190.66666666666669
 20
411.0
 30
0.0
 11
196.66666666666669
 21
411.0
 31
0.0
  0
LINE
  5
23C
330
17
100
AcDbEntity
  8
ПТ_В2
370
35
100
AcDbLine
 10
196.66666666666669
 20
411.0
 30
0.0
 11
226.66666666666669
 21
411.0
 31
0.0
  0
LINE
  5
23D
330
17
100
AcDbEntity
  8
ПТ_В2
370
35
100
AcDbLine
 10
226.66666666666669
 20
411.0
 30
0.0
 11
270.66666666666663
 21
411.0
 31
0.0
  0
LINE
  5
23E
330
17
100
AcDbEntity
  8
ПТ_В2
370
35
100
AcDbLine
 10
270.66666666666663
 20
411.0
 30
0.0
 11
306.66666666666663
 21
411.0
 31
0.0
  0
LINE
  5
23F
330
17
100
AcDbEntity
  8
ПТ_В2
370
35
100
AcDbLine
 10
306.66666666666663
 20
411.0
 30
0.0
 11
350.66666666666663
 21
411.0
 31
0.0
  0
LINE
  5
240
330
17
100
AcDbEntity
  8
ПТ_В2
370
35
100
AcDbLine
 10
350.66666666666663
 20
411.0
 30
0.0
 11
356.66666666666663
 21
411.0
 31
0.0
  0
LINE
  5
241
330
17
100
AcDbEntity
  8
ПТ_В2
370
35
100
AcDbLine
 10
356.66666666666663
 20
411.0
 30
0.0
 11
422.6666666666667
 21
411.0
 31
0.0
  0
LINE
  5
242
330
17
100
AcDbEntity
  8
ПТ_В2
370
35
100
AcDbLine
 10
422.6666666666667
 20
411.0
 30
0.0
 11
446.6666666666667
 21
411.0
 31
0.0
  0
LINE
  5
243
330
17
100
AcDbEntity
  8
ПТ_В2
370
35
100
AcDbLine
 10
446.6666666666667
 20
411.0
 30
0.0
 11
470.6666666666667
 21
411.0
 31
0.0
  0
LINE
  5
244
330
17
100
AcDbEntity
  8
ПТ_В2
370
35
100
AcDbLine
 10
470.6666666666667
 20
411.0
 30
0.0
 11
480.0
 21
411.0
 31
0.0
  0
LINE
  5
245
330
17
100
AcDbEntity
  8
ПТ_В2
370
35
100
AcDbLine
 10
480.0
 20
411.0
 30
0.0
 11
550.6666666666667
 21
411.0
 31
0.0
  0
LINE
  5
246
330
17
100
AcDbEntity
  8
ПТ_В2
370
35
100
AcDbLine
 10
550.6666666666667
 20
411.0
 30
0.0
 11
556.6666666666667
 21
411.0
 31
0.0
  0
LINE
  5
247
330
17
100
AcDbEntity
  8
ПТ_В2
370
35
100
AcDbLine
 10
556.6666666666667
 20
411.0
 30
0.0
 11
586.6666666666667
 21
411.0
 31
0.0
  0
LINE
  5
248
330
17
100
AcDbEntity
  8
ПТ_В2
370
35
100
AcDbLine
 10
586.6666666666667
 20
411.0
 30
0.0
 11
630.6666666666667
 21
411.0
 31
0.0
  0
LINE
  5
249
330
17
100
AcDbEntity
  8
ПТ_В2
370
35
100
AcDbLine
 10
630.6666666666667
 20
411.0
 30
0.0
 11
666.6666666666666
 21
411.0
 31
0.0
  0
LINE
  5
24A
330
17
100
AcDbEntity
  8
ПТ_В2
370
35
100
AcDbLine
 10
666.6666666666666
 20
411.0
 30
0.0
 11
710.6666666666666
 21
411.0
 31
0.0
  0
LINE
  5
24B
330
17
100
AcDbEntity
  8
ПТ_В2
370
35
100
AcDbLine
 10
710.6666666666666
 20
411.0
 30
0.0
 11
716.6666666666666
 21
411.0
 31
0.0
  0
LINE
  5
24C
330
17
100
AcDbEntity
  8
ПТ_В2
370
35
100
AcDbLine
 10
716.6666666666666
 20
411.0
 30
0.0
 11
726.6666666666666
 21
411.0
 31
0.0
  0
LINE
  5
24D
330
17
100
AcDbEntity
  8
ПТ_В2
370
35
100
AcDbLine
 10
726.6666666666666
 20
411.0
 30
0.0
 11
769.3333333333334
 21
411.0
 31
0.0
  0
LINE
  5
24E
330
17
100
AcDbEntity
  8
ПТ_В2
370
35
100
AcDbLine
 10
149.33333333333334
 20
453.33333333333337
 30
0.0
 11
154.66666666666666
 21
453.33333333333337
 31
0.0
  0
LINE
  5
24F
330
17
100
AcDbEntity
  8
ПТ_В2
370
35
100
AcDbLine
 10
154.66666666666666
 20
453.33333333333337
 30
0.0
 11
154.66666666666666
 21
447.66666666666663
 31
0.0
  0
LINE
  5
250
330
17
100
AcDbEntity
  8
ПТ_В2
370
35
100
AcDbLine
 10
151.33333333333334
 20
408.0
 30
0.0
 11
151.33333333333334
 21
411.0
 31
0.0
  0
LINE
  5
251
330
17
100
AcDbEntity
  8
ПТ_В2
370
35
100
AcDbLine
 10
149.33333333333334
 20
453.33333333333337
 30
0.0
 11
154.66666666666666
 21
453.33333333333337
 31
0.0
  0
INSERT
  5
252
330
17
100
AcDbEntity
  8
ПТ_В2
100
AcDbBlockReference
  2
RISER
 10
190.66666666666669
 20
446.0
 30
0.0
 41
0.55
 42
0.55
  0
INSERT
  5
254
330
17
100
AcDbEntity
  8
ПТ_В2
100
AcDbBlockReference
  2
RISER
 10
190.66666666666669
 20
412.6666666666667
 30
0.0
 41
0.55
 42
0.55
  0
INSERT
  5
256
330
17
100
AcDbEntity
  8
ПТ_В2
100
AcDbBlockReference
  2
RISER
 10
270.66666666666663
 20
446.0
 30
0.0
 41
0.55
 42
0.55
  0
INSERT
  5
258
330
17
100
AcDbEntity
  8
ПТ_В2
100
AcDbBlockReference
  2
RISER
 10
270.66666666666663
 20
412.6666666666667
 30
0.0
 41
0.55
 42
0.55
  0
INSERT
  5
25A
330
17
100
AcDbEntity
  8
ПТ_В2
100
AcDbBlockReference
  2
RISER
 10
350.66666666666663
 20
446.0
 30
0.0
 41
0.55
 42
0.55
  0
INSERT
  5
25C
330
17
100
AcDbEntity
  8
ПТ_В2
100
AcDbBlockReference
  2
RISER
 10
350.66666666666663
 20
412.6666666666667
 30
0.0
 41
0.55
 42
0.55
  0
INSERT
  5
25E
330
17
100
AcDbEntity
  8
ПТ_В2
100
AcDbBlockReference
  2
RISER
 10
422.6666666666667
 20
446.0
 30
0.0
 41
0.55
 42
0.55
  0
INSERT
  5
260
330
17
100
AcDbEntity
  8
ПТ_В2
100
AcDbBlockReference
  2
RISER
 10
422.6666666666667
 20
412.6666666666667
 30
0.0
 41
0.55
 42
0.55
  0
INSERT
  5
262
330
17
100
AcDbEntity
  8
ПТ_В2
100
AcDbBlockReference
  2
RISER
 10
470.6666666666667
 20
446.0
 30
0.0
 41
0.55
 42
0.55
  0
INSERT
  5
264
330
17
100
AcDbEntity
  8
ПТ_В2
100
AcDbBlockReference
  2
RISER
 10
470.6666666666667
 20
412.6666666666667
 30
0.0
 41
0.55
 42
0.55
  0
INSERT
  5
266
330
17
100
AcDbEntity
  8
ПТ_В2
100
AcDbBlockReference
  2
RISER
 10
550.6666666666667
 20
446.0
 30
0.0
 41
0.55
 42
0.55
  0
INSERT
  5
268
330
17
100
AcDbEntity
  8
ПТ_В2
100
AcDbBlockReference
  2
RISER
 10
550.6666666666667
 20
412.6666666666667
 30
0.0
 41
0.55
 42
0.55
  0
INSERT
  5
26A
330
17
100
AcDbEntity
  8
ПТ_В2
100
AcDbBlockReference
  2
RISER
 10
630.6666666666667
 20
446.0
 30
0.0
 41
0.55
 42
0.55
  0
INSERT
  5
26C
330
17
100
AcDbEntity
  8
ПТ_В2
100
AcDbBlockReference
  2
RISER
 10
630.6666666666667
 20
412.6666666666667
 30
0.0
 41
0.55
 42
0.55
  0
INSERT
  5
26E
330
17
100
AcDbEntity
  8
ПТ_В2
100
AcDbBlockReference
  2
RISER
 10
710.6666666666666
 20
446.0
 30
0.0
 41
0.55
 42
0.55
  0
INSERT
  5
270
330
17
100
AcDbEntity
  8
ПТ_В2
100
AcDbBlockReference
  2
RISER
 10
710.6666666666666
 20
412.6666666666667
 30
0.0
 41
0.55
 42
0.55
  0
INSERT
  5
272
330
17
100
AcDbEntity
  8
ПТ_В2
100
AcDbBlockReference
  2
RISER
 10
196.66666666666669
 20
481.66666666666663
 30
0.0
 41
0.55
 42
0.55
  0
INSERT
  5
274
330
17
100
AcDbEntity
  8
ПТ_В2
100
AcDbBlockReference
  2
RISER
 10
196.66666666666669
 20
377.0
 30
0.0
 41
0.55
 42
0.55
  0
INSERT
  5
276
330
17
100
AcDbEntity
  8
ПТ_В2
100
AcDbBlockReference
  2
RISER
 10
356.66666666666663
 20
481.66666666666663
 30
0.0
 41
0.55
 42
0.55
  0
INSERT
  5
278
330
17
100
AcDbEntity
  8
ПТ_В2
100
AcDbBlockReference
  2
RISER
 10
356.66666666666663
 20
377.0
 30
0.0
 41
0.55
 42
0.55
  0
INSERT
  5
27A
330
17
100
AcDbEntity
  8
ПТ_В2
100
AcDbBlockReference
  2
RISER
 10
556.6666666666667
 20
481.66666666666663
 30
0.0
 41
0.55
 42
0.55
  0
INSERT
  5
27C
330
17
100
AcDbEntity
  8
ПТ_В2
100
AcDbBlockReference
  2
RISER
 10
556.6666666666667
 20
377.0
 30
0.0
 41
0.55
 42
0.55
  0
INSERT
  5
27E
330
17
100
AcDbEntity
  8
ПТ_В2
100
AcDbBlockReference
  2
RISER
 10
716.6666666666666
 20
481.66666666666663
 30
0.0
 41
0.55
 42
0.55
  0
INSERT
  5
280
330
17
100
AcDbEntity
  8
ПТ_В2
100
AcDbBlockReference
  2
RISER
 10
716.6666666666666
 20
377.0
 30
0.0
 41
0.55
 42
0.55
  0
INSERT
  5
282
330
17
100
AcDbEntity
  8
ПТ_ПК
100
AcDbBlockReference
  2
PK2
 10
226.66666666666669
 20
445.0
 30
0.0
 41
0.5
 42
0.5
 50
180.0
  0
INSERT
  5
284
330
17
100
AcDbEntity
  8
ПТ_ПК
100
AcDbBlockReference
  2
PK2
 10
413.3333333333333
 20
445.0
 30
0.0
 41
0.5
 42
0.5
 50
180.0
  0
INSERT
  5
286
330
17
100
AcDbEntity
  8
ПТ_ПК
100
AcDbBlockReference
  2
PK2
 10
666.6666666666666
 20
445.0
 30
0.0
 41
0.5
 42
0.5
 50
180.0
  0
INSERT
  5
288
330
17
100
AcDbEntity
  8
ПТ_ПК
100
AcDbBlockReference
  2
PK2
 10
226.66666666666669
 20
413.6666666666667
 30
0.0
 41
0.5
 42
0.5
  0
INSERT
  5
28A
330
17
100
AcDbEntity
  8
ПТ_ПК
100
AcDbBlockReference
  2
PK2
 10
480.0
 20
413.6666666666667
 30
0.0
 41
0.5
 42
0.5
  0
INSERT
  5
28C
330
17
100
AcDbEntity
  8
ПТ_ПК
100
AcDbBlockReference
  2
PK2
 10
666.6666666666666
 20
413.6666666666667
 30
0.0
 41
0.5
 42
0.5
  0
INSERT
  5
28E
330
17
100
AcDbEntity
  8
ПТ_В21
100
AcDbBlockReference
  2
RISER
 10
133.33333333333334
 20
449.33333333333337
 30
0.0
 41
0.7
 42
0.7
  0
INSERT
  5
290
330
17
100
AcDbEntity
  8
ПТ_В22
100
AcDbBlockReference
  2
RISER
 10
141.33333333333334
 20
449.33333333333337
 30
0.0
 41
0.7
 42
0.7
  0
LINE
  5
292
330
17
100
AcDbEntity
  8
ПТ_выноски
100
AcDbLine
 10
137.33333333333334
 20
448.66666666666663
 30
0.0
 11
137.33333333333334
 21
425.33333333333337
 31
0.0
  0
LINE
  5
293
330
17
100
AcDbEntity
  8
ПТ_выноски
100
AcDbLine
 10
137.33333333333334
 20
425.33333333333337
 30
0.0
 11
207.33333333333331
 21
425.33333333333337
 31
0.0
  0
TEXT
  5
294
330
17
100
AcDbEntity
  8
ПТ_текст
100
AcDbText
 10
138.66666666666666
 20
434.0
 30
0.0
 40
2.5
  1
Ст.В21-1, Ст.В22-1, перемычка В2, линия к ГМ-80 —
  7
ПТ
 11
138.66666666666666
 21
434.0
 31
0.0
100
AcDbText
 73
1
  0
TEXT
  5
295
330
17
100
AcDbEntity
  8
ПТ_текст
100
AcDbText
 10
138.66666666666666
 20
427.33333333333337
 30
0.0
 40
2.5
  1
вверх в пом. 05 (КУИ) 1 этажа
  7
ПТ
 11
138.66666666666666
 21
427.33333333333337
 31
0.0
100
AcDbText
 73
1
  0
TEXT
  5
296
330
17
100
AcDbEntity
  8
ПТ_текст
100
AcDbText
 10
320.0
 20
449.66666666666663
 30
0.0
 40
2.5
  1
Кольцо ВПВ Ду100, ▽-0,450
  7
ПТ
 11
320.0
 21
449.66666666666663
 31
0.0
100
AcDbText
 73
1
  0
LINE
  5
297
330
17
100
AcDbEntity
  8
ПТ_контур
  6
ПТ_ШТРИХ
 62
1
370
35
100
AcDbLine
 10
178.8
 20
474.66666666666663
 30
0.0
 11
178.8
 21
462.66666666666663
 31
0.0
  0
LINE
  5
298
330
17
100
AcDbEntity
  8
ПТ_контур
  6
ПТ_ШТРИХ
 62
1
370
35
100
AcDbLine
 10
178.8
 20
462.66666666666663
 30
0.0
 11
432.3333333333333
 21
462.66666666666663
 31
0.0
  0
LINE
  5
299
330
17
100
AcDbEntity
  8
ПТ_контур
  6
ПТ_ШТРИХ
 62
1
370
35
100
AcDbLine
 10
432.3333333333333
 20
462.66666666666663
 30
0.0
 11
432.3333333333333
 21
484.66666666666663
 31
0.0
  0
INSERT
  5
29A
330
17
100
AcDbEntity
  8
ПТ_контур
100
AcDbBlockReference
  2
ARROW
 10
432.3333333333333
 20
485.33333333333337
 30
0.0
 50
90.0
  0
TEXT
  5
29C
330
17
100
AcDbEntity
  8
ПТ_текст
100
AcDbText
 10
213.33333333333331
 20
464.66666666666663
 30
0.0
 40
2.5
  1
А — путь от насосной до лестницы ≈ 40 м
  7
ПТ
 11
213.33333333333331
 21
464.66666666666663
 31
0.0
100
AcDbText
 73
1
  0
LWPOLYLINE
  5
29D
330
17
100
AcDbEntity
  8
ПТ_контур
  6
ПТ_ШТРИХ
370
35
100
AcDbPolyline
 90
4
 70
1
 10
107.33333333333333
 20
446.0
 10
118.66666666666667
 20
446.0
 10
118.66666666666667
 20
468.66666666666663
 10
107.33333333333333
 20
468.66666666666663
  0
LINE
  5
29E
330
17
100
AcDbEntity
  8
ПТ_контур
  6
ПТ_ШТРИХ
370
35
100
AcDbLine
 10
118.66666666666667
 20
456.0
 30
0.0
 11
122.0
 21
456.0
 31
0.0
  0
LINE
  5
29F
330
17
100
AcDbEntity
  8
ПТ_выноски
100
AcDbLine
 10
107.33333333333333
 20
450.66666666666663
 30
0.0
 11
87.93333333333334
 21
446.66666666666663
 31
0.0
  0
CIRCLE
  5
2A0
330
17
100
AcDbEntity
  8
ПТ_контур
370
25
100
AcDbCircle
 10
85.33333333333334
 20
446.66666666666663
 30
0.0
 40
2.6
  0
TEXT
  5
2A1
330
17
100
AcDbEntity
  8
ПТ_текст
100
AcDbText
 10
85.33333333333334
 20
446.66666666666663
 30
0.0
 40
2.5
  1
Б
  7
ПТ
 72
1
 11
85.33333333333334
 21
446.66666666666663
 31
0.0
100
AcDbText
 73
2
  0
TEXT
  5
2A2
330
17
100
AcDbEntity
  8
ПТ_текст
100
AcDbText
 10
81.83333333333334
 20
442.16666666666663
 30
0.0
 40
1.8
  1
выход наружу
  7
ПТ
 72
2
 11
81.83333333333334
 21
442.16666666666663
 31
0.0
100
AcDbText
 73
3
  0
TEXT
  5
2A3
330
17
100
AcDbEntity
  8
ПТ_текст
100
AcDbText
 10
81.83333333333334
 20
439.3666666666666
 30
0.0
 40
1.8
  1
(приямок, условно)
  7
ПТ
 72
2
 11
81.83333333333334
 21
439.3666666666666
 31
0.0
100
AcDbText
 73
3
  0
TEXT
  5
2A4
330
17
100
AcDbEntity
  8
ПТ_текст
100
AcDbText
 10
615.0
 20
268.0
 30
0.0
 40
3.5
  1
Основные данные
  7
ПТ_загл
 11
615.0
 21
268.0
 31
0.0
100
AcDbText
 73
1
  0
LWPOLYLINE
  5
2A5
330
17
100
AcDbEntity
  8
ПТ_рамка_тонк
370
35
100
AcDbPolyline
 90
4
 70
1
 10
615.0
 20
257.0
 10
827.0
 20
257.0
 10
827.0
 20
264.0
 10
615.0
 20
264.0
  0
LINE
  5
2A6
330
17
100
AcDbEntity
  8
ПТ_рамка_тонк
370
35
100
AcDbLine
 10
615.0
 20
264.0
 30
0.0
 11
615.0
 21
257.0
 31
0.0
  0
MTEXT
  5
2A7
330
17
100
AcDbEntity
  8
ПТ_текст
100
AcDbMText
 10
667.0
 20
260.5
 30
0.0
 40
2.25
 41
102.5
 71
5
  1
Параметр
  7
ПТ
  0
LINE
  5
2A8
330
17
100
AcDbEntity
  8
ПТ_рамка_тонк
370
35
100
AcDbLine
 10
719.0
 20
264.0
 30
0.0
 11
719.0
 21
257.0
 31
0.0
  0
MTEXT
  5
2A9
330
17
100
AcDbEntity
  8
ПТ_текст
100
AcDbMText
 10
773.0
 20
260.5
 30
0.0
 40
2.25
 41
106.5
 71
5
  1
Значение
  7
ПТ
  0
LINE
  5
2AA
330
17
100
AcDbEntity
  8
ПТ_рамка_тонк
370
35
100
AcDbLine
 10
827.0
 20
264.0
 30
0.0
 11
827.0
 21
257.0
 31
0.0
  0
LINE
  5
2AB
330
17
100
AcDbEntity
  8
ПТ_рамка_тонк
100
AcDbLine
 10
615.0
 20
257.0
 30
0.0
 11
615.0
 21
250.625
 31
0.0
  0
TEXT
  5
2AC
330
17
100
AcDbEntity
  8
ПТ_текст
100
AcDbText
 10
616.2
 20
253.8125
 30
0.0
 40
2.5
  1
Расчётный расход: АУПТ + ВПВ
  7
ПТ
 11
616.2
 21
253.8125
 31
0.0
100
AcDbText
 73
2
  0
LINE
  5
2AD
330
17
100
AcDbEntity
  8
ПТ_рамка_тонк
100
AcDbLine
 10
719.0
 20
257.0
 30
0.0
 11
719.0
 21
250.625
 31
0.0
  0
TEXT
  5
2AE
330
17
100
AcDbEntity
  8
ПТ_текст
100
AcDbText
 10
720.2
 20
253.8125
 30
0.0
 40
2.5
  1
30,0 + 10,4 = 40,4 л/с (145 м³/ч)
  7
ПТ
 11
720.2
 21
253.8125
 31
0.0
100
AcDbText
 73
2
  0
LINE
  5
2AF
330
17
100
AcDbEntity
  8
ПТ_рамка_тонк
100
AcDbLine
 10
827.0
 20
257.0
 30
0.0
 11
827.0
 21
250.625
 31
0.0
  0
LINE
  5
2B0
330
17
100
AcDbEntity
  8
ПТ_рамка_тонк
100
AcDbLine
 10
615.0
 20
250.625
 30
0.0
 11
827.0
 21
250.625
 31
0.0
  0
LINE
  5
2B1
330
17
100
AcDbEntity
  8
ПТ_рамка_тонк
100
AcDbLine
 10
615.0
 20
250.625
 30
0.0
 11
615.0
 21
244.25
 31
0.0
  0
TEXT
  5
2B2
330
17
100
AcDbEntity
  8
ПТ_текст
100
AcDbText
 10
616.2
 20
247.4375
 30
0.0
 40
2.5
  1
Выделено по ТУ от 08.10.2026, точка 23.1
  7
ПТ
 11
616.2
 21
247.4375
 31
0.0
100
AcDbText
 73
2
  0
LINE
  5
2B3
330
17
100
AcDbEntity
  8
ПТ_рамка_тонк
100
AcDbLine
 10
719.0
 20
250.625
 30
0.0
 11
719.0
 21
244.25
 31
0.0
  0
TEXT
  5
2B4
330
17
100
AcDbEntity
  8
ПТ_текст
100
AcDbText
 10
720.2
 20
247.4375
 30
0.0
 40
2.5
  1
40,0 л/с, 0,20 МПа
  7
ПТ
 11
720.2
 21
247.4375
 31
0.0
100
AcDbText
 73
2
  0
LINE
  5
2B5
330
17
100
AcDbEntity
  8
ПТ_рамка_тонк
100
AcDbLine
 10
827.0
 20
250.625
 30
0.0
 11
827.0
 21
244.25
 31
0.0
  0
LINE
  5
2B6
330
17
100
AcDbEntity
  8
ПТ_рамка_тонк
100
AcDbLine
 10
615.0
 20
244.25
 30
0.0
 11
827.0
 21
244.25
 31
0.0
  0
LINE
  5
2B7
330
17
100
AcDbEntity
  8
ПТ_рамка_тонк
100
AcDbLine
 10
615.0
 20
244.25
 30
0.0
 11
615.0
 21
237.875
 31
0.0
  0
TEXT
  5
2B8
330
17
100
AcDbEntity
  8
ПТ_текст
100
AcDbText
 10
616.2
 20
241.0625
 30
0.0
 40
2.5
  1
Требуемый напор на выходе насосной
  7
ПТ
 11
616.2
 21
241.0625
 31
0.0
100
AcDbText
 73
2
  0
LINE
  5
2B9
330
17
100
AcDbEntity
  8
ПТ_рамка_тонк
100
AcDbLine
 10
719.0
 20
244.25
 30
0.0
 11
719.0
 21
237.875
 31
0.0
  0
TEXT
  5
2BA
330
17
100
AcDbEntity
  8
ПТ_текст
100
AcDbText
 10
720.2
 20
241.0625
 30
0.0
 40
2.5
  1
37,1 м
  7
ПТ
 11
720.2
 21
241.0625
 31
0.0
100
AcDbText
 73
2
  0
LINE
  5
2BB
330
17
100
AcDbEntity
  8
ПТ_рамка_тонк
100
AcDbLine
 10
827.0
 20
244.25
 30
0.0
 11
827.0
 21
237.875
 31
0.0
  0
LINE
  5
2BC
330
17
100
AcDbEntity
  8
ПТ_рамка_тонк
100
AcDbLine
 10
615.0
 20
237.875
 30
0.0
 11
827.0
 21
237.875
 31
0.0
  0
LINE
  5
2BD
330
17
100
AcDbEntity
  8
ПТ_рамка_тонк
100
AcDbLine
 10
615.0
 20
237.875
 30
0.0
 11
615.0
 21
231.5
 31
0.0
  0
TEXT
  5
2BE
330
17
100
AcDbEntity
  8
ПТ_текст
100
AcDbText
 10
616.2
 20
234.6875
 30
0.0
 40
2.5
  1
Напор на выходе при нулевой подаче
  7
ПТ
 11
616.2
 21
234.6875
 31
0.0
100
AcDbText
 73
2
  0
LINE
  5
2BF
330
17
100
AcDbEntity
  8
ПТ_рамка_тонк
100
AcDbLine
 10
719.0
 20
237.875
 30
0.0
 11
719.0
 21
231.5
 31
0.0
  0
TEXT
  5
2C0
330
17
100
AcDbEntity
  8
ПТ_текст
100
AcDbText
 10
720.2
 20
234.6875
 30
0.0
 40
2.5
  1
39,8 м (при 0,20 МПа на вводе)
  7
ПТ
 11
720.2
 21
234.6875
 31
0.0
100
AcDbText
 73
2
  0
LINE
  5
2C1
330
17
100
AcDbEntity
  8
ПТ_рамка_тонк
100
AcDbLine
 10
827.0
 20
237.875
 30
0.0
 11
827.0
 21
231.5
 31
0.0
  0
LINE
  5
2C2
330
17
100
AcDbEntity
  8
ПТ_рамка_тонк
100
AcDbLine
 10
615.0
 20
231.5
 30
0.0
 11
827.0
 21
231.5
 31
0.0
  0
LINE
  5
2C3
330
17
100
AcDbEntity
  8
ПТ_рамка_тонк
100
AcDbLine
 10
615.0
 20
231.5
 30
0.0
 11
615.0
 21
225.125
 31
0.0
  0
TEXT
  5
2C4
330
17
100
AcDbEntity
  8
ПТ_текст
100
AcDbText
 10
616.2
 20
228.3125
 30
0.0
 40
2.5
  1
Насосы Н1, Н2 (1 раб. + 1 рез.), in-line
  7
ПТ
 11
616.2
 21
228.3125
 31
0.0
100
AcDbText
 73
2
  0
LINE
  5
2C5
330
17
100
AcDbEntity
  8
ПТ_рамка_тонк
100
AcDbLine
 10
719.0
 20
231.5
 30
0.0
 11
719.0
 21
225.125
 31
0.0
  0
TEXT
  5
2C6
330
17
100
AcDbEntity
  8
ПТ_текст
100
AcDbText
 10
720.2
 20
228.3125
 30
0.0
 40
2.5
  1
145 м³/ч, 21 м, 15 кВт
  7
ПТ
 11
720.2
 21
228.3125
 31
0.0
100
AcDbText
 73
2
  0
LINE
  5
2C7
330
17
100
AcDbEntity
  8
ПТ_рамка_тонк
100
AcDbLine
 10
827.0
 20
231.5
 30
0.0
 11
827.0
 21
225.125
 31
0.0
  0
LINE
  5
2C8
330
17
100
AcDbEntity
  8
ПТ_рамка_тонк
100
AcDbLine
 10
615.0
 20
225.125
 30
0.0
 11
827.0
 21
225.125
 31
0.0
  0
LINE
  5
2C9
330
17
100
AcDbEntity
  8
ПТ_рамка_тонк
100
AcDbLine
 10
615.0
 20
225.125
 30
0.0
 11
615.0
 21
218.75
 31
0.0
  0
TEXT
  5
2CA
330
17
100
AcDbEntity
  8
ПТ_текст
100
AcDbText
 10
616.2
 20
221.9375
 30
0.0
 40
2.5
  1
Жокей-насос Н3, бак мембранный 100 л
  7
ПТ
 11
616.2
 21
221.9375
 31
0.0
100
AcDbText
 73
2
  0
LINE
  5
2CB
330
17
100
AcDbEntity
  8
ПТ_рамка_тонк
100
AcDbLine
 10
719.0
 20
225.125
 30
0.0
 11
719.0
 21
218.75
 31
0.0
  0
TEXT
  5
2CC
330
17
100
AcDbEntity
  8
ПТ_текст
100
AcDbText
 10
720.2
 20
221.9375
 30
0.0
 40
2.5
  1
1,5 м³/ч, 30 м, 0,55 кВт
  7
ПТ
 11
720.2
 21
221.9375
 31
0.0
100
AcDbText
 73
2
  0
LINE
  5
2CD
330
17
100
AcDbEntity
  8
ПТ_рамка_тонк
100
AcDbLine
 10
827.0
 20
225.125
 30
0.0
 11
827.0
 21
218.75
 31
0.0
  0
LINE
  5
2CE
330
17
100
AcDbEntity
  8
ПТ_рамка_тонк
100
AcDbLine
 10
615.0
 20
218.75
 30
0.0
 11
827.0
 21
218.75
 31
0.0
  0
LINE
  5
2CF
330
17
100
AcDbEntity
  8
ПТ_рамка_тонк
100
AcDbLine
 10
615.0
 20
218.75
 30
0.0
 11
615.0
 21
212.375
 31
0.0
  0
TEXT
  5
2D0
330
17
100
AcDbEntity
  8
ПТ_текст
100
AcDbText
 10
616.2
 20
215.5625
 30
0.0
 40
2.5
  1
Дренажные насосы ДН1, ДН2 в приямке
  7
ПТ
 11
616.2
 21
215.5625
 31
0.0
100
AcDbText
 73
2
  0
LINE
  5
2D1
330
17
100
AcDbEntity
  8
ПТ_рамка_тонк
100
AcDbLine
 10
719.0
 20
218.75
 30
0.0
 11
719.0
 21
212.375
 31
0.0
  0
TEXT
  5
2D2
330
17
100
AcDbEntity
  8
ПТ_текст
100
AcDbText
 10
720.2
 20
215.5625
 30
0.0
 40
2.5
  1
10 м³/ч, 10 м, 0,75 кВт
  7
ПТ
 11
720.2
 21
215.5625
 31
0.0
100
AcDbText
 73
2
  0
LINE
  5
2D3
330
17
100
AcDbEntity
  8
ПТ_рамка_тонк
100
AcDbLine
 10
827.0
 20
218.75
 30
0.0
 11
827.0
 21
212.375
 31
0.0
  0
LINE
  5
2D4
330
17
100
AcDbEntity
  8
ПТ_рамка_тонк
100
AcDbLine
 10
615.0
 20
212.375
 30
0.0
 11
827.0
 21
212.375
 31
0.0
  0
LINE
  5
2D5
330
17
100
AcDbEntity
  8
ПТ_рамка_тонк
100
AcDbLine
 10
615.0
 20
212.375
 30
0.0
 11
615.0
 21
206.0
 31
0.0
  0
TEXT
  5
2D6
330
17
100
AcDbEntity
  8
ПТ_текст
100
AcDbText
 10
616.2
 20
209.1875
 30
0.0
 40
2.5
  1
Узлы управления Ду150
  7
ПТ
 11
616.2
 21
209.1875
 31
0.0
100
AcDbText
 73
2
  0
LINE
  5
2D7
330
17
100
AcDbEntity
  8
ПТ_рамка_тонк
100
AcDbLine
 10
719.0
 20
212.375
 30
0.0
 11
719.0
 21
206.0
 31
0.0
  0
TEXT
  5
2D8
330
17
100
AcDbEntity
  8
ПТ_текст
100
AcDbText
 10
720.2
 20
209.1875
 30
0.0
 40
2.5
  1
УУ-1 — В21 (1 этаж), УУ-2 — В22 (2 этаж)
  7
ПТ
 11
720.2
 21
209.1875
 31
0.0
100
AcDbText
 73
2
  0
LINE
  5
2D9
330
17
100
AcDbEntity
  8
ПТ_рамка_тонк
100
AcDbLine
 10
827.0
 20
212.375
 30
0.0
 11
827.0
 21
206.0
 31
0.0
  0
LINE
  5
2DA
330
17
100
AcDbEntity
  8
ПТ_рамка_тонк
100
AcDbLine
 10
615.0
 20
206.0
 30
0.0
 11
827.0
 21
206.0
 31
0.0
  0
LINE
  5
2DB
330
17
100
AcDbEntity
  8
ПТ_рамка_тонк
100
AcDbLine
 10
615.0
 20
206.0
 30
0.0
 11
615.0
 21
199.625
 31
0.0
  0
TEXT
  5
2DC
330
17
100
AcDbEntity
  8
ПТ_текст
100
AcDbText
 10
616.2
 20
202.8125
 30
0.0
 40
2.5
  1
Помещение, оси 1–3/Д–Е
  7
ПТ
 11
616.2
 21
202.8125
 31
0.0
100
AcDbText
 73
2
  0
LINE
  5
2DD
330
17
100
AcDbEntity
  8
ПТ_рамка_тонк
100
AcDbLine
 10
719.0
 20
206.0
 30
0.0
 11
719.0
 21
199.625
 31
0.0
  0
TEXT
  5
2DE
330
17
100
AcDbEntity
  8
ПТ_текст
100
AcDbText
 10
720.2
 20
202.8125
 30
0.0
 40
2.5
  1
8,0×5,4 м, 43,2 м²
  7
ПТ
 11
720.2
 21
202.8125
 31
0.0
100
AcDbText
 73
2
  0
LINE
  5
2DF
330
17
100
AcDbEntity
  8
ПТ_рамка_тонк
100
AcDbLine
 10
827.0
 20
206.0
 30
0.0
 11
827.0
 21
199.625
 31
0.0
  0
LINE
  5
2E0
330
17
100
AcDbEntity
  8
ПТ_рамка_тонк
100
AcDbLine
 10
615.0
 20
199.625
 30
0.0
 11
827.0
 21
199.625
 31
0.0
  0
LINE
  5
2E1
330
17
100
AcDbEntity
  8
ПТ_рамка_тонк
100
AcDbLine
 10
615.0
 20
199.625
 30
0.0
 11
615.0
 21
193.25
 31
0.0
  0
TEXT
  5
2E2
330
17
100
AcDbEntity
  8
ПТ_текст
100
AcDbText
 10
616.2
 20
196.4375
 30
0.0
 40
2.5
  1
Пол / низ перекрытия / низ балок 20К2
  7
ПТ
 11
616.2
 21
196.4375
 31
0.0
100
AcDbText
 73
2
  0
LINE
  5
2E3
330
17
100
AcDbEntity
  8
ПТ_рамка_тонк
100
AcDbLine
 10
719.0
 20
199.625
 30
0.0
 11
719.0
 21
193.25
 31
0.0
  0
TEXT
  5
2E4
330
17
100
AcDbEntity
  8
ПТ_текст
100
AcDbText
 10
720.2
 20
196.4375
 30
0.0
 40
2.5
  1
-2,200 / -0,218 / -0,248
  7
ПТ
 11
720.2
 21
196.4375
 31
0.0
100
AcDbText
 73
2
  0
LINE
  5
2E5
330
17
100
AcDbEntity
  8
ПТ_рамка_тонк
100
AcDbLine
 10
827.0
 20
199.625
 30
0.0
 11
827.0
 21
193.25
 31
0.0
  0
LINE
  5
2E6
330
17
100
AcDbEntity
  8
ПТ_рамка_тонк
100
AcDbLine
 10
615.0
 20
193.25
 30
0.0
 11
827.0
 21
193.25
 31
0.0
  0
LINE
  5
2E7
330
17
100
AcDbEntity
  8
ПТ_рамка_тонк
100
AcDbLine
 10
615.0
 20
193.25
 30
0.0
 11
615.0
 21
186.875
 31
0.0
  0
TEXT
  5
2E8
330
17
100
AcDbEntity
  8
ПТ_текст
100
AcDbText
 10
616.2
 20
190.0625
 30
0.0
 40
2.5
  1
Высота в свету: до перекрытия / под балками
  7
ПТ
 11
616.2
 21
190.0625
 31
0.0
100
AcDbText
 73
2
  0
LINE
  5
2E9
330
17
100
AcDbEntity
  8
ПТ_рамка_тонк
100
AcDbLine
 10
719.0
 20
193.25
 30
0.0
 11
719.0
 21
186.875
 31
0.0
  0
TEXT
  5
2EA
330
17
100
AcDbEntity
  8
ПТ_текст
100
AcDbText
 10
720.2
 20
190.0625
 30
0.0
 40
2.5
  1
1,98 / 1,95 м
  7
ПТ
 11
720.2
 21
190.0625
 31
0.0
100
AcDbText
 73
2
  0
LINE
  5
2EB
330
17
100
AcDbEntity
  8
ПТ_рамка_тонк
100
AcDbLine
 10
827.0
 20
193.25
 30
0.0
 11
827.0
 21
186.875
 31
0.0
  0
LINE
  5
2EC
330
17
100
AcDbEntity
  8
ПТ_рамка_тонк
100
AcDbLine
 10
615.0
 20
186.875
 30
0.0
 11
827.0
 21
186.875
 31
0.0
  0
LINE
  5
2ED
330
17
100
AcDbEntity
  8
ПТ_рамка_тонк
100
AcDbLine
 10
615.0
 20
186.875
 30
0.0
 11
615.0
 21
180.5
 31
0.0
  0
TEXT
  5
2EE
330
17
100
AcDbEntity
  8
ПТ_текст
100
AcDbText
 10
616.2
 20
183.6875
 30
0.0
 40
2.5
  1
Электроснабжение
  7
ПТ
 11
616.2
 21
183.6875
 31
0.0
100
AcDbText
 73
2
  0
LINE
  5
2EF
330
17
100
AcDbEntity
  8
ПТ_рамка_тонк
100
AcDbLine
 10
719.0
 20
186.875
 30
0.0
 11
719.0
 21
180.5
 31
0.0
  0
TEXT
  5
2F0
330
17
100
AcDbEntity
  8
ПТ_текст
100
AcDbText
 10
720.2
 20
183.6875
 30
0.0
 40
2.5
  1
I категория надёжности
  7
ПТ
 11
720.2
 21
183.6875
 31
0.0
100
AcDbText
 73
2
  0
LINE
  5
2F1
330
17
100
AcDbEntity
  8
ПТ_рамка_тонк
100
AcDbLine
 10
827.0
 20
186.875
 30
0.0
 11
827.0
 21
180.5
 31
0.0
  0
LINE
  5
2F2
330
17
100
AcDbEntity
  8
ПТ_рамка_тонк
100
AcDbLine
 10
615.0
 20
180.5
 30
0.0
 11
827.0
 21
180.5
 31
0.0
  0
LINE
  5
2F3
330
17
100
AcDbEntity
  8
ПТ_рамка_тонк
100
AcDbLine
 10
615.0
 20
180.5
 30
0.0
 11
615.0
 21
174.125
 31
0.0
  0
TEXT
  5
2F4
330
17
100
AcDbEntity
  8
ПТ_текст
100
AcDbText
 10
616.2
 20
177.3125
 30
0.0
 40
2.5
  1
Мощность установленная / расчётная
  7
ПТ
 11
616.2
 21
177.3125
 31
0.0
100
AcDbText
 73
2
  0
LINE
  5
2F5
330
17
100
AcDbEntity
  8
ПТ_рамка_тонк
100
AcDbLine
 10
719.0
 20
180.5
 30
0.0
 11
719.0
 21
174.125
 31
0.0
  0
TEXT
  5
2F6
330
17
100
AcDbEntity
  8
ПТ_текст
100
AcDbText
 10
720.2
 20
177.3125
 30
0.0
 40
2.5
  1
32,25 / 16,5 кВт
  7
ПТ
 11
720.2
 21
177.3125
 31
0.0
100
AcDbText
 73
2
  0
LINE
  5
2F7
330
17
100
AcDbEntity
  8
ПТ_рамка_тонк
100
AcDbLine
 10
827.0
 20
180.5
 30
0.0
 11
827.0
 21
174.125
 31
0.0
  0
LINE
  5
2F8
330
17
100
AcDbEntity
  8
ПТ_рамка_тонк
100
AcDbLine
 10
615.0
 20
174.125
 30
0.0
 11
827.0
 21
174.125
 31
0.0
  0
TEXT
  5
2F9
330
17
100
AcDbEntity
  8
ПТ_текст
100
AcDbText
 10
615.0
 20
165.125
 30
0.0
 40
3.5
  1
Условные обозначения
  7
ПТ_загл
 11
615.0
 21
165.125
 31
0.0
100
AcDbText
 73
1
  0
HATCH
  5
2FA
330
17
100
AcDbEntity
  8
ПТ_штриховка
 62
8
100
AcDbHatch
 10
0.0
 20
0.0
 30
0.0
210
0.0
220
0.0
230
1.0
  2
SOLID
 70
1
 71
0
 91
1
 92
3
 72
0
 73
1
 93
4
 10
617.0
 20
157.825
 10
637.0
 20
157.825
 10
637.0
 20
160.825
 10
617.0
 20
160.825
 97
0
 75
1
 76
1
 98
0
  0
TEXT
  5
2FB
330
17
100
AcDbEntity
  8
ПТ_текст
100
AcDbText
 10
642.0
 20
159.325
 30
0.0
 40
2.5
  1
Стены технического подвала (монолит)
  7
ПТ
 11
642.0
 21
159.325
 31
0.0
100
AcDbText
 73
2
  0
HATCH
  5
2FC
330
17
100
AcDbEntity
  8
ПТ_штриховка
 62
1
100
AcDbHatch
 10
0.0
 20
0.0
 30
0.0
210
0.0
220
0.0
230
1.0
  2
ANSI31
 70
0
 71
0
 91
1
 92
3
 72
0
 73
1
 93
4
 10
617.0
 20
151.125
 10
637.0
 20
151.125
 10
637.0
 20
155.125
 10
617.0
 20
155.125
 97
0
 75
1
 76
1
 52
0.0
 41
0.6
 77
0
 78
1
 53
45.0
 43
0.0
 44
0.0
 45
-1.3470384182
 46
1.3470384182
 79
0
 98
0
  0
LWPOLYLINE
  5
2FD
330
17
100
AcDbEntity
  8
ПТ_контур
370
70
100
AcDbPolyline
 90
4
 70
1
 10
617.0
 20
151.125
 10
637.0
 20
151.125
 10
637.0
 20
155.125
 10
617.0
 20
155.125
  0
TEXT
  5
2FE
330
17
100
AcDbEntity
  8
ПТ_текст
100
AcDbText
 10
642.0
 20
153.125
 30
0.0
 40
2.5
  1
Насосная станция — новая выгородка
  7
ПТ
 11
642.0
 21
153.125
 31
0.0
100
AcDbText
 73
2
  0
LINE
  5
2FF
330
17
100
AcDbEntity
  8
ПТ_ввод
370
60
100
AcDbLine
 10
617.0
 20
146.925
 30
0.0
 11
637.0
 21
146.925
 31
0.0
  0
TEXT
  5
300
330
17
100
AcDbEntity
  8
ПТ_текст
100
AcDbText
 10
642.0
 20
146.925
 30
0.0
 40
2.5
  1
Вводы 2×Ду150 от точки 23.1 (раздел НВК)
  7
ПТ
 11
642.0
 21
146.925
 31
0.0
100
AcDbText
 73
2
  0
LINE
  5
301
330
17
100
AcDbEntity
  8
ПТ_В2
370
35
100
AcDbLine
 10
617.0
 20
140.72500000000002
 30
0.0
 11
631.0
 21
140.72500000000002
 31
0.0
  0
INSERT
  5
302
330
17
100
AcDbEntity
  8
ПТ_ПК
100
AcDbBlockReference
  2
PK2
 10
634.0
 20
140.72500000000002
 30
0.0
 41
0.5
 42
0.5
  0
TEXT
  5
304
330
17
100
AcDbEntity
  8
ПТ_текст
100
AcDbText
 10
642.0
 20
140.72500000000002
 30
0.0
 40
2.5
  1
Сеть ВПВ В2 в подвале, шкафы ПК
  7
ПТ
 11
642.0
 21
140.72500000000002
 31
0.0
100
AcDbText
 73
2
  0
INSERT
  5
305
330
17
100
AcDbEntity
  8
ПТ_В2
100
AcDbBlockReference
  2
RISER
 10
622.0
 20
134.52500000000003
 30
0.0
 41
0.55
 42
0.55
  0
INSERT
  5
307
330
17
100
AcDbEntity
  8
ПТ_В21
100
AcDbBlockReference
  2
RISER
 10
631.0
 20
134.52500000000003
 30
0.0
 41
0.7
 42
0.7
  0
TEXT
  5
309
330
17
100
AcDbEntity
  8
ПТ_текст
100
AcDbText
 10
642.0
 20
134.52500000000003
 30
0.0
 40
2.5
  1
Стояки: ВПВ — на этажи, АУПТ — из насосной
  7
ПТ
 11
642.0
 21
134.52500000000003
 31
0.0
100
AcDbText
 73
2
  0
LINE
  5
30A
330
17
100
AcDbEntity
  8
ПТ_контур
  6
ПТ_ШТРИХ
 62
1
370
35
100
AcDbLine
 10
617.0
 20
128.32500000000005
 30
0.0
 11
637.0
 21
128.32500000000005
 31
0.0
  0
TEXT
  5
30B
330
17
100
AcDbEntity
  8
ПТ_текст
100
AcDbText
 10
642.0
 20
128.32500000000005
 30
0.0
 40
2.5
  1
А — путь до лестницы по коридору 1
  7
ПТ
 11
642.0
 21
128.32500000000005
 31
0.0
100
AcDbText
 73
2
  0
LWPOLYLINE
  5
30C
330
17
100
AcDbEntity
  8
ПТ_контур
  6
ПТ_ШТРИХ
370
35
100
AcDbPolyline
 90
4
 70
1
 10
621.0
 20
120.12500000000004
 10
633.0
 20
120.12500000000004
 10
633.0
 20
124.12500000000004
 10
621.0
 20
124.12500000000004
  0
TEXT
  5
30D
330
17
100
AcDbEntity
  8
ПТ_текст
100
AcDbText
 10
642.0
 20
122.12500000000004
 30
0.0
 40
2.5
  1
Б — отдельный выход наружу (вариант)
  7
ПТ
 11
642.0
 21
122.12500000000004
 31
0.0
100
AcDbText
 73
2
  0
LINE
  5
30E
330
17
100
AcDbEntity
  8
ПТ_контур
  6
ПТ_ШТРИХ
370
18
100
AcDbLine
 10
617.0
 20
115.92500000000004
 30
0.0
 11
637.0
 21
115.92500000000004
 31
0.0
  0
TEXT
  5
30F
330
17
100
AcDbEntity
  8
ПТ_текст
100
AcDbText
 10
642.0
 20
115.92500000000004
 30
0.0
 40
2.5
  1
Контур здания по 1 этажу
  7
ПТ
 11
642.0
 21
115.92500000000004
 31
0.0
100
AcDbText
 73
2
  0
TEXT
  5
310
330
17
100
AcDbEntity
  8
ПТ_текст
100
AcDbText
 10
30.0
 20
268.0
 30
0.0
 40
3.5
  1
Вопросы на согласование
  7
ПТ_загл
 11
30.0
 21
268.0
 31
0.0
100
AcDbText
 73
1
  0
LWPOLYLINE
  5
311
330
17
100
AcDbEntity
  8
ПТ_рамка_тонк
370
35
100
AcDbPolyline
 90
4
 70
1
 10
30.0
 20
255.0
 10
600.0
 20
255.0
 10
600.0
 20
264.0
 10
30.0
 20
264.0
  0
LINE
  5
312
330
17
100
AcDbEntity
  8
ПТ_рамка_тонк
370
35
100
AcDbLine
 10
30.0
 20
264.0
 30
0.0
 11
30.0
 21
255.0
 31
0.0
  0
MTEXT
  5
313
330
17
100
AcDbEntity
  8
ПТ_текст
100
AcDbMText
 10
34.5
 20
259.5
 30
0.0
 40
3.15
 41
7.5
 71
5
  1
№
  7
ПТ
  0
LINE
  5
314
330
17
100
AcDbEntity
  8
ПТ_рамка_тонк
370
35
100
AcDbLine
 10
39.0
 20
264.0
 30
0.0
 11
39.0
 21
255.0
 31
0.0
  0
MTEXT
  5
315
330
17
100
AcDbEntity
  8
ПТ_текст
100
AcDbMText
 10
59.0
 20
259.5
 30
0.0
 40
3.15
 41
38.5
 71
5
  1
Вопрос
  7
ПТ
  0
LINE
  5
316
330
17
100
AcDbEntity
  8
ПТ_рамка_тонк
370
35
100
AcDbLine
 10
79.0
 20
264.0
 30
0.0
 11
79.0
 21
255.0
 31
0.0
  0
MTEXT
  5
317
330
17
100
AcDbEntity
  8
ПТ_текст
100
AcDbMText
 10
249.5
 20
259.5
 30
0.0
 40
3.15
 41
339.5
 71
5
  1
Предложение проекта
  7
ПТ
  0
LINE
  5
318
330
17
100
AcDbEntity
  8
ПТ_рамка_тонк
370
35
100
AcDbLine
 10
420.0
 20
264.0
 30
0.0
 11
420.0
 21
255.0
 31
0.0
  0
MTEXT
  5
319
330
17
100
AcDbEntity
  8
ПТ_текст
100
AcDbMText
 10
436.5
 20
259.5
 30
0.0
 40
3.15
 41
31.5
 71
5
  1
Раздел
  7
ПТ
  0
LINE
  5
31A
330
17
100
AcDbEntity
  8
ПТ_рамка_тонк
370
35
100
AcDbLine
 10
453.0
 20
264.0
 30
0.0
 11
453.0
 21
255.0
 31
0.0
  0
MTEXT
  5
31B
330
17
100
AcDbEntity
  8
ПТ_текст
100
AcDbMText
 10
526.5
 20
259.5
 30
0.0
 40
3.15
 41
145.5
 71
5
  1
Решение ГИП
  7
ПТ
  0
LINE
  5
31C
330
17
100
AcDbEntity
  8
ПТ_рамка_тонк
370
35
100
AcDbLine
 10
600.0
 20
264.0
 30
0.0
 11
600.0
 21
255.0
 31
0.0
  0
LINE
  5
31D
330
17
100
AcDbEntity
  8
ПТ_рамка_тонк
100
AcDbLine
 10
30.0
 20
255.0
 30
0.0
 11
30.0
 21
236.225
 31
0.0
  0
TEXT
  5
31E
330
17
100
AcDbEntity
  8
ПТ_текст
100
AcDbText
 10
31.2
 20
245.6125
 30
0.0
 40
3.5
  1
1
  7
ПТ
 11
31.2
 21
245.6125
 31
0.0
100
AcDbText
 73
2
  0
LINE
  5
31F
330
17
100
AcDbEntity
  8
ПТ_рамка_тонк
100
AcDbLine
 10
39.0
 20
255.0
 30
0.0
 11
39.0
 21
236.225
 31
0.0
  0
TEXT
  5
320
330
17
100
AcDbEntity
  8
ПТ_текст
100
AcDbText
 10
40.2
 20
245.6125
 30
0.0
 40
3.5
  1
Место насосной
  7
ПТ
 11
40.2
 21
245.6125
 31
0.0
100
AcDbText
 73
2
  0
LINE
  5
321
330
17
100
AcDbEntity
  8
ПТ_рамка_тонк
100
AcDbLine
 10
79.0
 20
255.0
 30
0.0
 11
79.0
 21
236.225
 31
0.0
  0
MTEXT
  5
322
330
17
100
AcDbEntity
  8
ПТ_текст
100
AcDbMText
 10
80.2
 20
253.8
 30
0.0
 40
3.5
 41
338.6
 71
1
  3
Западный конец технического коридора 1, оси 1–3/Д–Е, у места ввода водопровода; рядом пом. 05 1 этажа, через которое проходят стояки. Конец коридора отделяется противопожарной перегородкой 1-го типа с дверью EI 30. Если в этой части коридора проходят
  1
 сети других разделов, их надо вывести за перегородку.
  7
ПТ
  0
LINE
  5
323
330
17
100
AcDbEntity
  8
ПТ_рамка_тонк
100
AcDbLine
 10
420.0
 20
255.0
 30
0.0
 11
420.0
 21
236.225
 31
0.0
  0
TEXT
  5
324
330
17
100
AcDbEntity
  8
ПТ_текст
100
AcDbText
 10
421.2
 20
245.6125
 30
0.0
 40
3.5
  1
АР, все
  7
ПТ
 11
421.2
 21
245.6125
 31
0.0
100
AcDbText
 73
2
  0
LINE
  5
325
330
17
100
AcDbEntity
  8
ПТ_рамка_тонк
100
AcDbLine
 10
453.0
 20
255.0
 30
0.0
 11
453.0
 21
236.225
 31
0.0
  0
LINE
  5
326
330
17
100
AcDbEntity
  8
ПТ_рамка_тонк
100
AcDbLine
 10
30.0
 20
236.225
 30
0.0
 11
600.0
 21
236.225
 31
0.0
  0
LINE
  5
327
330
17
100
AcDbEntity
  8
ПТ_рамка_тонк
100
AcDbLine
 10
30.0
 20
236.225
 30
0.0
 11
30.0
 21
212.025
 31
0.0
  0
TEXT
  5
328
330
17
100
AcDbEntity
  8
ПТ_текст
100
AcDbText
 10
31.2
 20
224.125
 30
0.0
 40
3.5
  1
2
  7
ПТ
 11
31.2
 21
224.125
 31
0.0
100
AcDbText
 73
2
  0
LINE
  5
329
330
17
100
AcDbEntity
  8
ПТ_рамка_тонк
100
AcDbLine
 10
39.0
 20
236.225
 30
0.0
 11
39.0
 21
212.025
 31
0.0
  0
MTEXT
  5
32A
330
17
100
AcDbEntity
  8
ПТ_текст
100
AcDbMText
 10
40.2
 20
235.025
 30
0.0
 40
3.5
 41
37.6
 71
1
  1
Выход из насосной
  7
ПТ
  0
LINE
  5
32B
330
17
100
AcDbEntity
  8
ПТ_рамка_тонк
100
AcDbLine
 10
79.0
 20
236.225
 30
0.0
 11
79.0
 21
212.025
 31
0.0
  0
MTEXT
  5
32C
330
17
100
AcDbEntity
  8
ПТ_текст
100
AcDbMText
 10
80.2
 20
235.025
 30
0.0
 40
3.5
 41
338.6
 71
1
  3
Из насосной в подвале нужен выход наружу или на лестничную клетку с выходом наружу. Ближайшая лестница — в осях 9–10, выход в тамбур-шлюз 94; от двери насосной до неё по коридору 1 около 40 м. \PА — выход в коридор 1 оставить, если раздел ПБ это обос
  1
нует. \PБ — отдельный выход наружу через стену по оси 1: проём в монолитной стене и приямок с лестницей снаружи.
  7
ПТ
  0
LINE
  5
32D
330
17
100
AcDbEntity
  8
ПТ_рамка_тонк
100
AcDbLine
 10
420.0
 20
236.225
 30
0.0
 11
420.0
 21
212.025
 31
0.0
  0
MTEXT
  5
32E
330
17
100
AcDbEntity
  8
ПТ_текст
100
AcDbMText
 10
421.2
 20
235.025
 30
0.0
 40
3.5
 41
30.6
 71
1
  1
АР, КР, ПБ, ГП
  7
ПТ
  0
LINE
  5
32F
330
17
100
AcDbEntity
  8
ПТ_рамка_тонк
100
AcDbLine
 10
453.0
 20
236.225
 30
0.0
 11
453.0
 21
212.025
 31
0.0
  0
LINE
  5
330
330
17
100
AcDbEntity
  8
ПТ_рамка_тонк
100
AcDbLine
 10
30.0
 20
212.025
 30
0.0
 11
600.0
 21
212.025
 31
0.0
  0
LINE
  5
331
330
17
100
AcDbEntity
  8
ПТ_рамка_тонк
100
AcDbLine
 10
30.0
 20
212.025
 30
0.0
 11
30.0
 21
193.25
 31
0.0
  0
TEXT
  5
332
330
17
100
AcDbEntity
  8
ПТ_текст
100
AcDbText
 10
31.2
 20
202.63750000000002
 30
0.0
 40
3.5
  1
3
  7
ПТ
 11
31.2
 21
202.63750000000002
 31
0.0
100
AcDbText
 73
2
  0
LINE
  5
333
330
17
100
AcDbEntity
  8
ПТ_рамка_тонк
100
AcDbLine
 10
39.0
 20
212.025
 30
0.0
 11
39.0
 21
193.25
 31
0.0
  0
TEXT
  5
334
330
17
100
AcDbEntity
  8
ПТ_текст
100
AcDbText
 10
40.2
 20
202.63750000000002
 30
0.0
 40
3.5
  1
Вводы и ТУ
  7
ПТ
 11
40.2
 21
202.63750000000002
 31
0.0
100
AcDbText
 73
2
  0
LINE
  5
335
330
17
100
AcDbEntity
  8
ПТ_рамка_тонк
100
AcDbLine
 10
79.0
 20
212.025
 30
0.0
 11
79.0
 21
193.25
 31
0.0
  0
MTEXT
  5
336
330
17
100
AcDbEntity
  8
ПТ_текст
100
AcDbMText
 10
80.2
 20
210.82500000000002
 30
0.0
 40
3.5
 41
338.6
 71
1
  3
Два ввода Ду150 через стену по оси 1 на отм. -1,900 от точки 23.1. Расход 40,4 л/с больше выделенных 40,0 л/с на 0,4 л/с — по п. 4.1 ТУ нужна корректировка ТУ. Нужно максимальное давление в точке 23.1 (п. 4.5 ТУ): по нему проверяется давление у пожар
  1
ных кранов. Привязку, материал вводов и узел прохода через стену даёт НВК.
  7
ПТ
  0
LINE
  5
337
330
17
100
AcDbEntity
  8
ПТ_рамка_тонк
100
AcDbLine
 10
420.0
 20
212.025
 30
0.0
 11
420.0
 21
193.25
 31
0.0
  0
TEXT
  5
338
330
17
100
AcDbEntity
  8
ПТ_текст
100
AcDbText
 10
421.2
 20
202.63750000000002
 30
0.0
 40
3.5
  1
НВК, заказчик
  7
ПТ
 11
421.2
 21
202.63750000000002
 31
0.0
100
AcDbText
 73
2
  0
LINE
  5
339
330
17
100
AcDbEntity
  8
ПТ_рамка_тонк
100
AcDbLine
 10
453.0
 20
212.025
 30
0.0
 11
453.0
 21
193.25
 31
0.0
  0
LINE
  5
33A
330
17
100
AcDbEntity
  8
ПТ_рамка_тонк
100
AcDbLine
 10
30.0
 20
193.25
 30
0.0
 11
600.0
 21
193.25
 31
0.0
  0
LINE
  5
33B
330
17
100
AcDbEntity
  8
ПТ_рамка_тонк
100
AcDbLine
 10
30.0
 20
193.25
 30
0.0
 11
30.0
 21
179.9
 31
0.0
  0
TEXT
  5
33C
330
17
100
AcDbEntity
  8
ПТ_текст
100
AcDbText
 10
31.2
 20
186.575
 30
0.0
 40
3.5
  1
4
  7
ПТ
 11
31.2
 21
186.575
 31
0.0
100
AcDbText
 73
2
  0
LINE
  5
33D
330
17
100
AcDbEntity
  8
ПТ_рамка_тонк
100
AcDbLine
 10
39.0
 20
193.25
 30
0.0
 11
39.0
 21
179.9
 31
0.0
  0
TEXT
  5
33E
330
17
100
AcDbEntity
  8
ПТ_текст
100
AcDbText
 10
40.2
 20
186.575
 30
0.0
 40
3.5
  1
Стояки на этажи
  7
ПТ
 11
40.2
 21
186.575
 31
0.0
100
AcDbText
 73
2
  0
LINE
  5
33F
330
17
100
AcDbEntity
  8
ПТ_рамка_тонк
100
AcDbLine
 10
79.0
 20
193.25
 30
0.0
 11
79.0
 21
179.9
 31
0.0
  0
MTEXT
  5
340
330
17
100
AcDbEntity
  8
ПТ_текст
100
AcDbMText
 10
80.2
 20
192.05
 30
0.0
 40
3.5
 41
338.6
 71
1
  1
Ст.В21-1, Ст.В22-1, перемычка кольца ВПВ и линия к патрубкам ГМ-80 поднимаются из насосной в пом. 05 (КУИ); затворы после узлов управления — в пом. 05 на отм. +1,000, пом. 05 защищается оросителями. Отверстия в перекрытии — по заданию.
  7
ПТ
  0
LINE
  5
341
330
17
100
AcDbEntity
  8
ПТ_рамка_тонк
100
AcDbLine
 10
420.0
 20
193.25
 30
0.0
 11
420.0
 21
179.9
 31
0.0
  0
TEXT
  5
342
330
17
100
AcDbEntity
  8
ПТ_текст
100
AcDbText
 10
421.2
 20
186.575
 30
0.0
 40
3.5
  1
АР, КР
  7
ПТ
 11
421.2
 21
186.575
 31
0.0
100
AcDbText
 73
2
  0
LINE
  5
343
330
17
100
AcDbEntity
  8
ПТ_рамка_тонк
100
AcDbLine
 10
453.0
 20
193.25
 30
0.0
 11
453.0
 21
179.9
 31
0.0
  0
LINE
  5
344
330
17
100
AcDbEntity
  8
ПТ_рамка_тонк
100
AcDbLine
 10
30.0
 20
179.9
 30
0.0
 11
600.0
 21
179.9
 31
0.0
  0
LINE
  5
345
330
17
100
AcDbEntity
  8
ПТ_рамка_тонк
100
AcDbLine
 10
30.0
 20
179.9
 30
0.0
 11
30.0
 21
161.125
 31
0.0
  0
TEXT
  5
346
330
17
100
AcDbEntity
  8
ПТ_текст
100
AcDbText
 10
31.2
 20
170.51250000000002
 30
0.0
 40
3.5
  1
5
  7
ПТ
 11
31.2
 21
170.51250000000002
 31
0.0
100
AcDbText
 73
2
  0
LINE
  5
347
330
17
100
AcDbEntity
  8
ПТ_рамка_тонк
100
AcDbLine
 10
39.0
 20
179.9
 30
0.0
 11
39.0
 21
161.125
 31
0.0
  0
TEXT
  5
348
330
17
100
AcDbEntity
  8
ПТ_текст
100
AcDbText
 10
40.2
 20
170.51250000000002
 30
0.0
 40
3.5
  1
Высота и монтаж
  7
ПТ
 11
40.2
 21
170.51250000000002
 31
0.0
100
AcDbText
 73
2
  0
LINE
  5
349
330
17
100
AcDbEntity
  8
ПТ_рамка_тонк
100
AcDbLine
 10
79.0
 20
179.9
 30
0.0
 11
79.0
 21
161.125
 31
0.0
  0
MTEXT
  5
34A
330
17
100
AcDbEntity
  8
ПТ_текст
100
AcDbMText
 10
80.2
 20
178.70000000000002
 30
0.0
 40
3.5
 41
338.6
 71
1
  3
В свету 1,98 м, под балками 20К2 — 1,95 м. Насосы вертикальные in-line на основаниях 150 мм, высота агрегата с основанием около 1,45 м. Оборудование заносится по коридору 1 от лестницы в осях 9–10; масса насоса — около 190 кг (поз. 1, уточняется по в
  1
ыбранной марке). Если по лестнице не пронести, нужен монтажный проём в перекрытии над насосной.
  7
ПТ
  0
LINE
  5
34B
330
17
100
AcDbEntity
  8
ПТ_рамка_тонк
100
AcDbLine
 10
420.0
 20
179.9
 30
0.0
 11
420.0
 21
161.125
 31
0.0
  0
TEXT
  5
34C
330
17
100
AcDbEntity
  8
ПТ_текст
100
AcDbText
 10
421.2
 20
170.51250000000002
 30
0.0
 40
3.5
  1
АР, КР
  7
ПТ
 11
421.2
 21
170.51250000000002
 31
0.0
100
AcDbText
 73
2
  0
LINE
  5
34D
330
17
100
AcDbEntity
  8
ПТ_рамка_тонк
100
AcDbLine
 10
453.0
 20
179.9
 30
0.0
 11
453.0
 21
161.125
 31
0.0
  0
LINE
  5
34E
330
17
100
AcDbEntity
  8
ПТ_рамка_тонк
100
AcDbLine
 10
30.0
 20
161.125
 30
0.0
 11
600.0
 21
161.125
 31
0.0
  0
LINE
  5
34F
330
17
100
AcDbEntity
  8
ПТ_рамка_тонк
100
AcDbLine
 10
30.0
 20
161.125
 30
0.0
 11
30.0
 21
147.775
 31
0.0
  0
TEXT
  5
350
330
17
100
AcDbEntity
  8
ПТ_текст
100
AcDbText
 10
31.2
 20
154.45
 30
0.0
 40
3.5
  1
6
  7
ПТ
 11
31.2
 21
154.45
 31
0.0
100
AcDbText
 73
2
  0
LINE
  5
351
330
17
100
AcDbEntity
  8
ПТ_рамка_тонк
100
AcDbLine
 10
39.0
 20
161.125
 30
0.0
 11
39.0
 21
147.775
 31
0.0
  0
MTEXT
  5
352
330
17
100
AcDbEntity
  8
ПТ_текст
100
AcDbMText
 10
40.2
 20
159.925
 30
0.0
 40
3.5
 41
37.6
 71
1
  1
Приямок и дренаж
  7
ПТ
  0
LINE
  5
353
330
17
100
AcDbEntity
  8
ПТ_рамка_тонк
100
AcDbLine
 10
79.0
 20
161.125
 30
0.0
 11
79.0
 21
147.775
 31
0.0
  0
MTEXT
  5
354
330
17
100
AcDbEntity
  8
ПТ_текст
100
AcDbMText
 10
80.2
 20
159.925
 30
0.0
 40
3.5
 41
338.6
 71
1
  1
Приямок 1000×1000×800 у перегородки, пол с уклоном 0,01 к приямку, два погружных насоса. Выпуск Ду50 в сеть К2 через стену по оси 1 — решение НВК. Основания под насосы h=150 мм.
  7
ПТ
  0
LINE
  5
355
330
17
100
AcDbEntity
  8
ПТ_рамка_тонк
100
AcDbLine
 10
420.0
 20
161.125
 30
0.0
 11
420.0
 21
147.775
 31
0.0
  0
TEXT
  5
356
330
17
100
AcDbEntity
  8
ПТ_текст
100
AcDbText
 10
421.2
 20
154.45
 30
0.0
 40
3.5
  1
КР, НВК
  7
ПТ
 11
421.2
 21
154.45
 31
0.0
100
AcDbText
 73
2
  0
LINE
  5
357
330
17
100
AcDbEntity
  8
ПТ_рамка_тонк
100
AcDbLine
 10
453.0
 20
161.125
 30
0.0
 11
453.0
 21
147.775
 31
0.0
  0
LINE
  5
358
330
17
100
AcDbEntity
  8
ПТ_рамка_тонк
100
AcDbLine
 10
30.0
 20
147.775
 30
0.0
 11
600.0
 21
147.775
 31
0.0
  0
LINE
  5
359
330
17
100
AcDbEntity
  8
ПТ_рамка_тонк
100
AcDbLine
 10
30.0
 20
147.775
 30
0.0
 11
30.0
 21
134.425
 31
0.0
  0
TEXT
  5
35A
330
17
100
AcDbEntity
  8
ПТ_текст
100
AcDbText
 10
31.2
 20
141.1
 30
0.0
 40
3.5
  1
7
  7
ПТ
 11
31.2
 21
141.1
 31
0.0
100
AcDbText
 73
2
  0
LINE
  5
35B
330
17
100
AcDbEntity
  8
ПТ_рамка_тонк
100
AcDbLine
 10
39.0
 20
147.775
 30
0.0
 11
39.0
 21
134.425
 31
0.0
  0
MTEXT
  5
35C
330
17
100
AcDbEntity
  8
ПТ_текст
100
AcDbMText
 10
40.2
 20
146.57500000000002
 30
0.0
 40
3.5
 41
37.6
 71
1
  1
Питание, климат, сигналы
  7
ПТ
  0
LINE
  5
35D
330
17
100
AcDbEntity
  8
ПТ_рамка_тонк
100
AcDbLine
 10
79.0
 20
147.775
 30
0.0
 11
79.0
 21
134.425
 31
0.0
  0
MTEXT
  5
35E
330
17
100
AcDbEntity
  8
ПТ_текст
100
AcDbMText
 10
80.2
 20
146.57500000000002
 30
0.0
 40
3.5
 41
338.6
 71
1
  1
I категория, два ввода от ППУ, расчётная мощность 16,5 кВт. Температура в насосной не ниже +5 °С, вентиляция. Сигналы насосной и аварийного уровня в приямке — на ППКУП «Сириус» в пом. 03 по RS-485. Телефон связи с пожарным постом.
  7
ПТ
  0
LINE
  5
35F
330
17
100
AcDbEntity
  8
ПТ_рамка_тонк
100
AcDbLine
 10
420.0
 20
147.775
 30
0.0
 11
420.0
 21
134.425
 31
0.0
  0
MTEXT
  5
360
330
17
100
AcDbEntity
  8
ПТ_текст
100
AcDbMText
 10
421.2
 20
146.57500000000002
 30
0.0
 40
3.5
 41
30.6
 71
1
  1
ЭМ, ОВ, ПБ43, СС
  7
ПТ
  0
LINE
  5
361
330
17
100
AcDbEntity
  8
ПТ_рамка_тонк
100
AcDbLine
 10
453.0
 20
147.775
 30
0.0
 11
453.0
 21
134.425
 31
0.0
  0
LINE
  5
362
330
17
100
AcDbEntity
  8
ПТ_рамка_тонк
100
AcDbLine
 10
30.0
 20
134.425
 30
0.0
 11
600.0
 21
134.425
 31
0.0
  0
MTEXT
  5
363
330
17
100
AcDbEntity
  8
ПТ_текст
100
AcDbMText
 10
30.0
 20
124.42500000000001
 30
0.0
 40
2.5
 41
565.0
 71
1
  3
Состав пакета: настоящий лист; лист 3 «Схема принципиальная систем В2, В21, В22»; лист 10 «Насосная станция пожаротушения. План, разрезы 1-1, 2-2» — из комплекта ОПР-01/24/2024-ДП1-ПТ. Отметки по КР и КМ стадии Р, расход и напор — по ТУ от 08.10.2026
  1
 и гидравлическому расчёту (ПТ.РР).
  7
ПТ
  0
TEXT
  5
364
330
17
100
AcDbEntity
  8
ПТ_текст
100
AcDbText
 10
30.0
 20
106.42500000000001
 30
0.0
 40
3.5
  1
Согласовано: ГИП  _______________________  /  _______________________  /    «____» ______________ 2026 г.
  7
ПТ
 11
30.0
 21
106.42500000000001
 31
0.0
100
AcDbText
 73
1
  0
ENDSEC
  0
SECTION
  2
OBJECTS
  0
DICTIONARY
  5
A
330
0
100
AcDbDictionary
281
1
  3
ACAD_COLOR
350
B
  3
ACAD_GROUP
350
C
  3
ACAD_LAYOUT
350
D
  3
ACAD_MATERIAL
350
E
  3
ACAD_MLEADERSTYLE
350
F
  3
ACAD_MLINESTYLE
350
10
  3
ACAD_PLOTSETTINGS
350
11
  3
ACAD_PLOTSTYLENAME
350
12
  3
ACAD_SCALELIST
350
14
  3
ACAD_TABLESTYLE
350
15
  3
ACAD_VISUALSTYLE
350
16
  0
DICTIONARY
  5
B
330
A
100
AcDbDictionary
281
1
  0
DICTIONARY
  5
C
330
A
100
AcDbDictionary
281
1
  0
DICTIONARY
  5
D
330
A
100
AcDbDictionary
281
1
  3
Model
350
1A
  3
Layout1
350
1E
  0
DICTIONARY
  5
E
330
A
100
AcDbDictionary
281
1
  3
ByBlock
350
1F
  3
ByLayer
350
20
  3
Global
350
21
  0
DICTIONARY
  5
F
330
A
100
AcDbDictionary
281
1
  3
Standard
350
2C
  0
DICTIONARY
  5
10
330
A
100
AcDbDictionary
281
1
  3
Standard
350
22
  0
DICTIONARY
  5
11
330
A
100
AcDbDictionary
281
1
  0
ACDBDICTIONARYWDFLT
  5
12
330
A
100
AcDbDictionary
281
1
  3
Normal
350
13
100
AcDbDictionaryWithDefault
340
13
  0
ACDBPLACEHOLDER
  5
13
330
12
  0
DICTIONARY
  5
14
330
A
100
AcDbDictionary
281
1
  0
DICTIONARY
  5
15
330
A
100
AcDbDictionary
281
1
  0
DICTIONARY
  5
16
330
A
100
AcDbDictionary
281
1
  3
2dWireframe
350
5A
  3
Basic
350
5B
  3
Brighten
350
5C
  3
ColorChange
350
5D
  3
Conceptual
350
5E
  3
Dim
350
5F
  3
EdgeColorOff
350
60
  3
Facepattern
350
61
  3
Flat
350
62
  3
FlatWithEdges
350
63
  3
Gouraud
350
64
  3
GouraudWithEdges
350
65
  3
Hidden
350
66
  3
JitterOff
350
67
  3
Linepattern
350
68
  3
Modeling
350
69
  3
OverhangOff
350
6A
  3
Realistic
350
6B
  3
Shaded
350
6C
  3
Shaded with edges
350
6D
  3
Shades of Gray
350
6E
  3
Sketchy
350
6F
  3
Thicken
350
70
  3
Wireframe
350
71
  3
X-Ray
350
72
  0
LAYOUT
  5
1A
330
D
100
AcDbPlotSettings
  1

  4
A3
  6

 40
7.5
 41
20.0
 42
7.5
 43
20.0
 44
420.0
 45
297.0
 46
0.0
 47
0.0
 48
0.0
 49
0.0
140
0.0
141
0.0
142
1.0
143
1.0
 70
1024
 72
1
 73
0
 74
5
  7

 75
16
 76
0
 77
2
 78
300
147
1.0
148
0.0
149
0.0
100
AcDbLayout
  1
Model
 70
1
 71
0
 10
0.0
 20
0.0
 11
420.0
 21
297.0
 12
0.0
 22
0.0
 32
0.0
 14
1e+20
 24
1e+20
 34
1e+20
 15
-1e+20
 25
-1e+20
 35
-1e+20
146
0.0
 13
0.0
 23
0.0
 33
0.0
 16
1.0
 26
0.0
 36
0.0
 17
0.0
 27
1.0
 37
0.0
 76
1
330
17
  0
LAYOUT
  5
1E
330
D
100
AcDbPlotSettings
  1

  4
A3
  6

 40
7.5
 41
20.0
 42
7.5
 43
20.0
 44
420.0
 45
297.0
 46
0.0
 47
0.0
 48
0.0
 49
0.0
140
0.0
141
0.0
142
1.0
143
1.0
 70
0
 72
1
 73
0
 74
5
  7

 75
16
 76
0
 77
2
 78
300
147
1.0
148
0.0
149
0.0
100
AcDbLayout
  1
Layout1
 70
1
 71
1
 10
0.0
 20
0.0
 11
420.0
 21
297.0
 12
0.0
 22
0.0
 32
0.0
 14
1e+20
 24
1e+20
 34
1e+20
 15
-1e+20
 25
-1e+20
 35
-1e+20
146
0.0
 13
0.0
 23
0.0
 33
0.0
 16
1.0
 26
0.0
 36
0.0
 17
0.0
 27
1.0
 37
0.0
 76
1
330
1B
  0
MATERIAL
  5
1F
102
{ACAD_REACTORS
330
E
102
}
330
E
100
AcDbMaterial
  1
ByBlock
  2

 70
0
 40
1.0
 71
1
 41
1.0
 91
-1023410177
 42
1.0
 72
1
  3

 73
1
 74
1
 75
1
 44
0.5
 73
0
 45
1.0
 46
1.0
 77
1
  4

 78
1
 79
1
170
1
 48
1.0
171
1
  6

172
1
173
1
174
1
140
1.0
141
1.0
175
1
  7

176
1
177
1
178
1
143
1.0
179
1
  8

270
1
271
1
272
1
145
1.0
146
1.0
273
1
  9

274
1
275
1
276
1
 42
1.0
 72
1
  3

 73
1
 74
1
 75
1
 94
63
  0
MATERIAL
  5
20
102
{ACAD_REACTORS
330
E
102
}
330
E
100
AcDbMaterial
  1
ByLayer
  2

 70
0
 40
1.0
 71
1
 41
1.0
 91
-1023410177
 42
1.0
 72
1
  3

 73
1
 74
1
 75
1
 44
0.5
 73
0
 45
1.0
 46
1.0
 77
1
  4

 78
1
 79
1
170
1
 48
1.0
171
1
  6

172
1
173
1
174
1
140
1.0
141
1.0
175
1
  7

176
1
177
1
178
1
143
1.0
179
1
  8

270
1
271
1
272
1
145
1.0
146
1.0
273
1
  9

274
1
275
1
276
1
 42
1.0
 72
1
  3

 73
1
 74
1
 75
1
 94
63
  0
MATERIAL
  5
21
102
{ACAD_REACTORS
330
E
102
}
330
E
100
AcDbMaterial
  1
Global
  2

 70
0
 40
1.0
 71
1
 41
1.0
 91
-1023410177
 42
1.0
 72
1
  3

 73
1
 74
1
 75
1
 44
0.5
 73
0
 45
1.0
 46
1.0
 77
1
  4

 78
1
 79
1
170
1
 48
1.0
171
1
  6

172
1
173
1
174
1
140
1.0
141
1.0
175
1
  7

176
1
177
1
178
1
143
1.0
179
1
  8

270
1
271
1
272
1
145
1.0
146
1.0
273
1
  9

274
1
275
1
276
1
 42
1.0
 72
1
  3

 73
1
 74
1
 75
1
 94
63
  0
MLINESTYLE
  5
22
102
{ACAD_REACTORS
330
10
102
}
330
10
100
AcDbMlineStyle
  2
Standard
 70
0
  3

 62
256
 51
90.0
 52
90.0
 71
2
 49
0.5
 62
256
  6
BYLAYER
 49
-0.5
 62
256
  6
BYLAYER
  0
MLEADERSTYLE
  5
2C
102
{ACAD_REACTORS
330
F
102
}
330
F
100
AcDbMLeaderStyle
179
2
170
2
171
1
172
0
 90
2
 40
0.0
 41
0.0
173
1
 91
-1056964608
 92
-2
290
1
 42
2.0
291
1
 43
8.0
  3
Standard
 44
4.0
300

342
29
174
1
175
1
176
0
178
1
 93
-1056964608
 45
4.0
292
0
297
0
 46
4.0
 94
-1056964608
 47
1.0
 49
1.0
140
1.0
294
1
141
0.0
177
0
142
1.0
295
0
296
0
143
3.75
271
0
272
9
273
9
  0
VISUALSTYLE
  5
5A
102
{ACAD_REACTORS
330
16
102
}
330
16
100
AcDbVisualStyle
  2
2dWireframe
 70
4
177
3
291
0
 70
58
 90
2
176
1
 90
2
176
1
 90
0
176
1
 90
0
176
1
 40
0.6
176
1
 40
30.0
176
1
 62
7
420
16777215
176
1
 90
1
176
1
 90
4
176
1
 62
7
176
1
 62
257
176
1
 90
1
176
1
 90
1
176
1
 40
1.0
176
1
 90
8
176
1
 62
7
176
1
 40
1.0
176
1
 90
1
176
1
 90
6
176
1
 90
2
176
1
 62
7
176
1
 90
5
176
1
 90
0
176
1
 90
0
176
1
290
0
176
1
 90
1
176
1
 40
0.0
176
1
 90
0
176
1
290
1
176
1
290
1
176
1
290
0
176
1
290
0
176
1
290
0
176
1
290
0
176
1
290
0
176
1
290
0
176
1
290
0
176
1
 90
50
176
1
 40
0.0
176
1
 40
1.0
176
1
 90
0
176
1
 62
18
420
0
176
1
 90
50
176
1
 90
3
176
1
 62
5
420
255
176
1
290
0
176
1
 90
50
176
1
 90
50
176
1
 90
50
176
1
290
0
176
1
 90
50
176
1
 62
256
176
0
 40
1.0
176
0
 90
2
176
1
  1
strokes_ogs.tif
176
1
290
0
176
1
 40
1.0
176
1
 40
1.0
176
1
  0
VISUALSTYLE
  5
5B
102
{ACAD_REACTORS
330
16
102
}
330
16
100
AcDbVisualStyle
  2
Basic
 70
7
177
3
291
1
 70
58
 90
2
176
1
 90
2
176
1
 90
0
176
1
 90
1
176
1
 40
0.6
176
1
 40
30.0
176
1
 62
7
420
16777215
176
1
 90
1
176
1
 90
4
176
1
 62
7
176
1
 62
257
176
1
 90
1
176
1
 90
1
176
1
 40
1.0
176
1
 90
8
176
1
 62
7
176
1
 40
1.0
176
1
 90
1
176
1
 90
6
176
1
 90
2
176
1
 62
7
176
1
 90
5
176
1
 90
0
176
1
 90
0
176
1
290
0
176
1
 90
1
176
1
 40
0.0
176
1
 90
0
176
1
290
0
176
1
290
1
176
1
290
1
176
1
290
0
176
1
290
0
176
1
290
0
176
1
290
0
176
1
290
0
176
1
290
0
176
1
 90
50
176
1
 40
0.0
176
1
 40
1.0
176
1
 90
0
176
1
 62
18
420
0
176
1
 90
50
176
1
 90
3
176
1
 62
5
420
255
176
1
290
0
176
1
 90
50
176
1
 90
50
176
1
 90
50
176
1
290
0
176
1
 90
50
176
1
 62
256
176
0
 40
1.0
176
0
 90
2
176
1
  1
strokes_ogs.tif
176
1
290
0
176
1
 40
1.0
176
1
 40
1.0
176
1
  0
VISUALSTYLE
  5
5C
102
{ACAD_REACTORS
330
16
102
}
330
16
100
AcDbVisualStyle
  2
Brighten
 70
12
177
3
291
1
 70
58
 90
2
176
1
 90
2
176
1
 90
0
176
1
 90
2
176
1
 40
0.6
176
1
 40
30.0
176
1
 62
7
420
16777215
176
1
 90
1
176
1
 90
4
176
1
 62
7
176
1
 62
257
176
1
 90
1
176
1
 90
1
176
1
 40
1.0
176
1
 90
8
176
1
 62
7
176
1
 40
1.0
176
1
 90
1
176
1
 90
6
176
1
 90
2
176
1
 62
7
176
1
 90
5
176
1
 90
0
176
1
 90
0
176
1
290
0
176
1
 90
1
176
1
 40
0.0
176
1
 90
0
176
1
290
0
176
1
290
1
176
1
290
1
176
1
290
0
176
1
290
0
176
1
290
0
176
1
290
0
176
1
290
0
176
1
290
0
176
1
 90
50
176
1
 40
0.0
176
1
 40
1.0
176
1
 90
0
176
1
 62
18
420
0
176
1
 90
50
176
1
 90
3
176
1
 62
5
420
255
176
1
290
0
176
1
 90
50
176
1
 90
50
176
1
 90
50
176
1
290
0
176
1
 90
50
176
1
 62
256
176
0
 40
1.0
176
0
 90
2
176
1
  1
strokes_ogs.tif
176
1
290
0
176
1
 40
1.0
176
1
 40
1.0
176
1
  0
VISUALSTYLE
  5
5D
102
{ACAD_REACTORS
330
16
102
}
330
16
100
AcDbVisualStyle
  2
ColorChange
 70
16
177
3
291
1
 70
58
 90
2
176
1
 90
2
176
1
 90
0
176
1
 90
2
176
1
 40
0.6
176
1
 40
30.0
176
1
 62
7
420
16777215
176
1
 90
1
176
1
 90
4
176
1
 62
7
176
1
 62
257
176
1
 90
1
176
1
 90
1
176
1
 40
1.0
176
1
 90
8
176
1
 62
7
176
1
 40
1.0
176
1
 90
1
176
1
 90
6
176
1
 90
2
176
1
 62
7
176
1
 90
5
176
1
 90
0
176
1
 90
0
176
1
290
0
176
1
 90
1
176
1
 40
0.0
176
1
 90
0
176
1
290
0
176
1
290
1
176
1
290
1
176
1
290
0
176
1
290
0
176
1
290
0
176
1
290
0
176
1
290
0
176
1
290
0
176
1
 90
50
176
1
 40
0.0
176
1
 40
1.0
176
1
 90
0
176
1
 62
18
420
0
176
1
 90
50
176
1
 90
3
176
1
 62
5
420
255
176
1
290
0
176
1
 90
50
176
1
 90
50
176
1
 90
50
176
1
290
0
176
1
 90
50
176
1
 62
256
176
0
 40
1.0
176
0
 90
2
176
1
  1
strokes_ogs.tif
176
1
290
0
176
1
 40
1.0
176
1
 40
1.0
176
1
  0
VISUALSTYLE
  5
5E
102
{ACAD_REACTORS
330
16
102
}
330
16
100
AcDbVisualStyle
  2
Conceptual
 70
9
177
3
291
0
 70
58
 90
2
176
1
 90
2
176
1
 90
0
176
1
 90
3
176
1
 40
0.6
176
1
 40
30.0
176
1
 62
7
420
16777215
176
1
 90
1
176
1
 90
4
176
1
 62
7
176
1
 62
257
176
1
 90
1
176
1
 90
1
176
1
 40
1.0
176
1
 90
8
176
1
 62
7
176
1
 40
1.0
176
1
 90
1
176
1
 90
6
176
1
 90
2
176
1
 62
7
176
1
 90
5
176
1
 90
0
176
1
 90
0
176
1
290
0
176
1
 90
1
176
1
 40
0.0
176
1
 90
0
176
1
290
0
176
1
290
1
176
1
290
1
176
1
290
0
176
1
290
0
176
1
290
0
176
1
290
0
176
1
290
0
176
1
290
0
176
1
 90
50
176
1
 40
0.0
176
1
 40
1.0
176
1
 90
0
176
1
 62
18
420
0
176
1
 90
50
176
1
 90
3
176
1
 62
5
420
255
176
1
290
0
176
1
 90
50
176
1
 90
50
176
1
 90
50
176
1
290
0
176
1
 90
50
176
1
 62
256
176
0
 40
1.0
176
0
 90
2
176
1
  1
strokes_ogs.tif
176
1
290
0
176
1
 40
1.0
176
1
 40
1.0
176
1
  0
VISUALSTYLE
  5
5F
102
{ACAD_REACTORS
330
16
102
}
330
16
100
AcDbVisualStyle
  2
Dim
 70
11
177
3
291
1
 70
58
 90
2
176
1
 90
2
176
1
 90
0
176
1
 90
2
176
1
 40
0.6
176
1
 40
30.0
176
1
 62
7
420
16777215
176
1
 90
1
176
1
 90
4
176
1
 62
7
176
1
 62
257
176
1
 90
1
176
1
 90
1
176
1
 40
1.0
176
1
 90
8
176
1
 62
7
176
1
 40
1.0
176
1
 90
1
176
1
 90
6
176
1
 90
2
176
1
 62
7
176
1
 90
5
176
1
 90
0
176
1
 90
0
176
1
290
0
176
1
 90
1
176
1
 40
0.0
176
1
 90
0
176
1
290
0
176
1
290
1
176
1
290
1
176
1
290
0
176
1
290
0
176
1
290
0
176
1
290
0
176
1
290
0
176
1
290
0
176
1
 90
50
176
1
 40
0.0
176
1
 40
1.0
176
1
 90
0
176
1
 62
18
420
0
176
1
 90
50
176
1
 90
3
176
1
 62
5
420
255
176
1
290
0
176
1
 90
50
176
1
 90
50
176
1
 90
50
176
1
290
0
176
1
 90
50
176
1
 62
256
176
0
 40
1.0
176
0
 90
2
176
1
  1
strokes_ogs.tif
176
1
290
0
176
1
 40
1.0
176
1
 40
1.0
176
1
  0
VISUALSTYLE
  5
60
102
{ACAD_REACTORS
330
16
102
}
330
16
100
AcDbVisualStyle
  2
EdgeColorOff
 70
22
177
3
291
1
 70
58
 90
2
176
1
 90
2
176
1
 90
0
176
1
 90
2
176
1
 40
0.6
176
1
 40
30.0
176
1
 62
7
420
16777215
176
1
 90
1
176
1
 90
4
176
1
 62
7
176
1
 62
257
176
1
 90
1
176
1
 90
1
176
1
 40
1.0
176
1
 90
8
176
1
 62
7
176
1
 40
1.0
176
1
 90
1
176
1
 90
6
176
1
 90
2
176
1
 62
7
176
1
 90
5
176
1
 90
0
176
1
 90
0
176
1
290
0
176
1
 90
1
176
1
 40
0.0
176
1
 90
0
176
1
290
0
176
1
290
1
176
1
290
1
176
1
290
0
176
1
290
0
176
1
290
0
176
1
290
0
176
1
290
0
176
1
290
0
176
1
 90
50
176
1
 40
0.0
176
1
 40
1.0
176
1
 90
0
176
1
 62
18
420
0
176
1
 90
50
176
1
 90
3
176
1
 62
5
420
255
176
1
290
0
176
1
 90
50
176
1
 90
50
176
1
 90
50
176
1
290
0
176
1
 90
50
176
1
 62
256
176
0
 40
1.0
176
0
 90
2
176
1
  1
strokes_ogs.tif
176
1
290
0
176
1
 40
1.0
176
1
 40
1.0
176
1
  0
VISUALSTYLE
  5
61
102
{ACAD_REACTORS
330
16
102
}
330
16
100
AcDbVisualStyle
  2
Facepattern
 70
15
177
3
291
1
 70
58
 90
2
176
1
 90
2
176
1
 90
0
176
1
 90
2
176
1
 40
0.6
176
1
 40
30.0
176
1
 62
7
420
16777215
176
1
 90
1
176
1
 90
4
176
1
 62
7
176
1
 62
257
176
1
 90
1
176
1
 90
1
176
1
 40
1.0
176
1
 90
8
176
1
 62
7
176
1
 40
1.0
176
1
 90
1
176
1
 90
6
176
1
 90
2
176
1
 62
7
176
1
 90
5
176
1
 90
0
176
1
 90
0
176
1
290
0
176
1
 90
1
176
1
 40
0.0
176
1
 90
0
176
1
290
0
176
1
290
1
176
1
290
1
176
1
290
0
176
1
290
0
176
1
290
0
176
1
290
0
176
1
290
0
176
1
290
0
176
1
 90
50
176
1
 40
0.0
176
1
 40
1.0
176
1
 90
0
176
1
 62
18
420
0
176
1
 90
50
176
1
 90
3
176
1
 62
5
420
255
176
1
290
0
176
1
 90
50
176
1
 90
50
176
1
 90
50
176
1
290
0
176
1
 90
50
176
1
 62
256
176
0
 40
1.0
176
0
 90
2
176
1
  1
strokes_ogs.tif
176
1
290
0
176
1
 40
1.0
176
1
 40
1.0
176
1
  0
VISUALSTYLE
  5
62
102
{ACAD_REACTORS
330
16
102
}
330
16
100
AcDbVisualStyle
  2
Flat
 70
0
177
3
291
1
 70
58
 90
2
176
1
 90
2
176
1
 90
0
176
1
 90
2
176
1
 40
0.6
176
1
 40
30.0
176
1
 62
7
420
16777215
176
1
 90
1
176
1
 90
4
176
1
 62
7
176
1
 62
257
176
1
 90
1
176
1
 90
1
176
1
 40
1.0
176
1
 90
8
176
1
 62
7
176
1
 40
1.0
176
1
 90
1
176
1
 90
6
176
1
 90
2
176
1
 62
7
176
1
 90
5
176
1
 90
0
176
1
 90
0
176
1
290
0
176
1
 90
1
176
1
 40
0.0
176
1
 90
0
176
1
290
0
176
1
290
1
176
1
290
1
176
1
290
0
176
1
290
0
176
1
290
0
176
1
290
0
176
1
290
0
176
1
290
0
176
1
 90
50
176
1
 40
0.0
176
1
 40
1.0
176
1
 90
0
176
1
 62
18
420
0
176
1
 90
50
176
1
 90
3
176
1
 62
5
420
255
176
1
290
0
176
1
 90
50
176
1
 90
50
176
1
 90
50
176
1
290
0
176
1
 90
50
176
1
 62
256
176
0
 40
1.0
176
0
 90
2
176
1
  1
strokes_ogs.tif
176
1
290
0
176
1
 40
1.0
176
1
 40
1.0
176
1
  0
VISUALSTYLE
  5
63
102
{ACAD_REACTORS
330
16
102
}
330
16
100
AcDbVisualStyle
  2
FlatWithEdges
 70
1
177
3
291
1
 70
58
 90
2
176
1
 90
2
176
1
 90
0
176
1
 90
2
176
1
 40
0.6
176
1
 40
30.0
176
1
 62
7
420
16777215
176
1
 90
1
176
1
 90
4
176
1
 62
7
176
1
 62
257
176
1
 90
1
176
1
 90
1
176
1
 40
1.0
176
1
 90
8
176
1
 62
7
176
1
 40
1.0
176
1
 90
1
176
1
 90
6
176
1
 90
2
176
1
 62
7
176
1
 90
5
176
1
 90
0
176
1
 90
0
176
1
290
0
176
1
 90
1
176
1
 40
0.0
176
1
 90
0
176
1
290
0
176
1
290
1
176
1
290
1
176
1
290
0
176
1
290
0
176
1
290
0
176
1
290
0
176
1
290
0
176
1
290
0
176
1
 90
50
176
1
 40
0.0
176
1
 40
1.0
176
1
 90
0
176
1
 62
18
420
0
176
1
 90
50
176
1
 90
3
176
1
 62
5
420
255
176
1
290
0
176
1
 90
50
176
1
 90
50
176
1
 90
50
176
1
290
0
176
1
 90
50
176
1
 62
256
176
0
 40
1.0
176
0
 90
2
176
1
  1
strokes_ogs.tif
176
1
290
0
176
1
 40
1.0
176
1
 40
1.0
176
1
  0
VISUALSTYLE
  5
64
102
{ACAD_REACTORS
330
16
102
}
330
16
100
AcDbVisualStyle
  2
Gouraud
 70
2
177
3
291
1
 70
58
 90
2
176
1
 90
2
176
1
 90
0
176
1
 90
2
176
1
 40
0.6
176
1
 40
30.0
176
1
 62
7
420
16777215
176
1
 90
1
176
1
 90
4
176
1
 62
7
176
1
 62
257
176
1
 90
1
176
1
 90
1
176
1
 40
1.0
176
1
 90
8
176
1
 62
7
176
1
 40
1.0
176
1
 90
1
176
1
 90
6
176
1
 90
2
176
1
 62
7
176
1
 90
5
176
1
 90
0
176
1
 90
0
176
1
290
0
176
1
 90
1
176
1
 40
0.0
176
1
 90
0
176
1
290
0
176
1
290
1
176
1
290
1
176
1
290
0
176
1
290
0
176
1
290
0
176
1
290
0
176
1
290
0
176
1
290
0
176
1
 90
50
176
1
 40
0.0
176
1
 40
1.0
176
1
 90
0
176
1
 62
18
420
0
176
1
 90
50
176
1
 90
3
176
1
 62
5
420
255
176
1
290
0
176
1
 90
50
176
1
 90
50
176
1
 90
50
176
1
290
0
176
1
 90
50
176
1
 62
256
176
0
 40
1.0
176
0
 90
2
176
1
  1
strokes_ogs.tif
176
1
290
0
176
1
 40
1.0
176
1
 40
1.0
176
1
  0
VISUALSTYLE
  5
65
102
{ACAD_REACTORS
330
16
102
}
330
16
100
AcDbVisualStyle
  2
GouraudWithEdges
 70
3
177
3
291
1
 70
58
 90
2
176
1
 90
2
176
1
 90
0
176
1
 90
2
176
1
 40
0.6
176
1
 40
30.0
176
1
 62
7
420
16777215
176
1
 90
1
176
1
 90
4
176
1
 62
7
176
1
 62
257
176
1
 90
1
176
1
 90
1
176
1
 40
1.0
176
1
 90
8
176
1
 62
7
176
1
 40
1.0
176
1
 90
1
176
1
 90
6
176
1
 90
2
176
1
 62
7
176
1
 90
5
176
1
 90
0
176
1
 90
0
176
1
290
0
176
1
 90
1
176
1
 40
0.0
176
1
 90
0
176
1
290
0
176
1
290
1
176
1
290
1
176
1
290
0
176
1
290
0
176
1
290
0
176
1
290
0
176
1
290
0
176
1
290
0
176
1
 90
50
176
1
 40
0.0
176
1
 40
1.0
176
1
 90
0
176
1
 62
18
420
0
176
1
 90
50
176
1
 90
3
176
1
 62
5
420
255
176
1
290
0
176
1
 90
50
176
1
 90
50
176
1
 90
50
176
1
290
0
176
1
 90
50
176
1
 62
256
176
0
 40
1.0
176
0
 90
2
176
1
  1
strokes_ogs.tif
176
1
290
0
176
1
 40
1.0
176
1
 40
1.0
176
1
  0
VISUALSTYLE
  5
66
102
{ACAD_REACTORS
330
16
102
}
330
16
100
AcDbVisualStyle
  2
Hidden
 70
6
177
3
291
0
 70
58
 90
2
176
1
 90
2
176
1
 90
0
176
1
 90
1
176
1
 40
0.6
176
1
 40
30.0
176
1
 62
7
420
16777215
176
1
 90
1
176
1
 90
4
176
1
 62
7
176
1
 62
257
176
1
 90
1
176
1
 90
1
176
1
 40
1.0
176
1
 90
8
176
1
 62
7
176
1
 40
1.0
176
1
 90
1
176
1
 90
6
176
1
 90
2
176
1
 62
7
176
1
 90
5
176
1
 90
0
176
1
 90
0
176
1
290
0
176
1
 90
1
176
1
 40
0.0
176
1
 90
0
176
1
290
0
176
1
290
1
176
1
290
1
176
1
290
0
176
1
290
0
176
1
290
0
176
1
290
0
176
1
290
0
176
1
290
0
176
1
 90
50
176
1
 40
0.0
176
1
 40
1.0
176
1
 90
0
176
1
 62
18
420
0
176
1
 90
50
176
1
 90
3
176
1
 62
5
420
255
176
1
290
0
176
1
 90
50
176
1
 90
50
176
1
 90
50
176
1
290
0
176
1
 90
50
176
1
 62
256
176
0
 40
1.0
176
0
 90
2
176
1
  1
strokes_ogs.tif
176
1
290
0
176
1
 40
1.0
176
1
 40
1.0
176
1
  0
VISUALSTYLE
  5
67
102
{ACAD_REACTORS
330
16
102
}
330
16
100
AcDbVisualStyle
  2
JitterOff
 70
20
177
3
291
1
 70
58
 90
2
176
1
 90
2
176
1
 90
0
176
1
 90
2
176
1
 40
0.6
176
1
 40
30.0
176
1
 62
7
420
16777215
176
1
 90
1
176
1
 90
4
176
1
 62
7
176
1
 62
257
176
1
 90
1
176
1
 90
1
176
1
 40
1.0
176
1
 90
8
176
1
 62
7
176
1
 40
1.0
176
1
 90
1
176
1
 90
6
176
1
 90
2
176
1
 62
7
176
1
 90
5
176
1
 90
0
176
1
 90
0
176
1
290
0
176
1
 90
1
176
1
 40
0.0
176
1
 90
0
176
1
290
0
176
1
290
1
176
1
290
1
176
1
290
0
176
1
290
0
176
1
290
0
176
1
290
0
176
1
290
0
176
1
290
0
176
1
 90
50
176
1
 40
0.0
176
1
 40
1.0
176
1
 90
0
176
1
 62
18
420
0
176
1
 90
50
176
1
 90
3
176
1
 62
5
420
255
176
1
290
0
176
1
 90
50
176
1
 90
50
176
1
 90
50
176
1
290
0
176
1
 90
50
176
1
 62
256
176
0
 40
1.0
176
0
 90
2
176
1
  1
strokes_ogs.tif
176
1
290
0
176
1
 40
1.0
176
1
 40
1.0
176
1
  0
VISUALSTYLE
  5
68
102
{ACAD_REACTORS
330
16
102
}
330
16
100
AcDbVisualStyle
  2
Linepattern
 70
14
177
3
291
1
 70
58
 90
2
176
1
 90
2
176
1
 90
0
176
1
 90
2
176
1
 40
0.6
176
1
 40
30.0
176
1
 62
7
420
16777215
176
1
 90
1
176
1
 90
4
176
1
 62
7
176
1
 62
257
176
1
 90
1
176
1
 90
1
176
1
 40
1.0
176
1
 90
8
176
1
 62
7
176
1
 40
1.0
176
1
 90
1
176
1
 90
6
176
1
 90
2
176
1
 62
7
176
1
 90
5
176
1
 90
0
176
1
 90
0
176
1
290
0
176
1
 90
1
176
1
 40
0.0
176
1
 90
0
176
1
290
0
176
1
290
1
176
1
290
1
176
1
290
0
176
1
290
0
176
1
290
0
176
1
290
0
176
1
290
0
176
1
290
0
176
1
 90
50
176
1
 40
0.0
176
1
 40
1.0
176
1
 90
0
176
1
 62
18
420
0
176
1
 90
50
176
1
 90
3
176
1
 62
5
420
255
176
1
290
0
176
1
 90
50
176
1
 90
50
176
1
 90
50
176
1
290
0
176
1
 90
50
176
1
 62
256
176
0
 40
1.0
176
0
 90
2
176
1
  1
strokes_ogs.tif
176
1
290
0
176
1
 40
1.0
176
1
 40
1.0
176
1
  0
VISUALSTYLE
  5
69
102
{ACAD_REACTORS
330
16
102
}
330
16
100
AcDbVisualStyle
  2
Modeling
 70
10
177
3
291
0
 70
58
 90
2
176
1
 90
2
176
1
 90
0
176
1
 90
2
176
1
 40
0.6
176
1
 40
30.0
176
1
 62
7
420
16777215
176
1
 90
1
176
1
 90
4
176
1
 62
7
176
1
 62
257
176
1
 90
1
176
1
 90
1
176
1
 40
1.0
176
1
 90
8
176
1
 62
7
176
1
 40
1.0
176
1
 90
1
176
1
 90
6
176
1
 90
2
176
1
 62
7
176
1
 90
5
176
1
 90
0
176
1
 90
0
176
1
290
0
176
1
 90
1
176
1
 40
0.0
176
1
 90
0
176
1
290
0
176
1
290
1
176
1
290
1
176
1
290
0
176
1
290
0
176
1
290
0
176
1
290
0
176
1
290
0
176
1
290
0
176
1
 90
50
176
1
 40
0.0
176
1
 40
1.0
176
1
 90
0
176
1
 62
18
420
0
176
1
 90
50
176
1
 90
3
176
1
 62
5
420
255
176
1
290
0
176
1
 90
50
176
1
 90
50
176
1
 90
50
176
1
290
0
176
1
 90
50
176
1
 62
256
176
0
 40
1.0
176
0
 90
2
176
1
  1
strokes_ogs.tif
176
1
290
0
176
1
 40
1.0
176
1
 40
1.0
176
1
  0
VISUALSTYLE
  5
6A
102
{ACAD_REACTORS
330
16
102
}
330
16
100
AcDbVisualStyle
  2
OverhangOff
 70
21
177
3
291
1
 70
58
 90
2
176
1
 90
2
176
1
 90
0
176
1
 90
2
176
1
 40
0.6
176
1
 40
30.0
176
1
 62
7
420
16777215
176
1
 90
1
176
1
 90
4
176
1
 62
7
176
1
 62
257
176
1
 90
1
176
1
 90
1
176
1
 40
1.0
176
1
 90
8
176
1
 62
7
176
1
 40
1.0
176
1
 90
1
176
1
 90
6
176
1
 90
2
176
1
 62
7
176
1
 90
5
176
1
 90
0
176
1
 90
0
176
1
290
0
176
1
 90
1
176
1
 40
0.0
176
1
 90
0
176
1
290
0
176
1
290
1
176
1
290
1
176
1
290
0
176
1
290
0
176
1
290
0
176
1
290
0
176
1
290
0
176
1
290
0
176
1
 90
50
176
1
 40
0.0
176
1
 40
1.0
176
1
 90
0
176
1
 62
18
420
0
176
1
 90
50
176
1
 90
3
176
1
 62
5
420
255
176
1
290
0
176
1
 90
50
176
1
 90
50
176
1
 90
50
176
1
290
0
176
1
 90
50
176
1
 62
256
176
0
 40
1.0
176
0
 90
2
176
1
  1
strokes_ogs.tif
176
1
290
0
176
1
 40
1.0
176
1
 40
1.0
176
1
  0
VISUALSTYLE
  5
6B
102
{ACAD_REACTORS
330
16
102
}
330
16
100
AcDbVisualStyle
  2
Realistic
 70
8
177
3
291
0
 70
58
 90
2
176
1
 90
2
176
1
 90
0
176
1
 90
2
176
1
 40
0.6
176
1
 40
30.0
176
1
 62
7
420
16777215
176
1
 90
1
176
1
 90
4
176
1
 62
7
176
1
 62
257
176
1
 90
1
176
1
 90
1
176
1
 40
1.0
176
1
 90
8
176
1
 62
7
176
1
 40
1.0
176
1
 90
1
176
1
 90
6
176
1
 90
2
176
1
 62
7
176
1
 90
5
176
1
 90
0
176
1
 90
0
176
1
290
0
176
1
 90
1
176
1
 40
0.0
176
1
 90
0
176
1
290
0
176
1
290
1
176
1
290
1
176
1
290
0
176
1
290
0
176
1
290
0
176
1
290
0
176
1
290
0
176
1
290
0
176
1
 90
50
176
1
 40
0.0
176
1
 40
1.0
176
1
 90
0
176
1
 62
18
420
0
176
1
 90
50
176
1
 90
3
176
1
 62
5
420
255
176
1
290
0
176
1
 90
50
176
1
 90
50
176
1
 90
50
176
1
290
0
176
1
 90
50
176
1
 62
256
176
0
 40
1.0
176
0
 90
2
176
1
  1
strokes_ogs.tif
176
1
290
0
176
1
 40
1.0
176
1
 40
1.0
176
1
  0
VISUALSTYLE
  5
6C
102
{ACAD_REACTORS
330
16
102
}
330
16
100
AcDbVisualStyle
  2
Shaded
 70
27
177
3
291
0
 70
58
 90
2
176
1
 90
2
176
1
 90
0
176
1
 90
2
176
1
 40
0.6
176
1
 40
30.0
176
1
 62
7
420
16777215
176
1
 90
1
176
1
 90
4
176
1
 62
7
176
1
 62
257
176
1
 90
1
176
1
 90
1
176
1
 40
1.0
176
1
 90
8
176
1
 62
7
176
1
 40
1.0
176
1
 90
1
176
1
 90
6
176
1
 90
2
176
1
 62
7
176
1
 90
5
176
1
 90
0
176
1
 90
0
176
1
290
0
176
1
 90
1
176
1
 40
0.0
176
1
 90
0
176
1
290
0
176
1
290
1
176
1
290
1
176
1
290
0
176
1
290
0
176
1
290
0
176
1
290
0
176
1
290
0
176
1
290
0
176
1
 90
50
176
1
 40
0.0
176
1
 40
1.0
176
1
 90
0
176
1
 62
18
420
0
176
1
 90
50
176
1
 90
3
176
1
 62
5
420
255
176
1
290
0
176
1
 90
50
176
1
 90
50
176
1
 90
50
176
1
290
0
176
1
 90
50
176
1
 62
256
176
0
 40
1.0
176
0
 90
2
176
1
  1
strokes_ogs.tif
176
1
290
0
176
1
 40
1.0
176
1
 40
1.0
176
1
  0
VISUALSTYLE
  5
6D
102
{ACAD_REACTORS
330
16
102
}
330
16
100
AcDbVisualStyle
  2
Shaded with edges
 70
26
177
3
291
0
 70
58
 90
2
176
1
 90
2
176
1
 90
0
176
1
 90
2
176
1
 40
0.6
176
1
 40
30.0
176
1
 62
7
420
16777215
176
1
 90
1
176
1
 90
4
176
1
 62
7
176
1
 62
257
176
1
 90
1
176
1
 90
1
176
1
 40
1.0
176
1
 90
8
176
1
 62
7
176
1
 40
1.0
176
1
 90
1
176
1
 90
6
176
1
 90
2
176
1
 62
7
176
1
 90
5
176
1
 90
0
176
1
 90
0
176
1
290
0
176
1
 90
1
176
1
 40
0.0
176
1
 90
0
176
1
290
0
176
1
290
1
176
1
290
1
176
1
290
0
176
1
290
0
176
1
290
0
176
1
290
0
176
1
290
0
176
1
290
0
176
1
 90
50
176
1
 40
0.0
176
1
 40
1.0
176
1
 90
0
176
1
 62
18
420
0
176
1
 90
50
176
1
 90
3
176
1
 62
5
420
255
176
1
290
0
176
1
 90
50
176
1
 90
50
176
1
 90
50
176
1
290
0
176
1
 90
50
176
1
 62
256
176
0
 40
1.0
176
0
 90
2
176
1
  1
strokes_ogs.tif
176
1
290
0
176
1
 40
1.0
176
1
 40
1.0
176
1
  0
VISUALSTYLE
  5
6E
102
{ACAD_REACTORS
330
16
102
}
330
16
100
AcDbVisualStyle
  2
Shades of Gray
 70
23
177
3
291
0
 70
58
 90
2
176
1
 90
2
176
1
 90
0
176
1
 90
2
176
1
 40
0.6
176
1
 40
30.0
176
1
 62
7
420
16777215
176
1
 90
1
176
1
 90
4
176
1
 62
7
176
1
 62
257
176
1
 90
1
176
1
 90
1
176
1
 40
1.0
176
1
 90
8
176
1
 62
7
176
1
 40
1.0
176
1
 90
1
176
1
 90
6
176
1
 90
2
176
1
 62
7
176
1
 90
5
176
1
 90
0
176
1
 90
0
176
1
290
0
176
1
 90
1
176
1
 40
0.0
176
1
 90
0
176
1
290
0
176
1
290
1
176
1
290
1
176
1
290
0
176
1
290
0
176
1
290
0
176
1
290
0
176
1
290
0
176
1
290
0
176
1
 90
50
176
1
 40
0.0
176
1
 40
1.0
176
1
 90
0
176
1
 62
18
420
0
176
1
 90
50
176
1
 90
3
176
1
 62
5
420
255
176
1
290
0
176
1
 90
50
176
1
 90
50
176
1
 90
50
176
1
290
0
176
1
 90
50
176
1
 62
256
176
0
 40
1.0
176
0
 90
2
176
1
  1
strokes_ogs.tif
176
1
290
0
176
1
 40
1.0
176
1
 40
1.0
176
1
  0
VISUALSTYLE
  5
6F
102
{ACAD_REACTORS
330
16
102
}
330
16
100
AcDbVisualStyle
  2
Sketchy
 70
24
177
3
291
0
 70
58
 90
2
176
1
 90
2
176
1
 90
0
176
1
 90
1
176
1
 40
0.6
176
1
 40
30.0
176
1
 62
7
420
16777215
176
1
 90
1
176
1
 90
4
176
1
 62
7
176
1
 62
257
176
1
 90
1
176
1
 90
1
176
1
 40
1.0
176
1
 90
8
176
1
 62
7
176
1
 40
1.0
176
1
 90
1
176
1
 90
6
176
1
 90
2
176
1
 62
7
176
1
 90
5
176
1
 90
0
176
1
 90
0
176
1
290
0
176
1
 90
1
176
1
 40
0.0
176
1
 90
0
176
1
290
0
176
1
290
1
176
1
290
1
176
1
290
0
176
1
290
0
176
1
290
0
176
1
290
0
176
1
290
0
176
1
290
0
176
1
 90
50
176
1
 40
0.0
176
1
 40
1.0
176
1
 90
0
176
1
 62
18
420
0
176
1
 90
50
176
1
 90
3
176
1
 62
5
420
255
176
1
290
0
176
1
 90
50
176
1
 90
50
176
1
 90
50
176
1
290
0
176
1
 90
50
176
1
 62
256
176
0
 40
1.0
176
0
 90
2
176
1
  1
strokes_ogs.tif
176
1
290
0
176
1
 40
1.0
176
1
 40
1.0
176
1
  0
VISUALSTYLE
  5
70
102
{ACAD_REACTORS
330
16
102
}
330
16
100
AcDbVisualStyle
  2
Thicken
 70
13
177
3
291
1
 70
58
 90
2
176
1
 90
2
176
1
 90
0
176
1
 90
2
176
1
 40
0.6
176
1
 40
30.0
176
1
 62
7
420
16777215
176
1
 90
1
176
1
 90
4
176
1
 62
7
176
1
 62
257
176
1
 90
1
176
1
 90
1
176
1
 40
1.0
176
1
 90
8
176
1
 62
7
176
1
 40
1.0
176
1
 90
1
176
1
 90
6
176
1
 90
2
176
1
 62
7
176
1
 90
5
176
1
 90
0
176
1
 90
0
176
1
290
0
176
1
 90
1
176
1
 40
0.0
176
1
 90
0
176
1
290
0
176
1
290
1
176
1
290
1
176
1
290
0
176
1
290
0
176
1
290
0
176
1
290
0
176
1
290
0
176
1
290
0
176
1
 90
50
176
1
 40
0.0
176
1
 40
1.0
176
1
 90
0
176
1
 62
18
420
0
176
1
 90
50
176
1
 90
3
176
1
 62
5
420
255
176
1
290
0
176
1
 90
50
176
1
 90
50
176
1
 90
50
176
1
290
0
176
1
 90
50
176
1
 62
256
176
0
 40
1.0
176
0
 90
2
176
1
  1
strokes_ogs.tif
176
1
290
0
176
1
 40
1.0
176
1
 40
1.0
176
1
  0
VISUALSTYLE
  5
71
102
{ACAD_REACTORS
330
16
102
}
330
16
100
AcDbVisualStyle
  2
Wireframe
 70
5
177
3
291
0
 70
58
 90
2
176
1
 90
2
176
1
 90
0
176
1
 90
0
176
1
 40
0.6
176
1
 40
30.0
176
1
 62
7
420
16777215
176
1
 90
1
176
1
 90
4
176
1
 62
7
176
1
 62
257
176
1
 90
1
176
1
 90
1
176
1
 40
1.0
176
1
 90
8
176
1
 62
7
176
1
 40
1.0
176
1
 90
1
176
1
 90
6
176
1
 90
2
176
1
 62
7
176
1
 90
5
176
1
 90
0
176
1
 90
0
176
1
290
0
176
1
 90
1
176
1
 40
0.0
176
1
 90
0
176
1
290
0
176
1
290
1
176
1
290
1
176
1
290
0
176
1
290
0
176
1
290
0
176
1
290
0
176
1
290
0
176
1
290
0
176
1
 90
50
176
1
 40
0.0
176
1
 40
1.0
176
1
 90
0
176
1
 62
18
420
0
176
1
 90
50
176
1
 90
3
176
1
 62
5
420
255
176
1
290
0
176
1
 90
50
176
1
 90
50
176
1
 90
50
176
1
290
0
176
1
 90
50
176
1
 62
256
176
0
 40
1.0
176
0
 90
2
176
1
  1
strokes_ogs.tif
176
1
290
0
176
1
 40
1.0
176
1
 40
1.0
176
1
  0
VISUALSTYLE
  5
72
102
{ACAD_REACTORS
330
16
102
}
330
16
100
AcDbVisualStyle
  2
X-Ray
 70
25
177
3
291
0
 70
58
 90
2
176
1
 90
2
176
1
 90
0
176
1
 90
2
176
1
 40
0.5
176
1
 40
30.0
176
1
 62
7
420
16777215
176
1
 90
1
176
1
 90
4
176
1
 62
7
176
1
 62
257
176
1
 90
1
176
1
 90
1
176
1
 40
1.0
176
1
 90
8
176
1
 62
7
176
1
 40
1.0
176
1
 90
1
176
1
 90
6
176
1
 90
2
176
1
 62
7
176
1
 90
5
176
1
 90
0
176
1
 90
0
176
1
290
0
176
1
 90
1
176
1
 40
0.0
176
1
 90
0
176
1
290
0
176
1
290
1
176
1
290
1
176
1
290
0
176
1
290
0
176
1
290
0
176
1
290
0
176
1
290
0
176
1
290
0
176
1
 90
50
176
1
 40
0.0
176
1
 40
1.0
176
1
 90
0
176
1
 62
18
420
0
176
1
 90
50
176
1
 90
3
176
1
 62
5
420
255
176
1
290
0
176
1
 90
50
176
1
 90
50
176
1
 90
50
176
1
290
0
176
1
 90
50
176
1
 62
256
176
0
 40
1.0
176
0
 90
2
176
1
  1
strokes_ogs.tif
176
1
290
0
176
1
 40
1.0
176
1
 40
1.0
176
1
  0
ENDSEC
  0
EOF
