  0
SECTION
  2
HEADER
  9
$ACADVER
  1
AC1027
  9
$ACADMAINTVER
 70
105
  9
$DWGCODEPAGE
  3
ANSI_1252
  9
$LASTSAVEDBY
  1

  9
$REQUIREDVERSIONS
160
0
  9
$INSBASE
 10
0.0
 20
0.0
 30
0.0
  9
$EXTMIN
 10
1e+20
 20
1e+20
 30
1e+20
  9
$EXTMAX
 10
-1e+20
 20
-1e+20
 30
-1e+20
  9
$LIMMIN
 10
0.0
 20
0.0
  9
$LIMMAX
 10
420.0
 20
297.0
  9
$ORTHOMODE
 70
0
  9
$REGENMODE
 70
1
  9
$FILLMODE
 70
1
  9
$QTEXTMODE
 70
0
  9
$MIRRTEXT
 70
1
  9
$LTSCALE
 40
1.0
  9
$ATTMODE
 70
1
  9
$TEXTSIZE
 40
2.5
  9
$TRACEWID
 40
1.0
  9
$TEXTSTYLE
  7
ПТ
  9
$CLAYER
  8
0
  9
$CELTYPE
  6
ByLayer
  9
$CECOLOR
 62
256
  9
$CELTSCALE
 40
1.0
  9
$DISPSILH
 70
0
  9
$DIMSCALE
 40
1.0
  9
$DIMASZ
 40
0.175
  9
$DIMEXO
 40
0.125
  9
$DIMDLI
 40
3.75
  9
$DIMRND
 40
0.0
  9
$DIMDLE
 40
0.0
  9
$DIMEXE
 40
0.375
  9
$DIMTP
 40
0.0
  9
$DIMTM
 40
0.0
  9
$DIMTXT
 40
0.25
  9
$DIMCEN
 40
2.5
  9
$DIMTSZ
 40
0.0
  9
$DIMTOL
 70
0
  9
$DIMLIM
 70
0
  9
$DIMTIH
 70
0
  9
$DIMTOH
 70
0
  9
$DIMSE1
 70
0
  9
$DIMSE2
 70
0
  9
$DIMTAD
 70
1
  9
$DIMZIN
 70
12
  9
$DIMBLK
  1
ARCHTICK
  9
$DIMASO
 70
1
  9
$DIMSHO
 70
1
  9
$DIMPOST
  1

  9
$DIMAPOST
  1

  9
$DIMALT
 70
0
  9
$DIMALTD
 70
3
  9
$DIMALTF
 40
0.03937007874
  9
$DIMLFAC
 40
100.0
  9
$DIMTOFL
 70
1
  9
$DIMTVP
 40
0.0
  9
$DIMTIX
 70
0
  9
$DIMSOXD
 70
0
  9
$DIMSAH
 70
0
  9
$DIMBLK1
  1

  9
$DIMBLK2
  1

  9
$DIMSTYLE
  2
ПТ100
  9
$DIMCLRD
 70
0
  9
$DIMCLRE
 70
0
  9
$DIMCLRT
 70
0
  9
$DIMTFAC
 40
0.5
  9
$DIMGAP
 40
0.1
  9
$DIMJUST
 70
0
  9
$DIMSD1
 70
0
  9
$DIMSD2
 70
0
  9
$DIMTOLJ
 70
0
  9
$DIMTZIN
 70
8
  9
$DIMALTZ
 70
0
  9
$DIMALTTZ
 70
0
  9
$DIMUPT
 70
1
  9
$DIMDEC
 70
2
  9
$DIMTDEC
 70
2
  9
$DIMALTU
 70
2
  9
$DIMALTTD
 70
3
  9
$DIMTXSTY
  7
OpenSansCondensed-Light
  9
$DIMAUNIT
 70
0
  9
$DIMADEC
 70
2
  9
$DIMALTRND
 40
0.0
  9
$DIMAZIN
 70
3
  9
$DIMDSEP
 70
46
  9
$DIMATFIT
 70
3
  9
$DIMFRAC
 70
0
  9
$DIMLDRBLK
  1

  9
$DIMLUNIT
 70
2
  9
$DIMLWD
 70
-2
  9
$DIMLWE
 70
-2
  9
$DIMTMOVE
 70
2
  9
$DIMFXL
 40
1.0
  9
$DIMFXLON
 70
0
  9
$DIMJOGANG
 40
0.785398163397
  9
$DIMTFILL
 70
0
  9
$DIMTFILLCLR
 70
0
  9
$DIMARCSYM
 70
0
  9
$DIMLTYPE
  6

  9
$DIMLTEX1
  6

  9
$DIMLTEX2
  6

  9
$DIMTXTDIRECTION
 70
0
  9
$LUNITS
 70
2
  9
$LUPREC
 70
4
  9
$SKETCHINC
 40
1.0
  9
$FILLETRAD
 40
10.0
  9
$AUNITS
 70
0
  9
$AUPREC
 70
2
  9
$MENU
  1
.
  9
$ELEVATION
 40
0.0
  9
$PELEVATION
 40
0.0
  9
$THICKNESS
 40
0.0
  9
$LIMCHECK
 70
0
  9
$CHAMFERA
 40
0.0
  9
$CHAMFERB
 40
0.0
  9
$CHAMFERC
 40
0.0
  9
$CHAMFERD
 40
0.0
  9
$SKPOLY
 70
0
  9
$TDCREATE
 40
2461324.5054050926
  9
$TDUCREATE
 40
2458532.153996898
  9
$TDUPDATE
 40
2461324.5054050926
  9
$TDUUPDATE
 40
2458532.1544311
  9
$TDINDWG
 40
0.0
  9
$TDUSRTIMER
 40
0.0
  9
$USRTIMER
 70
1
  9
$ANGBASE
 50
0.0
  9
$ANGDIR
 70
0
  9
$PDMODE
 70
0
  9
$PDSIZE
 40
0.0
  9
$PLINEWID
 40
0.0
  9
$SPLFRAME
 70
0
  9
$SPLINETYPE
 70
6
  9
$SPLINESEGS
 70
8
  9
$HANDSEED
  5
3E0
  9
$SURFTAB1
 70
6
  9
$SURFTAB2
 70
6
  9
$SURFTYPE
 70
6
  9
$SURFU
 70
6
  9
$SURFV
 70
6
  9
$UCSBASE
  2

  9
$UCSNAME
  2

  9
$UCSORG
 10
0.0
 20
0.0
 30
0.0
  9
$UCSXDIR
 10
1.0
 20
0.0
 30
0.0
  9
$UCSYDIR
 10
0.0
 20
1.0
 30
0.0
  9
$UCSORTHOREF
  2

  9
$UCSORTHOVIEW
 70
0
  9
$UCSORGTOP
 10
0.0
 20
0.0
 30
0.0
  9
$UCSORGBOTTOM
 10
0.0
 20
0.0
 30
0.0
  9
$UCSORGLEFT
 10
0.0
 20
0.0
 30
0.0
  9
$UCSORGRIGHT
 10
0.0
 20
0.0
 30
0.0
  9
$UCSORGFRONT
 10
0.0
 20
0.0
 30
0.0
  9
$UCSORGBACK
 10
0.0
 20
0.0
 30
0.0
  9
$PUCSBASE
  2

  9
$PUCSNAME
  2

  9
$PUCSORG
 10
0.0
 20
0.0
 30
0.0
  9
$PUCSXDIR
 10
1.0
 20
0.0
 30
0.0
  9
$PUCSYDIR
 10
0.0
 20
1.0
 30
0.0
  9
$PUCSORTHOREF
  2

  9
$PUCSORTHOVIEW
 70
0
  9
$PUCSORGTOP
 10
0.0
 20
0.0
 30
0.0
  9
$PUCSORGBOTTOM
 10
0.0
 20
0.0
 30
0.0
  9
$PUCSORGLEFT
 10
0.0
 20
0.0
 30
0.0
  9
$PUCSORGRIGHT
 10
0.0
 20
0.0
 30
0.0
  9
$PUCSORGFRONT
 10
0.0
 20
0.0
 30
0.0
  9
$PUCSORGBACK
 10
0.0
 20
0.0
 30
0.0
  9
$USERI1
 70
0
  9
$USERI2
 70
0
  9
$USERI3
 70
0
  9
$USERI4
 70
0
  9
$USERI5
 70
0
  9
$USERR1
 40
0.0
  9
$USERR2
 40
0.0
  9
$USERR3
 40
0.0
  9
$USERR4
 40
0.0
  9
$USERR5
 40
0.0
  9
$WORLDVIEW
 70
1
  9
$SHADEDGE
 70
3
  9
$SHADEDIF
 70
70
  9
$TILEMODE
 70
1
  9
$MAXACTVP
 70
64
  9
$PINSBASE
 10
0.0
 20
0.0
 30
0.0
  9
$PLIMCHECK
 70
0
  9
$PEXTMIN
 10
1e+20
 20
1e+20
 30
1e+20
  9
$PEXTMAX
 10
-1e+20
 20
-1e+20
 30
-1e+20
  9
$PLIMMIN
 10
0.0
 20
0.0
  9
$PLIMMAX
 10
420.0
 20
297.0
  9
$UNITMODE
 70
0
  9
$VISRETAIN
 70
1
  9
$PLINEGEN
 70
0
  9
$PSLTSCALE
 70
0
  9
$TREEDEPTH
 70
3020
  9
$CMLSTYLE
  2
Standard
  9
$CMLJUST
 70
0
  9
$CMLSCALE
 40
20.0
  9
$PROXYGRAPHICS
 70
1
  9
$MEASUREMENT
 70
1
  9
$CELWEIGHT
370
-1
  9
$ENDCAPS
280
0
  9
$JOINSTYLE
280
0
  9
$LWDISPLAY
290
0
  9
$INSUNITS
 70
4
  9
$HYPERLINKBASE
  1

  9
$STYLESHEET
  1

  9
$XEDIT
290
1
  9
$CEPSNTYPE
380
0
  9
$PSTYLEMODE
290
1
  9
$FINGERPRINTGUID
  2
{95275A7D-C23E-4F12-91C2-0EEDFCE5B710}
  9
$VERSIONGUID
  2
{4458C80E-8ECD-45CF-A01C-2FA5F804809F}
  9
$EXTNAMES
290
1
  9
$PSVPSCALE
 40
0.0
  9
$OLESTARTUP
290
0
  9
$SORTENTS
280
127
  9
$INDEXCTL
280
0
  9
$HIDETEXT
280
1
  9
$XCLIPFRAME
280
1
  9
$HALOGAP
280
0
  9
$OBSCOLOR
 70
257
  9
$OBSLTYPE
280
0
  9
$INTERSECTIONDISPLAY
280
0
  9
$INTERSECTIONCOLOR
 70
257
  9
$DIMASSOC
280
2
  9
$PROJECTNAME
  1

  9
$CAMERADISPLAY
290
0
  9
$LENSLENGTH
 40
50.0
  9
$CAMERAHEIGHT
 40
0.0
  9
$STEPSPERSEC
 40
24.0
  9
$STEPSIZE
 40
100.0
  9
$3DDWFPREC
 40
2.0
  9
$PSOLWIDTH
 40
0.005
  9
$PSOLHEIGHT
 40
0.08
  9
$LOFTANG1
 40
1.570796326795
  9
$LOFTANG2
 40
1.570796326795
  9
$LOFTMAG1
 40
0.0
  9
$LOFTMAG2
 40
0.0
  9
$LOFTPARAM
 70
7
  9
$LOFTNORMALS
280
1
  9
$LATITUDE
 40
37.795
  9
$LONGITUDE
 40
-122.394
  9
$NORTHDIRECTION
 40
0.0
  9
$TIMEZONE
 70
-8000
  9
$LIGHTGLYPHDISPLAY
280
1
  9
$TILEMODELIGHTSYNCH
280
1
  9
$CMATERIAL
347
20
  9
$SOLIDHIST
280
0
  9
$SHOWHIST
280
1
  9
$DWFFRAME
280
2
  9
$DGNFRAME
280
2
  9
$REALWORLDSCALE
290
1
  9
$INTERFERECOLOR
 62
256
  9
$CSHADOW
280
0
  9
$SHADOWPLANELOCATION
 40
0.0
  0
ENDSEC
  0
SECTION
  2
CLASSES
  0
CLASS
  1
ACDBDICTIONARYWDFLT
  2
AcDbDictionaryWithDefault
  3
ObjectDBX Classes
 90
0
 91
0
280
0
281
0
  0
CLASS
  1
SUN
  2
AcDbSun
  3
SCENEOE
 90
1153
 91
0
280
0
281
0
  0
CLASS
  1
VISUALSTYLE
  2
AcDbVisualStyle
  3
ObjectDBX Classes
 90
4095
 91
0
280
0
281
0
  0
CLASS
  1
MATERIAL
  2
AcDbMaterial
  3
ObjectDBX Classes
 90
1153
 91
0
280
0
281
0
  0
CLASS
  1
SCALE
  2
AcDbScale
  3
ObjectDBX Classes
 90
1153
 91
0
280
0
281
0
  0
CLASS
  1
TABLESTYLE
  2
AcDbTableStyle
  3
ObjectDBX Classes
 90
4095
 91
0
280
0
281
0
  0
CLASS
  1
MLEADERSTYLE
  2
AcDbMLeaderStyle
  3
ACDB_MLEADERSTYLE_CLASS
 90
4095
 91
0
280
0
281
0
  0
CLASS
  1
DICTIONARYVAR
  2
AcDbDictionaryVar
  3
ObjectDBX Classes
 90
0
 91
0
280
0
281
0
  0
CLASS
  1
CELLSTYLEMAP
  2
AcDbCellStyleMap
  3
ObjectDBX Classes
 90
1152
 91
0
280
0
281
0
  0
CLASS
  1
MENTALRAYRENDERSETTINGS
  2
AcDbMentalRayRenderSettings
  3
SCENEOE
 90
1024
 91
0
280
0
281
0
  0
CLASS
  1
ACDBDETAILVIEWSTYLE
  2
AcDbDetailViewStyle
  3
ObjectDBX Classes
 90
1025
 91
0
280
0
281
0
  0
CLASS
  1
ACDBSECTIONVIEWSTYLE
  2
AcDbSectionViewStyle
  3
ObjectDBX Classes
 90
1025
 91
0
280
0
281
0
  0
CLASS
  1
RASTERVARIABLES
  2
AcDbRasterVariables
  3
ISM
 90
0
 91
0
280
0
281
0
  0
CLASS
  1
LAYOUT
  2
AcDbLayout
  3
ObjectDBX Classes
 90
0
 91
0
280
0
281
0
  0
CLASS
  1
ACDBPLACEHOLDER
  2
AcDbPlaceHolder
  3
ObjectDBX Classes
 90
0
 91
0
280
0
281
0
  0
ENDSEC
  0
SECTION
  2
TABLES
  0
TABLE
  2
VPORT
  5
8
330
0
100
AcDbSymbolTable
 70
1
  0
VPORT
  5
23
330
8
100
AcDbSymbolTableRecord
100
AcDbViewportTableRecord
  2
*Active
 70
0
 10
0.0
 20
0.0
 11
1.0
 21
1.0
 12
0.0
 22
0.0
 13
0.0
 23
0.0
 14
0.5
 24
0.5
 15
0.5
 25
0.5
 16
0.0
 26
0.0
 36
1.0
 17
0.0
 27
0.0
 37
0.0
 40
1000.0
 41
1.34
 42
50.0
 43
0.0
 44
0.0
 50
0.0
 51
0.0
 71
0
 72
1000
 73
1
 74
3
 75
0
 76
0
 77
0
 78
0
281
0
 65
0
146
0.0
  0
ENDTAB
  0
TABLE
  2
LTYPE
  5
2
330
0
100
AcDbSymbolTable
 70
23
  0
LTYPE
  5
24
330
2
100
AcDbSymbolTableRecord
100
AcDbLinetypeTableRecord
  2
ByBlock
 70
0
  3

 72
65
 73
0
 40
0.0
  0
LTYPE
  5
25
330
2
100
AcDbSymbolTableRecord
100
AcDbLinetypeTableRecord
  2
ByLayer
 70
0
  3

 72
65
 73
0
 40
0.0
  0
LTYPE
  5
26
330
2
100
AcDbSymbolTableRecord
100
AcDbLinetypeTableRecord
  2
Continuous
 70
0
  3

 72
65
 73
0
 40
0.0
  0
LTYPE
  5
2F
330
2
100
AcDbSymbolTableRecord
100
AcDbLinetypeTableRecord
  2
CENTER
 70
0
  3
Center ____ _ ____ _ ____ _ ____ _ ____ _ ____
 72
65
 73
4
 40
5.08
 49
3.175
 74
0
 49
-0.635
 74
0
 49
0.635
 74
0
 49
-0.635
 74
0
  0
LTYPE
  5
30
330
2
100
AcDbSymbolTableRecord
100
AcDbLinetypeTableRecord
  2
CENTERX2
 70
0
  3
Center (2x) ________  __  ________  __  ________
 72
65
 73
4
 40
8.89
 49
6.35
 74
0
 49
-0.635
 74
0
 49
1.27
 74
0
 49
-0.635
 74
0
  0
LTYPE
  5
31
330
2
100
AcDbSymbolTableRecord
100
AcDbLinetypeTableRecord
  2
CENTER2
 70
0
  3
Center (.5x) ____ _ ____ _ ____ _ ____ _ ____
 72
65
 73
4
 40
2.54
 49
1.587
 74
0
 49
-0.318
 74
0
 49
0.318
 74
0
 49
-0.318
 74
0
  0
LTYPE
  5
32
330
2
100
AcDbSymbolTableRecord
100
AcDbLinetypeTableRecord
  2
DASHED
 70
0
  3
Dashed __ __ __ __ __ __ __ __ __ __ __ __ __ _
 72
65
 73
2
 40
1.524
 49
1.27
 74
0
 49
-0.254
 74
0
  0
LTYPE
  5
33
330
2
100
AcDbSymbolTableRecord
100
AcDbLinetypeTableRecord
  2
DASHEDX2
 70
0
  3
Dashed (2x) ____  ____  ____  ____  ____  ____
 72
65
 73
2
 40
3.048
 49
2.54
 74
0
 49
-0.508
 74
0
  0
LTYPE
  5
34
330
2
100
AcDbSymbolTableRecord
100
AcDbLinetypeTableRecord
  2
DASHED2
 70
0
  3
Dashed (.5x) _ _ _ _ _ _ _ _ _ _ _ _ _ _
 72
65
 73
2
 40
0.762
 49
0.635
 74
0
 49
-0.127
 74
0
  0
LTYPE
  5
35
330
2
100
AcDbSymbolTableRecord
100
AcDbLinetypeTableRecord
  2
PHANTOM
 70
0
  3
Phantom ______  __  __  ______  __  __  ______
 72
65
 73
6
 40
6.35
 49
3.175
 74
0
 49
-0.635
 74
0
 49
0.635
 74
0
 49
-0.635
 74
0
 49
0.635
 74
0
 49
-0.635
 74
0
  0
LTYPE
  5
36
330
2
100
AcDbSymbolTableRecord
100
AcDbLinetypeTableRecord
  2
PHANTOMX2
 70
0
  3
Phantom (2x)____________    ____    ____    ____________
 72
65
 73
6
 40
10.795
 49
6.35
 74
0
 49
-0.635
 74
0
 49
1.27
 74
0
 49
-0.635
 74
0
 49
1.27
 74
0
 49
-0.635
 74
0
  0
LTYPE
  5
37
330
2
100
AcDbSymbolTableRecord
100
AcDbLinetypeTableRecord
  2
PHANTOM2
 70
0
  3
Phantom (.5x) ___ _ _ ___ _ _ ___ _ _ ___ _ _ ___
 72
65
 73
6
 40
3.175
 49
1.587
 74
0
 49
-0.318
 74
0
 49
0.318
 74
0
 49
-0.318
 74
0
 49
0.318
 74
0
 49
-0.318
 74
0
  0
LTYPE
  5
38
330
2
100
AcDbSymbolTableRecord
100
AcDbLinetypeTableRecord
  2
DASHDOT
 70
0
  3
Dash dot __ . __ . __ . __ . __ . __ . __ . __
 72
65
 73
4
 40
3.556
 49
2.54
 74
0
 49
-0.508
 74
0
 49
0.0
 74
0
 49
-0.508
 74
0
  0
LTYPE
  5
39
330
2
100
AcDbSymbolTableRecord
100
AcDbLinetypeTableRecord
  2
DASHDOTX2
 70
0
  3
Dash dot (2x) ____  .  ____  .  ____  .  ____
 72
65
 73
4
 40
6.096
 49
5.08
 74
0
 49
-0.508
 74
0
 49
0.0
 74
0
 49
-0.508
 74
0
  0
LTYPE
  5
3A
330
2
100
AcDbSymbolTableRecord
100
AcDbLinetypeTableRecord
  2
DASHDOT2
 70
0
  3
Dash dot (.5x) _ . _ . _ . _ . _ . _ . _ . _
 72
65
 73
4
 40
1.778
 49
1.27
 74
0
 49
-0.254
 74
0
 49
0.0
 74
0
 49
-0.254
 74
0
  0
LTYPE
  5
3B
330
2
100
AcDbSymbolTableRecord
100
AcDbLinetypeTableRecord
  2
DOT
 70
0
  3
Dot .  .  .  .  .  .  .  .  .  .  .  .  .  .  .  .
 72
65
 73
2
 40
0.508
 49
0.0
 74
0
 49
-0.508
 74
0
  0
LTYPE
  5
3C
330
2
100
AcDbSymbolTableRecord
100
AcDbLinetypeTableRecord
  2
DOTX2
 70
0
  3
Dot (2x) .    .    .    .    .    .    .    . 
 72
65
 73
2
 40
1.016
 49
0.0
 74
0
 49
-1.016
 74
0
  0
LTYPE
  5
3D
330
2
100
AcDbSymbolTableRecord
100
AcDbLinetypeTableRecord
  2
DOT2
 70
0
  3
Dot (.5) . . . . . . . . . . . . . . . . . . . 
 72
65
 73
2
 40
0.254
 49
0.0
 74
0
 49
-0.254
 74
0
  0
LTYPE
  5
3E
330
2
100
AcDbSymbolTableRecord
100
AcDbLinetypeTableRecord
  2
DIVIDE
 70
0
  3
Divide __ . . __ . . __ . . __ . . __ . . __
 72
65
 73
6
 40
4.064
 49
2.54
 74
0
 49
-0.508
 74
0
 49
0.0
 74
0
 49
-0.508
 74
0
 49
0.0
 74
0
 49
-0.508
 74
0
  0
LTYPE
  5
3F
330
2
100
AcDbSymbolTableRecord
100
AcDbLinetypeTableRecord
  2
DIVIDEX2
 70
0
  3
Divide (2x) ____  . .  ____  . .  ____  . .  ____
 72
65
 73
6
 40
6.604
 49
5.08
 74
0
 49
-0.508
 74
0
 49
0.0
 74
0
 49
-0.508
 74
0
 49
0.0
 74
0
 49
-0.508
 74
0
  0
LTYPE
  5
40
330
2
100
AcDbSymbolTableRecord
100
AcDbLinetypeTableRecord
  2
DIVIDE2
 70
0
  3
Divide(.5x) _ . _ . _ . _ . _ . _ . _ . _
 72
65
 73
6
 40
2.032
 49
1.27
 74
0
 49
-0.254
 74
0
 49
0.0
 74
0
 49
-0.254
 74
0
 49
0.0
 74
0
 49
-0.254
 74
0
  0
LTYPE
  5
A1
330
2
100
AcDbSymbolTableRecord
100
AcDbLinetypeTableRecord
  2
ПТ_ШТРИХ
 70
0
  3
штрих 4-2
 72
65
 73
2
 40
6.0
 49
4.0
 74
0
 49
-2.0
 74
0
  0
LTYPE
  5
A2
330
2
100
AcDbSymbolTableRecord
100
AcDbLinetypeTableRecord
  2
ПТ_ШТРИХПУНКТ
 70
0
  3
штрихпунктир
 72
65
 73
4
 40
16.0
 49
12.0
 74
0
 49
-2.0
 74
0
 49
0.0
 74
0
 49
-2.0
 74
0
  0
ENDTAB
  0
TABLE
  2
LAYER
  5
1
330
0
100
AcDbSymbolTable
 70
23
  0
LAYER
  5
27
330
1
100
AcDbSymbolTableRecord
100
AcDbLayerTableRecord
  2
0
 70
0
 62
7
  6
Continuous
370
-3
390
13
347
21
  0
LAYER
  5
28
330
1
100
AcDbSymbolTableRecord
100
AcDbLayerTableRecord
  2
Defpoints
 70
0
 62
7
  6
Continuous
290
0
370
-3
390
13
347
21
  0
LAYER
  5
8A
330
1
100
AcDbSymbolTableRecord
100
AcDbLayerTableRecord
  2
ПТ_В21
 70
0
 62
1
  6
Continuous
370
50
390
13
347
21
  0
LAYER
  5
8B
330
1
100
AcDbSymbolTableRecord
100
AcDbLayerTableRecord
  2
ПТ_В22
 70
0
 62
6
  6
Continuous
370
50
390
13
347
21
  0
LAYER
  5
8C
330
1
100
AcDbSymbolTableRecord
100
AcDbLayerTableRecord
  2
ПТ_В2
 70
0
 62
3
  6
Continuous
370
50
390
13
347
21
  0
LAYER
  5
8D
330
1
100
AcDbSymbolTableRecord
100
AcDbLayerTableRecord
  2
ПТ_В21_расп
 70
0
 62
1
  6
Continuous
370
30
390
13
347
21
  0
LAYER
  5
8E
330
1
100
AcDbSymbolTableRecord
100
AcDbLayerTableRecord
  2
ПТ_В22_расп
 70
0
 62
6
  6
Continuous
370
30
390
13
347
21
  0
LAYER
  5
8F
330
1
100
AcDbSymbolTableRecord
100
AcDbLayerTableRecord
  2
ПТ_ввод
 70
0
 62
5
  6
Continuous
370
60
390
13
347
21
  0
LAYER
  5
90
330
1
100
AcDbSymbolTableRecord
100
AcDbLayerTableRecord
  2
ПТ_оросители
 70
0
 62
7
  6
Continuous
370
25
390
13
347
21
  0
LAYER
  5
91
330
1
100
AcDbSymbolTableRecord
100
AcDbLayerTableRecord
  2
ПТ_ПК
 70
0
 62
30
  6
Continuous
370
35
390
13
347
21
  0
LAYER
  5
92
330
1
100
AcDbSymbolTableRecord
100
AcDbLayerTableRecord
  2
ПТ_арматура
 70
0
 62
7
  6
Continuous
370
30
390
13
347
21
  0
LAYER
  5
93
330
1
100
AcDbSymbolTableRecord
100
AcDbLayerTableRecord
  2
ПТ_оборудование
 70
0
 62
7
  6
Continuous
370
35
390
13
347
21
  0
LAYER
  5
94
330
1
100
AcDbSymbolTableRecord
100
AcDbLayerTableRecord
  2
ПТ_текст
 70
0
 62
7
  6
Continuous
370
18
390
13
347
21
  0
LAYER
  5
95
330
1
100
AcDbSymbolTableRecord
100
AcDbLayerTableRecord
  2
ПТ_размеры
 70
0
 62
7
  6
Continuous
370
13
390
13
347
21
  0
LAYER
  5
96
330
1
100
AcDbSymbolTableRecord
100
AcDbLayerTableRecord
  2
ПТ_выноски
 70
0
 62
7
  6
Continuous
370
13
390
13
347
21
  0
LAYER
  5
97
330
1
100
AcDbSymbolTableRecord
100
AcDbLayerTableRecord
  2
ПТ_штриховка
 70
0
 62
8
  6
Continuous
370
9
390
13
347
21
  0
LAYER
  5
98
330
1
100
AcDbSymbolTableRecord
100
AcDbLayerTableRecord
  2
ПТ_АУПП
 70
0
 62
4
  6
Continuous
370
35
390
13
347
21
  0
LAYER
  5
99
330
1
100
AcDbSymbolTableRecord
100
AcDbLayerTableRecord
  2
ПТ_кабели
 70
0
 62
5
  6
Continuous
370
25
390
13
347
21
  0
LAYER
  5
9A
330
1
100
AcDbSymbolTableRecord
100
AcDbLayerTableRecord
  2
ПТ_рамка
 70
0
 62
7
  6
Continuous
370
50
390
13
347
21
  0
LAYER
  5
9B
330
1
100
AcDbSymbolTableRecord
100
AcDbLayerTableRecord
  2
ПТ_рамка_тонк
 70
0
 62
7
  6
Continuous
370
18
390
13
347
21
  0
LAYER
  5
9C
330
1
100
AcDbSymbolTableRecord
100
AcDbLayerTableRecord
  2
АР_подоснова
 70
0
 62
8
  6
Continuous
370
13
390
13
347
21
  0
LAYER
  5
9D
330
1
100
AcDbSymbolTableRecord
100
AcDbLayerTableRecord
  2
ПТ_оси
 70
0
 62
8
  6
Continuous
370
13
390
13
347
21
  0
LAYER
  5
9E
330
1
100
AcDbSymbolTableRecord
100
AcDbLayerTableRecord
  2
ПТ_контур
 70
0
 62
7
  6
Continuous
370
35
390
13
347
21
  0
ENDTAB
  0
TABLE
  2
STYLE
  5
5
330
0
100
AcDbSymbolTable
 70
3
  0
STYLE
  5
29
330
5
100
AcDbSymbolTableRecord
100
AcDbTextStyleTableRecord
  2
Standard
 70
0
 40
0.0
 41
1.0
 50
0.0
 71
0
 42
2.5
  3
txt
  4

  0
STYLE
  5
9F
330
5
100
AcDbSymbolTableRecord
100
AcDbTextStyleTableRecord
  2
ПТ
 70
0
 40
0.0
 41
1.0
 50
0.0
 71
0
 42
2.5
  3
isocpeur.ttf
  4

  0
STYLE
  5
A0
330
5
100
AcDbSymbolTableRecord
100
AcDbTextStyleTableRecord
  2
ПТ_загл
 70
0
 40
0.0
 41
1.0
 50
0.0
 71
0
 42
2.5
  3
isocpeur.ttf
  4

  0
ENDTAB
  0
TABLE
  2
VIEW
  5
7
330
0
100
AcDbSymbolTable
 70
0
  0
ENDTAB
  0
TABLE
  2
UCS
  5
6
330
0
100
AcDbSymbolTable
 70
0
  0
ENDTAB
  0
TABLE
  2
APPID
  5
3
330
0
100
AcDbSymbolTable
 70
2
  0
APPID
  5
2A
330
3
100
AcDbSymbolTableRecord
100
AcDbRegAppTableRecord
  2
ACAD
 70
0
  0
APPID
  5
3DF
330
3
100
AcDbSymbolTableRecord
100
AcDbRegAppTableRecord
  2
HATCHBACKGROUNDCOLOR
 70
0
  0
ENDTAB
  0
TABLE
  2
DIMSTYLE
  5
4
330
0
100
AcDbSymbolTable
 70
2
100
AcDbDimStyleTable
  0
DIMSTYLE
105
2B
330
4
100
AcDbSymbolTableRecord
100
AcDbDimStyleTableRecord
  2
Standard
 70
0
 40
1.0
 41
2.5
 42
0.625
 43
3.75
 44
1.25
 45
0.0
 46
0.0
 47
0.0
 48
0.0
 49
2.5
140
2.5
141
2.5
142
0.0
143
0.03937007874
144
1.0
145
0.0
146
1.0
147
0.625
148
0.0
 69
0
 70
0
 71
0
 72
0
 73
0
 74
0
 75
0
 76
0
 77
1
 78
8
 79
3
170
0
171
3
172
1
173
0
174
0
175
0
176
0
177
0
178
0
179
2
271
2
272
2
273
2
274
3
275
0
276
0
277
2
278
44
279
0
280
0
281
0
282
0
283
0
284
8
285
0
286
0
288
0
289
3
290
0
371
-2
372
-2
  0
DIMSTYLE
105
149
330
4
100
AcDbSymbolTableRecord
100
AcDbDimStyleTableRecord
  2
ПТ100
 70
0
 40
100.0
 41
1.2
 42
0.0
 43
3.75
 44
1.0
 45
0.0
 46
0.0
 47
0.0
 48
0.0
 49
2.5
140
2.5
141
2.5
142
1.2
143
0.03937007874
144
1.0
145
0.0
146
1.0
147
0.6
148
0.0
 69
0
 70
0
 71
0
 72
0
 73
0
 74
0
 75
0
 76
0
 77
1
 78
8
 79
3
170
0
171
3
172
1
173
0
174
0
175
0
176
7
177
7
178
7
179
2
271
0
272
2
273
2
274
3
275
0
276
0
277
2
278
44
279
0
280
0
281
0
282
0
283
0
284
8
285
0
286
0
288
0
289
3
290
0
340
9F
371
13
372
13
  0
ENDTAB
  0
TABLE
  2
BLOCK_RECORD
  5
9
330
0
100
AcDbSymbolTable
 70
34
  0
BLOCK_RECORD
  5
17
330
9
100
AcDbSymbolTableRecord
100
AcDbBlockTableRecord
  2
*Model_Space
340
1A
 70
0
280
1
281
0
  0
BLOCK_RECORD
  5
1B
330
9
100
AcDbSymbolTableRecord
100
AcDbBlockTableRecord
  2
*Paper_Space
340
1E
 70
0
280
1
281
0
  0
BLOCK_RECORD
  5
74
330
9
100
AcDbSymbolTableRecord
100
AcDbBlockTableRecord
  2
_ARCHTICK
340
0
 70
0
280
1
281
0
  0
BLOCK_RECORD
  5
78
330
9
100
AcDbSymbolTableRecord
100
AcDbBlockTableRecord
  2
_CLOSEDFILLED
340
0
 70
0
280
1
281
0
  0
BLOCK_RECORD
  5
84
330
9
100
AcDbSymbolTableRecord
100
AcDbBlockTableRecord
  2
_CLOSEDBLANK
340
0
 70
0
280
1
281
0
  0
BLOCK_RECORD
  5
A3
330
9
100
AcDbSymbolTableRecord
100
AcDbBlockTableRecord
  2
SPR_DN
340
0
 70
0
280
1
281
0
  0
BLOCK_RECORD
  5
AD
330
9
100
AcDbSymbolTableRecord
100
AcDbBlockTableRecord
  2
SPR_UP
340
0
 70
0
280
1
281
0
  0
BLOCK_RECORD
  5
B7
330
9
100
AcDbSymbolTableRecord
100
AcDbBlockTableRecord
  2
SPR_EXIST
340
0
 70
0
280
1
281
0
  0
BLOCK_RECORD
  5
BB
330
9
100
AcDbSymbolTableRecord
100
AcDbBlockTableRecord
  2
PK2
340
0
 70
0
280
1
281
0
  0
BLOCK_RECORD
  5
C3
330
9
100
AcDbSymbolTableRecord
100
AcDbBlockTableRecord
  2
RISER
340
0
 70
0
280
1
281
0
  0
BLOCK_RECORD
  5
C8
330
9
100
AcDbSymbolTableRecord
100
AcDbBlockTableRecord
  2
V_GATE
340
0
 70
0
280
1
281
0
  0
BLOCK_RECORD
  5
CD
330
9
100
AcDbSymbolTableRecord
100
AcDbBlockTableRecord
  2
V_BFLY
340
0
 70
0
280
1
281
0
  0
BLOCK_RECORD
  5
D2
330
9
100
AcDbSymbolTableRecord
100
AcDbBlockTableRecord
  2
V_CHECK
340
0
 70
0
280
1
281
0
  0
BLOCK_RECORD
  5
D7
330
9
100
AcDbSymbolTableRecord
100
AcDbBlockTableRecord
  2
V_BALL
340
0
 70
0
280
1
281
0
  0
BLOCK_RECORD
  5
DC
330
9
100
AcDbSymbolTableRecord
100
AcDbBlockTableRecord
  2
V_GLOBE
340
0
 70
0
280
1
281
0
  0
BLOCK_RECORD
  5
E1
330
9
100
AcDbSymbolTableRecord
100
AcDbBlockTableRecord
  2
V_MOTOR
340
0
 70
0
280
1
281
0
  0
BLOCK_RECORD
  5
E8
330
9
100
AcDbSymbolTableRecord
100
AcDbBlockTableRecord
  2
V_PRV
340
0
 70
0
280
1
281
0
  0
BLOCK_RECORD
  5
F0
330
9
100
AcDbSymbolTableRecord
100
AcDbBlockTableRecord
  2
STRAINER
340
0
 70
0
280
1
281
0
  0
BLOCK_RECORD
  5
F5
330
9
100
AcDbSymbolTableRecord
100
AcDbBlockTableRecord
  2
MANOM
340
0
 70
0
280
1
281
0
  0
BLOCK_RECORD
  5
FB
330
9
100
AcDbSymbolTableRecord
100
AcDbBlockTableRecord
  2
PSW
340
0
 70
0
280
1
281
0
  0
BLOCK_RECORD
  5
101
330
9
100
AcDbSymbolTableRecord
100
AcDbBlockTableRecord
  2
FSW
340
0
 70
0
280
1
281
0
  0
BLOCK_RECORD
  5
107
330
9
100
AcDbSymbolTableRecord
100
AcDbBlockTableRecord
  2
PUMP
340
0
 70
0
280
1
281
0
  0
BLOCK_RECORD
  5
10C
330
9
100
AcDbSymbolTableRecord
100
AcDbBlockTableRecord
  2
TANK
340
0
 70
0
280
1
281
0
  0
BLOCK_RECORD
  5
112
330
9
100
AcDbSymbolTableRecord
100
AcDbBlockTableRecord
  2
UU
340
0
 70
0
280
1
281
0
  0
BLOCK_RECORD
  5
117
330
9
100
AcDbSymbolTableRecord
100
AcDbBlockTableRecord
  2
GM80
340
0
 70
0
280
1
281
0
  0
BLOCK_RECORD
  5
11C
330
9
100
AcDbSymbolTableRecord
100
AcDbBlockTableRecord
  2
DRAIN
340
0
 70
0
280
1
281
0
  0
BLOCK_RECORD
  5
122
330
9
100
AcDbSymbolTableRecord
100
AcDbBlockTableRecord
  2
ELEV
340
0
 70
0
280
1
281
0
  0
BLOCK_RECORD
  5
127
330
9
100
AcDbSymbolTableRecord
100
AcDbBlockTableRecord
  2
ARROW
340
0
 70
0
280
1
281
0
  0
BLOCK_RECORD
  5
12B
330
9
100
AcDbSymbolTableRecord
100
AcDbBlockTableRecord
  2
MODULE
340
0
 70
0
280
1
281
0
  0
BLOCK_RECORD
  5
130
330
9
100
AcDbSymbolTableRecord
100
AcDbBlockTableRecord
  2
DETS
340
0
 70
0
280
1
281
0
  0
BLOCK_RECORD
  5
135
330
9
100
AcDbSymbolTableRecord
100
AcDbBlockTableRecord
  2
BTN
340
0
 70
0
280
1
281
0
  0
BLOCK_RECORD
  5
13A
330
9
100
AcDbSymbolTableRecord
100
AcDbBlockTableRecord
  2
SIGN
340
0
 70
0
280
1
281
0
  0
BLOCK_RECORD
  5
140
330
9
100
AcDbSymbolTableRecord
100
AcDbBlockTableRecord
  2
SIREN
340
0
 70
0
280
1
281
0
  0
BLOCK_RECORD
  5
144
330
9
100
AcDbSymbolTableRecord
100
AcDbBlockTableRecord
  2
DOORC
340
0
 70
0
280
1
281
0
  0
ENDTAB
  0
ENDSEC
  0
SECTION
  2
BLOCKS
  0
BLOCK
  5
18
330
17
100
AcDbEntity
  8
0
100
AcDbBlockBegin
  2
*Model_Space
 70
0
 10
0.0
 20
0.0
 30
0.0
  3
*Model_Space
  1

  0
ENDBLK
  5
19
330
17
100
AcDbEntity
  8
0
100
AcDbBlockEnd
  0
BLOCK
  5
1C
330
1B
100
AcDbEntity
  8
0
100
AcDbBlockBegin
  2
*Paper_Space
 70
0
 10
0.0
 20
0.0
 30
0.0
  3
*Paper_Space
  1

  0
ENDBLK
  5
1D
330
1B
100
AcDbEntity
  8
0
100
AcDbBlockEnd
  0
BLOCK
  5
75
330
74
100
AcDbEntity
  8
0
100
AcDbBlockBegin
  2
_ARCHTICK
 70
0
 10
0.0
 20
0.0
 30
0.0
  3
_ARCHTICK
  1

  0
LWPOLYLINE
  5
77
330
74
100
AcDbEntity
  8
0
  6
BYBLOCK
 62
0
100
AcDbPolyline
 90
2
 70
0
 43
0.15
 10
-0.5
 20
-0.5
 10
0.5
 20
0.5
  0
ENDBLK
  5
76
330
74
100
AcDbEntity
  8
0
100
AcDbBlockEnd
  0
BLOCK
  5
79
330
78
100
AcDbEntity
  8
0
100
AcDbBlockBegin
  2
_CLOSEDFILLED
 70
0
 10
0.0
 20
0.0
 30
0.0
  3
_CLOSEDFILLED
  1

  0
SOLID
  5
7B
330
78
100
AcDbEntity
  8
0
  6
BYBLOCK
 62
0
100
AcDbTrace
 10
-1.0
 20
0.16439898372402537
 30
0.0
 11
0.0
 21
0.0
 31
0.0
 12
-1.0
 22
-0.16439898372402537
 32
0.0
 13
-1.0
 23
-0.16439898372402537
 33
0.0
  0
ENDBLK
  5
7A
330
78
100
AcDbEntity
  8
0
100
AcDbBlockEnd
  0
BLOCK
  5
85
330
84
100
AcDbEntity
  8
0
100
AcDbBlockBegin
  2
_CLOSEDBLANK
 70
0
 10
0.0
 20
0.0
 30
0.0
  3
_CLOSEDBLANK
  1

  0
LWPOLYLINE
  5
87
330
84
100
AcDbEntity
  8
0
  6
BYBLOCK
 62
0
100
AcDbPolyline
 90
3
 70
1
 10
-1.0
 20
0.16439898372402537
 10
0.0
 20
0.0
 10
-1.0
 20
-0.16439898372402537
  0
ENDBLK
  5
86
330
84
100
AcDbEntity
  8
0
100
AcDbBlockEnd
  0
BLOCK
  5
A4
330
A3
100
AcDbEntity
  8
0
100
AcDbBlockBegin
  2
SPR_DN
 70
0
 10
0.0
 20
0.0
 30
0.0
  3
SPR_DN
  1

  0
CIRCLE
  5
A6
330
A3
100
AcDbEntity
  8
0
100
AcDbCircle
 10
0.0
 20
0.0
 30
0.0
 40
1.1
  0
LINE
  5
A7
330
A3
100
AcDbEntity
  8
0
100
AcDbLine
 10
-1.1
 20
0.0
 30
0.0
 11
1.1
 21
0.0
 31
0.0
  0
LINE
  5
A8
330
A3
100
AcDbEntity
  8
0
100
AcDbLine
 10
-1.0846146269015964
 20
-0.18333333333333335
 30
0.0
 11
1.0846146269015964
 21
-0.18333333333333335
 31
0.0
  0
LINE
  5
A9
330
A3
100
AcDbEntity
  8
0
100
AcDbLine
 10
-1.0370899457402698
 20
-0.3666666666666667
 30
0.0
 11
1.0370899457402698
 21
-0.3666666666666667
 31
0.0
  0
LINE
  5
AA
330
A3
100
AcDbEntity
  8
0
100
AcDbLine
 10
-0.9526279441628827
 20
-0.55
 30
0.0
 11
0.9526279441628827
 21
-0.55
 31
0.0
  0
LINE
  5
AB
330
A3
100
AcDbEntity
  8
0
100
AcDbLine
 10
-0.8198915917499229
 20
-0.7333333333333334
 30
0.0
 11
0.8198915917499229
 21
-0.7333333333333334
 31
0.0
  0
LINE
  5
AC
330
A3
100
AcDbEntity
  8
0
100
AcDbLine
 10
-0.6080478782318235
 20
-0.9166666666666666
 30
0.0
 11
0.6080478782318235
 21
-0.9166666666666666
 31
0.0
  0
ENDBLK
  5
A5
330
A3
100
AcDbEntity
  8
0
100
AcDbBlockEnd
  0
BLOCK
  5
AE
330
AD
100
AcDbEntity
  8
0
100
AcDbBlockBegin
  2
SPR_UP
 70
0
 10
0.0
 20
0.0
 30
0.0
  3
SPR_UP
  1

  0
CIRCLE
  5
B0
330
AD
100
AcDbEntity
  8
0
100
AcDbCircle
 10
0.0
 20
0.0
 30
0.0
 40
1.1
  0
LINE
  5
B1
330
AD
100
AcDbEntity
  8
0
100
AcDbLine
 10
-1.1
 20
0.0
 30
0.0
 11
1.1
 21
0.0
 31
0.0
  0
LINE
  5
B2
330
AD
100
AcDbEntity
  8
0
100
AcDbLine
 10
-1.0846146269015964
 20
0.18333333333333335
 30
0.0
 11
1.0846146269015964
 21
0.18333333333333335
 31
0.0
  0
LINE
  5
B3
330
AD
100
AcDbEntity
  8
0
100
AcDbLine
 10
-1.0370899457402698
 20
0.3666666666666667
 30
0.0
 11
1.0370899457402698
 21
0.3666666666666667
 31
0.0
  0
LINE
  5
B4
330
AD
100
AcDbEntity
  8
0
100
AcDbLine
 10
-0.9526279441628827
 20
0.55
 30
0.0
 11
0.9526279441628827
 21
0.55
 31
0.0
  0
LINE
  5
B5
330
AD
100
AcDbEntity
  8
0
100
AcDbLine
 10
-0.8198915917499229
 20
0.7333333333333334
 30
0.0
 11
0.8198915917499229
 21
0.7333333333333334
 31
0.0
  0
LINE
  5
B6
330
AD
100
AcDbEntity
  8
0
100
AcDbLine
 10
-0.6080478782318235
 20
0.9166666666666666
 30
0.0
 11
0.6080478782318235
 21
0.9166666666666666
 31
0.0
  0
ENDBLK
  5
AF
330
AD
100
AcDbEntity
  8
0
100
AcDbBlockEnd
  0
BLOCK
  5
B8
330
B7
100
AcDbEntity
  8
0
100
AcDbBlockBegin
  2
SPR_EXIST
 70
0
 10
0.0
 20
0.0
 30
0.0
  3
SPR_EXIST
  1

  0
CIRCLE
  5
BA
330
B7
100
AcDbEntity
  8
0
100
AcDbCircle
 10
0.0
 20
0.0
 30
0.0
 40
1.1
  0
ENDBLK
  5
B9
330
B7
100
AcDbEntity
  8
0
100
AcDbBlockEnd
  0
BLOCK
  5
BC
330
BB
100
AcDbEntity
  8
0
100
AcDbBlockBegin
  2
PK2
 70
0
 10
0.0
 20
0.0
 30
0.0
  3
PK2
  1

  0
LWPOLYLINE
  5
BE
330
BB
100
AcDbEntity
  8
0
100
AcDbPolyline
 90
4
 70
1
 10
-4.0
 20
0.0
 10
4.0
 20
0.0
 10
4.0
 20
2.6
 10
-4.0
 20
2.6
  0
CIRCLE
  5
BF
330
BB
100
AcDbEntity
  8
0
100
AcDbCircle
 10
-1.8
 20
1.3
 30
0.0
 40
0.8
  0
HATCH
  5
C0
330
BB
100
AcDbEntity
  8
0
 62
7
100
AcDbHatch
 10
0.0
 20
0.0
 30
0.0
210
0.0
220
0.0
230
1.0
  2
SOLID
 70
1
 71
0
 91
1
 92
3
 72
1
 73
1
 93
2
 10
-2.6
 20
1.3
 42
1.0
 10
-1.0
 20
1.3
 42
0.0
 97
0
 75
1
 76
1
 98
0
  0
CIRCLE
  5
C1
330
BB
100
AcDbEntity
  8
0
100
AcDbCircle
 10
1.8
 20
1.3
 30
0.0
 40
0.8
  0
HATCH
  5
C2
330
BB
100
AcDbEntity
  8
0
 62
7
100
AcDbHatch
 10
0.0
 20
0.0
 30
0.0
210
0.0
220
0.0
230
1.0
  2
SOLID
 70
1
 71
0
 91
1
 92
3
 72
1
 73
1
 93
2
 10
1.0
 20
1.3
 42
1.0
 10
2.6
 20
1.3
 42
0.0
 97
0
 75
1
 76
1
 98
0
  0
ENDBLK
  5
BD
330
BB
100
AcDbEntity
  8
0
100
AcDbBlockEnd
  0
BLOCK
  5
C4
330
C3
100
AcDbEntity
  8
0
100
AcDbBlockBegin
  2
RISER
 70
0
 10
0.0
 20
0.0
 30
0.0
  3
RISER
  1

  0
CIRCLE
  5
C6
330
C3
100
AcDbEntity
  8
0
100
AcDbCircle
 10
0.0
 20
0.0
 30
0.0
 40
1.0
  0
CIRCLE
  5
C7
330
C3
100
AcDbEntity
  8
0
100
AcDbCircle
 10
0.0
 20
0.0
 30
0.0
 40
0.35
  0
ENDBLK
  5
C5
330
C3
100
AcDbEntity
  8
0
100
AcDbBlockEnd
  0
BLOCK
  5
C9
330
C8
100
AcDbEntity
  8
0
100
AcDbBlockBegin
  2
V_GATE
 70
0
 10
0.0
 20
0.0
 30
0.0
  3
V_GATE
  1

  0
LWPOLYLINE
  5
CB
330
C8
100
AcDbEntity
  8
0
100
AcDbPolyline
 90
4
 70
1
 10
-2.0
 20
-1.0
 10
-2.0
 20
1.0
 10
2.0
 20
-1.0
 10
2.0
 20
1.0
  0
LINE
  5
CC
330
C8
100
AcDbEntity
  8
0
100
AcDbLine
 10
0.0
 20
0.0
 30
0.0
 11
0.0
 21
2.2
 31
0.0
  0
ENDBLK
  5
CA
330
C8
100
AcDbEntity
  8
0
100
AcDbBlockEnd
  0
BLOCK
  5
CE
330
CD
100
AcDbEntity
  8
0
100
AcDbBlockBegin
  2
V_BFLY
 70
0
 10
0.0
 20
0.0
 30
0.0
  3
V_BFLY
  1

  0
LWPOLYLINE
  5
D0
330
CD
100
AcDbEntity
  8
0
100
AcDbPolyline
 90
4
 70
1
 10
-2.0
 20
-1.0
 10
-2.0
 20
1.0
 10
2.0
 20
-1.0
 10
2.0
 20
1.0
  0
CIRCLE
  5
D1
330
CD
100
AcDbEntity
  8
0
100
AcDbCircle
 10
0.0
 20
0.0
 30
0.0
 40
0.55
  0
ENDBLK
  5
CF
330
CD
100
AcDbEntity
  8
0
100
AcDbBlockEnd
  0
BLOCK
  5
D3
330
D2
100
AcDbEntity
  8
0
100
AcDbBlockBegin
  2
V_CHECK
 70
0
 10
0.0
 20
0.0
 30
0.0
  3
V_CHECK
  1

  0
LWPOLYLINE
  5
D5
330
D2
100
AcDbEntity
  8
0
100
AcDbPolyline
 90
4
 70
1
 10
-2.0
 20
-1.0
 10
-2.0
 20
1.0
 10
2.0
 20
-1.0
 10
2.0
 20
1.0
  0
HATCH
  5
D6
330
D2
100
AcDbEntity
  8
0
 62
7
100
AcDbHatch
 10
0.0
 20
0.0
 30
0.0
210
0.0
220
0.0
230
1.0
  2
SOLID
 70
1
 71
0
 91
1
 92
3
 72
0
 73
1
 93
3
 10
0.0
 20
0.0
 10
2.0
 20
1.0
 10
2.0
 20
-1.0
 97
0
 75
1
 76
1
 98
0
  0
ENDBLK
  5
D4
330
D2
100
AcDbEntity
  8
0
100
AcDbBlockEnd
  0
BLOCK
  5
D8
330
D7
100
AcDbEntity
  8
0
100
AcDbBlockBegin
  2
V_BALL
 70
0
 10
0.0
 20
0.0
 30
0.0
  3
V_BALL
  1

  0
LWPOLYLINE
  5
DA
330
D7
100
AcDbEntity
  8
0
100
AcDbPolyline
 90
4
 70
1
 10
-2.0
 20
-1.0
 10
-2.0
 20
1.0
 10
2.0
 20
-1.0
 10
2.0
 20
1.0
  0
HATCH
  5
DB
330
D7
100
AcDbEntity
  8
0
 62
7
100
AcDbHatch
 10
0.0
 20
0.0
 30
0.0
210
0.0
220
0.0
230
1.0
  2
SOLID
 70
1
 71
0
 91
1
 92
3
 72
1
 73
1
 93
2
 10
0.5
 20
0.0
 42
1.0
 10
-0.5
 20
0.0
 42
1.0
 97
0
 75
1
 76
1
 98
0
  0
ENDBLK
  5
D9
330
D7
100
AcDbEntity
  8
0
100
AcDbBlockEnd
  0
BLOCK
  5
DD
330
DC
100
AcDbEntity
  8
0
100
AcDbBlockBegin
  2
V_GLOBE
 70
0
 10
0.0
 20
0.0
 30
0.0
  3
V_GLOBE
  1

  0
LWPOLYLINE
  5
DF
330
DC
100
AcDbEntity
  8
0
100
AcDbPolyline
 90
4
 70
1
 10
-2.0
 20
-1.0
 10
-2.0
 20
1.0
 10
2.0
 20
-1.0
 10
2.0
 20
1.0
  0
CIRCLE
  5
E0
330
DC
100
AcDbEntity
  8
0
100
AcDbCircle
 10
0.0
 20
0.0
 30
0.0
 40
0.35
  0
ENDBLK
  5
DE
330
DC
100
AcDbEntity
  8
0
100
AcDbBlockEnd
  0
BLOCK
  5
E2
330
E1
100
AcDbEntity
  8
0
100
AcDbBlockBegin
  2
V_MOTOR
 70
0
 10
0.0
 20
0.0
 30
0.0
  3
V_MOTOR
  1

  0
LWPOLYLINE
  5
E4
330
E1
100
AcDbEntity
  8
0
100
AcDbPolyline
 90
4
 70
1
 10
-2.0
 20
-1.0
 10
-2.0
 20
1.0
 10
2.0
 20
-1.0
 10
2.0
 20
1.0
  0
LINE
  5
E5
330
E1
100
AcDbEntity
  8
0
100
AcDbLine
 10
0.0
 20
0.0
 30
0.0
 11
0.0
 21
1.8
 31
0.0
  0
CIRCLE
  5
E6
330
E1
100
AcDbEntity
  8
0
100
AcDbCircle
 10
0.0
 20
2.6
 30
0.0
 40
0.8
  0
TEXT
  5
E7
330
E1
100
AcDbEntity
  8
0
100
AcDbText
 10
0.0
 20
2.6
 30
0.0
 40
0.9
  1
М
  7
ПТ
 72
1
 11
0.0
 21
2.6
 31
0.0
100
AcDbText
 73
2
  0
ENDBLK
  5
E3
330
E1
100
AcDbEntity
  8
0
100
AcDbBlockEnd
  0
BLOCK
  5
E9
330
E8
100
AcDbEntity
  8
0
100
AcDbBlockBegin
  2
V_PRV
 70
0
 10
0.0
 20
0.0
 30
0.0
  3
V_PRV
  1

  0
LWPOLYLINE
  5
EB
330
E8
100
AcDbEntity
  8
0
100
AcDbPolyline
 90
4
 70
1
 10
-2.0
 20
-1.0
 10
-2.0
 20
1.0
 10
2.0
 20
-1.0
 10
2.0
 20
1.0
  0
LINE
  5
EC
330
E8
100
AcDbEntity
  8
0
100
AcDbLine
 10
0.0
 20
0.0
 30
0.0
 11
0.0
 21
1.8
 31
0.0
  0
ARC
  5
ED
330
E8
100
AcDbEntity
  8
0
100
AcDbCircle
 10
0.0
 20
1.8
 30
0.0
 40
1.2
100
AcDbArc
 50
0.0
 51
180.0
  0
LINE
  5
EE
330
E8
100
AcDbEntity
  8
0
100
AcDbLine
 10
-1.2
 20
1.8
 30
0.0
 11
1.2
 21
1.8
 31
0.0
  0
LWPOLYLINE
  5
EF
330
E8
100
AcDbEntity
  8
0
100
AcDbPolyline
 90
3
 70
0
 10
1.2
 20
2.4
 10
3.4
 20
2.4
 10
3.4
 20
0.0
  0
ENDBLK
  5
EA
330
E8
100
AcDbEntity
  8
0
100
AcDbBlockEnd
  0
BLOCK
  5
F1
330
F0
100
AcDbEntity
  8
0
100
AcDbBlockBegin
  2
STRAINER
 70
0
 10
0.0
 20
0.0
 30
0.0
  3
STRAINER
  1

  0
LWPOLYLINE
  5
F3
330
F0
100
AcDbEntity
  8
0
100
AcDbPolyline
 90
4
 70
1
 10
-2.0
 20
0.0
 10
0.0
 20
1.4
 10
2.0
 20
0.0
 10
0.0
 20
-1.4
  0
LINE
  5
F4
330
F0
100
AcDbEntity
  8
0
  6
DASHED
100
AcDbLine
 10
0.0
 20
1.4
 30
0.0
 11
0.0
 21
-1.4
 31
0.0
  0
ENDBLK
  5
F2
330
F0
100
AcDbEntity
  8
0
100
AcDbBlockEnd
  0
BLOCK
  5
F6
330
F5
100
AcDbEntity
  8
0
100
AcDbBlockBegin
  2
MANOM
 70
0
 10
0.0
 20
0.0
 30
0.0
  3
MANOM
  1

  0
LINE
  5
F8
330
F5
100
AcDbEntity
  8
0
100
AcDbLine
 10
0.0
 20
0.0
 30
0.0
 11
0.0
 21
2.0
 31
0.0
  0
CIRCLE
  5
F9
330
F5
100
AcDbEntity
  8
0
100
AcDbCircle
 10
0.0
 20
3.0
 30
0.0
 40
1.0
  0
LINE
  5
FA
330
F5
100
AcDbEntity
  8
0
100
AcDbLine
 10
-0.5
 20
2.5
 30
0.0
 11
0.6
 21
3.6
 31
0.0
  0
ENDBLK
  5
F7
330
F5
100
AcDbEntity
  8
0
100
AcDbBlockEnd
  0
BLOCK
  5
FC
330
FB
100
AcDbEntity
  8
0
100
AcDbBlockBegin
  2
PSW
 70
0
 10
0.0
 20
0.0
 30
0.0
  3
PSW
  1

  0
LINE
  5
FE
330
FB
100
AcDbEntity
  8
0
100
AcDbLine
 10
0.0
 20
0.0
 30
0.0
 11
0.0
 21
1.6
 31
0.0
  0
LWPOLYLINE
  5
FF
330
FB
100
AcDbEntity
  8
0
100
AcDbPolyline
 90
4
 70
1
 10
-1.0
 20
1.6
 10
1.0
 20
1.6
 10
1.0
 20
3.6
 10
-1.0
 20
3.6
  0
TEXT
  5
100
330
FB
100
AcDbEntity
  8
0
100
AcDbText
 10
0.0
 20
2.6
 30
0.0
 40
1.2
  1
Р
  7
ПТ
 72
1
 11
0.0
 21
2.6
 31
0.0
100
AcDbText
 73
2
  0
ENDBLK
  5
FD
330
FB
100
AcDbEntity
  8
0
100
AcDbBlockEnd
  0
BLOCK
  5
102
330
101
100
AcDbEntity
  8
0
100
AcDbBlockBegin
  2
FSW
 70
0
 10
0.0
 20
0.0
 30
0.0
  3
FSW
  1

  0
LINE
  5
104
330
101
100
AcDbEntity
  8
0
100
AcDbLine
 10
0.0
 20
0.0
 30
0.0
 11
0.0
 21
1.6
 31
0.0
  0
LWPOLYLINE
  5
105
330
101
100
AcDbEntity
  8
0
100
AcDbPolyline
 90
4
 70
1
 10
-1.0
 20
1.6
 10
1.0
 20
1.6
 10
1.0
 20
3.6
 10
-1.0
 20
3.6
  0
TEXT
  5
106
330
101
100
AcDbEntity
  8
0
100
AcDbText
 10
0.0
 20
2.6
 30
0.0
 40
1.2
  1
F
  7
ПТ
 72
1
 11
0.0
 21
2.6
 31
0.0
100
AcDbText
 73
2
  0
ENDBLK
  5
103
330
101
100
AcDbEntity
  8
0
100
AcDbBlockEnd
  0
BLOCK
  5
108
330
107
100
AcDbEntity
  8
0
100
AcDbBlockBegin
  2
PUMP
 70
0
 10
0.0
 20
0.0
 30
0.0
  3
PUMP
  1

  0
CIRCLE
  5
10A
330
107
100
AcDbEntity
  8
0
100
AcDbCircle
 10
0.0
 20
0.0
 30
0.0
 40
3.0
  0
LWPOLYLINE
  5
10B
330
107
100
AcDbEntity
  8
0
100
AcDbPolyline
 90
3
 70
0
 10
-2.1
 20
-2.1
 10
3.0
 20
0.0
 10
-2.1
 20
2.1
  0
ENDBLK
  5
109
330
107
100
AcDbEntity
  8
0
100
AcDbBlockEnd
  0
BLOCK
  5
10D
330
10C
100
AcDbEntity
  8
0
100
AcDbBlockBegin
  2
TANK
 70
0
 10
0.0
 20
0.0
 30
0.0
  3
TANK
  1

  0
LWPOLYLINE
  5
10F
330
10C
100
AcDbEntity
  8
0
100
AcDbPolyline
 90
4
 70
1
 10
-2.0
 20
-4.0
 10
2.0
 20
-4.0
 10
2.0
 20
2.0
 10
-2.0
 20
2.0
  0
ARC
  5
110
330
10C
100
AcDbEntity
  8
0
100
AcDbCircle
 10
0.0
 20
2.0
 30
0.0
 40
2.0
100
AcDbArc
 50
0.0
 51
180.0
  0
LINE
  5
111
330
10C
100
AcDbEntity
  8
0
100
AcDbLine
 10
-2.0
 20
-1.0
 30
0.0
 11
2.0
 21
-1.0
 31
0.0
  0
ENDBLK
  5
10E
330
10C
100
AcDbEntity
  8
0
100
AcDbBlockEnd
  0
BLOCK
  5
113
330
112
100
AcDbEntity
  8
0
100
AcDbBlockBegin
  2
UU
 70
0
 10
0.0
 20
0.0
 30
0.0
  3
UU
  1

  0
CIRCLE
  5
115
330
112
100
AcDbEntity
  8
0
100
AcDbCircle
 10
0.0
 20
0.0
 30
0.0
 40
2.5
  0
TEXT
  5
116
330
112
100
AcDbEntity
  8
0
100
AcDbText
 10
0.0
 20
0.0
 30
0.0
 40
1.6
  1
УУ
  7
ПТ
 72
1
 11
0.0
 21
0.0
 31
0.0
100
AcDbText
 73
2
  0
ENDBLK
  5
114
330
112
100
AcDbEntity
  8
0
100
AcDbBlockEnd
  0
BLOCK
  5
118
330
117
100
AcDbEntity
  8
0
100
AcDbBlockBegin
  2
GM80
 70
0
 10
0.0
 20
0.0
 30
0.0
  3
GM80
  1

  0
LWPOLYLINE
  5
11A
330
117
100
AcDbEntity
  8
0
100
AcDbPolyline
 90
2
 70
0
 10
0.0
 20
-1.5
 10
0.0
 20
1.5
  0
ARC
  5
11B
330
117
100
AcDbEntity
  8
0
100
AcDbCircle
 10
0.0
 20
0.0
 30
0.0
 40
1.5
100
AcDbArc
 50
-90.0
 51
90.0
  0
ENDBLK
  5
119
330
117
100
AcDbEntity
  8
0
100
AcDbBlockEnd
  0
BLOCK
  5
11D
330
11C
100
AcDbEntity
  8
0
100
AcDbBlockBegin
  2
DRAIN
 70
0
 10
0.0
 20
0.0
 30
0.0
  3
DRAIN
  1

  0
CIRCLE
  5
11F
330
11C
100
AcDbEntity
  8
0
100
AcDbCircle
 10
0.0
 20
0.0
 30
0.0
 40
1.5
  0
LINE
  5
120
330
11C
100
AcDbEntity
  8
0
100
AcDbLine
 10
-1.06
 20
-1.06
 30
0.0
 11
1.06
 21
1.06
 31
0.0
  0
LINE
  5
121
330
11C
100
AcDbEntity
  8
0
100
AcDbLine
 10
-1.06
 20
1.06
 30
0.0
 11
1.06
 21
-1.06
 31
0.0
  0
ENDBLK
  5
11E
330
11C
100
AcDbEntity
  8
0
100
AcDbBlockEnd
  0
BLOCK
  5
123
330
122
100
AcDbEntity
  8
0
100
AcDbBlockBegin
  2
ELEV
 70
0
 10
0.0
 20
0.0
 30
0.0
  3
ELEV
  1

  0
LWPOLYLINE
  5
125
330
122
100
AcDbEntity
  8
0
100
AcDbPolyline
 90
3
 70
1
 10
0.0
 20
0.0
 10
-1.2
 20
1.6
 10
1.2
 20
1.6
  0
LINE
  5
126
330
122
100
AcDbEntity
  8
0
100
AcDbLine
 10
0.0
 20
1.6
 30
0.0
 11
9.0
 21
1.6
 31
0.0
  0
ENDBLK
  5
124
330
122
100
AcDbEntity
  8
0
100
AcDbBlockEnd
  0
BLOCK
  5
128
330
127
100
AcDbEntity
  8
0
100
AcDbBlockBegin
  2
ARROW
 70
0
 10
0.0
 20
0.0
 30
0.0
  3
ARROW
  1

  0
HATCH
  5
12A
330
127
100
AcDbEntity
  8
0
 62
7
100
AcDbHatch
 10
0.0
 20
0.0
 30
0.0
210
0.0
220
0.0
230
1.0
  2
SOLID
 70
1
 71
0
 91
1
 92
3
 72
0
 73
1
 93
3
 10
0.0
 20
0.0
 10
-2.5
 20
0.6
 10
-2.5
 20
-0.6
 97
0
 75
1
 76
1
 98
0
  0
ENDBLK
  5
129
330
127
100
AcDbEntity
  8
0
100
AcDbBlockEnd
  0
BLOCK
  5
12C
330
12B
100
AcDbEntity
  8
0
100
AcDbBlockBegin
  2
MODULE
 70
0
 10
0.0
 20
0.0
 30
0.0
  3
MODULE
  1

  0
CIRCLE
  5
12E
330
12B
100
AcDbEntity
  8
0
100
AcDbCircle
 10
0.0
 20
0.0
 30
0.0
 40
1.6
  0
HATCH
  5
12F
330
12B
100
AcDbEntity
  8
0
 62
7
100
AcDbHatch
 10
0.0
 20
0.0
 30
0.0
210
0.0
220
0.0
230
1.0
  2
SOLID
 70
1
 71
0
 91
1
 92
3
 72
1
 73
1
 93
2
 10
0.0
 20
1.6
 42
1.0
 10
0.0
 20
-1.6
 42
0.0
 97
0
 75
1
 76
1
 98
0
  0
ENDBLK
  5
12D
330
12B
100
AcDbEntity
  8
0
100
AcDbBlockEnd
  0
BLOCK
  5
131
330
130
100
AcDbEntity
  8
0
100
AcDbBlockBegin
  2
DETS
 70
0
 10
0.0
 20
0.0
 30
0.0
  3
DETS
  1

  0
CIRCLE
  5
133
330
130
100
AcDbEntity
  8
0
100
AcDbCircle
 10
0.0
 20
0.0
 30
0.0
 40
1.3
  0
LINE
  5
134
330
130
100
AcDbEntity
  8
0
100
AcDbLine
 10
-0.9
 20
-0.9
 30
0.0
 11
0.9
 21
0.9
 31
0.0
  0
ENDBLK
  5
132
330
130
100
AcDbEntity
  8
0
100
AcDbBlockEnd
  0
BLOCK
  5
136
330
135
100
AcDbEntity
  8
0
100
AcDbBlockBegin
  2
BTN
 70
0
 10
0.0
 20
0.0
 30
0.0
  3
BTN
  1

  0
LWPOLYLINE
  5
138
330
135
100
AcDbEntity
  8
0
100
AcDbPolyline
 90
4
 70
1
 10
-1.3
 20
-1.3
 10
1.3
 20
-1.3
 10
1.3
 20
1.3
 10
-1.3
 20
1.3
  0
CIRCLE
  5
139
330
135
100
AcDbEntity
  8
0
100
AcDbCircle
 10
0.0
 20
0.0
 30
0.0
 40
0.7
  0
ENDBLK
  5
137
330
135
100
AcDbEntity
  8
0
100
AcDbBlockEnd
  0
BLOCK
  5
13B
330
13A
100
AcDbEntity
  8
0
100
AcDbBlockBegin
  2
SIGN
 70
0
 10
0.0
 20
0.0
 30
0.0
  3
SIGN
  1

  0
LWPOLYLINE
  5
13D
330
13A
100
AcDbEntity
  8
0
100
AcDbPolyline
 90
4
 70
1
 10
-2.2
 20
-1.0
 10
2.2
 20
-1.0
 10
2.2
 20
1.0
 10
-2.2
 20
1.0
  0
LINE
  5
13E
330
13A
100
AcDbEntity
  8
0
100
AcDbLine
 10
-2.2
 20
-1.0
 30
0.0
 11
2.2
 21
1.0
 31
0.0
  0
LINE
  5
13F
330
13A
100
AcDbEntity
  8
0
100
AcDbLine
 10
-2.2
 20
1.0
 30
0.0
 11
2.2
 21
-1.0
 31
0.0
  0
ENDBLK
  5
13C
330
13A
100
AcDbEntity
  8
0
100
AcDbBlockEnd
  0
BLOCK
  5
141
330
140
100
AcDbEntity
  8
0
100
AcDbBlockBegin
  2
SIREN
 70
0
 10
0.0
 20
0.0
 30
0.0
  3
SIREN
  1

  0
LWPOLYLINE
  5
143
330
140
100
AcDbEntity
  8
0
100
AcDbPolyline
 90
6
 70
1
 10
-1.2
 20
-1.0
 10
0.0
 20
-1.0
 10
1.4
 20
-2.0
 10
1.4
 20
2.0
 10
0.0
 20
1.0
 10
-1.2
 20
1.0
  0
ENDBLK
  5
142
330
140
100
AcDbEntity
  8
0
100
AcDbBlockEnd
  0
BLOCK
  5
145
330
144
100
AcDbEntity
  8
0
100
AcDbBlockBegin
  2
DOORC
 70
0
 10
0.0
 20
0.0
 30
0.0
  3
DOORC
  1

  0
LWPOLYLINE
  5
147
330
144
100
AcDbEntity
  8
0
100
AcDbPolyline
 90
4
 70
1
 10
-1.2
 20
-0.8
 10
1.2
 20
-0.8
 10
1.2
 20
0.8
 10
-1.2
 20
0.8
  0
LINE
  5
148
330
144
100
AcDbEntity
  8
0
100
AcDbLine
 10
-1.2
 20
-0.8
 30
0.0
 11
1.2
 21
0.8
 31
0.0
  0
ENDBLK
  5
146
330
144
100
AcDbEntity
  8
0
100
AcDbBlockEnd
  0
ENDSEC
  0
SECTION
  2
ENTITIES
  0
LWPOLYLINE
  5
14A
330
17
100
AcDbEntity
  8
ПТ_рамка_тонк
370
13
100
AcDbPolyline
 90
4
 70
1
 10
0.0
 20
0.0
 10
420.0
 20
0.0
 10
420.0
 20
297.0
 10
0.0
 20
297.0
  0
LWPOLYLINE
  5
14B
330
17
100
AcDbEntity
  8
ПТ_рамка
370
70
100
AcDbPolyline
 90
4
 70
1
 10
20.0
 20
5.0
 10
415.0
 20
5.0
 10
415.0
 20
292.0
 10
20.0
 20
292.0
  0
LWPOLYLINE
  5
14C
330
17
100
AcDbEntity
  8
ПТ_рамка
370
70
100
AcDbPolyline
 90
4
 70
1
 10
230.0
 20
5.0
 10
415.0
 20
5.0
 10
415.0
 20
60.0
 10
230.0
 20
60.0
  0
LINE
  5
14D
330
17
100
AcDbEntity
  8
ПТ_рамка
370
18
100
AcDbLine
 10
230.0
 20
10.0
 30
0.0
 11
295.0
 21
10.0
 31
0.0
  0
LINE
  5
14E
330
17
100
AcDbEntity
  8
ПТ_рамка
370
18
100
AcDbLine
 10
230.0
 20
15.0
 30
0.0
 11
295.0
 21
15.0
 31
0.0
  0
LINE
  5
14F
330
17
100
AcDbEntity
  8
ПТ_рамка
370
18
100
AcDbLine
 10
230.0
 20
20.0
 30
0.0
 11
295.0
 21
20.0
 31
0.0
  0
LINE
  5
150
330
17
100
AcDbEntity
  8
ПТ_рамка
370
18
100
AcDbLine
 10
230.0
 20
25.0
 30
0.0
 11
295.0
 21
25.0
 31
0.0
  0
LINE
  5
151
330
17
100
AcDbEntity
  8
ПТ_рамка
370
50
100
AcDbLine
 10
230.0
 20
30.0
 30
0.0
 11
295.0
 21
30.0
 31
0.0
  0
LINE
  5
152
330
17
100
AcDbEntity
  8
ПТ_рамка
370
50
100
AcDbLine
 10
230.0
 20
35.0
 30
0.0
 11
295.0
 21
35.0
 31
0.0
  0
LINE
  5
153
330
17
100
AcDbEntity
  8
ПТ_рамка
370
18
100
AcDbLine
 10
230.0
 20
40.0
 30
0.0
 11
295.0
 21
40.0
 31
0.0
  0
LINE
  5
154
330
17
100
AcDbEntity
  8
ПТ_рамка
370
18
100
AcDbLine
 10
230.0
 20
45.0
 30
0.0
 11
295.0
 21
45.0
 31
0.0
  0
LINE
  5
155
330
17
100
AcDbEntity
  8
ПТ_рамка
370
18
100
AcDbLine
 10
230.0
 20
50.0
 30
0.0
 11
295.0
 21
50.0
 31
0.0
  0
LINE
  5
156
330
17
100
AcDbEntity
  8
ПТ_рамка
370
18
100
AcDbLine
 10
230.0
 20
55.0
 30
0.0
 11
295.0
 21
55.0
 31
0.0
  0
LINE
  5
157
330
17
100
AcDbEntity
  8
ПТ_рамка
370
50
100
AcDbLine
 10
240.0
 20
30.0
 30
0.0
 11
240.0
 21
60.0
 31
0.0
  0
LINE
  5
158
330
17
100
AcDbEntity
  8
ПТ_рамка
370
50
100
AcDbLine
 10
250.0
 20
30.0
 30
0.0
 11
250.0
 21
60.0
 31
0.0
  0
LINE
  5
159
330
17
100
AcDbEntity
  8
ПТ_рамка
370
50
100
AcDbLine
 10
260.0
 20
30.0
 30
0.0
 11
260.0
 21
60.0
 31
0.0
  0
LINE
  5
15A
330
17
100
AcDbEntity
  8
ПТ_рамка
370
50
100
AcDbLine
 10
270.0
 20
30.0
 30
0.0
 11
270.0
 21
60.0
 31
0.0
  0
LINE
  5
15B
330
17
100
AcDbEntity
  8
ПТ_рамка
370
50
100
AcDbLine
 10
285.0
 20
30.0
 30
0.0
 11
285.0
 21
60.0
 31
0.0
  0
LINE
  5
15C
330
17
100
AcDbEntity
  8
ПТ_рамка
370
50
100
AcDbLine
 10
250.0
 20
5.0
 30
0.0
 11
250.0
 21
30.0
 31
0.0
  0
LINE
  5
15D
330
17
100
AcDbEntity
  8
ПТ_рамка
370
50
100
AcDbLine
 10
270.0
 20
5.0
 30
0.0
 11
270.0
 21
30.0
 31
0.0
  0
LINE
  5
15E
330
17
100
AcDbEntity
  8
ПТ_рамка
370
50
100
AcDbLine
 10
285.0
 20
5.0
 30
0.0
 11
285.0
 21
30.0
 31
0.0
  0
LINE
  5
15F
330
17
100
AcDbEntity
  8
ПТ_рамка
370
70
100
AcDbLine
 10
295.0
 20
5.0
 30
0.0
 11
295.0
 21
60.0
 31
0.0
  0
TEXT
  5
160
330
17
100
AcDbEntity
  8
ПТ_текст
100
AcDbText
 10
235.0
 20
32.5
 30
0.0
 40
1.8
  1
Изм.
  7
ПТ
 72
1
 11
235.0
 21
32.5
 31
0.0
100
AcDbText
 73
2
  0
TEXT
  5
161
330
17
100
AcDbEntity
  8
ПТ_текст
100
AcDbText
 10
245.0
 20
32.5
 30
0.0
 40
1.8
  1
Кол.уч
  7
ПТ
 72
1
 11
245.0
 21
32.5
 31
0.0
100
AcDbText
 73
2
  0
TEXT
  5
162
330
17
100
AcDbEntity
  8
ПТ_текст
100
AcDbText
 10
255.0
 20
32.5
 30
0.0
 40
1.8
  1
Лист
  7
ПТ
 72
1
 11
255.0
 21
32.5
 31
0.0
100
AcDbText
 73
2
  0
TEXT
  5
163
330
17
100
AcDbEntity
  8
ПТ_текст
100
AcDbText
 10
265.0
 20
32.5
 30
0.0
 40
1.8
  1
№ док.
  7
ПТ
 72
1
 11
265.0
 21
32.5
 31
0.0
100
AcDbText
 73
2
  0
TEXT
  5
164
330
17
100
AcDbEntity
  8
ПТ_текст
100
AcDbText
 10
277.5
 20
32.5
 30
0.0
 40
1.8
  1
Подп.
  7
ПТ
 72
1
 11
277.5
 21
32.5
 31
0.0
100
AcDbText
 73
2
  0
TEXT
  5
165
330
17
100
AcDbEntity
  8
ПТ_текст
100
AcDbText
 10
290.0
 20
32.5
 30
0.0
 40
1.8
  1
Дата
  7
ПТ
 72
1
 11
290.0
 21
32.5
 31
0.0
100
AcDbText
 73
2
  0
TEXT
  5
166
330
17
100
AcDbEntity
  8
ПТ_текст
100
AcDbText
 10
231.0
 20
27.5
 30
0.0
 40
1.8
  1
Разраб.
  7
ПТ
 11
231.0
 21
27.5
 31
0.0
100
AcDbText
 73
2
  0
TEXT
  5
167
330
17
100
AcDbEntity
  8
ПТ_текст
100
AcDbText
 10
231.0
 20
22.5
 30
0.0
 40
1.8
  1
Пров.
  7
ПТ
 11
231.0
 21
22.5
 31
0.0
100
AcDbText
 73
2
  0
TEXT
  5
168
330
17
100
AcDbEntity
  8
ПТ_текст
100
AcDbText
 10
231.0
 20
17.5
 30
0.0
 40
1.8
  1

  7
ПТ
 11
231.0
 21
17.5
 31
0.0
100
AcDbText
 73
2
  0
TEXT
  5
169
330
17
100
AcDbEntity
  8
ПТ_текст
100
AcDbText
 10
231.0
 20
12.5
 30
0.0
 40
1.8
  1
Н.контр.
  7
ПТ
 11
231.0
 21
12.5
 31
0.0
100
AcDbText
 73
2
  0
TEXT
  5
16A
330
17
100
AcDbEntity
  8
ПТ_текст
100
AcDbText
 10
231.0
 20
7.5
 30
0.0
 40
1.8
  1
ГИП
  7
ПТ
 11
231.0
 21
7.5
 31
0.0
100
AcDbText
 73
2
  0
LINE
  5
16B
330
17
100
AcDbEntity
  8
ПТ_рамка
370
70
100
AcDbLine
 10
295.0
 20
45.0
 30
0.0
 11
415.0
 21
45.0
 31
0.0
  0
LINE
  5
16C
330
17
100
AcDbEntity
  8
ПТ_рамка
370
50
100
AcDbLine
 10
295.0
 20
35.0
 30
0.0
 11
415.0
 21
35.0
 31
0.0
  0
LINE
  5
16D
330
17
100
AcDbEntity
  8
ПТ_рамка
370
70
100
AcDbLine
 10
295.0
 20
20.0
 30
0.0
 11
415.0
 21
20.0
 31
0.0
  0
LINE
  5
16E
330
17
100
AcDbEntity
  8
ПТ_рамка
370
70
100
AcDbLine
 10
365.0
 20
5.0
 30
0.0
 11
365.0
 21
35.0
 31
0.0
  0
LINE
  5
16F
330
17
100
AcDbEntity
  8
ПТ_рамка
370
50
100
AcDbLine
 10
365.0
 20
30.0
 30
0.0
 11
415.0
 21
30.0
 31
0.0
  0
LINE
  5
170
330
17
100
AcDbEntity
  8
ПТ_рамка
370
50
100
AcDbLine
 10
380.0
 20
20.0
 30
0.0
 11
380.0
 21
35.0
 31
0.0
  0
LINE
  5
171
330
17
100
AcDbEntity
  8
ПТ_рамка
370
50
100
AcDbLine
 10
395.0
 20
20.0
 30
0.0
 11
395.0
 21
35.0
 31
0.0
  0
TEXT
  5
172
330
17
100
AcDbEntity
  8
ПТ_текст
100
AcDbText
 10
355.0
 20
52.5
 30
0.0
 40
5.0
  1
ОПР-01/24/2024-ДП1-ПТ.ЗД1
  7
ПТ_загл
 72
1
 11
355.0
 21
52.5
 31
0.0
100
AcDbText
 73
2
  0
MTEXT
  5
173
330
17
100
AcDbEntity
  8
ПТ_текст
100
AcDbMText
 10
355.0
 20
40.0
 30
0.0
 40
1.9
 41
116.0
 71
5
  1
«Современный коммерческий оптово-продовольственный рынок (ОПР) по адресу: Донецкая область, г. Макеевка, Горняцкий район»
  7
ПТ
  0
MTEXT
  5
174
330
17
100
AcDbEntity
  8
ПТ_текст
100
AcDbMText
 10
330.0
 20
27.5
 30
0.0
 40
2.5
 41
66.0
 71
5
  1
Док-павильон №23, №23.2 Рыба-Мясо. Пожаротушение (ВПВ, АУПТ, АУПП ВРУ)
  7
ПТ
  0
TEXT
  5
175
330
17
100
AcDbEntity
  8
ПТ_текст
100
AcDbText
 10
372.5
 20
32.5
 30
0.0
 40
1.8
  1
Стадия
  7
ПТ
 72
1
 11
372.5
 21
32.5
 31
0.0
100
AcDbText
 73
2
  0
TEXT
  5
176
330
17
100
AcDbEntity
  8
ПТ_текст
100
AcDbText
 10
387.5
 20
32.5
 30
0.0
 40
1.8
  1
Лист
  7
ПТ
 72
1
 11
387.5
 21
32.5
 31
0.0
100
AcDbText
 73
2
  0
TEXT
  5
177
330
17
100
AcDbEntity
  8
ПТ_текст
100
AcDbText
 10
405.0
 20
32.5
 30
0.0
 40
1.8
  1
Листов
  7
ПТ
 72
1
 11
405.0
 21
32.5
 31
0.0
100
AcDbText
 73
2
  0
TEXT
  5
178
330
17
100
AcDbEntity
  8
ПТ_текст
100
AcDbText
 10
372.5
 20
25.0
 30
0.0
 40
3.5
  1
Р
  7
ПТ
 72
1
 11
372.5
 21
25.0
 31
0.0
100
AcDbText
 73
2
  0
TEXT
  5
179
330
17
100
AcDbEntity
  8
ПТ_текст
100
AcDbText
 10
387.5
 20
25.0
 30
0.0
 40
3.5
  1
1
  7
ПТ
 72
1
 11
387.5
 21
25.0
 31
0.0
100
AcDbText
 73
2
  0
TEXT
  5
17A
330
17
100
AcDbEntity
  8
ПТ_текст
100
AcDbText
 10
405.0
 20
25.0
 30
0.0
 40
3.5
  1
1
  7
ПТ
 72
1
 11
405.0
 21
25.0
 31
0.0
100
AcDbText
 73
2
  0
MTEXT
  5
17B
330
17
100
AcDbEntity
  8
ПТ_текст
100
AcDbMText
 10
330.0
 20
12.5
 30
0.0
 40
2.5
 41
66.0
 71
5
  1
Задание разделу КР. Приямок, основания под насосы, гильзы и отверстия
  7
ПТ
  0
TEXT
  5
17C
330
17
100
AcDbEntity
  8
ПТ_текст
100
AcDbText
 10
390.0
 20
12.5
 30
0.0
 40
3.5
  1
ООО «Технология»
  7
ПТ
 72
1
 11
390.0
 21
12.5
 31
0.0
100
AcDbText
 73
2
  0
LWPOLYLINE
  5
17D
330
17
100
AcDbEntity
  8
ПТ_рамка
370
50
100
AcDbPolyline
 90
4
 70
1
 10
8.0
 20
5.0
 10
20.0
 20
5.0
 10
20.0
 20
30.0
 10
8.0
 20
30.0
  0
LINE
  5
17E
330
17
100
AcDbEntity
  8
ПТ_рамка
370
50
100
AcDbLine
 10
13.0
 20
5.0
 30
0.0
 11
13.0
 21
30.0
 31
0.0
  0
TEXT
  5
17F
330
17
100
AcDbEntity
  8
ПТ_текст
100
AcDbText
 10
10.5
 20
17.5
 30
0.0
 40
1.8
  1
Инв. № подл.
 50
90.0
  7
ПТ
 72
1
 11
10.5
 21
17.5
 31
0.0
100
AcDbText
 73
2
  0
LWPOLYLINE
  5
180
330
17
100
AcDbEntity
  8
ПТ_рамка
370
50
100
AcDbPolyline
 90
4
 70
1
 10
8.0
 20
30.0
 10
20.0
 20
30.0
 10
20.0
 20
65.0
 10
8.0
 20
65.0
  0
LINE
  5
181
330
17
100
AcDbEntity
  8
ПТ_рамка
370
50
100
AcDbLine
 10
13.0
 20
30.0
 30
0.0
 11
13.0
 21
65.0
 31
0.0
  0
TEXT
  5
182
330
17
100
AcDbEntity
  8
ПТ_текст
100
AcDbText
 10
10.5
 20
47.5
 30
0.0
 40
1.8
  1
Подп. и дата
 50
90.0
  7
ПТ
 72
1
 11
10.5
 21
47.5
 31
0.0
100
AcDbText
 73
2
  0
LWPOLYLINE
  5
183
330
17
100
AcDbEntity
  8
ПТ_рамка
370
50
100
AcDbPolyline
 90
4
 70
1
 10
8.0
 20
65.0
 10
20.0
 20
65.0
 10
20.0
 20
90.0
 10
8.0
 20
90.0
  0
LINE
  5
184
330
17
100
AcDbEntity
  8
ПТ_рамка
370
50
100
AcDbLine
 10
13.0
 20
65.0
 30
0.0
 11
13.0
 21
90.0
 31
0.0
  0
TEXT
  5
185
330
17
100
AcDbEntity
  8
ПТ_текст
100
AcDbText
 10
10.5
 20
77.5
 30
0.0
 40
1.8
  1
Взам. инв. №
 50
90.0
  7
ПТ
 72
1
 11
10.5
 21
77.5
 31
0.0
100
AcDbText
 73
2
  0
TEXT
  5
186
330
17
100
AcDbEntity
  8
ПТ_текст
100
AcDbText
 10
375.0
 20
1.2
 30
0.0
 40
2.5
  1
Формат A3
  7
ПТ
 11
375.0
 21
1.2
 31
0.0
100
AcDbText
 73
1
  0
TEXT
  5
187
330
17
100
AcDbEntity
  8
ПТ_текст
100
AcDbText
 10
131.0
 20
284.0
 30
0.0
 40
3.5
  1
План насосной станции на отм. -2,200 (фрагмент)  М 1:50
  7
ПТ_загл
 72
1
 11
131.0
 21
284.0
 31
0.0
100
AcDbText
 73
1
  0
LINE
  5
188
330
17
100
AcDbEntity
  8
ПТ_контур
370
35
100
AcDbLine
 10
78.0625
 20
282.8
 30
0.0
 11
183.9375
 21
282.8
 31
0.0
  0
LWPOLYLINE
  5
189
330
17
100
AcDbEntity
  8
ПТ_контур
370
35
100
AcDbPolyline
 90
4
 70
1
 10
48.0
 20
144.0
 10
54.0
 20
144.0
 10
54.0
 20
276.0
 10
48.0
 20
276.0
  0
HATCH
  5
18A
330
17
100
AcDbEntity
  8
ПТ_штриховка
 62
8
100
AcDbHatch
 10
0.0
 20
0.0
 30
0.0
210
0.0
220
0.0
230
1.0
  2
ANSI31
 70
0
 71
0
 91
1
 92
3
 72
0
 73
1
 93
4
 10
48.0
 20
144.0
 10
54.0
 20
144.0
 10
54.0
 20
276.0
 10
48.0
 20
276.0
 97
0
 75
1
 76
1
 52
0.0
 41
0.3
 77
0
 78
1
 53
45.0
 43
0.0
 44
0.0
 45
-0.6735192091
 46
0.6735192091
 79
0
 98
0
  0
LWPOLYLINE
  5
18B
330
17
100
AcDbEntity
  8
ПТ_контур
370
35
100
AcDbPolyline
 90
4
 70
1
 10
54.0
 20
144.0
 10
228.4
 20
144.0
 10
228.4
 20
156.0
 10
54.0
 20
156.0
  0
HATCH
  5
18C
330
17
100
AcDbEntity
  8
ПТ_штриховка
 62
8
100
AcDbHatch
 10
0.0
 20
0.0
 30
0.0
210
0.0
220
0.0
230
1.0
  2
ANSI31
 70
0
 71
0
 91
1
 92
3
 72
0
 73
1
 93
4
 10
54.0
 20
144.0
 10
228.4
 20
144.0
 10
228.4
 20
156.0
 10
54.0
 20
156.0
 97
0
 75
1
 76
1
 52
0.0
 41
0.3
 77
0
 78
1
 53
45.0
 43
0.0
 44
0.0
 45
-0.6735192091
 46
0.6735192091
 79
0
 98
0
  0
LWPOLYLINE
  5
18D
330
17
100
AcDbEntity
  8
ПТ_контур
370
35
100
AcDbPolyline
 90
4
 70
1
 10
54.0
 20
264.0
 10
228.4
 20
264.0
 10
228.4
 20
276.0
 10
54.0
 20
276.0
  0
HATCH
  5
18E
330
17
100
AcDbEntity
  8
ПТ_штриховка
 62
8
100
AcDbHatch
 10
0.0
 20
0.0
 30
0.0
210
0.0
220
0.0
230
1.0
  2
ANSI31
 70
0
 71
0
 91
1
 92
3
 72
0
 73
1
 93
4
 10
54.0
 20
264.0
 10
228.4
 20
264.0
 10
228.4
 20
276.0
 10
54.0
 20
276.0
 97
0
 75
1
 76
1
 52
0.0
 41
0.3
 77
0
 78
1
 53
45.0
 43
0.0
 44
0.0
 45
-0.6735192091
 46
0.6735192091
 79
0
 98
0
  0
LWPOLYLINE
  5
18F
330
17
100
AcDbEntity
  8
ПТ_контур
370
35
100
AcDbPolyline
 90
4
 70
1
 10
214.0
 20
156.0
 10
216.4
 20
156.0
 10
216.4
 20
236.0
 10
214.0
 20
236.0
  0
HATCH
  5
190
330
17
100
AcDbEntity
  8
ПТ_штриховка
 62
8
100
AcDbHatch
 10
0.0
 20
0.0
 30
0.0
210
0.0
220
0.0
230
1.0
  2
ANSI37
 70
0
 71
0
 91
1
 92
3
 72
0
 73
1
 93
4
 10
214.0
 20
156.0
 10
216.4
 20
156.0
 10
216.4
 20
236.0
 10
214.0
 20
236.0
 97
0
 75
1
 76
1
 52
0.0
 41
0.25
 77
0
 78
2
 53
45.0
 43
0.0
 44
0.0
 45
-0.5612660076
 46
0.5612660076
 79
0
 53
135.0
 43
0.0
 44
0.0
 45
-0.5612660076
 46
-0.5612660076
 79
0
 98
0
  0
LWPOLYLINE
  5
191
330
17
100
AcDbEntity
  8
ПТ_контур
370
35
100
AcDbPolyline
 90
4
 70
1
 10
214.0
 20
256.0
 10
216.4
 20
256.0
 10
216.4
 20
264.0
 10
214.0
 20
264.0
  0
HATCH
  5
192
330
17
100
AcDbEntity
  8
ПТ_штриховка
 62
8
100
AcDbHatch
 10
0.0
 20
0.0
 30
0.0
210
0.0
220
0.0
230
1.0
  2
ANSI37
 70
0
 71
0
 91
1
 92
3
 72
0
 73
1
 93
4
 10
214.0
 20
256.0
 10
216.4
 20
256.0
 10
216.4
 20
264.0
 10
214.0
 20
264.0
 97
0
 75
1
 76
1
 52
0.0
 41
0.25
 77
0
 78
2
 53
45.0
 43
0.0
 44
0.0
 45
-0.5612660076
 46
0.5612660076
 79
0
 53
135.0
 43
0.0
 44
0.0
 45
-0.5612660076
 46
-0.5612660076
 79
0
 98
0
  0
LINE
  5
193
330
17
100
AcDbEntity
  8
ПТ_контур
370
25
100
AcDbLine
 10
216.4
 20
236.0
 30
0.0
 11
236.4
 21
236.0
 31
0.0
  0
ARC
  5
194
330
17
100
AcDbEntity
  8
ПТ_контур
100
AcDbCircle
 10
216.4
 20
236.0
 30
0.0
 40
20.0
100
AcDbArc
 50
0.0
 51
90.0
  0
TEXT
  5
195
330
17
100
AcDbEntity
  8
ПТ_текст
100
AcDbText
 10
218.8
 20
279.0
 30
0.0
 40
1.8
  1
коридор 1
  7
ПТ
 11
218.8
 21
279.0
 31
0.0
100
AcDbText
 73
1
  0
LINE
  5
196
330
17
100
AcDbEntity
  8
ПТ_оси
  6
ПТ_ШТРИХПУНКТ
370
13
100
AcDbLine
 10
48.0
 20
130.0
 30
0.0
 11
48.0
 21
284.0
 31
0.0
  0
CIRCLE
  5
197
330
17
100
AcDbEntity
  8
ПТ_контур
370
25
100
AcDbCircle
 10
48.0
 20
126.5
 30
0.0
 40
3.5
  0
TEXT
  5
198
330
17
100
AcDbEntity
  8
ПТ_текст
100
AcDbText
 10
48.0
 20
126.5
 30
0.0
 40
2.5
  1
1
  7
ПТ
 72
1
 11
48.0
 21
126.5
 31
0.0
100
AcDbText
 73
2
  0
LINE
  5
199
330
17
100
AcDbEntity
  8
ПТ_оси
  6
ПТ_ШТРИХПУНКТ
370
13
100
AcDbLine
 10
128.0
 20
130.0
 30
0.0
 11
128.0
 21
284.0
 31
0.0
  0
CIRCLE
  5
19A
330
17
100
AcDbEntity
  8
ПТ_контур
370
25
100
AcDbCircle
 10
128.0
 20
126.5
 30
0.0
 40
3.5
  0
TEXT
  5
19B
330
17
100
AcDbEntity
  8
ПТ_текст
100
AcDbText
 10
128.0
 20
126.5
 30
0.0
 40
2.5
  1
2
  7
ПТ
 72
1
 11
128.0
 21
126.5
 31
0.0
100
AcDbText
 73
2
  0
LINE
  5
19C
330
17
100
AcDbEntity
  8
ПТ_оси
  6
ПТ_ШТРИХПУНКТ
370
13
100
AcDbLine
 10
30.0
 20
150.0
 30
0.0
 11
240.4
 21
150.0
 31
0.0
  0
CIRCLE
  5
19D
330
17
100
AcDbEntity
  8
ПТ_контур
370
25
100
AcDbCircle
 10
26.5
 20
150.0
 30
0.0
 40
3.5
  0
TEXT
  5
19E
330
17
100
AcDbEntity
  8
ПТ_текст
100
AcDbText
 10
26.5
 20
150.0
 30
0.0
 40
2.5
  1
Д
  7
ПТ
 72
1
 11
26.5
 21
150.0
 31
0.0
100
AcDbText
 73
2
  0
LINE
  5
19F
330
17
100
AcDbEntity
  8
ПТ_оси
  6
ПТ_ШТРИХПУНКТ
370
13
100
AcDbLine
 10
30.0
 20
270.0
 30
0.0
 11
240.4
 21
270.0
 31
0.0
  0
CIRCLE
  5
1A0
330
17
100
AcDbEntity
  8
ПТ_контур
370
25
100
AcDbCircle
 10
26.5
 20
270.0
 30
0.0
 40
3.5
  0
TEXT
  5
1A1
330
17
100
AcDbEntity
  8
ПТ_текст
100
AcDbText
 10
26.5
 20
270.0
 30
0.0
 40
2.5
  1
Е
  7
ПТ
 72
1
 11
26.5
 21
270.0
 31
0.0
100
AcDbText
 73
2
  0
LWPOLYLINE
  5
1A2
330
17
100
AcDbEntity
  8
ПТ_контур
370
50
100
AcDbPolyline
 90
4
 70
1
 10
190.0
 20
160.0
 10
210.0
 20
160.0
 10
210.0
 20
180.0
 10
190.0
 20
180.0
  0
LWPOLYLINE
  5
1A3
330
17
100
AcDbEntity
  8
ПТ_контур
  6
ПТ_ШТРИХ
370
18
100
AcDbPolyline
 90
4
 70
1
 10
187.0
 20
157.0
 10
213.0
 20
157.0
 10
213.0
 20
183.0
 10
187.0
 20
183.0
  0
HATCH
  5
1A4
330
17
100
AcDbEntity
  8
ПТ_штриховка
 62
7
100
AcDbHatch
 10
0.0
 20
0.0
 30
0.0
210
0.0
220
0.0
230
1.0
  2
ANSI37
 70
0
 71
0
 91
1
 92
3
 72
0
 73
1
 93
4
 10
190.0
 20
160.0
 10
210.0
 20
160.0
 10
210.0
 20
180.0
 10
190.0
 20
180.0
 97
0
 75
1
 76
1
 52
0.0
 41
0.35
 77
0
 78
2
 53
45.0
 43
0.0
 44
0.0
 45
-0.7857724106
 46
0.7857724106
 79
0
 53
135.0
 43
0.0
 44
0.0
 45
-0.7857724106
 46
-0.7857724106
 79
0
 98
0
  0
TEXT
  5
1A5
330
17
100
AcDbEntity
  8
ПТ_текст
100
AcDbText
 10
200.0
 20
185.0
 30
0.0
 40
2.5
  1
П
  7
ПТ_загл
 72
1
 11
200.0
 21
185.0
 31
0.0
100
AcDbText
 73
1
  0
LWPOLYLINE
  5
1A6
330
17
100
AcDbEntity
  8
ПТ_контур
370
50
100
AcDbPolyline
 90
4
 70
1
 10
92.0
 20
229.4
 10
108.0
 20
229.4
 10
108.0
 20
242.6
 10
92.0
 20
242.6
  0
HATCH
  5
1A7
330
17
100
AcDbEntity
  8
ПТ_штриховка
 62
7
100
AcDbHatch
 10
0.0
 20
0.0
 30
0.0
210
0.0
220
0.0
230
1.0
  2
ANSI31
 70
0
 71
0
 91
1
 92
3
 72
0
 73
1
 93
4
 10
92.0
 20
229.4
 10
108.0
 20
229.4
 10
108.0
 20
242.6
 10
92.0
 20
242.6
 97
0
 75
1
 76
1
 52
0.0
 41
0.35
 77
0
 78
1
 53
45.0
 43
0.0
 44
0.0
 45
-0.7857724106
 46
0.7857724106
 79
0
 98
0
  0
TEXT
  5
1A8
330
17
100
AcDbEntity
  8
ПТ_текст
100
AcDbText
 10
122.0
 20
236.0
 30
0.0
 40
2.5
  1
Ф1 (под Н1)
  7
ПТ
 11
122.0
 21
236.0
 31
0.0
100
AcDbText
 73
2
  0
LWPOLYLINE
  5
1A9
330
17
100
AcDbEntity
  8
ПТ_контур
370
50
100
AcDbPolyline
 90
4
 70
1
 10
92.0
 20
203.4
 10
108.0
 20
203.4
 10
108.0
 20
216.6
 10
92.0
 20
216.6
  0
HATCH
  5
1AA
330
17
100
AcDbEntity
  8
ПТ_штриховка
 62
7
100
AcDbHatch
 10
0.0
 20
0.0
 30
0.0
210
0.0
220
0.0
230
1.0
  2
ANSI31
 70
0
 71
0
 91
1
 92
3
 72
0
 73
1
 93
4
 10
92.0
 20
203.4
 10
108.0
 20
203.4
 10
108.0
 20
216.6
 10
92.0
 20
216.6
 97
0
 75
1
 76
1
 52
0.0
 41
0.35
 77
0
 78
1
 53
45.0
 43
0.0
 44
0.0
 45
-0.7857724106
 46
0.7857724106
 79
0
 98
0
  0
TEXT
  5
1AB
330
17
100
AcDbEntity
  8
ПТ_текст
100
AcDbText
 10
122.0
 20
210.0
 30
0.0
 40
2.5
  1
Ф2 (под Н2)
  7
ПТ
 11
122.0
 21
210.0
 31
0.0
100
AcDbText
 73
2
  0
LWPOLYLINE
  5
1AC
330
17
100
AcDbEntity
  8
ПТ_контур
370
50
100
AcDbPolyline
 90
4
 70
1
 10
48.0
 20
251.8
 10
54.0
 20
251.8
 10
54.0
 20
256.2
 10
48.0
 20
256.2
  0
LINE
  5
1AD
330
17
100
AcDbEntity
  8
ПТ_выноски
100
AcDbLine
 10
48.0
 20
254.0
 30
0.0
 11
39.0
 21
254.0
 31
0.0
  0
TEXT
  5
1AE
330
17
100
AcDbEntity
  8
ПТ_текст
100
AcDbText
 10
38.0
 20
254.0
 30
0.0
 40
2.5
  1
Г1
  7
ПТ
 72
2
 11
38.0
 21
254.0
 31
0.0
100
AcDbText
 73
2
  0
LWPOLYLINE
  5
1AF
330
17
100
AcDbEntity
  8
ПТ_контур
370
50
100
AcDbPolyline
 90
4
 70
1
 10
48.0
 20
235.8
 10
54.0
 20
235.8
 10
54.0
 20
240.2
 10
48.0
 20
240.2
  0
LINE
  5
1B0
330
17
100
AcDbEntity
  8
ПТ_выноски
100
AcDbLine
 10
48.0
 20
238.0
 30
0.0
 11
39.0
 21
238.0
 31
0.0
  0
TEXT
  5
1B1
330
17
100
AcDbEntity
  8
ПТ_текст
100
AcDbText
 10
38.0
 20
238.0
 30
0.0
 40
2.5
  1
Г2
  7
ПТ
 72
2
 11
38.0
 21
238.0
 31
0.0
100
AcDbText
 73
2
  0
CIRCLE
  5
1B2
330
17
100
AcDbEntity
  8
ПТ_контур
370
35
100
AcDbCircle
 10
88.0
 20
170.0
 30
0.0
 40
2.19
  0
LINE
  5
1B3
330
17
100
AcDbEntity
  8
ПТ_контур
370
18
100
AcDbLine
 10
85.81
 20
167.81
 30
0.0
 11
90.19
 21
172.19
 31
0.0
  0
LINE
  5
1B4
330
17
100
AcDbEntity
  8
ПТ_контур
370
18
100
AcDbLine
 10
85.81
 20
172.19
 30
0.0
 11
90.19
 21
167.81
 31
0.0
  0
LINE
  5
1B5
330
17
100
AcDbEntity
  8
ПТ_выноски
100
AcDbLine
 10
88.0
 20
170.0
 30
0.0
 11
85.0
 21
174.5
 31
0.0
  0
TEXT
  5
1B6
330
17
100
AcDbEntity
  8
ПТ_текст
100
AcDbText
 10
84.5
 20
174.5
 30
0.0
 40
2.5
  1
О1
  7
ПТ
 72
2
 11
84.5
 21
174.5
 31
0.0
100
AcDbText
 73
2
  0
CIRCLE
  5
1B7
330
17
100
AcDbEntity
  8
ПТ_контур
370
35
100
AcDbCircle
 10
112.0
 20
170.0
 30
0.0
 40
2.19
  0
LINE
  5
1B8
330
17
100
AcDbEntity
  8
ПТ_контур
370
18
100
AcDbLine
 10
109.81
 20
167.81
 30
0.0
 11
114.19
 21
172.19
 31
0.0
  0
LINE
  5
1B9
330
17
100
AcDbEntity
  8
ПТ_контур
370
18
100
AcDbLine
 10
109.81
 20
172.19
 30
0.0
 11
114.19
 21
167.81
 31
0.0
  0
LINE
  5
1BA
330
17
100
AcDbEntity
  8
ПТ_выноски
100
AcDbLine
 10
112.0
 20
170.0
 30
0.0
 11
115.0
 21
165.5
 31
0.0
  0
TEXT
  5
1BB
330
17
100
AcDbEntity
  8
ПТ_текст
100
AcDbText
 10
115.5
 20
165.5
 30
0.0
 40
2.5
  1
О2
  7
ПТ
 11
115.5
 21
165.5
 31
0.0
100
AcDbText
 73
2
  0
CIRCLE
  5
1BC
330
17
100
AcDbEntity
  8
ПТ_контур
370
35
100
AcDbCircle
 10
122.0
 20
165.0
 30
0.0
 40
1.59
  0
LINE
  5
1BD
330
17
100
AcDbEntity
  8
ПТ_контур
370
18
100
AcDbLine
 10
120.41
 20
163.41
 30
0.0
 11
123.59
 21
166.59
 31
0.0
  0
LINE
  5
1BE
330
17
100
AcDbEntity
  8
ПТ_контур
370
18
100
AcDbLine
 10
120.41
 20
166.59
 30
0.0
 11
123.59
 21
163.41
 31
0.0
  0
LINE
  5
1BF
330
17
100
AcDbEntity
  8
ПТ_выноски
100
AcDbLine
 10
122.0
 20
165.0
 30
0.0
 11
125.0
 21
158.0
 31
0.0
  0
TEXT
  5
1C0
330
17
100
AcDbEntity
  8
ПТ_текст
100
AcDbText
 10
125.5
 20
158.0
 30
0.0
 40
2.5
  1
О3
  7
ПТ
 11
125.5
 21
158.0
 31
0.0
100
AcDbText
 73
2
  0
CIRCLE
  5
1C1
330
17
100
AcDbEntity
  8
ПТ_контур
370
35
100
AcDbCircle
 10
60.0
 20
259.0
 30
0.0
 40
1.59
  0
LINE
  5
1C2
330
17
100
AcDbEntity
  8
ПТ_контур
370
18
100
AcDbLine
 10
58.41
 20
257.41
 30
0.0
 11
61.59
 21
260.59
 31
0.0
  0
LINE
  5
1C3
330
17
100
AcDbEntity
  8
ПТ_контур
370
18
100
AcDbLine
 10
58.41
 20
260.59
 30
0.0
 11
61.59
 21
257.41
 31
0.0
  0
LINE
  5
1C4
330
17
100
AcDbEntity
  8
ПТ_выноски
100
AcDbLine
 10
60.0
 20
259.0
 30
0.0
 11
63.0
 21
263.5
 31
0.0
  0
TEXT
  5
1C5
330
17
100
AcDbEntity
  8
ПТ_текст
100
AcDbText
 10
63.5
 20
263.5
 30
0.0
 40
2.5
  1
О4
  7
ПТ
 11
63.5
 21
263.5
 31
0.0
100
AcDbText
 73
2
  0
INSERT
  5
1C6
330
17
100
AcDbEntity
  8
ПТ_текст
100
AcDbBlockReference
  2
ARROW
 10
167.0
 20
191.9585481156726
 30
0.0
 41
0.8
 42
0.8
 50
-30.0
  0
LINE
  5
1C8
330
17
100
AcDbEntity
  8
ПТ_текст
370
18
100
AcDbLine
 10
160.0
 20
196.0
 30
0.0
 11
167.0
 21
191.9585481156726
 31
0.0
  0
TEXT
  5
1C9
330
17
100
AcDbEntity
  8
ПТ_текст
100
AcDbText
 10
159.0
 20
197.0
 30
0.0
 40
1.8
  1
i=0,01
  7
ПТ
 72
2
 11
159.0
 21
197.0
 31
0.0
100
AcDbText
 73
1
  0
INSERT
  5
1CA
330
17
100
AcDbEntity
  8
ПТ_текст
100
AcDbBlockReference
  2
ARROW
 10
167.0
 20
232.0029639528052
 30
0.0
 41
0.8
 42
0.8
 50
-55.0
  0
LINE
  5
1CC
330
17
100
AcDbEntity
  8
ПТ_текст
370
18
100
AcDbLine
 10
160.0
 20
242.0
 30
0.0
 11
167.0
 21
232.0029639528052
 31
0.0
  0
TEXT
  5
1CD
330
17
100
AcDbEntity
  8
ПТ_текст
100
AcDbText
 10
159.0
 20
243.0
 30
0.0
 40
1.8
  1
i=0,01
  7
ПТ
 72
2
 11
159.0
 21
243.0
 31
0.0
100
AcDbText
 73
1
  0
LINE
  5
1CE
330
17
100
AcDbEntity
  8
ПТ_контур
370
70
100
AcDbLine
 10
169.0
 20
170.0
 30
0.0
 11
175.0
 21
170.0
 31
0.0
  0
INSERT
  5
1CF
330
17
100
AcDbEntity
  8
ПТ_текст
100
AcDbBlockReference
  2
ARROW
 10
172.0
 20
166.0
 30
0.0
 41
0.8
 42
0.8
 50
270.0
  0
LINE
  5
1D1
330
17
100
AcDbEntity
  8
ПТ_текст
370
18
100
AcDbLine
 10
172.0
 20
170.0
 30
0.0
 11
172.0
 21
166.0
 31
0.0
  0
TEXT
  5
1D2
330
17
100
AcDbEntity
  8
ПТ_текст
100
AcDbText
 10
172.0
 20
171.5
 30
0.0
 40
2.5
  1
1
  7
ПТ
 72
1
 11
172.0
 21
171.5
 31
0.0
100
AcDbText
 73
1
  0
LINE
  5
1D3
330
17
100
AcDbEntity
  8
ПТ_контур
370
70
100
AcDbLine
 10
223.4
 20
170.0
 30
0.0
 11
229.4
 21
170.0
 31
0.0
  0
INSERT
  5
1D4
330
17
100
AcDbEntity
  8
ПТ_текст
100
AcDbBlockReference
  2
ARROW
 10
226.4
 20
166.0
 30
0.0
 41
0.8
 42
0.8
 50
270.0
  0
LINE
  5
1D6
330
17
100
AcDbEntity
  8
ПТ_текст
370
18
100
AcDbLine
 10
226.4
 20
170.0
 30
0.0
 11
226.4
 21
166.0
 31
0.0
  0
TEXT
  5
1D7
330
17
100
AcDbEntity
  8
ПТ_текст
100
AcDbText
 10
226.4
 20
171.5
 30
0.0
 40
2.5
  1
1
  7
ПТ
 72
1
 11
226.4
 21
171.5
 31
0.0
100
AcDbText
 73
1
  0
LINE
  5
1D8
330
17
100
AcDbEntity
  8
ПТ_контур
370
70
100
AcDbLine
 10
81.0
 20
236.0
 30
0.0
 11
87.0
 21
236.0
 31
0.0
  0
INSERT
  5
1D9
330
17
100
AcDbEntity
  8
ПТ_текст
100
AcDbBlockReference
  2
ARROW
 10
84.0
 20
232.0
 30
0.0
 41
0.8
 42
0.8
 50
270.0
  0
LINE
  5
1DB
330
17
100
AcDbEntity
  8
ПТ_текст
370
18
100
AcDbLine
 10
84.0
 20
236.0
 30
0.0
 11
84.0
 21
232.0
 31
0.0
  0
TEXT
  5
1DC
330
17
100
AcDbEntity
  8
ПТ_текст
100
AcDbText
 10
84.0
 20
237.5
 30
0.0
 40
2.5
  1
2
  7
ПТ
 72
1
 11
84.0
 21
237.5
 31
0.0
100
AcDbText
 73
1
  0
LINE
  5
1DD
330
17
100
AcDbEntity
  8
ПТ_контур
370
70
100
AcDbLine
 10
113.0
 20
236.0
 30
0.0
 11
119.0
 21
236.0
 31
0.0
  0
INSERT
  5
1DE
330
17
100
AcDbEntity
  8
ПТ_текст
100
AcDbBlockReference
  2
ARROW
 10
116.0
 20
232.0
 30
0.0
 41
0.8
 42
0.8
 50
270.0
  0
LINE
  5
1E0
330
17
100
AcDbEntity
  8
ПТ_текст
370
18
100
AcDbLine
 10
116.0
 20
236.0
 30
0.0
 11
116.0
 21
232.0
 31
0.0
  0
TEXT
  5
1E1
330
17
100
AcDbEntity
  8
ПТ_текст
100
AcDbText
 10
116.0
 20
237.5
 30
0.0
 40
2.5
  1
2
  7
ПТ
 72
1
 11
116.0
 21
237.5
 31
0.0
100
AcDbText
 73
1
  0
LINE
  5
1E2
330
17
100
AcDbEntity
  8
ПТ_размеры
100
AcDbLine
 10
48.0
 20
136.0
 30
0.0
 11
92.0
 21
136.0
 31
0.0
  0
LINE
  5
1E3
330
17
100
AcDbEntity
  8
ПТ_размеры
370
25
100
AcDbLine
 10
47.2
 20
135.2
 30
0.0
 11
48.8
 21
136.8
 31
0.0
  0
LINE
  5
1E4
330
17
100
AcDbEntity
  8
ПТ_размеры
100
AcDbLine
 10
48.0
 20
144.0
 30
0.0
 11
48.0
 21
134.5
 31
0.0
  0
LINE
  5
1E5
330
17
100
AcDbEntity
  8
ПТ_размеры
370
25
100
AcDbLine
 10
91.2
 20
135.2
 30
0.0
 11
92.8
 21
136.8
 31
0.0
  0
LINE
  5
1E6
330
17
100
AcDbEntity
  8
ПТ_размеры
100
AcDbLine
 10
92.0
 20
144.0
 30
0.0
 11
92.0
 21
134.5
 31
0.0
  0
TEXT
  5
1E7
330
17
100
AcDbEntity
  8
ПТ_текст
100
AcDbText
 10
70.0
 20
136.6
 30
0.0
 40
2.0
  1
2200
  7
ПТ
 72
1
 11
70.0
 21
136.6
 31
0.0
100
AcDbText
 73
1
  0
LINE
  5
1E8
330
17
100
AcDbEntity
  8
ПТ_размеры
100
AcDbLine
 10
92.0
 20
136.0
 30
0.0
 11
108.0
 21
136.0
 31
0.0
  0
LINE
  5
1E9
330
17
100
AcDbEntity
  8
ПТ_размеры
370
25
100
AcDbLine
 10
91.2
 20
135.2
 30
0.0
 11
92.8
 21
136.8
 31
0.0
  0
LINE
  5
1EA
330
17
100
AcDbEntity
  8
ПТ_размеры
100
AcDbLine
 10
92.0
 20
144.0
 30
0.0
 11
92.0
 21
134.5
 31
0.0
  0
LINE
  5
1EB
330
17
100
AcDbEntity
  8
ПТ_размеры
370
25
100
AcDbLine
 10
107.2
 20
135.2
 30
0.0
 11
108.8
 21
136.8
 31
0.0
  0
LINE
  5
1EC
330
17
100
AcDbEntity
  8
ПТ_размеры
100
AcDbLine
 10
108.0
 20
144.0
 30
0.0
 11
108.0
 21
134.5
 31
0.0
  0
TEXT
  5
1ED
330
17
100
AcDbEntity
  8
ПТ_текст
100
AcDbText
 10
100.0
 20
136.6
 30
0.0
 40
2.0
  1
800
  7
ПТ
 72
1
 11
100.0
 21
136.6
 31
0.0
100
AcDbText
 73
1
  0
LINE
  5
1EE
330
17
100
AcDbEntity
  8
ПТ_размеры
100
AcDbLine
 10
108.0
 20
136.0
 30
0.0
 11
190.0
 21
136.0
 31
0.0
  0
LINE
  5
1EF
330
17
100
AcDbEntity
  8
ПТ_размеры
370
25
100
AcDbLine
 10
107.2
 20
135.2
 30
0.0
 11
108.8
 21
136.8
 31
0.0
  0
LINE
  5
1F0
330
17
100
AcDbEntity
  8
ПТ_размеры
100
AcDbLine
 10
108.0
 20
144.0
 30
0.0
 11
108.0
 21
134.5
 31
0.0
  0
LINE
  5
1F1
330
17
100
AcDbEntity
  8
ПТ_размеры
370
25
100
AcDbLine
 10
189.2
 20
135.2
 30
0.0
 11
190.8
 21
136.8
 31
0.0
  0
LINE
  5
1F2
330
17
100
AcDbEntity
  8
ПТ_размеры
100
AcDbLine
 10
190.0
 20
144.0
 30
0.0
 11
190.0
 21
134.5
 31
0.0
  0
TEXT
  5
1F3
330
17
100
AcDbEntity
  8
ПТ_текст
100
AcDbText
 10
149.0
 20
136.6
 30
0.0
 40
2.0
  1
4100
  7
ПТ
 72
1
 11
149.0
 21
136.6
 31
0.0
100
AcDbText
 73
1
  0
LINE
  5
1F4
330
17
100
AcDbEntity
  8
ПТ_размеры
100
AcDbLine
 10
190.0
 20
136.0
 30
0.0
 11
210.0
 21
136.0
 31
0.0
  0
LINE
  5
1F5
330
17
100
AcDbEntity
  8
ПТ_размеры
370
25
100
AcDbLine
 10
189.2
 20
135.2
 30
0.0
 11
190.8
 21
136.8
 31
0.0
  0
LINE
  5
1F6
330
17
100
AcDbEntity
  8
ПТ_размеры
100
AcDbLine
 10
190.0
 20
144.0
 30
0.0
 11
190.0
 21
134.5
 31
0.0
  0
LINE
  5
1F7
330
17
100
AcDbEntity
  8
ПТ_размеры
370
25
100
AcDbLine
 10
209.2
 20
135.2
 30
0.0
 11
210.8
 21
136.8
 31
0.0
  0
LINE
  5
1F8
330
17
100
AcDbEntity
  8
ПТ_размеры
100
AcDbLine
 10
210.0
 20
144.0
 30
0.0
 11
210.0
 21
134.5
 31
0.0
  0
TEXT
  5
1F9
330
17
100
AcDbEntity
  8
ПТ_текст
100
AcDbText
 10
200.0
 20
136.6
 30
0.0
 40
2.0
  1
1000
  7
ПТ
 72
1
 11
200.0
 21
136.6
 31
0.0
100
AcDbText
 73
1
  0
LINE
  5
1FA
330
17
100
AcDbEntity
  8
ПТ_размеры
100
AcDbLine
 10
210.0
 20
136.0
 30
0.0
 11
214.0
 21
136.0
 31
0.0
  0
LINE
  5
1FB
330
17
100
AcDbEntity
  8
ПТ_размеры
370
25
100
AcDbLine
 10
209.2
 20
135.2
 30
0.0
 11
210.8
 21
136.8
 31
0.0
  0
LINE
  5
1FC
330
17
100
AcDbEntity
  8
ПТ_размеры
100
AcDbLine
 10
210.0
 20
144.0
 30
0.0
 11
210.0
 21
134.5
 31
0.0
  0
LINE
  5
1FD
330
17
100
AcDbEntity
  8
ПТ_размеры
370
25
100
AcDbLine
 10
213.2
 20
135.2
 30
0.0
 11
214.8
 21
136.8
 31
0.0
  0
LINE
  5
1FE
330
17
100
AcDbEntity
  8
ПТ_размеры
100
AcDbLine
 10
214.0
 20
144.0
 30
0.0
 11
214.0
 21
134.5
 31
0.0
  0
TEXT
  5
1FF
330
17
100
AcDbEntity
  8
ПТ_текст
100
AcDbText
 10
212.0
 20
136.6
 30
0.0
 40
2.0
  1
200
  7
ПТ
 72
1
 11
212.0
 21
136.6
 31
0.0
100
AcDbText
 73
1
  0
LINE
  5
200
330
17
100
AcDbEntity
  8
ПТ_размеры
100
AcDbLine
 10
181.0
 20
150.0
 30
0.0
 11
181.0
 21
160.0
 31
0.0
  0
LINE
  5
201
330
17
100
AcDbEntity
  8
ПТ_размеры
370
25
100
AcDbLine
 10
180.2
 20
149.2
 30
0.0
 11
181.8
 21
150.8
 31
0.0
  0
LINE
  5
202
330
17
100
AcDbEntity
  8
ПТ_размеры
100
AcDbLine
 10
189.0
 20
150.0
 30
0.0
 11
179.5
 21
150.0
 31
0.0
  0
LINE
  5
203
330
17
100
AcDbEntity
  8
ПТ_размеры
370
25
100
AcDbLine
 10
180.2
 20
159.2
 30
0.0
 11
181.8
 21
160.8
 31
0.0
  0
LINE
  5
204
330
17
100
AcDbEntity
  8
ПТ_размеры
100
AcDbLine
 10
189.0
 20
160.0
 30
0.0
 11
179.5
 21
160.0
 31
0.0
  0
TEXT
  5
205
330
17
100
AcDbEntity
  8
ПТ_текст
100
AcDbText
 10
180.4
 20
155.0
 30
0.0
 40
2.0
  1
500
 50
90.0
  7
ПТ
 72
1
 11
180.4
 21
155.0
 31
0.0
100
AcDbText
 73
1
  0
LINE
  5
206
330
17
100
AcDbEntity
  8
ПТ_размеры
100
AcDbLine
 10
181.0
 20
160.0
 30
0.0
 11
181.0
 21
180.0
 31
0.0
  0
LINE
  5
207
330
17
100
AcDbEntity
  8
ПТ_размеры
370
25
100
AcDbLine
 10
180.2
 20
159.2
 30
0.0
 11
181.8
 21
160.8
 31
0.0
  0
LINE
  5
208
330
17
100
AcDbEntity
  8
ПТ_размеры
100
AcDbLine
 10
189.0
 20
160.0
 30
0.0
 11
179.5
 21
160.0
 31
0.0
  0
LINE
  5
209
330
17
100
AcDbEntity
  8
ПТ_размеры
370
25
100
AcDbLine
 10
180.2
 20
179.2
 30
0.0
 11
181.8
 21
180.8
 31
0.0
  0
LINE
  5
20A
330
17
100
AcDbEntity
  8
ПТ_размеры
100
AcDbLine
 10
189.0
 20
180.0
 30
0.0
 11
179.5
 21
180.0
 31
0.0
  0
TEXT
  5
20B
330
17
100
AcDbEntity
  8
ПТ_текст
100
AcDbText
 10
180.4
 20
170.0
 30
0.0
 40
2.0
  1
1000
 50
90.0
  7
ПТ
 72
1
 11
180.4
 21
170.0
 31
0.0
100
AcDbText
 73
1
  0
LINE
  5
20C
330
17
100
AcDbEntity
  8
ПТ_размеры
100
AcDbLine
 10
74.0
 20
150.0
 30
0.0
 11
74.0
 21
203.4
 31
0.0
  0
LINE
  5
20D
330
17
100
AcDbEntity
  8
ПТ_размеры
370
25
100
AcDbLine
 10
73.2
 20
149.2
 30
0.0
 11
74.8
 21
150.8
 31
0.0
  0
LINE
  5
20E
330
17
100
AcDbEntity
  8
ПТ_размеры
100
AcDbLine
 10
91.0
 20
150.0
 30
0.0
 11
72.5
 21
150.0
 31
0.0
  0
LINE
  5
20F
330
17
100
AcDbEntity
  8
ПТ_размеры
370
25
100
AcDbLine
 10
73.2
 20
202.6
 30
0.0
 11
74.8
 21
204.20000000000002
 31
0.0
  0
LINE
  5
210
330
17
100
AcDbEntity
  8
ПТ_размеры
100
AcDbLine
 10
91.0
 20
203.4
 30
0.0
 11
72.5
 21
203.4
 31
0.0
  0
TEXT
  5
211
330
17
100
AcDbEntity
  8
ПТ_текст
100
AcDbText
 10
73.4
 20
176.7
 30
0.0
 40
2.0
  1
2670
 50
90.0
  7
ПТ
 72
1
 11
73.4
 21
176.7
 31
0.0
100
AcDbText
 73
1
  0
LINE
  5
212
330
17
100
AcDbEntity
  8
ПТ_размеры
100
AcDbLine
 10
74.0
 20
203.4
 30
0.0
 11
74.0
 21
216.6
 31
0.0
  0
LINE
  5
213
330
17
100
AcDbEntity
  8
ПТ_размеры
370
25
100
AcDbLine
 10
73.2
 20
202.6
 30
0.0
 11
74.8
 21
204.20000000000002
 31
0.0
  0
LINE
  5
214
330
17
100
AcDbEntity
  8
ПТ_размеры
100
AcDbLine
 10
91.0
 20
203.4
 30
0.0
 11
72.5
 21
203.4
 31
0.0
  0
LINE
  5
215
330
17
100
AcDbEntity
  8
ПТ_размеры
370
25
100
AcDbLine
 10
73.2
 20
215.79999999999998
 30
0.0
 11
74.8
 21
217.4
 31
0.0
  0
LINE
  5
216
330
17
100
AcDbEntity
  8
ПТ_размеры
100
AcDbLine
 10
91.0
 20
216.6
 30
0.0
 11
72.5
 21
216.6
 31
0.0
  0
TEXT
  5
217
330
17
100
AcDbEntity
  8
ПТ_текст
100
AcDbText
 10
73.4
 20
210.0
 30
0.0
 40
2.0
  1
660
 50
90.0
  7
ПТ
 72
1
 11
73.4
 21
210.0
 31
0.0
100
AcDbText
 73
1
  0
LINE
  5
218
330
17
100
AcDbEntity
  8
ПТ_размеры
100
AcDbLine
 10
74.0
 20
216.6
 30
0.0
 11
74.0
 21
229.4
 31
0.0
  0
LINE
  5
219
330
17
100
AcDbEntity
  8
ПТ_размеры
370
25
100
AcDbLine
 10
73.2
 20
215.79999999999998
 30
0.0
 11
74.8
 21
217.4
 31
0.0
  0
LINE
  5
21A
330
17
100
AcDbEntity
  8
ПТ_размеры
100
AcDbLine
 10
91.0
 20
216.6
 30
0.0
 11
72.5
 21
216.6
 31
0.0
  0
LINE
  5
21B
330
17
100
AcDbEntity
  8
ПТ_размеры
370
25
100
AcDbLine
 10
73.2
 20
228.6
 30
0.0
 11
74.8
 21
230.20000000000002
 31
0.0
  0
LINE
  5
21C
330
17
100
AcDbEntity
  8
ПТ_размеры
100
AcDbLine
 10
91.0
 20
229.4
 30
0.0
 11
72.5
 21
229.4
 31
0.0
  0
TEXT
  5
21D
330
17
100
AcDbEntity
  8
ПТ_текст
100
AcDbText
 10
73.4
 20
223.0
 30
0.0
 40
2.0
  1
640
 50
90.0
  7
ПТ
 72
1
 11
73.4
 21
223.0
 31
0.0
100
AcDbText
 73
1
  0
LINE
  5
21E
330
17
100
AcDbEntity
  8
ПТ_размеры
100
AcDbLine
 10
74.0
 20
229.4
 30
0.0
 11
74.0
 21
242.6
 31
0.0
  0
LINE
  5
21F
330
17
100
AcDbEntity
  8
ПТ_размеры
370
25
100
AcDbLine
 10
73.2
 20
228.6
 30
0.0
 11
74.8
 21
230.20000000000002
 31
0.0
  0
LINE
  5
220
330
17
100
AcDbEntity
  8
ПТ_размеры
100
AcDbLine
 10
91.0
 20
229.4
 30
0.0
 11
72.5
 21
229.4
 31
0.0
  0
LINE
  5
221
330
17
100
AcDbEntity
  8
ПТ_размеры
370
25
100
AcDbLine
 10
73.2
 20
241.79999999999998
 30
0.0
 11
74.8
 21
243.4
 31
0.0
  0
LINE
  5
222
330
17
100
AcDbEntity
  8
ПТ_размеры
100
AcDbLine
 10
91.0
 20
242.6
 30
0.0
 11
72.5
 21
242.6
 31
0.0
  0
TEXT
  5
223
330
17
100
AcDbEntity
  8
ПТ_текст
100
AcDbText
 10
73.4
 20
236.0
 30
0.0
 40
2.0
  1
660
 50
90.0
  7
ПТ
 72
1
 11
73.4
 21
236.0
 31
0.0
100
AcDbText
 73
1
  0
TEXT
  5
224
330
17
100
AcDbEntity
  8
ПТ_текст
100
AcDbText
 10
302.0
 20
284.0
 30
0.0
 40
3.5
  1
Разрез 1-1  М 1:20
  7
ПТ_загл
 72
1
 11
302.0
 21
284.0
 31
0.0
100
AcDbText
 73
1
  0
LINE
  5
225
330
17
100
AcDbEntity
  8
ПТ_контур
370
35
100
AcDbLine
 10
284.675
 20
282.8
 30
0.0
 11
319.325
 21
282.8
 31
0.0
  0
LWPOLYLINE
  5
226
330
17
100
AcDbEntity
  8
ПТ_контур
370
35
100
AcDbPolyline
 90
4
 70
1
 10
262.0
 20
247.5
 10
269.5
 20
247.5
 10
269.5
 20
260.0
 10
262.0
 20
260.0
  0
HATCH
  5
227
330
17
100
AcDbEntity
  8
ПТ_штриховка
 62
8
100
AcDbHatch
 10
0.0
 20
0.0
 30
0.0
210
0.0
220
0.0
230
1.0
  2
ANSI31
 70
0
 71
0
 91
1
 92
3
 72
0
 73
1
 93
4
 10
262.0
 20
247.5
 10
269.5
 20
247.5
 10
269.5
 20
260.0
 10
262.0
 20
260.0
 97
0
 75
1
 76
1
 52
0.0
 41
0.3
 77
0
 78
1
 53
45.0
 43
0.0
 44
0.0
 45
-0.6735192091
 46
0.6735192091
 79
0
 98
0
  0
LWPOLYLINE
  5
228
330
17
100
AcDbEntity
  8
ПТ_контур
370
35
100
AcDbPolyline
 90
4
 70
1
 10
334.5
 20
247.5
 10
342.0
 20
247.5
 10
342.0
 20
260.0
 10
334.5
 20
260.0
  0
HATCH
  5
229
330
17
100
AcDbEntity
  8
ПТ_штриховка
 62
8
100
AcDbHatch
 10
0.0
 20
0.0
 30
0.0
210
0.0
220
0.0
230
1.0
  2
ANSI31
 70
0
 71
0
 91
1
 92
3
 72
0
 73
1
 93
4
 10
334.5
 20
247.5
 10
342.0
 20
247.5
 10
342.0
 20
260.0
 10
334.5
 20
260.0
 97
0
 75
1
 76
1
 52
0.0
 41
0.3
 77
0
 78
1
 53
45.0
 43
0.0
 44
0.0
 45
-0.6735192091
 46
0.6735192091
 79
0
 98
0
  0
LWPOLYLINE
  5
22A
330
17
100
AcDbEntity
  8
ПТ_контур
370
35
100
AcDbPolyline
 90
4
 70
1
 10
269.5
 20
209.99999999999997
 10
277.0
 20
209.99999999999997
 10
277.0
 20
260.0
 10
269.5
 20
260.0
  0
HATCH
  5
22B
330
17
100
AcDbEntity
  8
ПТ_штриховка
 62
8
100
AcDbHatch
 10
0.0
 20
0.0
 30
0.0
210
0.0
220
0.0
230
1.0
  2
ANSI31
 70
0
 71
0
 91
1
 92
3
 72
0
 73
1
 93
4
 10
269.5
 20
209.99999999999997
 10
277.0
 20
209.99999999999997
 10
277.0
 20
260.0
 10
269.5
 20
260.0
 97
0
 75
1
 76
1
 52
0.0
 41
0.3
 77
0
 78
1
 53
45.0
 43
0.0
 44
0.0
 45
-0.6735192091
 46
0.6735192091
 79
0
 98
0
  0
LWPOLYLINE
  5
22C
330
17
100
AcDbEntity
  8
ПТ_контур
370
35
100
AcDbPolyline
 90
4
 70
1
 10
327.0
 20
209.99999999999997
 10
334.5
 20
209.99999999999997
 10
334.5
 20
260.0
 10
327.0
 20
260.0
  0
HATCH
  5
22D
330
17
100
AcDbEntity
  8
ПТ_штриховка
 62
8
100
AcDbHatch
 10
0.0
 20
0.0
 30
0.0
210
0.0
220
0.0
230
1.0
  2
ANSI31
 70
0
 71
0
 91
1
 92
3
 72
0
 73
1
 93
4
 10
327.0
 20
209.99999999999997
 10
334.5
 20
209.99999999999997
 10
334.5
 20
260.0
 10
327.0
 20
260.0
 97
0
 75
1
 76
1
 52
0.0
 41
0.3
 77
0
 78
1
 53
45.0
 43
0.0
 44
0.0
 45
-0.6735192091
 46
0.6735192091
 79
0
 98
0
  0
LWPOLYLINE
  5
22E
330
17
100
AcDbEntity
  8
ПТ_контур
370
35
100
AcDbPolyline
 90
4
 70
1
 10
269.5
 20
209.99999999999997
 10
334.5
 20
209.99999999999997
 10
334.5
 20
220.0
 10
269.5
 20
220.0
  0
HATCH
  5
22F
330
17
100
AcDbEntity
  8
ПТ_штриховка
 62
8
100
AcDbHatch
 10
0.0
 20
0.0
 30
0.0
210
0.0
220
0.0
230
1.0
  2
ANSI31
 70
0
 71
0
 91
1
 92
3
 72
0
 73
1
 93
4
 10
269.5
 20
209.99999999999997
 10
334.5
 20
209.99999999999997
 10
334.5
 20
220.0
 10
269.5
 20
220.0
 97
0
 75
1
 76
1
 52
0.0
 41
0.3
 77
0
 78
1
 53
45.0
 43
0.0
 44
0.0
 45
-0.6735192091
 46
0.6735192091
 79
0
 98
0
  0
LINE
  5
230
330
17
100
AcDbEntity
  8
ПТ_контур
370
50
100
AcDbLine
 10
277.0
 20
220.0
 30
0.0
 11
327.0
 21
220.0
 31
0.0
  0
LWPOLYLINE
  5
231
330
17
100
AcDbEntity
  8
ПТ_контур
370
35
100
AcDbPolyline
 90
3
 70
0
 10
277.0
 20
257.5
 10
277.0
 20
260.0
 10
279.5
 20
260.0
  0
LWPOLYLINE
  5
232
330
17
100
AcDbEntity
  8
ПТ_контур
370
35
100
AcDbPolyline
 90
3
 70
0
 10
324.5
 20
257.5
 10
324.5
 20
260.0
 10
327.0
 20
260.0
  0
LINE
  5
233
330
17
100
AcDbEntity
  8
ПТ_контур
  6
ПТ_ШТРИХ
370
35
100
AcDbLine
 10
279.5
 20
259.25
 30
0.0
 11
324.5
 21
259.25
 31
0.0
  0
TEXT
  5
234
330
17
100
AcDbEntity
  8
ПТ_текст
100
AcDbText
 10
302.0
 20
264.0
 30
0.0
 40
1.8
  1
решётка на рамке из уголка 50х5
  7
ПТ
 72
1
 11
302.0
 21
264.0
 31
0.0
100
AcDbText
 73
1
  0
LWPOLYLINE
  5
235
330
17
100
AcDbEntity
  8
ПТ_контур
  6
ПТ_ШТРИХ
370
18
100
AcDbPolyline
 90
4
 70
1
 10
286.0
 20
220.0
 10
298.0
 20
220.0
 10
298.0
 20
242.5
 10
286.0
 20
242.5
  0
LWPOLYLINE
  5
236
330
17
100
AcDbEntity
  8
ПТ_контур
  6
ПТ_ШТРИХ
370
18
100
AcDbPolyline
 90
4
 70
1
 10
306.0
 20
220.0
 10
318.0
 20
220.0
 10
318.0
 20
242.5
 10
306.0
 20
242.5
  0
TEXT
  5
237
330
17
100
AcDbEntity
  8
ПТ_текст
100
AcDbText
 10
302.0
 20
247.5
 30
0.0
 40
1.8
  1
ДН1, ДН2 (условно)
  7
ПТ
 72
1
 11
302.0
 21
247.5
 31
0.0
100
AcDbText
 73
1
  0
LWPOLYLINE
  5
238
330
17
100
AcDbEntity
  8
ПТ_текст
100
AcDbPolyline
 90
3
 70
1
 10
262.0
 20
260.0
 10
260.8
 20
261.6
 10
263.2
 20
261.6
  0
LINE
  5
239
330
17
100
AcDbEntity
  8
ПТ_текст
100
AcDbLine
 10
262.0
 20
261.6
 30
0.0
 11
248.0
 21
261.6
 31
0.0
  0
TEXT
  5
23A
330
17
100
AcDbEntity
  8
ПТ_текст
100
AcDbText
 10
248.0
 20
262.2
 30
0.0
 40
1.8
  1
-2,200
  7
ПТ
 11
248.0
 21
262.2
 31
0.0
100
AcDbText
 73
1
  0
LWPOLYLINE
  5
23B
330
17
100
AcDbEntity
  8
ПТ_текст
100
AcDbPolyline
 90
3
 70
1
 10
262.0
 20
220.0
 10
260.8
 20
221.6
 10
263.2
 20
221.6
  0
LINE
  5
23C
330
17
100
AcDbEntity
  8
ПТ_текст
100
AcDbLine
 10
262.0
 20
221.6
 30
0.0
 11
248.0
 21
221.6
 31
0.0
  0
TEXT
  5
23D
330
17
100
AcDbEntity
  8
ПТ_текст
100
AcDbText
 10
248.0
 20
222.2
 30
0.0
 40
1.8
  1
-3,000
  7
ПТ
 11
248.0
 21
222.2
 31
0.0
100
AcDbText
 73
1
  0
LINE
  5
23E
330
17
100
AcDbEntity
  8
ПТ_размеры
100
AcDbLine
 10
277.0
 20
203.99999999999997
 30
0.0
 11
327.0
 21
203.99999999999997
 31
0.0
  0
LINE
  5
23F
330
17
100
AcDbEntity
  8
ПТ_размеры
370
25
100
AcDbLine
 10
276.2
 20
203.19999999999996
 30
0.0
 11
277.8
 21
204.79999999999998
 31
0.0
  0
LINE
  5
240
330
17
100
AcDbEntity
  8
ПТ_размеры
100
AcDbLine
 10
277.0
 20
209.99999999999997
 30
0.0
 11
277.0
 21
202.49999999999997
 31
0.0
  0
LINE
  5
241
330
17
100
AcDbEntity
  8
ПТ_размеры
370
25
100
AcDbLine
 10
326.2
 20
203.19999999999996
 30
0.0
 11
327.8
 21
204.79999999999998
 31
0.0
  0
LINE
  5
242
330
17
100
AcDbEntity
  8
ПТ_размеры
100
AcDbLine
 10
327.0
 20
209.99999999999997
 30
0.0
 11
327.0
 21
202.49999999999997
 31
0.0
  0
TEXT
  5
243
330
17
100
AcDbEntity
  8
ПТ_текст
100
AcDbText
 10
302.0
 20
204.59999999999997
 30
0.0
 40
2.0
  1
1000
  7
ПТ
 72
1
 11
302.0
 21
204.59999999999997
 31
0.0
100
AcDbText
 73
1
  0
LINE
  5
244
330
17
100
AcDbEntity
  8
ПТ_размеры
100
AcDbLine
 10
346.0
 20
220.0
 30
0.0
 11
346.0
 21
260.0
 31
0.0
  0
LINE
  5
245
330
17
100
AcDbEntity
  8
ПТ_размеры
370
25
100
AcDbLine
 10
345.2
 20
219.2
 30
0.0
 11
346.8
 21
220.8
 31
0.0
  0
LINE
  5
246
330
17
100
AcDbEntity
  8
ПТ_размеры
100
AcDbLine
 10
342.0
 20
220.0
 30
0.0
 11
347.5
 21
220.0
 31
0.0
  0
LINE
  5
247
330
17
100
AcDbEntity
  8
ПТ_размеры
370
25
100
AcDbLine
 10
345.2
 20
259.2
 30
0.0
 11
346.8
 21
260.8
 31
0.0
  0
LINE
  5
248
330
17
100
AcDbEntity
  8
ПТ_размеры
100
AcDbLine
 10
342.0
 20
260.0
 30
0.0
 11
347.5
 21
260.0
 31
0.0
  0
TEXT
  5
249
330
17
100
AcDbEntity
  8
ПТ_текст
100
AcDbText
 10
345.4
 20
240.0
 30
0.0
 40
2.0
  1
800
 50
90.0
  7
ПТ
 72
1
 11
345.4
 21
240.0
 31
0.0
100
AcDbText
 73
1
  0
TEXT
  5
24A
330
17
100
AcDbEntity
  8
ПТ_текст
100
AcDbText
 10
383.0
 20
284.0
 30
0.0
 40
3.5
  1
Разрез 2-2  М 1:20
  7
ПТ_загл
 72
1
 11
383.0
 21
284.0
 31
0.0
100
AcDbText
 73
1
  0
LINE
  5
24B
330
17
100
AcDbEntity
  8
ПТ_контур
370
35
100
AcDbLine
 10
365.675
 20
282.8
 30
0.0
 11
400.325
 21
282.8
 31
0.0
  0
LWPOLYLINE
  5
24C
330
17
100
AcDbEntity
  8
ПТ_контур
370
35
100
AcDbPolyline
 90
4
 70
1
 10
353.0
 20
222.0
 10
413.0
 20
222.0
 10
413.0
 20
234.5
 10
353.0
 20
234.5
  0
HATCH
  5
24D
330
17
100
AcDbEntity
  8
ПТ_штриховка
 62
8
100
AcDbHatch
 10
0.0
 20
0.0
 30
0.0
210
0.0
220
0.0
230
1.0
  2
ANSI31
 70
0
 71
0
 91
1
 92
3
 72
0
 73
1
 93
4
 10
353.0
 20
222.0
 10
413.0
 20
222.0
 10
413.0
 20
234.5
 10
353.0
 20
234.5
 97
0
 75
1
 76
1
 52
0.0
 41
0.3
 77
0
 78
1
 53
45.0
 43
0.0
 44
0.0
 45
-0.6735192091
 46
0.6735192091
 79
0
 98
0
  0
LWPOLYLINE
  5
24E
330
17
100
AcDbEntity
  8
ПТ_контур
370
50
100
AcDbPolyline
 90
4
 70
1
 10
363.0
 20
234.5
 10
403.0
 20
234.5
 10
403.0
 20
242.00000000000003
 10
363.0
 20
242.00000000000003
  0
HATCH
  5
24F
330
17
100
AcDbEntity
  8
ПТ_штриховка
 62
7
100
AcDbHatch
 10
0.0
 20
0.0
 30
0.0
210
0.0
220
0.0
230
1.0
  2
ANSI31
 70
0
 71
0
 91
1
 92
3
 72
0
 73
1
 93
4
 10
363.0
 20
234.5
 10
403.0
 20
234.5
 10
403.0
 20
242.00000000000003
 10
363.0
 20
242.00000000000003
 97
0
 75
1
 76
1
 52
0.0
 41
0.35
 77
0
 78
1
 53
45.0
 43
0.0
 44
0.0
 45
-0.7857724106
 46
0.7857724106
 79
0
 98
0
  0
LINE
  5
250
330
17
100
AcDbEntity
  8
ПТ_контур
  6
ПТ_ШТРИХ
370
25
100
AcDbLine
 10
368.0
 20
229.50000000000003
 30
0.0
 11
368.0
 21
245.5
 31
0.0
  0
LINE
  5
251
330
17
100
AcDbEntity
  8
ПТ_контур
  6
ПТ_ШТРИХ
370
25
100
AcDbLine
 10
398.0
 20
229.50000000000003
 30
0.0
 11
398.0
 21
245.5
 31
0.0
  0
LWPOLYLINE
  5
252
330
17
100
AcDbEntity
  8
ПТ_контур
  6
ПТ_ШТРИХ
370
18
100
AcDbPolyline
 90
4
 70
1
 10
368.0
 20
242.00000000000003
 10
398.0
 20
242.00000000000003
 10
398.0
 20
272.0
 10
368.0
 20
272.0
  0
TEXT
  5
253
330
17
100
AcDbEntity
  8
ПТ_текст
100
AcDbText
 10
383.0
 20
259.5
 30
0.0
 40
1.8
  1
Н1 (условно)
  7
ПТ
 72
1
 11
383.0
 21
259.5
 31
0.0
100
AcDbText
 73
2
  0
LWPOLYLINE
  5
254
330
17
100
AcDbEntity
  8
ПТ_текст
100
AcDbPolyline
 90
3
 70
1
 10
360.5
 20
242.00000000000003
 10
359.3
 20
243.60000000000002
 10
361.7
 20
243.60000000000002
  0
LINE
  5
255
330
17
100
AcDbEntity
  8
ПТ_текст
100
AcDbLine
 10
360.5
 20
243.60000000000002
 30
0.0
 11
346.5
 21
243.60000000000002
 31
0.0
  0
TEXT
  5
256
330
17
100
AcDbEntity
  8
ПТ_текст
100
AcDbText
 10
346.5
 20
244.20000000000002
 30
0.0
 40
1.8
  1
-2,050
  7
ПТ
 11
346.5
 21
244.20000000000002
 31
0.0
100
AcDbText
 73
1
  0
LWPOLYLINE
  5
257
330
17
100
AcDbEntity
  8
ПТ_текст
100
AcDbPolyline
 90
3
 70
1
 10
360.5
 20
234.5
 10
359.3
 20
236.1
 10
361.7
 20
236.1
  0
LINE
  5
258
330
17
100
AcDbEntity
  8
ПТ_текст
100
AcDbLine
 10
360.5
 20
236.1
 30
0.0
 11
346.5
 21
236.1
 31
0.0
  0
TEXT
  5
259
330
17
100
AcDbEntity
  8
ПТ_текст
100
AcDbText
 10
346.5
 20
236.7
 30
0.0
 40
1.8
  1
-2,200
  7
ПТ
 11
346.5
 21
236.7
 31
0.0
100
AcDbText
 73
1
  0
LINE
  5
25A
330
17
100
AcDbEntity
  8
ПТ_размеры
100
AcDbLine
 10
363.0
 20
216.0
 30
0.0
 11
403.0
 21
216.0
 31
0.0
  0
LINE
  5
25B
330
17
100
AcDbEntity
  8
ПТ_размеры
370
25
100
AcDbLine
 10
362.2
 20
215.2
 30
0.0
 11
363.8
 21
216.8
 31
0.0
  0
LINE
  5
25C
330
17
100
AcDbEntity
  8
ПТ_размеры
100
AcDbLine
 10
363.0
 20
222.0
 30
0.0
 11
363.0
 21
214.5
 31
0.0
  0
LINE
  5
25D
330
17
100
AcDbEntity
  8
ПТ_размеры
370
25
100
AcDbLine
 10
402.2
 20
215.2
 30
0.0
 11
403.8
 21
216.8
 31
0.0
  0
LINE
  5
25E
330
17
100
AcDbEntity
  8
ПТ_размеры
100
AcDbLine
 10
403.0
 20
222.0
 30
0.0
 11
403.0
 21
214.5
 31
0.0
  0
TEXT
  5
25F
330
17
100
AcDbEntity
  8
ПТ_текст
100
AcDbText
 10
383.0
 20
216.6
 30
0.0
 40
2.0
  1
800
  7
ПТ
 72
1
 11
383.0
 21
216.6
 31
0.0
100
AcDbText
 73
1
  0
LINE
  5
260
330
17
100
AcDbEntity
  8
ПТ_размеры
100
AcDbLine
 10
409.0
 20
234.5
 30
0.0
 11
409.0
 21
242.00000000000003
 31
0.0
  0
LINE
  5
261
330
17
100
AcDbEntity
  8
ПТ_размеры
370
25
100
AcDbLine
 10
408.2
 20
233.7
 30
0.0
 11
409.8
 21
235.3
 31
0.0
  0
LINE
  5
262
330
17
100
AcDbEntity
  8
ПТ_размеры
100
AcDbLine
 10
403.0
 20
234.5
 30
0.0
 11
410.5
 21
234.5
 31
0.0
  0
LINE
  5
263
330
17
100
AcDbEntity
  8
ПТ_размеры
370
25
100
AcDbLine
 10
408.2
 20
241.20000000000002
 30
0.0
 11
409.8
 21
242.80000000000004
 31
0.0
  0
LINE
  5
264
330
17
100
AcDbEntity
  8
ПТ_размеры
100
AcDbLine
 10
403.0
 20
242.00000000000003
 30
0.0
 11
410.5
 21
242.00000000000003
 31
0.0
  0
TEXT
  5
265
330
17
100
AcDbEntity
  8
ПТ_текст
100
AcDbText
 10
408.4
 20
238.25
 30
0.0
 40
2.0
  1
150
 50
90.0
  7
ПТ
 72
1
 11
408.4
 21
238.25
 31
0.0
100
AcDbText
 73
1
  0
TEXT
  5
266
330
17
100
AcDbEntity
  8
ПТ_текст
100
AcDbText
 10
383.0
 20
210.0
 30
0.0
 40
1.8
  1
анкеры - по паспорту насоса
  7
ПТ
 72
1
 11
383.0
 21
210.0
 31
0.0
100
AcDbText
 73
3
  0
TEXT
  5
267
330
17
100
AcDbEntity
  8
ПТ_текст
100
AcDbText
 10
25.0
 20
115.0
 30
0.0
 40
3.5
  1
Перечень элементов
  7
ПТ_загл
 11
25.0
 21
115.0
 31
0.0
100
AcDbText
 73
1
  0
LWPOLYLINE
  5
268
330
17
100
AcDbEntity
  8
ПТ_рамка_тонк
370
35
100
AcDbPolyline
 90
4
 70
1
 10
25.0
 20
104.0
 10
223.0
 20
104.0
 10
223.0
 20
111.0
 10
25.0
 20
111.0
  0
LINE
  5
269
330
17
100
AcDbEntity
  8
ПТ_рамка_тонк
370
35
100
AcDbLine
 10
25.0
 20
111.0
 30
0.0
 11
25.0
 21
104.0
 31
0.0
  0
MTEXT
  5
26A
330
17
100
AcDbEntity
  8
ПТ_текст
100
AcDbMText
 10
31.5
 20
107.5
 30
0.0
 40
1.9800000000000002
 41
11.5
 71
5
  1
Обозн.
  7
ПТ
  0
LINE
  5
26B
330
17
100
AcDbEntity
  8
ПТ_рамка_тонк
370
35
100
AcDbLine
 10
38.0
 20
111.0
 30
0.0
 11
38.0
 21
104.0
 31
0.0
  0
MTEXT
  5
26C
330
17
100
AcDbEntity
  8
ПТ_текст
100
AcDbMText
 10
70.0
 20
107.5
 30
0.0
 40
1.9800000000000002
 41
62.5
 71
5
  1
Элемент
  7
ПТ
  0
LINE
  5
26D
330
17
100
AcDbEntity
  8
ПТ_рамка_тонк
370
35
100
AcDbLine
 10
102.0
 20
111.0
 30
0.0
 11
102.0
 21
104.0
 31
0.0
  0
MTEXT
  5
26E
330
17
100
AcDbEntity
  8
ПТ_текст
100
AcDbMText
 10
127.0
 20
107.5
 30
0.0
 40
1.9800000000000002
 41
48.5
 71
5
  1
Размеры, мм
  7
ПТ
  0
LINE
  5
26F
330
17
100
AcDbEntity
  8
ПТ_рамка_тонк
370
35
100
AcDbLine
 10
152.0
 20
111.0
 30
0.0
 11
152.0
 21
104.0
 31
0.0
  0
MTEXT
  5
270
330
17
100
AcDbEntity
  8
ПТ_текст
100
AcDbMText
 10
164.0
 20
107.5
 30
0.0
 40
1.9800000000000002
 41
22.5
 71
5
  1
Отметка
  7
ПТ
  0
LINE
  5
271
330
17
100
AcDbEntity
  8
ПТ_рамка_тонк
370
35
100
AcDbLine
 10
176.0
 20
111.0
 30
0.0
 11
176.0
 21
104.0
 31
0.0
  0
MTEXT
  5
272
330
17
100
AcDbEntity
  8
ПТ_текст
100
AcDbMText
 10
199.5
 20
107.5
 30
0.0
 40
1.9800000000000002
 41
45.5
 71
5
  1
От оси 1 / оси Д, мм
  7
ПТ
  0
LINE
  5
273
330
17
100
AcDbEntity
  8
ПТ_рамка_тонк
370
35
100
AcDbLine
 10
223.0
 20
111.0
 30
0.0
 11
223.0
 21
104.0
 31
0.0
  0
LINE
  5
274
330
17
100
AcDbEntity
  8
ПТ_рамка_тонк
100
AcDbLine
 10
25.0
 20
104.0
 30
0.0
 11
25.0
 21
97.8
 31
0.0
  0
TEXT
  5
275
330
17
100
AcDbEntity
  8
ПТ_текст
100
AcDbText
 10
26.2
 20
100.9
 30
0.0
 40
2.5
  1
П
  7
ПТ
 11
26.2
 21
100.9
 31
0.0
100
AcDbText
 73
2
  0
LINE
  5
276
330
17
100
AcDbEntity
  8
ПТ_рамка_тонк
100
AcDbLine
 10
38.0
 20
104.0
 30
0.0
 11
38.0
 21
97.8
 31
0.0
  0
TEXT
  5
277
330
17
100
AcDbEntity
  8
ПТ_текст
100
AcDbText
 10
39.2
 20
100.9
 30
0.0
 40
2.5
  1
Приямок
  7
ПТ
 11
39.2
 21
100.9
 31
0.0
100
AcDbText
 73
2
  0
LINE
  5
278
330
17
100
AcDbEntity
  8
ПТ_рамка_тонк
100
AcDbLine
 10
102.0
 20
104.0
 30
0.0
 11
102.0
 21
97.8
 31
0.0
  0
TEXT
  5
279
330
17
100
AcDbEntity
  8
ПТ_текст
100
AcDbText
 10
103.2
 20
100.9
 30
0.0
 40
2.5
  1
1000х1000х800 (в свету)
  7
ПТ
 11
103.2
 21
100.9
 31
0.0
100
AcDbText
 73
2
  0
LINE
  5
27A
330
17
100
AcDbEntity
  8
ПТ_рамка_тонк
100
AcDbLine
 10
152.0
 20
104.0
 30
0.0
 11
152.0
 21
97.8
 31
0.0
  0
TEXT
  5
27B
330
17
100
AcDbEntity
  8
ПТ_текст
100
AcDbText
 10
153.2
 20
100.9
 30
0.0
 40
2.5
  1
дно -3,000
  7
ПТ
 11
153.2
 21
100.9
 31
0.0
100
AcDbText
 73
2
  0
LINE
  5
27C
330
17
100
AcDbEntity
  8
ПТ_рамка_тонк
100
AcDbLine
 10
176.0
 20
104.0
 30
0.0
 11
176.0
 21
97.8
 31
0.0
  0
TEXT
  5
27D
330
17
100
AcDbEntity
  8
ПТ_текст
100
AcDbText
 10
177.2
 20
100.9
 30
0.0
 40
2.5
  1
7100 / 500 (угол)
  7
ПТ
 11
177.2
 21
100.9
 31
0.0
100
AcDbText
 73
2
  0
LINE
  5
27E
330
17
100
AcDbEntity
  8
ПТ_рамка_тонк
100
AcDbLine
 10
223.0
 20
104.0
 30
0.0
 11
223.0
 21
97.8
 31
0.0
  0
LINE
  5
27F
330
17
100
AcDbEntity
  8
ПТ_рамка_тонк
100
AcDbLine
 10
25.0
 20
97.8
 30
0.0
 11
223.0
 21
97.8
 31
0.0
  0
LINE
  5
280
330
17
100
AcDbEntity
  8
ПТ_рамка_тонк
100
AcDbLine
 10
25.0
 20
97.8
 30
0.0
 11
25.0
 21
91.6
 31
0.0
  0
TEXT
  5
281
330
17
100
AcDbEntity
  8
ПТ_текст
100
AcDbText
 10
26.2
 20
94.7
 30
0.0
 40
2.5
  1
Ф1
  7
ПТ
 11
26.2
 21
94.7
 31
0.0
100
AcDbText
 73
2
  0
LINE
  5
282
330
17
100
AcDbEntity
  8
ПТ_рамка_тонк
100
AcDbLine
 10
38.0
 20
97.8
 30
0.0
 11
38.0
 21
91.6
 31
0.0
  0
TEXT
  5
283
330
17
100
AcDbEntity
  8
ПТ_текст
100
AcDbText
 10
39.2
 20
94.7
 30
0.0
 40
2.5
  1
Основание под насос Н1
  7
ПТ
 11
39.2
 21
94.7
 31
0.0
100
AcDbText
 73
2
  0
LINE
  5
284
330
17
100
AcDbEntity
  8
ПТ_рамка_тонк
100
AcDbLine
 10
102.0
 20
97.8
 30
0.0
 11
102.0
 21
91.6
 31
0.0
  0
TEXT
  5
285
330
17
100
AcDbEntity
  8
ПТ_текст
100
AcDbText
 10
103.2
 20
94.7
 30
0.0
 40
2.5
  1
800х660х150
  7
ПТ
 11
103.2
 21
94.7
 31
0.0
100
AcDbText
 73
2
  0
LINE
  5
286
330
17
100
AcDbEntity
  8
ПТ_рамка_тонк
100
AcDbLine
 10
152.0
 20
97.8
 30
0.0
 11
152.0
 21
91.6
 31
0.0
  0
TEXT
  5
287
330
17
100
AcDbEntity
  8
ПТ_текст
100
AcDbText
 10
153.2
 20
94.7
 30
0.0
 40
2.5
  1
верх -2,050
  7
ПТ
 11
153.2
 21
94.7
 31
0.0
100
AcDbText
 73
2
  0
LINE
  5
288
330
17
100
AcDbEntity
  8
ПТ_рамка_тонк
100
AcDbLine
 10
176.0
 20
97.8
 30
0.0
 11
176.0
 21
91.6
 31
0.0
  0
TEXT
  5
289
330
17
100
AcDbEntity
  8
ПТ_текст
100
AcDbText
 10
177.2
 20
94.7
 30
0.0
 40
2.5
  1
2200 / 3970 (угол)
  7
ПТ
 11
177.2
 21
94.7
 31
0.0
100
AcDbText
 73
2
  0
LINE
  5
28A
330
17
100
AcDbEntity
  8
ПТ_рамка_тонк
100
AcDbLine
 10
223.0
 20
97.8
 30
0.0
 11
223.0
 21
91.6
 31
0.0
  0
LINE
  5
28B
330
17
100
AcDbEntity
  8
ПТ_рамка_тонк
100
AcDbLine
 10
25.0
 20
91.6
 30
0.0
 11
223.0
 21
91.6
 31
0.0
  0
LINE
  5
28C
330
17
100
AcDbEntity
  8
ПТ_рамка_тонк
100
AcDbLine
 10
25.0
 20
91.6
 30
0.0
 11
25.0
 21
85.39999999999999
 31
0.0
  0
TEXT
  5
28D
330
17
100
AcDbEntity
  8
ПТ_текст
100
AcDbText
 10
26.2
 20
88.5
 30
0.0
 40
2.5
  1
Ф2
  7
ПТ
 11
26.2
 21
88.5
 31
0.0
100
AcDbText
 73
2
  0
LINE
  5
28E
330
17
100
AcDbEntity
  8
ПТ_рамка_тонк
100
AcDbLine
 10
38.0
 20
91.6
 30
0.0
 11
38.0
 21
85.39999999999999
 31
0.0
  0
TEXT
  5
28F
330
17
100
AcDbEntity
  8
ПТ_текст
100
AcDbText
 10
39.2
 20
88.5
 30
0.0
 40
2.5
  1
Основание под насос Н2
  7
ПТ
 11
39.2
 21
88.5
 31
0.0
100
AcDbText
 73
2
  0
LINE
  5
290
330
17
100
AcDbEntity
  8
ПТ_рамка_тонк
100
AcDbLine
 10
102.0
 20
91.6
 30
0.0
 11
102.0
 21
85.39999999999999
 31
0.0
  0
TEXT
  5
291
330
17
100
AcDbEntity
  8
ПТ_текст
100
AcDbText
 10
103.2
 20
88.5
 30
0.0
 40
2.5
  1
800х660х150
  7
ПТ
 11
103.2
 21
88.5
 31
0.0
100
AcDbText
 73
2
  0
LINE
  5
292
330
17
100
AcDbEntity
  8
ПТ_рамка_тонк
100
AcDbLine
 10
152.0
 20
91.6
 30
0.0
 11
152.0
 21
85.39999999999999
 31
0.0
  0
TEXT
  5
293
330
17
100
AcDbEntity
  8
ПТ_текст
100
AcDbText
 10
153.2
 20
88.5
 30
0.0
 40
2.5
  1
верх -2,050
  7
ПТ
 11
153.2
 21
88.5
 31
0.0
100
AcDbText
 73
2
  0
LINE
  5
294
330
17
100
AcDbEntity
  8
ПТ_рамка_тонк
100
AcDbLine
 10
176.0
 20
91.6
 30
0.0
 11
176.0
 21
85.39999999999999
 31
0.0
  0
TEXT
  5
295
330
17
100
AcDbEntity
  8
ПТ_текст
100
AcDbText
 10
177.2
 20
88.5
 30
0.0
 40
2.5
  1
2200 / 2670 (угол)
  7
ПТ
 11
177.2
 21
88.5
 31
0.0
100
AcDbText
 73
2
  0
LINE
  5
296
330
17
100
AcDbEntity
  8
ПТ_рамка_тонк
100
AcDbLine
 10
223.0
 20
91.6
 30
0.0
 11
223.0
 21
85.39999999999999
 31
0.0
  0
LINE
  5
297
330
17
100
AcDbEntity
  8
ПТ_рамка_тонк
100
AcDbLine
 10
25.0
 20
85.39999999999999
 30
0.0
 11
223.0
 21
85.39999999999999
 31
0.0
  0
LINE
  5
298
330
17
100
AcDbEntity
  8
ПТ_рамка_тонк
100
AcDbLine
 10
25.0
 20
85.39999999999999
 30
0.0
 11
25.0
 21
79.19999999999999
 31
0.0
  0
TEXT
  5
299
330
17
100
AcDbEntity
  8
ПТ_текст
100
AcDbText
 10
26.2
 20
82.3
 30
0.0
 40
2.5
  1
Г1, Г2
  7
ПТ
 11
26.2
 21
82.3
 31
0.0
100
AcDbText
 73
2
  0
LINE
  5
29A
330
17
100
AcDbEntity
  8
ПТ_рамка_тонк
100
AcDbLine
 10
38.0
 20
85.39999999999999
 30
0.0
 11
38.0
 21
79.19999999999999
 31
0.0
  0
TEXT
  5
29B
330
17
100
AcDbEntity
  8
ПТ_текст
100
AcDbText
 10
39.2
 20
82.3
 30
0.0
 40
2.5
  1
Гильзы вводов в стене по оси 1
  7
ПТ
 11
39.2
 21
82.3
 31
0.0
100
AcDbText
 73
2
  0
LINE
  5
29C
330
17
100
AcDbEntity
  8
ПТ_рамка_тонк
100
AcDbLine
 10
102.0
 20
85.39999999999999
 30
0.0
 11
102.0
 21
79.19999999999999
 31
0.0
  0
TEXT
  5
29D
330
17
100
AcDbEntity
  8
ПТ_текст
100
AcDbText
 10
103.2
 20
82.3
 30
0.0
 40
2.5
  1
труба 219х6, L=500
  7
ПТ
 11
103.2
 21
82.3
 31
0.0
100
AcDbText
 73
2
  0
LINE
  5
29E
330
17
100
AcDbEntity
  8
ПТ_рамка_тонк
100
AcDbLine
 10
152.0
 20
85.39999999999999
 30
0.0
 11
152.0
 21
79.19999999999999
 31
0.0
  0
TEXT
  5
29F
330
17
100
AcDbEntity
  8
ПТ_текст
100
AcDbText
 10
153.2
 20
82.3
 30
0.0
 40
2.5
  1
ось -1,900
  7
ПТ
 11
153.2
 21
82.3
 31
0.0
100
AcDbText
 73
2
  0
LINE
  5
2A0
330
17
100
AcDbEntity
  8
ПТ_рамка_тонк
100
AcDbLine
 10
176.0
 20
85.39999999999999
 30
0.0
 11
176.0
 21
79.19999999999999
 31
0.0
  0
TEXT
  5
2A1
330
17
100
AcDbEntity
  8
ПТ_текст
100
AcDbText
 10
177.2
 20
82.3
 30
0.0
 40
2.5
  1
ось 1 / 5200 и 4400
  7
ПТ
 11
177.2
 21
82.3
 31
0.0
100
AcDbText
 73
2
  0
LINE
  5
2A2
330
17
100
AcDbEntity
  8
ПТ_рамка_тонк
100
AcDbLine
 10
223.0
 20
85.39999999999999
 30
0.0
 11
223.0
 21
79.19999999999999
 31
0.0
  0
LINE
  5
2A3
330
17
100
AcDbEntity
  8
ПТ_рамка_тонк
100
AcDbLine
 10
25.0
 20
79.19999999999999
 30
0.0
 11
223.0
 21
79.19999999999999
 31
0.0
  0
LINE
  5
2A4
330
17
100
AcDbEntity
  8
ПТ_рамка_тонк
100
AcDbLine
 10
25.0
 20
79.19999999999999
 30
0.0
 11
25.0
 21
72.99999999999999
 31
0.0
  0
TEXT
  5
2A5
330
17
100
AcDbEntity
  8
ПТ_текст
100
AcDbText
 10
26.2
 20
76.1
 30
0.0
 40
2.5
  1
О1
  7
ПТ
 11
26.2
 21
76.1
 31
0.0
100
AcDbText
 73
2
  0
LINE
  5
2A6
330
17
100
AcDbEntity
  8
ПТ_рамка_тонк
100
AcDbLine
 10
38.0
 20
79.19999999999999
 30
0.0
 11
38.0
 21
72.99999999999999
 31
0.0
  0
TEXT
  5
2A7
330
17
100
AcDbEntity
  8
ПТ_текст
100
AcDbText
 10
39.2
 20
76.1
 30
0.0
 40
2.5
  1
Отверстие: стояк Ст.В21-1 Ду150
  7
ПТ
 11
39.2
 21
76.1
 31
0.0
100
AcDbText
 73
2
  0
LINE
  5
2A8
330
17
100
AcDbEntity
  8
ПТ_рамка_тонк
100
AcDbLine
 10
102.0
 20
79.19999999999999
 30
0.0
 11
102.0
 21
72.99999999999999
 31
0.0
  0
TEXT
  5
2A9
330
17
100
AcDbEntity
  8
ПТ_текст
100
AcDbText
 10
103.2
 20
76.1
 30
0.0
 40
2.5
  1
под гильзу 219х6
  7
ПТ
 11
103.2
 21
76.1
 31
0.0
100
AcDbText
 73
2
  0
LINE
  5
2AA
330
17
100
AcDbEntity
  8
ПТ_рамка_тонк
100
AcDbLine
 10
152.0
 20
79.19999999999999
 30
0.0
 11
152.0
 21
72.99999999999999
 31
0.0
  0
TEXT
  5
2AB
330
17
100
AcDbEntity
  8
ПТ_текст
100
AcDbText
 10
153.2
 20
76.1
 30
0.0
 40
2.5
  1
перекрытие
  7
ПТ
 11
153.2
 21
76.1
 31
0.0
100
AcDbText
 73
2
  0
LINE
  5
2AC
330
17
100
AcDbEntity
  8
ПТ_рамка_тонк
100
AcDbLine
 10
176.0
 20
79.19999999999999
 30
0.0
 11
176.0
 21
72.99999999999999
 31
0.0
  0
TEXT
  5
2AD
330
17
100
AcDbEntity
  8
ПТ_текст
100
AcDbText
 10
177.2
 20
76.1
 30
0.0
 40
2.5
  1
2000 / 1000 (ось)
  7
ПТ
 11
177.2
 21
76.1
 31
0.0
100
AcDbText
 73
2
  0
LINE
  5
2AE
330
17
100
AcDbEntity
  8
ПТ_рамка_тонк
100
AcDbLine
 10
223.0
 20
79.19999999999999
 30
0.0
 11
223.0
 21
72.99999999999999
 31
0.0
  0
LINE
  5
2AF
330
17
100
AcDbEntity
  8
ПТ_рамка_тонк
100
AcDbLine
 10
25.0
 20
72.99999999999999
 30
0.0
 11
223.0
 21
72.99999999999999
 31
0.0
  0
LINE
  5
2B0
330
17
100
AcDbEntity
  8
ПТ_рамка_тонк
100
AcDbLine
 10
25.0
 20
72.99999999999999
 30
0.0
 11
25.0
 21
66.79999999999998
 31
0.0
  0
TEXT
  5
2B1
330
17
100
AcDbEntity
  8
ПТ_текст
100
AcDbText
 10
26.2
 20
69.89999999999999
 30
0.0
 40
2.5
  1
О2
  7
ПТ
 11
26.2
 21
69.89999999999999
 31
0.0
100
AcDbText
 73
2
  0
LINE
  5
2B2
330
17
100
AcDbEntity
  8
ПТ_рамка_тонк
100
AcDbLine
 10
38.0
 20
72.99999999999999
 30
0.0
 11
38.0
 21
66.79999999999998
 31
0.0
  0
TEXT
  5
2B3
330
17
100
AcDbEntity
  8
ПТ_текст
100
AcDbText
 10
39.2
 20
69.89999999999999
 30
0.0
 40
2.5
  1
Отверстие: стояк Ст.В22-1 Ду150
  7
ПТ
 11
39.2
 21
69.89999999999999
 31
0.0
100
AcDbText
 73
2
  0
LINE
  5
2B4
330
17
100
AcDbEntity
  8
ПТ_рамка_тонк
100
AcDbLine
 10
102.0
 20
72.99999999999999
 30
0.0
 11
102.0
 21
66.79999999999998
 31
0.0
  0
TEXT
  5
2B5
330
17
100
AcDbEntity
  8
ПТ_текст
100
AcDbText
 10
103.2
 20
69.89999999999999
 30
0.0
 40
2.5
  1
под гильзу 219х6
  7
ПТ
 11
103.2
 21
69.89999999999999
 31
0.0
100
AcDbText
 73
2
  0
LINE
  5
2B6
330
17
100
AcDbEntity
  8
ПТ_рамка_тонк
100
AcDbLine
 10
152.0
 20
72.99999999999999
 30
0.0
 11
152.0
 21
66.79999999999998
 31
0.0
  0
TEXT
  5
2B7
330
17
100
AcDbEntity
  8
ПТ_текст
100
AcDbText
 10
153.2
 20
69.89999999999999
 30
0.0
 40
2.5
  1
перекрытие
  7
ПТ
 11
153.2
 21
69.89999999999999
 31
0.0
100
AcDbText
 73
2
  0
LINE
  5
2B8
330
17
100
AcDbEntity
  8
ПТ_рамка_тонк
100
AcDbLine
 10
176.0
 20
72.99999999999999
 30
0.0
 11
176.0
 21
66.79999999999998
 31
0.0
  0
TEXT
  5
2B9
330
17
100
AcDbEntity
  8
ПТ_текст
100
AcDbText
 10
177.2
 20
69.89999999999999
 30
0.0
 40
2.5
  1
3200 / 1000 (ось)
  7
ПТ
 11
177.2
 21
69.89999999999999
 31
0.0
100
AcDbText
 73
2
  0
LINE
  5
2BA
330
17
100
AcDbEntity
  8
ПТ_рамка_тонк
100
AcDbLine
 10
223.0
 20
72.99999999999999
 30
0.0
 11
223.0
 21
66.79999999999998
 31
0.0
  0
LINE
  5
2BB
330
17
100
AcDbEntity
  8
ПТ_рамка_тонк
100
AcDbLine
 10
25.0
 20
66.79999999999998
 30
0.0
 11
223.0
 21
66.79999999999998
 31
0.0
  0
LINE
  5
2BC
330
17
100
AcDbEntity
  8
ПТ_рамка_тонк
100
AcDbLine
 10
25.0
 20
66.79999999999998
 30
0.0
 11
25.0
 21
60.59999999999998
 31
0.0
  0
TEXT
  5
2BD
330
17
100
AcDbEntity
  8
ПТ_текст
100
AcDbText
 10
26.2
 20
63.69999999999998
 30
0.0
 40
2.5
  1
О3
  7
ПТ
 11
26.2
 21
63.69999999999998
 31
0.0
100
AcDbText
 73
2
  0
LINE
  5
2BE
330
17
100
AcDbEntity
  8
ПТ_рамка_тонк
100
AcDbLine
 10
38.0
 20
66.79999999999998
 30
0.0
 11
38.0
 21
60.59999999999998
 31
0.0
  0
TEXT
  5
2BF
330
17
100
AcDbEntity
  8
ПТ_текст
100
AcDbText
 10
39.2
 20
63.69999999999998
 30
0.0
 40
2.5
  1
Отверстие: перемычка В2 Ду100
  7
ПТ
 11
39.2
 21
63.69999999999998
 31
0.0
100
AcDbText
 73
2
  0
LINE
  5
2C0
330
17
100
AcDbEntity
  8
ПТ_рамка_тонк
100
AcDbLine
 10
102.0
 20
66.79999999999998
 30
0.0
 11
102.0
 21
60.59999999999998
 31
0.0
  0
TEXT
  5
2C1
330
17
100
AcDbEntity
  8
ПТ_текст
100
AcDbText
 10
103.2
 20
63.69999999999998
 30
0.0
 40
2.5
  1
под гильзу 159х4,5
  7
ПТ
 11
103.2
 21
63.69999999999998
 31
0.0
100
AcDbText
 73
2
  0
LINE
  5
2C2
330
17
100
AcDbEntity
  8
ПТ_рамка_тонк
100
AcDbLine
 10
152.0
 20
66.79999999999998
 30
0.0
 11
152.0
 21
60.59999999999998
 31
0.0
  0
TEXT
  5
2C3
330
17
100
AcDbEntity
  8
ПТ_текст
100
AcDbText
 10
153.2
 20
63.69999999999998
 30
0.0
 40
2.5
  1
перекрытие
  7
ПТ
 11
153.2
 21
63.69999999999998
 31
0.0
100
AcDbText
 73
2
  0
LINE
  5
2C4
330
17
100
AcDbEntity
  8
ПТ_рамка_тонк
100
AcDbLine
 10
176.0
 20
66.79999999999998
 30
0.0
 11
176.0
 21
60.59999999999998
 31
0.0
  0
TEXT
  5
2C5
330
17
100
AcDbEntity
  8
ПТ_текст
100
AcDbText
 10
177.2
 20
63.69999999999998
 30
0.0
 40
2.5
  1
3700 / 750 (ось)
  7
ПТ
 11
177.2
 21
63.69999999999998
 31
0.0
100
AcDbText
 73
2
  0
LINE
  5
2C6
330
17
100
AcDbEntity
  8
ПТ_рамка_тонк
100
AcDbLine
 10
223.0
 20
66.79999999999998
 30
0.0
 11
223.0
 21
60.59999999999998
 31
0.0
  0
LINE
  5
2C7
330
17
100
AcDbEntity
  8
ПТ_рамка_тонк
100
AcDbLine
 10
25.0
 20
60.59999999999998
 30
0.0
 11
223.0
 21
60.59999999999998
 31
0.0
  0
LINE
  5
2C8
330
17
100
AcDbEntity
  8
ПТ_рамка_тонк
100
AcDbLine
 10
25.0
 20
60.59999999999998
 30
0.0
 11
25.0
 21
54.39999999999998
 31
0.0
  0
TEXT
  5
2C9
330
17
100
AcDbEntity
  8
ПТ_текст
100
AcDbText
 10
26.2
 20
57.49999999999998
 30
0.0
 40
2.5
  1
О4
  7
ПТ
 11
26.2
 21
57.49999999999998
 31
0.0
100
AcDbText
 73
2
  0
LINE
  5
2CA
330
17
100
AcDbEntity
  8
ПТ_рамка_тонк
100
AcDbLine
 10
38.0
 20
60.59999999999998
 30
0.0
 11
38.0
 21
54.39999999999998
 31
0.0
  0
TEXT
  5
2CB
330
17
100
AcDbEntity
  8
ПТ_текст
100
AcDbText
 10
39.2
 20
57.49999999999998
 30
0.0
 40
2.5
  1
Отверстие: линия к ГМ-80 Ду100
  7
ПТ
 11
39.2
 21
57.49999999999998
 31
0.0
100
AcDbText
 73
2
  0
LINE
  5
2CC
330
17
100
AcDbEntity
  8
ПТ_рамка_тонк
100
AcDbLine
 10
102.0
 20
60.59999999999998
 30
0.0
 11
102.0
 21
54.39999999999998
 31
0.0
  0
TEXT
  5
2CD
330
17
100
AcDbEntity
  8
ПТ_текст
100
AcDbText
 10
103.2
 20
57.49999999999998
 30
0.0
 40
2.5
  1
под гильзу 159х4,5
  7
ПТ
 11
103.2
 21
57.49999999999998
 31
0.0
100
AcDbText
 73
2
  0
LINE
  5
2CE
330
17
100
AcDbEntity
  8
ПТ_рамка_тонк
100
AcDbLine
 10
152.0
 20
60.59999999999998
 30
0.0
 11
152.0
 21
54.39999999999998
 31
0.0
  0
TEXT
  5
2CF
330
17
100
AcDbEntity
  8
ПТ_текст
100
AcDbText
 10
153.2
 20
57.49999999999998
 30
0.0
 40
2.5
  1
перекрытие
  7
ПТ
 11
153.2
 21
57.49999999999998
 31
0.0
100
AcDbText
 73
2
  0
LINE
  5
2D0
330
17
100
AcDbEntity
  8
ПТ_рамка_тонк
100
AcDbLine
 10
176.0
 20
60.59999999999998
 30
0.0
 11
176.0
 21
54.39999999999998
 31
0.0
  0
TEXT
  5
2D1
330
17
100
AcDbEntity
  8
ПТ_текст
100
AcDbText
 10
177.2
 20
57.49999999999998
 30
0.0
 40
2.5
  1
600 / 5450 (ось)
  7
ПТ
 11
177.2
 21
57.49999999999998
 31
0.0
100
AcDbText
 73
2
  0
LINE
  5
2D2
330
17
100
AcDbEntity
  8
ПТ_рамка_тонк
100
AcDbLine
 10
223.0
 20
60.59999999999998
 30
0.0
 11
223.0
 21
54.39999999999998
 31
0.0
  0
LINE
  5
2D3
330
17
100
AcDbEntity
  8
ПТ_рамка_тонк
100
AcDbLine
 10
25.0
 20
54.39999999999998
 30
0.0
 11
223.0
 21
54.39999999999998
 31
0.0
  0
TEXT
  5
2D4
330
17
100
AcDbEntity
  8
ПТ_текст
100
AcDbText
 10
25.0
 20
44.0
 30
0.0
 40
2.5
  1
Задание принял
  7
ПТ_загл
 11
25.0
 21
44.0
 31
0.0
100
AcDbText
 73
1
  0
LWPOLYLINE
  5
2D5
330
17
100
AcDbEntity
  8
ПТ_рамка_тонк
370
35
100
AcDbPolyline
 90
4
 70
1
 10
25.0
 20
35.0
 10
215.0
 20
35.0
 10
215.0
 20
41.0
 10
25.0
 20
41.0
  0
LINE
  5
2D6
330
17
100
AcDbEntity
  8
ПТ_рамка_тонк
370
35
100
AcDbLine
 10
25.0
 20
41.0
 30
0.0
 11
25.0
 21
35.0
 31
0.0
  0
MTEXT
  5
2D7
330
17
100
AcDbEntity
  8
ПТ_текст
100
AcDbMText
 10
37.5
 20
38.0
 30
0.0
 40
1.9800000000000002
 41
23.5
 71
5
  1
Раздел
  7
ПТ
  0
LINE
  5
2D8
330
17
100
AcDbEntity
  8
ПТ_рамка_тонк
370
35
100
AcDbLine
 10
50.0
 20
41.0
 30
0.0
 11
50.0
 21
35.0
 31
0.0
  0
MTEXT
  5
2D9
330
17
100
AcDbEntity
  8
ПТ_текст
100
AcDbMText
 10
72.5
 20
38.0
 30
0.0
 40
1.9800000000000002
 41
43.5
 71
5
  1
Должность
  7
ПТ
  0
LINE
  5
2DA
330
17
100
AcDbEntity
  8
ПТ_рамка_тонк
370
35
100
AcDbLine
 10
95.0
 20
41.0
 30
0.0
 11
95.0
 21
35.0
 31
0.0
  0
MTEXT
  5
2DB
330
17
100
AcDbEntity
  8
ПТ_текст
100
AcDbMText
 10
122.5
 20
38.0
 30
0.0
 40
1.9800000000000002
 41
53.5
 71
5
  1
Фамилия
  7
ПТ
  0
LINE
  5
2DC
330
17
100
AcDbEntity
  8
ПТ_рамка_тонк
370
35
100
AcDbLine
 10
150.0
 20
41.0
 30
0.0
 11
150.0
 21
35.0
 31
0.0
  0
MTEXT
  5
2DD
330
17
100
AcDbEntity
  8
ПТ_текст
100
AcDbMText
 10
167.5
 20
38.0
 30
0.0
 40
1.9800000000000002
 41
33.5
 71
5
  1
Подпись
  7
ПТ
  0
LINE
  5
2DE
330
17
100
AcDbEntity
  8
ПТ_рамка_тонк
370
35
100
AcDbLine
 10
185.0
 20
41.0
 30
0.0
 11
185.0
 21
35.0
 31
0.0
  0
MTEXT
  5
2DF
330
17
100
AcDbEntity
  8
ПТ_текст
100
AcDbMText
 10
200.0
 20
38.0
 30
0.0
 40
1.9800000000000002
 41
28.5
 71
5
  1
Дата
  7
ПТ
  0
LINE
  5
2E0
330
17
100
AcDbEntity
  8
ПТ_рамка_тонк
370
35
100
AcDbLine
 10
215.0
 20
41.0
 30
0.0
 11
215.0
 21
35.0
 31
0.0
  0
LINE
  5
2E1
330
17
100
AcDbEntity
  8
ПТ_рамка_тонк
100
AcDbLine
 10
25.0
 20
35.0
 30
0.0
 11
25.0
 21
26.0
 31
0.0
  0
TEXT
  5
2E2
330
17
100
AcDbEntity
  8
ПТ_текст
100
AcDbText
 10
26.2
 20
30.5
 30
0.0
 40
2.5
  1
КР
  7
ПТ
 11
26.2
 21
30.5
 31
0.0
100
AcDbText
 73
2
  0
LINE
  5
2E3
330
17
100
AcDbEntity
  8
ПТ_рамка_тонк
100
AcDbLine
 10
50.0
 20
35.0
 30
0.0
 11
50.0
 21
26.0
 31
0.0
  0
LINE
  5
2E4
330
17
100
AcDbEntity
  8
ПТ_рамка_тонк
100
AcDbLine
 10
95.0
 20
35.0
 30
0.0
 11
95.0
 21
26.0
 31
0.0
  0
LINE
  5
2E5
330
17
100
AcDbEntity
  8
ПТ_рамка_тонк
100
AcDbLine
 10
150.0
 20
35.0
 30
0.0
 11
150.0
 21
26.0
 31
0.0
  0
LINE
  5
2E6
330
17
100
AcDbEntity
  8
ПТ_рамка_тонк
100
AcDbLine
 10
185.0
 20
35.0
 30
0.0
 11
185.0
 21
26.0
 31
0.0
  0
LINE
  5
2E7
330
17
100
AcDbEntity
  8
ПТ_рамка_тонк
100
AcDbLine
 10
215.0
 20
35.0
 30
0.0
 11
215.0
 21
26.0
 31
0.0
  0
LINE
  5
2E8
330
17
100
AcDbEntity
  8
ПТ_рамка_тонк
100
AcDbLine
 10
25.0
 20
26.0
 30
0.0
 11
215.0
 21
26.0
 31
0.0
  0
MTEXT
  5
2E9
330
17
100
AcDbEntity
  8
ПТ_текст
100
AcDbMText
 10
252.0
 20
186.0
 30
0.0
 40
2.5
 41
160.0
 71
1
  3
Требования к выполнению \P1. Приямок - монолитный железобетонный, водонепроницаемый; толщины, армирование и гидроизоляцию определяет раздел КР. По периметру - закладная рамка из уголка 50х5 под съёмную решётку 1000х1000 (решётка - по спецификации ПТ,
  3
 поз. 28), верх рамки - в уровне чистого пола. В приямке устанавливаются два погружных насоса массой по 16 кг. \P2. Пол насосной - с уклоном 0,01 к приямку. \P3. Основания Ф1, Ф2 - бетонные, размеры уточняются по паспорту поставленного насоса. Нагруз
  3
ка на основание - до 3,0 кН (насос с водой и арматурой), анкерные болты - по паспорту насоса. \P4. Гильзы Г1, Г2 закладываются в стену подвала по оси 1 при бетонировании; проход вводов - герметичный (узел 1, лист 11). \P5. Отверстия О1-О4 - в перекры
  3
тии над подвалом (пом. 05 1 этажа), под стальные гильзы, закладываемые при бетонировании (узел 3, лист 11). Балки 20К2 не ослаблять. \P6. Погонная нагрузка от трубопроводов обвязки на перекрытие подвала - до 0,7 кН/м (Ду200 с водой), крепление - по у
  1
злу 4. \P7. Привязки - от осей здания; размеры - в мм, отметки - в м.
  7
ПТ
  0
LWPOLYLINE
  5
2EA
330
17
100
AcDbEntity
  8
ПТ_рамка_тонк
370
13
100
AcDbPolyline
 90
4
 70
1
 10
500.0
 20
0.0
 10
920.0
 20
0.0
 10
920.0
 20
297.0
 10
500.0
 20
297.0
  0
LWPOLYLINE
  5
2EB
330
17
100
AcDbEntity
  8
ПТ_рамка
370
70
100
AcDbPolyline
 90
4
 70
1
 10
520.0
 20
5.0
 10
915.0
 20
5.0
 10
915.0
 20
292.0
 10
520.0
 20
292.0
  0
LWPOLYLINE
  5
2EC
330
17
100
AcDbEntity
  8
ПТ_рамка
370
70
100
AcDbPolyline
 90
4
 70
1
 10
730.0
 20
5.0
 10
915.0
 20
5.0
 10
915.0
 20
60.0
 10
730.0
 20
60.0
  0
LINE
  5
2ED
330
17
100
AcDbEntity
  8
ПТ_рамка
370
18
100
AcDbLine
 10
730.0
 20
10.0
 30
0.0
 11
795.0
 21
10.0
 31
0.0
  0
LINE
  5
2EE
330
17
100
AcDbEntity
  8
ПТ_рамка
370
18
100
AcDbLine
 10
730.0
 20
15.0
 30
0.0
 11
795.0
 21
15.0
 31
0.0
  0
LINE
  5
2EF
330
17
100
AcDbEntity
  8
ПТ_рамка
370
18
100
AcDbLine
 10
730.0
 20
20.0
 30
0.0
 11
795.0
 21
20.0
 31
0.0
  0
LINE
  5
2F0
330
17
100
AcDbEntity
  8
ПТ_рамка
370
18
100
AcDbLine
 10
730.0
 20
25.0
 30
0.0
 11
795.0
 21
25.0
 31
0.0
  0
LINE
  5
2F1
330
17
100
AcDbEntity
  8
ПТ_рамка
370
50
100
AcDbLine
 10
730.0
 20
30.0
 30
0.0
 11
795.0
 21
30.0
 31
0.0
  0
LINE
  5
2F2
330
17
100
AcDbEntity
  8
ПТ_рамка
370
50
100
AcDbLine
 10
730.0
 20
35.0
 30
0.0
 11
795.0
 21
35.0
 31
0.0
  0
LINE
  5
2F3
330
17
100
AcDbEntity
  8
ПТ_рамка
370
18
100
AcDbLine
 10
730.0
 20
40.0
 30
0.0
 11
795.0
 21
40.0
 31
0.0
  0
LINE
  5
2F4
330
17
100
AcDbEntity
  8
ПТ_рамка
370
18
100
AcDbLine
 10
730.0
 20
45.0
 30
0.0
 11
795.0
 21
45.0
 31
0.0
  0
LINE
  5
2F5
330
17
100
AcDbEntity
  8
ПТ_рамка
370
18
100
AcDbLine
 10
730.0
 20
50.0
 30
0.0
 11
795.0
 21
50.0
 31
0.0
  0
LINE
  5
2F6
330
17
100
AcDbEntity
  8
ПТ_рамка
370
18
100
AcDbLine
 10
730.0
 20
55.0
 30
0.0
 11
795.0
 21
55.0
 31
0.0
  0
LINE
  5
2F7
330
17
100
AcDbEntity
  8
ПТ_рамка
370
50
100
AcDbLine
 10
740.0
 20
30.0
 30
0.0
 11
740.0
 21
60.0
 31
0.0
  0
LINE
  5
2F8
330
17
100
AcDbEntity
  8
ПТ_рамка
370
50
100
AcDbLine
 10
750.0
 20
30.0
 30
0.0
 11
750.0
 21
60.0
 31
0.0
  0
LINE
  5
2F9
330
17
100
AcDbEntity
  8
ПТ_рамка
370
50
100
AcDbLine
 10
760.0
 20
30.0
 30
0.0
 11
760.0
 21
60.0
 31
0.0
  0
LINE
  5
2FA
330
17
100
AcDbEntity
  8
ПТ_рамка
370
50
100
AcDbLine
 10
770.0
 20
30.0
 30
0.0
 11
770.0
 21
60.0
 31
0.0
  0
LINE
  5
2FB
330
17
100
AcDbEntity
  8
ПТ_рамка
370
50
100
AcDbLine
 10
785.0
 20
30.0
 30
0.0
 11
785.0
 21
60.0
 31
0.0
  0
LINE
  5
2FC
330
17
100
AcDbEntity
  8
ПТ_рамка
370
50
100
AcDbLine
 10
750.0
 20
5.0
 30
0.0
 11
750.0
 21
30.0
 31
0.0
  0
LINE
  5
2FD
330
17
100
AcDbEntity
  8
ПТ_рамка
370
50
100
AcDbLine
 10
770.0
 20
5.0
 30
0.0
 11
770.0
 21
30.0
 31
0.0
  0
LINE
  5
2FE
330
17
100
AcDbEntity
  8
ПТ_рамка
370
50
100
AcDbLine
 10
785.0
 20
5.0
 30
0.0
 11
785.0
 21
30.0
 31
0.0
  0
LINE
  5
2FF
330
17
100
AcDbEntity
  8
ПТ_рамка
370
70
100
AcDbLine
 10
795.0
 20
5.0
 30
0.0
 11
795.0
 21
60.0
 31
0.0
  0
TEXT
  5
300
330
17
100
AcDbEntity
  8
ПТ_текст
100
AcDbText
 10
735.0
 20
32.5
 30
0.0
 40
1.8
  1
Изм.
  7
ПТ
 72
1
 11
735.0
 21
32.5
 31
0.0
100
AcDbText
 73
2
  0
TEXT
  5
301
330
17
100
AcDbEntity
  8
ПТ_текст
100
AcDbText
 10
745.0
 20
32.5
 30
0.0
 40
1.8
  1
Кол.уч
  7
ПТ
 72
1
 11
745.0
 21
32.5
 31
0.0
100
AcDbText
 73
2
  0
TEXT
  5
302
330
17
100
AcDbEntity
  8
ПТ_текст
100
AcDbText
 10
755.0
 20
32.5
 30
0.0
 40
1.8
  1
Лист
  7
ПТ
 72
1
 11
755.0
 21
32.5
 31
0.0
100
AcDbText
 73
2
  0
TEXT
  5
303
330
17
100
AcDbEntity
  8
ПТ_текст
100
AcDbText
 10
765.0
 20
32.5
 30
0.0
 40
1.8
  1
№ док.
  7
ПТ
 72
1
 11
765.0
 21
32.5
 31
0.0
100
AcDbText
 73
2
  0
TEXT
  5
304
330
17
100
AcDbEntity
  8
ПТ_текст
100
AcDbText
 10
777.5
 20
32.5
 30
0.0
 40
1.8
  1
Подп.
  7
ПТ
 72
1
 11
777.5
 21
32.5
 31
0.0
100
AcDbText
 73
2
  0
TEXT
  5
305
330
17
100
AcDbEntity
  8
ПТ_текст
100
AcDbText
 10
790.0
 20
32.5
 30
0.0
 40
1.8
  1
Дата
  7
ПТ
 72
1
 11
790.0
 21
32.5
 31
0.0
100
AcDbText
 73
2
  0
TEXT
  5
306
330
17
100
AcDbEntity
  8
ПТ_текст
100
AcDbText
 10
731.0
 20
27.5
 30
0.0
 40
1.8
  1
Разраб.
  7
ПТ
 11
731.0
 21
27.5
 31
0.0
100
AcDbText
 73
2
  0
TEXT
  5
307
330
17
100
AcDbEntity
  8
ПТ_текст
100
AcDbText
 10
731.0
 20
22.5
 30
0.0
 40
1.8
  1
Пров.
  7
ПТ
 11
731.0
 21
22.5
 31
0.0
100
AcDbText
 73
2
  0
TEXT
  5
308
330
17
100
AcDbEntity
  8
ПТ_текст
100
AcDbText
 10
731.0
 20
17.5
 30
0.0
 40
1.8
  1

  7
ПТ
 11
731.0
 21
17.5
 31
0.0
100
AcDbText
 73
2
  0
TEXT
  5
309
330
17
100
AcDbEntity
  8
ПТ_текст
100
AcDbText
 10
731.0
 20
12.5
 30
0.0
 40
1.8
  1
Н.контр.
  7
ПТ
 11
731.0
 21
12.5
 31
0.0
100
AcDbText
 73
2
  0
TEXT
  5
30A
330
17
100
AcDbEntity
  8
ПТ_текст
100
AcDbText
 10
731.0
 20
7.5
 30
0.0
 40
1.8
  1
ГИП
  7
ПТ
 11
731.0
 21
7.5
 31
0.0
100
AcDbText
 73
2
  0
LINE
  5
30B
330
17
100
AcDbEntity
  8
ПТ_рамка
370
70
100
AcDbLine
 10
795.0
 20
45.0
 30
0.0
 11
915.0
 21
45.0
 31
0.0
  0
LINE
  5
30C
330
17
100
AcDbEntity
  8
ПТ_рамка
370
50
100
AcDbLine
 10
795.0
 20
35.0
 30
0.0
 11
915.0
 21
35.0
 31
0.0
  0
LINE
  5
30D
330
17
100
AcDbEntity
  8
ПТ_рамка
370
70
100
AcDbLine
 10
795.0
 20
20.0
 30
0.0
 11
915.0
 21
20.0
 31
0.0
  0
LINE
  5
30E
330
17
100
AcDbEntity
  8
ПТ_рамка
370
70
100
AcDbLine
 10
865.0
 20
5.0
 30
0.0
 11
865.0
 21
35.0
 31
0.0
  0
LINE
  5
30F
330
17
100
AcDbEntity
  8
ПТ_рамка
370
50
100
AcDbLine
 10
865.0
 20
30.0
 30
0.0
 11
915.0
 21
30.0
 31
0.0
  0
LINE
  5
310
330
17
100
AcDbEntity
  8
ПТ_рамка
370
50
100
AcDbLine
 10
880.0
 20
20.0
 30
0.0
 11
880.0
 21
35.0
 31
0.0
  0
LINE
  5
311
330
17
100
AcDbEntity
  8
ПТ_рамка
370
50
100
AcDbLine
 10
895.0
 20
20.0
 30
0.0
 11
895.0
 21
35.0
 31
0.0
  0
TEXT
  5
312
330
17
100
AcDbEntity
  8
ПТ_текст
100
AcDbText
 10
855.0
 20
52.5
 30
0.0
 40
5.0
  1
ОПР-01/24/2024-ДП1-ПТ.ЗД2
  7
ПТ_загл
 72
1
 11
855.0
 21
52.5
 31
0.0
100
AcDbText
 73
2
  0
MTEXT
  5
313
330
17
100
AcDbEntity
  8
ПТ_текст
100
AcDbMText
 10
855.0
 20
40.0
 30
0.0
 40
1.9
 41
116.0
 71
5
  1
«Современный коммерческий оптово-продовольственный рынок (ОПР) по адресу: Донецкая область, г. Макеевка, Горняцкий район»
  7
ПТ
  0
MTEXT
  5
314
330
17
100
AcDbEntity
  8
ПТ_текст
100
AcDbMText
 10
830.0
 20
27.5
 30
0.0
 40
2.5
 41
66.0
 71
5
  1
Док-павильон №23, №23.2 Рыба-Мясо. Пожаротушение (ВПВ, АУПТ, АУПП ВРУ)
  7
ПТ
  0
TEXT
  5
315
330
17
100
AcDbEntity
  8
ПТ_текст
100
AcDbText
 10
872.5
 20
32.5
 30
0.0
 40
1.8
  1
Стадия
  7
ПТ
 72
1
 11
872.5
 21
32.5
 31
0.0
100
AcDbText
 73
2
  0
TEXT
  5
316
330
17
100
AcDbEntity
  8
ПТ_текст
100
AcDbText
 10
887.5
 20
32.5
 30
0.0
 40
1.8
  1
Лист
  7
ПТ
 72
1
 11
887.5
 21
32.5
 31
0.0
100
AcDbText
 73
2
  0
TEXT
  5
317
330
17
100
AcDbEntity
  8
ПТ_текст
100
AcDbText
 10
905.0
 20
32.5
 30
0.0
 40
1.8
  1
Листов
  7
ПТ
 72
1
 11
905.0
 21
32.5
 31
0.0
100
AcDbText
 73
2
  0
TEXT
  5
318
330
17
100
AcDbEntity
  8
ПТ_текст
100
AcDbText
 10
872.5
 20
25.0
 30
0.0
 40
3.5
  1
Р
  7
ПТ
 72
1
 11
872.5
 21
25.0
 31
0.0
100
AcDbText
 73
2
  0
TEXT
  5
319
330
17
100
AcDbEntity
  8
ПТ_текст
100
AcDbText
 10
887.5
 20
25.0
 30
0.0
 40
3.5
  1
1
  7
ПТ
 72
1
 11
887.5
 21
25.0
 31
0.0
100
AcDbText
 73
2
  0
TEXT
  5
31A
330
17
100
AcDbEntity
  8
ПТ_текст
100
AcDbText
 10
905.0
 20
25.0
 30
0.0
 40
3.5
  1
1
  7
ПТ
 72
1
 11
905.0
 21
25.0
 31
0.0
100
AcDbText
 73
2
  0
MTEXT
  5
31B
330
17
100
AcDbEntity
  8
ПТ_текст
100
AcDbMText
 10
830.0
 20
12.5
 30
0.0
 40
2.5
 41
66.0
 71
5
  1
Задание разделу ВК. Отвод воды от дренажных насосов насосной станции
  7
ПТ
  0
TEXT
  5
31C
330
17
100
AcDbEntity
  8
ПТ_текст
100
AcDbText
 10
890.0
 20
12.5
 30
0.0
 40
3.5
  1
ООО «Технология»
  7
ПТ
 72
1
 11
890.0
 21
12.5
 31
0.0
100
AcDbText
 73
2
  0
LWPOLYLINE
  5
31D
330
17
100
AcDbEntity
  8
ПТ_рамка
370
50
100
AcDbPolyline
 90
4
 70
1
 10
508.0
 20
5.0
 10
520.0
 20
5.0
 10
520.0
 20
30.0
 10
508.0
 20
30.0
  0
LINE
  5
31E
330
17
100
AcDbEntity
  8
ПТ_рамка
370
50
100
AcDbLine
 10
513.0
 20
5.0
 30
0.0
 11
513.0
 21
30.0
 31
0.0
  0
TEXT
  5
31F
330
17
100
AcDbEntity
  8
ПТ_текст
100
AcDbText
 10
510.5
 20
17.5
 30
0.0
 40
1.8
  1
Инв. № подл.
 50
90.0
  7
ПТ
 72
1
 11
510.5
 21
17.5
 31
0.0
100
AcDbText
 73
2
  0
LWPOLYLINE
  5
320
330
17
100
AcDbEntity
  8
ПТ_рамка
370
50
100
AcDbPolyline
 90
4
 70
1
 10
508.0
 20
30.0
 10
520.0
 20
30.0
 10
520.0
 20
65.0
 10
508.0
 20
65.0
  0
LINE
  5
321
330
17
100
AcDbEntity
  8
ПТ_рамка
370
50
100
AcDbLine
 10
513.0
 20
30.0
 30
0.0
 11
513.0
 21
65.0
 31
0.0
  0
TEXT
  5
322
330
17
100
AcDbEntity
  8
ПТ_текст
100
AcDbText
 10
510.5
 20
47.5
 30
0.0
 40
1.8
  1
Подп. и дата
 50
90.0
  7
ПТ
 72
1
 11
510.5
 21
47.5
 31
0.0
100
AcDbText
 73
2
  0
LWPOLYLINE
  5
323
330
17
100
AcDbEntity
  8
ПТ_рамка
370
50
100
AcDbPolyline
 90
4
 70
1
 10
508.0
 20
65.0
 10
520.0
 20
65.0
 10
520.0
 20
90.0
 10
508.0
 20
90.0
  0
LINE
  5
324
330
17
100
AcDbEntity
  8
ПТ_рамка
370
50
100
AcDbLine
 10
513.0
 20
65.0
 30
0.0
 11
513.0
 21
90.0
 31
0.0
  0
TEXT
  5
325
330
17
100
AcDbEntity
  8
ПТ_текст
100
AcDbText
 10
510.5
 20
77.5
 30
0.0
 40
1.8
  1
Взам. инв. №
 50
90.0
  7
ПТ
 72
1
 11
510.5
 21
77.5
 31
0.0
100
AcDbText
 73
2
  0
TEXT
  5
326
330
17
100
AcDbEntity
  8
ПТ_текст
100
AcDbText
 10
875.0
 20
1.2
 30
0.0
 40
2.5
  1
Формат A3
  7
ПТ
 11
875.0
 21
1.2
 31
0.0
100
AcDbText
 73
1
  0
TEXT
  5
327
330
17
100
AcDbEntity
  8
ПТ_текст
100
AcDbText
 10
631.0
 20
284.0
 30
0.0
 40
3.5
  1
План насосной станции на отм. -2,200 (фрагмент)  М 1:50
  7
ПТ_загл
 72
1
 11
631.0
 21
284.0
 31
0.0
100
AcDbText
 73
1
  0
LINE
  5
328
330
17
100
AcDbEntity
  8
ПТ_контур
370
35
100
AcDbLine
 10
578.0625
 20
282.8
 30
0.0
 11
683.9375
 21
282.8
 31
0.0
  0
LWPOLYLINE
  5
329
330
17
100
AcDbEntity
  8
ПТ_контур
370
35
100
AcDbPolyline
 90
4
 70
1
 10
548.0
 20
144.0
 10
554.0
 20
144.0
 10
554.0
 20
276.0
 10
548.0
 20
276.0
  0
HATCH
  5
32A
330
17
100
AcDbEntity
  8
ПТ_штриховка
 62
8
100
AcDbHatch
 10
0.0
 20
0.0
 30
0.0
210
0.0
220
0.0
230
1.0
  2
ANSI31
 70
0
 71
0
 91
1
 92
3
 72
0
 73
1
 93
4
 10
548.0
 20
144.0
 10
554.0
 20
144.0
 10
554.0
 20
276.0
 10
548.0
 20
276.0
 97
0
 75
1
 76
1
 52
0.0
 41
0.3
 77
0
 78
1
 53
45.0
 43
0.0
 44
0.0
 45
-0.6735192091
 46
0.6735192091
 79
0
 98
0
  0
LWPOLYLINE
  5
32B
330
17
100
AcDbEntity
  8
ПТ_контур
370
35
100
AcDbPolyline
 90
4
 70
1
 10
554.0
 20
144.0
 10
728.4
 20
144.0
 10
728.4
 20
156.0
 10
554.0
 20
156.0
  0
HATCH
  5
32C
330
17
100
AcDbEntity
  8
ПТ_штриховка
 62
8
100
AcDbHatch
 10
0.0
 20
0.0
 30
0.0
210
0.0
220
0.0
230
1.0
  2
ANSI31
 70
0
 71
0
 91
1
 92
3
 72
0
 73
1
 93
4
 10
554.0
 20
144.0
 10
728.4
 20
144.0
 10
728.4
 20
156.0
 10
554.0
 20
156.0
 97
0
 75
1
 76
1
 52
0.0
 41
0.3
 77
0
 78
1
 53
45.0
 43
0.0
 44
0.0
 45
-0.6735192091
 46
0.6735192091
 79
0
 98
0
  0
LWPOLYLINE
  5
32D
330
17
100
AcDbEntity
  8
ПТ_контур
370
35
100
AcDbPolyline
 90
4
 70
1
 10
554.0
 20
264.0
 10
728.4
 20
264.0
 10
728.4
 20
276.0
 10
554.0
 20
276.0
  0
HATCH
  5
32E
330
17
100
AcDbEntity
  8
ПТ_штриховка
 62
8
100
AcDbHatch
 10
0.0
 20
0.0
 30
0.0
210
0.0
220
0.0
230
1.0
  2
ANSI31
 70
0
 71
0
 91
1
 92
3
 72
0
 73
1
 93
4
 10
554.0
 20
264.0
 10
728.4
 20
264.0
 10
728.4
 20
276.0
 10
554.0
 20
276.0
 97
0
 75
1
 76
1
 52
0.0
 41
0.3
 77
0
 78
1
 53
45.0
 43
0.0
 44
0.0
 45
-0.6735192091
 46
0.6735192091
 79
0
 98
0
  0
LWPOLYLINE
  5
32F
330
17
100
AcDbEntity
  8
ПТ_контур
370
35
100
AcDbPolyline
 90
4
 70
1
 10
714.0
 20
156.0
 10
716.4
 20
156.0
 10
716.4
 20
236.0
 10
714.0
 20
236.0
  0
HATCH
  5
330
330
17
100
AcDbEntity
  8
ПТ_штриховка
 62
8
100
AcDbHatch
 10
0.0
 20
0.0
 30
0.0
210
0.0
220
0.0
230
1.0
  2
ANSI37
 70
0
 71
0
 91
1
 92
3
 72
0
 73
1
 93
4
 10
714.0
 20
156.0
 10
716.4
 20
156.0
 10
716.4
 20
236.0
 10
714.0
 20
236.0
 97
0
 75
1
 76
1
 52
0.0
 41
0.25
 77
0
 78
2
 53
45.0
 43
0.0
 44
0.0
 45
-0.5612660076
 46
0.5612660076
 79
0
 53
135.0
 43
0.0
 44
0.0
 45
-0.5612660076
 46
-0.5612660076
 79
0
 98
0
  0
LWPOLYLINE
  5
331
330
17
100
AcDbEntity
  8
ПТ_контур
370
35
100
AcDbPolyline
 90
4
 70
1
 10
714.0
 20
256.0
 10
716.4
 20
256.0
 10
716.4
 20
264.0
 10
714.0
 20
264.0
  0
HATCH
  5
332
330
17
100
AcDbEntity
  8
ПТ_штриховка
 62
8
100
AcDbHatch
 10
0.0
 20
0.0
 30
0.0
210
0.0
220
0.0
230
1.0
  2
ANSI37
 70
0
 71
0
 91
1
 92
3
 72
0
 73
1
 93
4
 10
714.0
 20
256.0
 10
716.4
 20
256.0
 10
716.4
 20
264.0
 10
714.0
 20
264.0
 97
0
 75
1
 76
1
 52
0.0
 41
0.25
 77
0
 78
2
 53
45.0
 43
0.0
 44
0.0
 45
-0.5612660076
 46
0.5612660076
 79
0
 53
135.0
 43
0.0
 44
0.0
 45
-0.5612660076
 46
-0.5612660076
 79
0
 98
0
  0
LINE
  5
333
330
17
100
AcDbEntity
  8
ПТ_контур
370
25
100
AcDbLine
 10
716.4
 20
236.0
 30
0.0
 11
736.4
 21
236.0
 31
0.0
  0
ARC
  5
334
330
17
100
AcDbEntity
  8
ПТ_контур
100
AcDbCircle
 10
716.4
 20
236.0
 30
0.0
 40
20.0
100
AcDbArc
 50
0.0
 51
90.0
  0
TEXT
  5
335
330
17
100
AcDbEntity
  8
ПТ_текст
100
AcDbText
 10
718.8
 20
279.0
 30
0.0
 40
1.8
  1
коридор 1
  7
ПТ
 11
718.8
 21
279.0
 31
0.0
100
AcDbText
 73
1
  0
LINE
  5
336
330
17
100
AcDbEntity
  8
ПТ_оси
  6
ПТ_ШТРИХПУНКТ
370
13
100
AcDbLine
 10
548.0
 20
130.0
 30
0.0
 11
548.0
 21
284.0
 31
0.0
  0
CIRCLE
  5
337
330
17
100
AcDbEntity
  8
ПТ_контур
370
25
100
AcDbCircle
 10
548.0
 20
126.5
 30
0.0
 40
3.5
  0
TEXT
  5
338
330
17
100
AcDbEntity
  8
ПТ_текст
100
AcDbText
 10
548.0
 20
126.5
 30
0.0
 40
2.5
  1
1
  7
ПТ
 72
1
 11
548.0
 21
126.5
 31
0.0
100
AcDbText
 73
2
  0
LINE
  5
339
330
17
100
AcDbEntity
  8
ПТ_оси
  6
ПТ_ШТРИХПУНКТ
370
13
100
AcDbLine
 10
628.0
 20
130.0
 30
0.0
 11
628.0
 21
284.0
 31
0.0
  0
CIRCLE
  5
33A
330
17
100
AcDbEntity
  8
ПТ_контур
370
25
100
AcDbCircle
 10
628.0
 20
126.5
 30
0.0
 40
3.5
  0
TEXT
  5
33B
330
17
100
AcDbEntity
  8
ПТ_текст
100
AcDbText
 10
628.0
 20
126.5
 30
0.0
 40
2.5
  1
2
  7
ПТ
 72
1
 11
628.0
 21
126.5
 31
0.0
100
AcDbText
 73
2
  0
LINE
  5
33C
330
17
100
AcDbEntity
  8
ПТ_оси
  6
ПТ_ШТРИХПУНКТ
370
13
100
AcDbLine
 10
530.0
 20
150.0
 30
0.0
 11
740.4
 21
150.0
 31
0.0
  0
CIRCLE
  5
33D
330
17
100
AcDbEntity
  8
ПТ_контур
370
25
100
AcDbCircle
 10
526.5
 20
150.0
 30
0.0
 40
3.5
  0
TEXT
  5
33E
330
17
100
AcDbEntity
  8
ПТ_текст
100
AcDbText
 10
526.5
 20
150.0
 30
0.0
 40
2.5
  1
Д
  7
ПТ
 72
1
 11
526.5
 21
150.0
 31
0.0
100
AcDbText
 73
2
  0
LINE
  5
33F
330
17
100
AcDbEntity
  8
ПТ_оси
  6
ПТ_ШТРИХПУНКТ
370
13
100
AcDbLine
 10
530.0
 20
270.0
 30
0.0
 11
740.4
 21
270.0
 31
0.0
  0
CIRCLE
  5
340
330
17
100
AcDbEntity
  8
ПТ_контур
370
25
100
AcDbCircle
 10
526.5
 20
270.0
 30
0.0
 40
3.5
  0
TEXT
  5
341
330
17
100
AcDbEntity
  8
ПТ_текст
100
AcDbText
 10
526.5
 20
270.0
 30
0.0
 40
2.5
  1
Е
  7
ПТ
 72
1
 11
526.5
 21
270.0
 31
0.0
100
AcDbText
 73
2
  0
LWPOLYLINE
  5
342
330
17
100
AcDbEntity
  8
ПТ_контур
370
50
100
AcDbPolyline
 90
4
 70
1
 10
690.0
 20
160.0
 10
710.0
 20
160.0
 10
710.0
 20
180.0
 10
690.0
 20
180.0
  0
LWPOLYLINE
  5
343
330
17
100
AcDbEntity
  8
ПТ_контур
  6
ПТ_ШТРИХ
370
18
100
AcDbPolyline
 90
4
 70
1
 10
687.0
 20
157.0
 10
713.0
 20
157.0
 10
713.0
 20
183.0
 10
687.0
 20
183.0
  0
CIRCLE
  5
344
330
17
100
AcDbEntity
  8
ПТ_оборудование
370
35
100
AcDbCircle
 10
696.0
 20
168.0
 30
0.0
 40
2.6
  0
TEXT
  5
345
330
17
100
AcDbEntity
  8
ПТ_текст
100
AcDbText
 10
696.0
 20
173.0
 30
0.0
 40
1.8
  1
ДН1
  7
ПТ
 72
1
 11
696.0
 21
173.0
 31
0.0
100
AcDbText
 73
1
  0
LWPOLYLINE
  5
346
330
17
100
AcDbEntity
  8
ПТ_В2
370
25
100
AcDbPolyline
 90
2
 70
0
 10
696.0
 20
168.0
 10
696.0
 20
185.0
  0
CIRCLE
  5
347
330
17
100
AcDbEntity
  8
ПТ_оборудование
370
35
100
AcDbCircle
 10
704.0
 20
168.0
 30
0.0
 40
2.6
  0
TEXT
  5
348
330
17
100
AcDbEntity
  8
ПТ_текст
100
AcDbText
 10
704.0
 20
173.0
 30
0.0
 40
1.8
  1
ДН2
  7
ПТ
 72
1
 11
704.0
 21
173.0
 31
0.0
100
AcDbText
 73
1
  0
LWPOLYLINE
  5
349
330
17
100
AcDbEntity
  8
ПТ_В2
370
25
100
AcDbPolyline
 90
2
 70
0
 10
704.0
 20
168.0
 10
704.0
 20
185.0
  0
LWPOLYLINE
  5
34A
330
17
100
AcDbEntity
  8
ПТ_В2
370
35
100
AcDbPolyline
 90
2
 70
0
 10
696.0
 20
185.0
 10
711.0
 20
185.0
  0
INSERT
  5
34B
330
17
100
AcDbEntity
  8
ПТ_арматура
100
AcDbBlockReference
  2
V_BALL
 10
707.8
 20
185.0
 30
0.0
 41
0.8
 42
0.8
  0
CIRCLE
  5
34D
330
17
100
AcDbEntity
  8
ПТ_контур
370
50
100
AcDbCircle
 10
711.0
 20
185.0
 30
0.0
 40
1.6
  0
LINE
  5
34E
330
17
100
AcDbEntity
  8
ПТ_выноски
100
AcDbLine
 10
711.0
 20
185.0
 30
0.0
 11
723.0
 21
199.0
 31
0.0
  0
LINE
  5
34F
330
17
100
AcDbEntity
  8
ПТ_выноски
100
AcDbLine
 10
723.0
 20
199.0
 30
0.0
 11
763.0
 21
199.0
 31
0.0
  0
TEXT
  5
350
330
17
100
AcDbEntity
  8
ПТ_текст
100
AcDbText
 10
724.0
 20
200.0
 30
0.0
 40
2.5
  1
Точка подключения ВК
  7
ПТ
 11
724.0
 21
200.0
 31
0.0
100
AcDbText
 73
1
  0
TEXT
  5
351
330
17
100
AcDbEntity
  8
ПТ_текст
100
AcDbText
 10
724.0
 20
198.0
 30
0.0
 40
2.5
  1
Ду50, отм. -1,200
  7
ПТ
 11
724.0
 21
198.0
 31
0.0
100
AcDbText
 73
3
  0
TEXT
  5
352
330
17
100
AcDbEntity
  8
ПТ_текст
100
AcDbText
 10
700.0
 20
154.4
 30
0.0
 40
1.8
  1
приямок
  7
ПТ
 72
1
 11
700.0
 21
154.4
 31
0.0
100
AcDbText
 73
3
  0
CIRCLE
  5
353
330
17
100
AcDbEntity
  8
ПТ_оборудование
370
25
100
AcDbCircle
 10
588.0
 20
170.0
 30
0.0
 40
5.6
  0
TEXT
  5
354
330
17
100
AcDbEntity
  8
ПТ_текст
100
AcDbText
 10
588.0
 20
177.2
 30
0.0
 40
1.8
  1
УУ-1
  7
ПТ
 72
1
 11
588.0
 21
177.2
 31
0.0
100
AcDbText
 73
1
  0
LWPOLYLINE
  5
355
330
17
100
AcDbEntity
  8
ПТ_В2
370
18
100
AcDbPolyline
 90
2
 70
0
 10
588.0
 20
167.0
 10
588.0
 20
160.0
  0
CIRCLE
  5
356
330
17
100
AcDbEntity
  8
ПТ_оборудование
370
25
100
AcDbCircle
 10
612.0
 20
170.0
 30
0.0
 40
5.6
  0
TEXT
  5
357
330
17
100
AcDbEntity
  8
ПТ_текст
100
AcDbText
 10
612.0
 20
177.2
 30
0.0
 40
1.8
  1
УУ-2
  7
ПТ
 72
1
 11
612.0
 21
177.2
 31
0.0
100
AcDbText
 73
1
  0
LWPOLYLINE
  5
358
330
17
100
AcDbEntity
  8
ПТ_В2
370
18
100
AcDbPolyline
 90
2
 70
0
 10
612.0
 20
167.0
 10
612.0
 20
160.0
  0
LWPOLYLINE
  5
359
330
17
100
AcDbEntity
  8
ПТ_В2
370
18
100
AcDbPolyline
 90
2
 70
0
 10
588.0
 20
160.0
 10
690.0
 20
160.0
  0
TEXT
  5
35A
330
17
100
AcDbEntity
  8
ПТ_текст
100
AcDbText
 10
648.0
 20
162.0
 30
0.0
 40
1.8
  1
слив от УУ в приямок
  7
ПТ
 72
1
 11
648.0
 21
162.0
 31
0.0
100
AcDbText
 73
1
  0
LINE
  5
35B
330
17
100
AcDbEntity
  8
ПТ_размеры
100
AcDbLine
 10
548.0
 20
136.0
 30
0.0
 11
711.0
 21
136.0
 31
0.0
  0
LINE
  5
35C
330
17
100
AcDbEntity
  8
ПТ_размеры
370
25
100
AcDbLine
 10
547.2
 20
135.2
 30
0.0
 11
548.8
 21
136.8
 31
0.0
  0
LINE
  5
35D
330
17
100
AcDbEntity
  8
ПТ_размеры
100
AcDbLine
 10
548.0
 20
144.0
 30
0.0
 11
548.0
 21
134.5
 31
0.0
  0
LINE
  5
35E
330
17
100
AcDbEntity
  8
ПТ_размеры
370
25
100
AcDbLine
 10
710.2
 20
135.2
 30
0.0
 11
711.8
 21
136.8
 31
0.0
  0
LINE
  5
35F
330
17
100
AcDbEntity
  8
ПТ_размеры
100
AcDbLine
 10
711.0
 20
144.0
 30
0.0
 11
711.0
 21
134.5
 31
0.0
  0
TEXT
  5
360
330
17
100
AcDbEntity
  8
ПТ_текст
100
AcDbText
 10
629.5
 20
136.6
 30
0.0
 40
2.0
  1
8150
  7
ПТ
 72
1
 11
629.5
 21
136.6
 31
0.0
100
AcDbText
 73
1
  0
LINE
  5
361
330
17
100
AcDbEntity
  8
ПТ_размеры
100
AcDbLine
 10
734.4
 20
150.0
 30
0.0
 11
734.4
 21
185.0
 31
0.0
  0
LINE
  5
362
330
17
100
AcDbEntity
  8
ПТ_размеры
370
25
100
AcDbLine
 10
733.6
 20
149.2
 30
0.0
 11
735.2
 21
150.8
 31
0.0
  0
LINE
  5
363
330
17
100
AcDbEntity
  8
ПТ_размеры
100
AcDbLine
 10
713.0
 20
150.0
 30
0.0
 11
735.9
 21
150.0
 31
0.0
  0
LINE
  5
364
330
17
100
AcDbEntity
  8
ПТ_размеры
370
25
100
AcDbLine
 10
733.6
 20
184.2
 30
0.0
 11
735.2
 21
185.8
 31
0.0
  0
LINE
  5
365
330
17
100
AcDbEntity
  8
ПТ_размеры
100
AcDbLine
 10
713.0
 20
185.0
 30
0.0
 11
735.9
 21
185.0
 31
0.0
  0
TEXT
  5
366
330
17
100
AcDbEntity
  8
ПТ_текст
100
AcDbText
 10
733.8
 20
167.5
 30
0.0
 40
2.0
  1
1750
 50
90.0
  7
ПТ
 72
1
 11
733.8
 21
167.5
 31
0.0
100
AcDbText
 73
1
  0
TEXT
  5
367
330
17
100
AcDbEntity
  8
ПТ_текст
100
AcDbText
 10
812.0
 20
284.0
 30
0.0
 40
3.5
  1
Разрез по напорной линии  М 1:25
  7
ПТ_загл
 72
1
 11
812.0
 21
284.0
 31
0.0
100
AcDbText
 73
1
  0
LINE
  5
368
330
17
100
AcDbEntity
  8
ПТ_контур
370
35
100
AcDbLine
 10
781.2
 20
282.8
 30
0.0
 11
842.8
 21
282.8
 31
0.0
  0
LWPOLYLINE
  5
369
330
17
100
AcDbEntity
  8
ПТ_контур
370
35
100
AcDbPolyline
 90
4
 70
1
 10
768.0
 20
220.0
 10
778.0
 20
220.0
 10
778.0
 20
230.0
 10
768.0
 20
230.0
  0
HATCH
  5
36A
330
17
100
AcDbEntity
  8
ПТ_штриховка
 62
8
100
AcDbHatch
 10
0.0
 20
0.0
 30
0.0
210
0.0
220
0.0
230
1.0
  2
ANSI31
 70
0
 71
0
 91
1
 92
3
 72
0
 73
1
 93
4
 10
768.0
 20
220.0
 10
778.0
 20
220.0
 10
778.0
 20
230.0
 10
768.0
 20
230.0
 97
0
 75
1
 76
1
 52
0.0
 41
0.3
 77
0
 78
1
 53
45.0
 43
0.0
 44
0.0
 45
-0.6735192091
 46
0.6735192091
 79
0
 98
0
  0
LWPOLYLINE
  5
36B
330
17
100
AcDbEntity
  8
ПТ_контур
370
35
100
AcDbPolyline
 90
4
 70
1
 10
830.0
 20
220.0
 10
836.8
 20
220.0
 10
836.8
 20
230.0
 10
830.0
 20
230.0
  0
HATCH
  5
36C
330
17
100
AcDbEntity
  8
ПТ_штриховка
 62
8
100
AcDbHatch
 10
0.0
 20
0.0
 30
0.0
210
0.0
220
0.0
230
1.0
  2
ANSI31
 70
0
 71
0
 91
1
 92
3
 72
0
 73
1
 93
4
 10
830.0
 20
220.0
 10
836.8
 20
220.0
 10
836.8
 20
230.0
 10
830.0
 20
230.0
 97
0
 75
1
 76
1
 52
0.0
 41
0.3
 77
0
 78
1
 53
45.0
 43
0.0
 44
0.0
 45
-0.6735192091
 46
0.6735192091
 79
0
 98
0
  0
LWPOLYLINE
  5
36D
330
17
100
AcDbEntity
  8
ПТ_контур
370
35
100
AcDbPolyline
 90
4
 70
1
 10
778.0
 20
190.0
 10
784.0
 20
190.0
 10
784.0
 20
230.0
 10
778.0
 20
230.0
  0
HATCH
  5
36E
330
17
100
AcDbEntity
  8
ПТ_штриховка
 62
8
100
AcDbHatch
 10
0.0
 20
0.0
 30
0.0
210
0.0
220
0.0
230
1.0
  2
ANSI31
 70
0
 71
0
 91
1
 92
3
 72
0
 73
1
 93
4
 10
778.0
 20
190.0
 10
784.0
 20
190.0
 10
784.0
 20
230.0
 10
778.0
 20
230.0
 97
0
 75
1
 76
1
 52
0.0
 41
0.3
 77
0
 78
1
 53
45.0
 43
0.0
 44
0.0
 45
-0.6735192091
 46
0.6735192091
 79
0
 98
0
  0
LWPOLYLINE
  5
36F
330
17
100
AcDbEntity
  8
ПТ_контур
370
35
100
AcDbPolyline
 90
4
 70
1
 10
824.0
 20
190.0
 10
830.0
 20
190.0
 10
830.0
 20
230.0
 10
824.0
 20
230.0
  0
HATCH
  5
370
330
17
100
AcDbEntity
  8
ПТ_штриховка
 62
8
100
AcDbHatch
 10
0.0
 20
0.0
 30
0.0
210
0.0
220
0.0
230
1.0
  2
ANSI31
 70
0
 71
0
 91
1
 92
3
 72
0
 73
1
 93
4
 10
824.0
 20
190.0
 10
830.0
 20
190.0
 10
830.0
 20
230.0
 10
824.0
 20
230.0
 97
0
 75
1
 76
1
 52
0.0
 41
0.3
 77
0
 78
1
 53
45.0
 43
0.0
 44
0.0
 45
-0.6735192091
 46
0.6735192091
 79
0
 98
0
  0
LWPOLYLINE
  5
371
330
17
100
AcDbEntity
  8
ПТ_контур
370
35
100
AcDbPolyline
 90
4
 70
1
 10
778.0
 20
190.0
 10
830.0
 20
190.0
 10
830.0
 20
198.0
 10
778.0
 20
198.0
  0
HATCH
  5
372
330
17
100
AcDbEntity
  8
ПТ_штриховка
 62
8
100
AcDbHatch
 10
0.0
 20
0.0
 30
0.0
210
0.0
220
0.0
230
1.0
  2
ANSI31
 70
0
 71
0
 91
1
 92
3
 72
0
 73
1
 93
4
 10
778.0
 20
190.0
 10
830.0
 20
190.0
 10
830.0
 20
198.0
 10
778.0
 20
198.0
 97
0
 75
1
 76
1
 52
0.0
 41
0.3
 77
0
 78
1
 53
45.0
 43
0.0
 44
0.0
 45
-0.6735192091
 46
0.6735192091
 79
0
 98
0
  0
LWPOLYLINE
  5
373
330
17
100
AcDbEntity
  8
ПТ_контур
370
35
100
AcDbPolyline
 90
4
 70
1
 10
832.0
 20
230.0
 10
836.8
 20
230.0
 10
836.8
 20
276.0
 10
832.0
 20
276.0
  0
HATCH
  5
374
330
17
100
AcDbEntity
  8
ПТ_штриховка
 62
8
100
AcDbHatch
 10
0.0
 20
0.0
 30
0.0
210
0.0
220
0.0
230
1.0
  2
ANSI37
 70
0
 71
0
 91
1
 92
3
 72
0
 73
1
 93
4
 10
832.0
 20
230.0
 10
836.8
 20
230.0
 10
836.8
 20
276.0
 10
832.0
 20
276.0
 97
0
 75
1
 76
1
 52
0.0
 41
0.25
 77
0
 78
2
 53
45.0
 43
0.0
 44
0.0
 45
-0.5612660076
 46
0.5612660076
 79
0
 53
135.0
 43
0.0
 44
0.0
 45
-0.5612660076
 46
-0.5612660076
 79
0
 98
0
  0
TEXT
  5
375
330
17
100
AcDbEntity
  8
ПТ_текст
100
AcDbText
 10
839.2
 20
248.0
 30
0.0
 40
1.8
  1
перегородка
  7
ПТ
 11
839.2
 21
248.0
 31
0.0
100
AcDbText
 73
1
  0
LWPOLYLINE
  5
376
330
17
100
AcDbEntity
  8
ПТ_оборудование
370
35
100
AcDbPolyline
 90
4
 70
1
 10
791.2
 20
198.8
 10
800.8
 20
198.8
 10
800.8
 20
216.0
 10
791.2
 20
216.0
  0
TEXT
  5
377
330
17
100
AcDbEntity
  8
ПТ_текст
100
AcDbText
 10
796.0
 20
207.2
 30
0.0
 40
1.8
  1
ДН1
  7
ПТ
 72
1
 11
796.0
 21
207.2
 31
0.0
100
AcDbText
 73
2
  0
LINE
  5
378
330
17
100
AcDbEntity
  8
ПТ_В2
370
35
100
AcDbLine
 10
795.04
 20
216.0
 30
0.0
 11
795.04
 21
270.0
 31
0.0
  0
LINE
  5
379
330
17
100
AcDbEntity
  8
ПТ_В2
370
35
100
AcDbLine
 10
796.96
 20
216.0
 30
0.0
 11
796.96
 21
270.0
 31
0.0
  0
LINE
  5
37A
330
17
100
AcDbEntity
  8
ПТ_оси
  6
ПТ_ШТРИХПУНКТ
370
13
100
AcDbLine
 10
796.0
 20
214.0
 30
0.0
 11
796.0
 21
272.0
 31
0.0
  0
LWPOLYLINE
  5
37B
330
17
100
AcDbEntity
  8
ПТ_арматура
370
25
100
AcDbPolyline
 90
4
 70
1
 10
793.6
 20
250.0
 10
798.4
 20
250.0
 10
798.4
 20
254.0
 10
793.6
 20
254.0
  0
LWPOLYLINE
  5
37C
330
17
100
AcDbEntity
  8
ПТ_арматура
370
25
100
AcDbPolyline
 90
4
 70
1
 10
793.6
 20
260.0
 10
798.4
 20
260.0
 10
798.4
 20
264.0
 10
793.6
 20
264.0
  0
LWPOLYLINE
  5
37D
330
17
100
AcDbEntity
  8
ПТ_оборудование
370
35
100
AcDbPolyline
 90
4
 70
1
 10
807.2
 20
198.8
 10
816.8
 20
198.8
 10
816.8
 20
216.0
 10
807.2
 20
216.0
  0
TEXT
  5
37E
330
17
100
AcDbEntity
  8
ПТ_текст
100
AcDbText
 10
812.0
 20
207.2
 30
0.0
 40
1.8
  1
ДН2
  7
ПТ
 72
1
 11
812.0
 21
207.2
 31
0.0
100
AcDbText
 73
2
  0
LINE
  5
37F
330
17
100
AcDbEntity
  8
ПТ_В2
370
35
100
AcDbLine
 10
811.04
 20
216.0
 30
0.0
 11
811.04
 21
270.0
 31
0.0
  0
LINE
  5
380
330
17
100
AcDbEntity
  8
ПТ_В2
370
35
100
AcDbLine
 10
812.96
 20
216.0
 30
0.0
 11
812.96
 21
270.0
 31
0.0
  0
LINE
  5
381
330
17
100
AcDbEntity
  8
ПТ_оси
  6
ПТ_ШТРИХПУНКТ
370
13
100
AcDbLine
 10
812.0
 20
214.0
 30
0.0
 11
812.0
 21
272.0
 31
0.0
  0
LWPOLYLINE
  5
382
330
17
100
AcDbEntity
  8
ПТ_арматура
370
25
100
AcDbPolyline
 90
4
 70
1
 10
809.6
 20
250.0
 10
814.4
 20
250.0
 10
814.4
 20
254.0
 10
809.6
 20
254.0
  0
LWPOLYLINE
  5
383
330
17
100
AcDbEntity
  8
ПТ_арматура
370
25
100
AcDbPolyline
 90
4
 70
1
 10
809.6
 20
260.0
 10
814.4
 20
260.0
 10
814.4
 20
264.0
 10
809.6
 20
264.0
  0
LINE
  5
384
330
17
100
AcDbEntity
  8
ПТ_В2
370
35
100
AcDbLine
 10
796.0
 20
271.2
 30
0.0
 11
826.0
 21
271.2
 31
0.0
  0
LINE
  5
385
330
17
100
AcDbEntity
  8
ПТ_В2
370
35
100
AcDbLine
 10
796.0
 20
268.8
 30
0.0
 11
826.0
 21
268.8
 31
0.0
  0
LINE
  5
386
330
17
100
AcDbEntity
  8
ПТ_оси
  6
ПТ_ШТРИХПУНКТ
370
13
100
AcDbLine
 10
794.0
 20
270.0
 30
0.0
 11
828.0
 21
270.0
 31
0.0
  0
LWPOLYLINE
  5
387
330
17
100
AcDbEntity
  8
ПТ_арматура
370
25
100
AcDbPolyline
 90
4
 70
1
 10
817.6
 20
268.0
 10
821.6
 20
268.0
 10
821.6
 20
272.0
 10
817.6
 20
272.0
  0
CIRCLE
  5
388
330
17
100
AcDbEntity
  8
ПТ_контур
370
50
100
AcDbCircle
 10
826.0
 20
270.0
 30
0.0
 40
1.6
  0
TEXT
  5
389
330
17
100
AcDbEntity
  8
ПТ_текст
100
AcDbText
 10
782.0
 20
253.2
 30
0.0
 40
1.8
  1
обратный клапан
  7
ПТ
 72
2
 11
782.0
 21
253.2
 31
0.0
100
AcDbText
 73
2
  0
TEXT
  5
38A
330
17
100
AcDbEntity
  8
ПТ_текст
100
AcDbText
 10
782.0
 20
263.2
 30
0.0
 40
1.8
  1
кран шаровой
  7
ПТ
 72
2
 11
782.0
 21
263.2
 31
0.0
100
AcDbText
 73
2
  0
CIRCLE
  5
38B
330
17
100
AcDbEntity
  8
ПТ_арматура
370
25
100
AcDbCircle
 10
804.0
 20
208.0
 30
0.0
 40
1.8
  0
CIRCLE
  5
38C
330
17
100
AcDbEntity
  8
ПТ_арматура
370
25
100
AcDbCircle
 10
804.0
 20
220.0
 30
0.0
 40
1.8
  0
CIRCLE
  5
38D
330
17
100
AcDbEntity
  8
ПТ_арматура
370
25
100
AcDbCircle
 10
804.0
 20
230.0
 30
0.0
 40
1.8
  0
TEXT
  5
38E
330
17
100
AcDbEntity
  8
ПТ_текст
100
AcDbText
 10
804.0
 20
188.0
 30
0.0
 40
1.8
  1
поплавки: стоп / пуск / авария
  7
ПТ
 72
1
 11
804.0
 21
188.0
 31
0.0
100
AcDbText
 73
3
  0
LWPOLYLINE
  5
38F
330
17
100
AcDbEntity
  8
ПТ_текст
100
AcDbPolyline
 90
3
 70
1
 10
842.8
 20
270.0
 10
841.6
 20
271.6
 10
844.0
 20
271.6
  0
LINE
  5
390
330
17
100
AcDbEntity
  8
ПТ_текст
100
AcDbLine
 10
842.8
 20
271.6
 30
0.0
 11
856.8
 21
271.6
 31
0.0
  0
TEXT
  5
391
330
17
100
AcDbEntity
  8
ПТ_текст
100
AcDbText
 10
843.3
 20
272.2
 30
0.0
 40
1.8
  1
-1,200 т.п. ВК
  7
ПТ
 11
843.3
 21
272.2
 31
0.0
100
AcDbText
 73
1
  0
LWPOLYLINE
  5
392
330
17
100
AcDbEntity
  8
ПТ_текст
100
AcDbPolyline
 90
3
 70
1
 10
842.8
 20
230.0
 10
841.6
 20
231.6
 10
844.0
 20
231.6
  0
LINE
  5
393
330
17
100
AcDbEntity
  8
ПТ_текст
100
AcDbLine
 10
842.8
 20
231.6
 30
0.0
 11
856.8
 21
231.6
 31
0.0
  0
TEXT
  5
394
330
17
100
AcDbEntity
  8
ПТ_текст
100
AcDbText
 10
843.3
 20
232.2
 30
0.0
 40
1.8
  1
-2,200
  7
ПТ
 11
843.3
 21
232.2
 31
0.0
100
AcDbText
 73
1
  0
LWPOLYLINE
  5
395
330
17
100
AcDbEntity
  8
ПТ_текст
100
AcDbPolyline
 90
3
 70
1
 10
842.8
 20
198.0
 10
841.6
 20
199.6
 10
844.0
 20
199.6
  0
LINE
  5
396
330
17
100
AcDbEntity
  8
ПТ_текст
100
AcDbLine
 10
842.8
 20
199.6
 30
0.0
 11
856.8
 21
199.6
 31
0.0
  0
TEXT
  5
397
330
17
100
AcDbEntity
  8
ПТ_текст
100
AcDbText
 10
843.3
 20
200.2
 30
0.0
 40
1.8
  1
-3,000
  7
ПТ
 11
843.3
 21
200.2
 31
0.0
100
AcDbText
 73
1
  0
TEXT
  5
398
330
17
100
AcDbEntity
  8
ПТ_текст
100
AcDbText
 10
525.0
 20
115.0
 30
0.0
 40
3.5
  1
Исходные данные для раздела ВК
  7
ПТ_загл
 11
525.0
 21
115.0
 31
0.0
100
AcDbText
 73
1
  0
LWPOLYLINE
  5
399
330
17
100
AcDbEntity
  8
ПТ_рамка_тонк
370
35
100
AcDbPolyline
 90
4
 70
1
 10
525.0
 20
104.0
 10
725.0
 20
104.0
 10
725.0
 20
111.0
 10
525.0
 20
111.0
  0
LINE
  5
39A
330
17
100
AcDbEntity
  8
ПТ_рамка_тонк
370
35
100
AcDbLine
 10
525.0
 20
111.0
 30
0.0
 11
525.0
 21
104.0
 31
0.0
  0
MTEXT
  5
39B
330
17
100
AcDbEntity
  8
ПТ_текст
100
AcDbMText
 10
550.0
 20
107.5
 30
0.0
 40
1.9800000000000002
 41
48.5
 71
5
  1
Параметр
  7
ПТ
  0
LINE
  5
39C
330
17
100
AcDbEntity
  8
ПТ_рамка_тонк
370
35
100
AcDbLine
 10
575.0
 20
111.0
 30
0.0
 11
575.0
 21
104.0
 31
0.0
  0
MTEXT
  5
39D
330
17
100
AcDbEntity
  8
ПТ_текст
100
AcDbMText
 10
650.0
 20
107.5
 30
0.0
 40
1.9800000000000002
 41
148.5
 71
5
  1
Значение
  7
ПТ
  0
LINE
  5
39E
330
17
100
AcDbEntity
  8
ПТ_рамка_тонк
370
35
100
AcDbLine
 10
725.0
 20
111.0
 30
0.0
 11
725.0
 21
104.0
 31
0.0
  0
LINE
  5
39F
330
17
100
AcDbEntity
  8
ПТ_рамка_тонк
100
AcDbLine
 10
525.0
 20
104.0
 30
0.0
 11
525.0
 21
94.68
 31
0.0
  0
TEXT
  5
3A0
330
17
100
AcDbEntity
  8
ПТ_текст
100
AcDbText
 10
526.2
 20
99.34
 30
0.0
 40
2.5
  1
Точка подключения
  7
ПТ
 11
526.2
 21
99.34
 31
0.0
100
AcDbText
 73
2
  0
LINE
  5
3A1
330
17
100
AcDbEntity
  8
ПТ_рамка_тонк
100
AcDbLine
 10
575.0
 20
104.0
 30
0.0
 11
575.0
 21
94.68
 31
0.0
  0
MTEXT
  5
3A2
330
17
100
AcDbEntity
  8
ПТ_текст
100
AcDbMText
 10
576.2
 20
102.8
 30
0.0
 40
2.5
 41
147.6
 71
1
  1
насосная, от оси 1 - 8150 мм, от оси Д - 1750 мм, отм. -1,200; напорный трубопровод Ду50 (труба 60х3,5 ГОСТ 3262), окончание - кран шаровой Ду50 (поз. 21) с муфтой G2"
  7
ПТ
  0
LINE
  5
3A3
330
17
100
AcDbEntity
  8
ПТ_рамка_тонк
100
AcDbLine
 10
725.0
 20
104.0
 30
0.0
 11
725.0
 21
94.68
 31
0.0
  0
LINE
  5
3A4
330
17
100
AcDbEntity
  8
ПТ_рамка_тонк
100
AcDbLine
 10
525.0
 20
94.68
 30
0.0
 11
725.0
 21
94.68
 31
0.0
  0
LINE
  5
3A5
330
17
100
AcDbEntity
  8
ПТ_рамка_тонк
100
AcDbLine
 10
525.0
 20
94.68
 30
0.0
 11
525.0
 21
88.48
 31
0.0
  0
TEXT
  5
3A6
330
17
100
AcDbEntity
  8
ПТ_текст
100
AcDbText
 10
526.2
 20
91.58000000000001
 30
0.0
 40
2.5
  1
Отводимая вода
  7
ПТ
 11
526.2
 21
91.58000000000001
 31
0.0
100
AcDbText
 73
2
  0
LINE
  5
3A7
330
17
100
AcDbEntity
  8
ПТ_рамка_тонк
100
AcDbLine
 10
575.0
 20
94.68
 30
0.0
 11
575.0
 21
88.48
 31
0.0
  0
TEXT
  5
3A8
330
17
100
AcDbEntity
  8
ПТ_текст
100
AcDbText
 10
576.2
 20
91.58000000000001
 30
0.0
 40
2.5
  1
условно чистая: вода систем пожаротушения при опорожнении и опробовании, утечки в насосной
  7
ПТ
 11
576.2
 21
91.58000000000001
 31
0.0
100
AcDbText
 73
2
  0
LINE
  5
3A9
330
17
100
AcDbEntity
  8
ПТ_рамка_тонк
100
AcDbLine
 10
725.0
 20
94.68
 30
0.0
 11
725.0
 21
88.48
 31
0.0
  0
LINE
  5
3AA
330
17
100
AcDbEntity
  8
ПТ_рамка_тонк
100
AcDbLine
 10
525.0
 20
88.48
 30
0.0
 11
725.0
 21
88.48
 31
0.0
  0
LINE
  5
3AB
330
17
100
AcDbEntity
  8
ПТ_рамка_тонк
100
AcDbLine
 10
525.0
 20
88.48
 30
0.0
 11
525.0
 21
79.16
 31
0.0
  0
TEXT
  5
3AC
330
17
100
AcDbEntity
  8
ПТ_текст
100
AcDbText
 10
526.2
 20
83.82000000000001
 30
0.0
 40
2.5
  1
Режим
  7
ПТ
 11
526.2
 21
83.82000000000001
 31
0.0
100
AcDbText
 73
2
  0
LINE
  5
3AD
330
17
100
AcDbEntity
  8
ПТ_рамка_тонк
100
AcDbLine
 10
575.0
 20
88.48
 30
0.0
 11
575.0
 21
79.16
 31
0.0
  0
MTEXT
  5
3AE
330
17
100
AcDbEntity
  8
ПТ_текст
100
AcDbMText
 10
576.2
 20
87.28
 30
0.0
 40
2.5
 41
147.6
 71
1
  1
напорный, погружные насосы ДН1, ДН2 (поз. 23) Q=10 м³/ч, H=10 м - рабочий и резервный, включение по уровню в приямке
  7
ПТ
  0
LINE
  5
3AF
330
17
100
AcDbEntity
  8
ПТ_рамка_тонк
100
AcDbLine
 10
725.0
 20
88.48
 30
0.0
 11
725.0
 21
79.16
 31
0.0
  0
LINE
  5
3B0
330
17
100
AcDbEntity
  8
ПТ_рамка_тонк
100
AcDbLine
 10
525.0
 20
79.16
 30
0.0
 11
725.0
 21
79.16
 31
0.0
  0
LINE
  5
3B1
330
17
100
AcDbEntity
  8
ПТ_рамка_тонк
100
AcDbLine
 10
525.0
 20
79.16
 30
0.0
 11
525.0
 21
72.96
 31
0.0
  0
TEXT
  5
3B2
330
17
100
AcDbEntity
  8
ПТ_текст
100
AcDbText
 10
526.2
 20
76.06
 30
0.0
 40
2.5
  1
Расход
  7
ПТ
 11
526.2
 21
76.06
 31
0.0
100
AcDbText
 73
2
  0
LINE
  5
3B3
330
17
100
AcDbEntity
  8
ПТ_рамка_тонк
100
AcDbLine
 10
575.0
 20
79.16
 30
0.0
 11
575.0
 21
72.96
 31
0.0
  0
TEXT
  5
3B4
330
17
100
AcDbEntity
  8
ПТ_текст
100
AcDbText
 10
576.2
 20
76.06
 30
0.0
 40
2.5
  1
расчётный 10 м³/ч (2,8 л/с); при аварийном уровне - 20 м³/ч (5,6 л/с)
  7
ПТ
 11
576.2
 21
76.06
 31
0.0
100
AcDbText
 73
2
  0
LINE
  5
3B5
330
17
100
AcDbEntity
  8
ПТ_рамка_тонк
100
AcDbLine
 10
725.0
 20
79.16
 30
0.0
 11
725.0
 21
72.96
 31
0.0
  0
LINE
  5
3B6
330
17
100
AcDbEntity
  8
ПТ_рамка_тонк
100
AcDbLine
 10
525.0
 20
72.96
 30
0.0
 11
725.0
 21
72.96
 31
0.0
  0
LINE
  5
3B7
330
17
100
AcDbEntity
  8
ПТ_рамка_тонк
100
AcDbLine
 10
525.0
 20
72.96
 30
0.0
 11
525.0
 21
66.75999999999999
 31
0.0
  0
TEXT
  5
3B8
330
17
100
AcDbEntity
  8
ПТ_текст
100
AcDbText
 10
526.2
 20
69.86
 30
0.0
 40
2.5
  1
Напор в точке подключения
  7
ПТ
 11
526.2
 21
69.86
 31
0.0
100
AcDbText
 73
2
  0
LINE
  5
3B9
330
17
100
AcDbEntity
  8
ПТ_рамка_тонк
100
AcDbLine
 10
575.0
 20
72.96
 30
0.0
 11
575.0
 21
66.75999999999999
 31
0.0
  0
TEXT
  5
3BA
330
17
100
AcDbEntity
  8
ПТ_текст
100
AcDbText
 10
576.2
 20
69.86
 30
0.0
 40
2.5
  1
не менее 7 м при 10 м³/ч
  7
ПТ
 11
576.2
 21
69.86
 31
0.0
100
AcDbText
 73
2
  0
LINE
  5
3BB
330
17
100
AcDbEntity
  8
ПТ_рамка_тонк
100
AcDbLine
 10
725.0
 20
72.96
 30
0.0
 11
725.0
 21
66.75999999999999
 31
0.0
  0
LINE
  5
3BC
330
17
100
AcDbEntity
  8
ПТ_рамка_тонк
100
AcDbLine
 10
525.0
 20
66.75999999999999
 30
0.0
 11
725.0
 21
66.75999999999999
 31
0.0
  0
LINE
  5
3BD
330
17
100
AcDbEntity
  8
ПТ_рамка_тонк
100
AcDbLine
 10
525.0
 20
66.75999999999999
 30
0.0
 11
525.0
 21
57.43999999999999
 31
0.0
  0
TEXT
  5
3BE
330
17
100
AcDbEntity
  8
ПТ_текст
100
AcDbText
 10
526.2
 20
62.099999999999994
 30
0.0
 40
2.5
  1
Разовые объёмы
  7
ПТ
 11
526.2
 21
62.099999999999994
 31
0.0
100
AcDbText
 73
2
  0
LINE
  5
3BF
330
17
100
AcDbEntity
  8
ПТ_рамка_тонк
100
AcDbLine
 10
575.0
 20
66.75999999999999
 30
0.0
 11
575.0
 21
57.43999999999999
 31
0.0
  0
MTEXT
  5
3C0
330
17
100
AcDbEntity
  8
ПТ_текст
100
AcDbMText
 10
576.2
 20
65.55999999999999
 30
0.0
 40
2.5
 41
147.6
 71
1
  1
опорожнение секции В21 - 5,3 м³, В22 - 5,1 м³, сети ВПВ - 2,4 м³, обвязки насосной - 0,9 м³; опорожнение - с расходом не более 10 м³/ч (секция - около 32 мин)
  7
ПТ
  0
LINE
  5
3C1
330
17
100
AcDbEntity
  8
ПТ_рамка_тонк
100
AcDbLine
 10
725.0
 20
66.75999999999999
 30
0.0
 11
725.0
 21
57.43999999999999
 31
0.0
  0
LINE
  5
3C2
330
17
100
AcDbEntity
  8
ПТ_рамка_тонк
100
AcDbLine
 10
525.0
 20
57.43999999999999
 30
0.0
 11
725.0
 21
57.43999999999999
 31
0.0
  0
LINE
  5
3C3
330
17
100
AcDbEntity
  8
ПТ_рамка_тонк
100
AcDbLine
 10
525.0
 20
57.43999999999999
 30
0.0
 11
525.0
 21
51.23999999999999
 31
0.0
  0
TEXT
  5
3C4
330
17
100
AcDbEntity
  8
ПТ_текст
100
AcDbText
 10
526.2
 20
54.33999999999999
 30
0.0
 40
2.5
  1
Приямок
  7
ПТ
 11
526.2
 21
54.33999999999999
 31
0.0
100
AcDbText
 73
2
  0
LINE
  5
3C5
330
17
100
AcDbEntity
  8
ПТ_рамка_тонк
100
AcDbLine
 10
575.0
 20
57.43999999999999
 30
0.0
 11
575.0
 21
51.23999999999999
 31
0.0
  0
TEXT
  5
3C6
330
17
100
AcDbEntity
  8
ПТ_текст
100
AcDbText
 10
576.2
 20
54.33999999999999
 30
0.0
 40
2.5
  1
1000х1000х800, дно -3,000; регулирующий объём между поплавками «стоп» и «пуск» - 0,3 м³
  7
ПТ
 11
576.2
 21
54.33999999999999
 31
0.0
100
AcDbText
 73
2
  0
LINE
  5
3C7
330
17
100
AcDbEntity
  8
ПТ_рамка_тонк
100
AcDbLine
 10
725.0
 20
57.43999999999999
 30
0.0
 11
725.0
 21
51.23999999999999
 31
0.0
  0
LINE
  5
3C8
330
17
100
AcDbEntity
  8
ПТ_рамка_тонк
100
AcDbLine
 10
525.0
 20
51.23999999999999
 30
0.0
 11
725.0
 21
51.23999999999999
 31
0.0
  0
TEXT
  5
3C9
330
17
100
AcDbEntity
  8
ПТ_текст
100
AcDbText
 10
525.0
 20
44.0
 30
0.0
 40
2.5
  1
Задание принял
  7
ПТ_загл
 11
525.0
 21
44.0
 31
0.0
100
AcDbText
 73
1
  0
LWPOLYLINE
  5
3CA
330
17
100
AcDbEntity
  8
ПТ_рамка_тонк
370
35
100
AcDbPolyline
 90
4
 70
1
 10
525.0
 20
35.0
 10
715.0
 20
35.0
 10
715.0
 20
41.0
 10
525.0
 20
41.0
  0
LINE
  5
3CB
330
17
100
AcDbEntity
  8
ПТ_рамка_тонк
370
35
100
AcDbLine
 10
525.0
 20
41.0
 30
0.0
 11
525.0
 21
35.0
 31
0.0
  0
MTEXT
  5
3CC
330
17
100
AcDbEntity
  8
ПТ_текст
100
AcDbMText
 10
537.5
 20
38.0
 30
0.0
 40
1.9800000000000002
 41
23.5
 71
5
  1
Раздел
  7
ПТ
  0
LINE
  5
3CD
330
17
100
AcDbEntity
  8
ПТ_рамка_тонк
370
35
100
AcDbLine
 10
550.0
 20
41.0
 30
0.0
 11
550.0
 21
35.0
 31
0.0
  0
MTEXT
  5
3CE
330
17
100
AcDbEntity
  8
ПТ_текст
100
AcDbMText
 10
572.5
 20
38.0
 30
0.0
 40
1.9800000000000002
 41
43.5
 71
5
  1
Должность
  7
ПТ
  0
LINE
  5
3CF
330
17
100
AcDbEntity
  8
ПТ_рамка_тонк
370
35
100
AcDbLine
 10
595.0
 20
41.0
 30
0.0
 11
595.0
 21
35.0
 31
0.0
  0
MTEXT
  5
3D0
330
17
100
AcDbEntity
  8
ПТ_текст
100
AcDbMText
 10
622.5
 20
38.0
 30
0.0
 40
1.9800000000000002
 41
53.5
 71
5
  1
Фамилия
  7
ПТ
  0
LINE
  5
3D1
330
17
100
AcDbEntity
  8
ПТ_рамка_тонк
370
35
100
AcDbLine
 10
650.0
 20
41.0
 30
0.0
 11
650.0
 21
35.0
 31
0.0
  0
MTEXT
  5
3D2
330
17
100
AcDbEntity
  8
ПТ_текст
100
AcDbMText
 10
667.5
 20
38.0
 30
0.0
 40
1.9800000000000002
 41
33.5
 71
5
  1
Подпись
  7
ПТ
  0
LINE
  5
3D3
330
17
100
AcDbEntity
  8
ПТ_рамка_тонк
370
35
100
AcDbLine
 10
685.0
 20
41.0
 30
0.0
 11
685.0
 21
35.0
 31
0.0
  0
MTEXT
  5
3D4
330
17
100
AcDbEntity
  8
ПТ_текст
100
AcDbMText
 10
700.0
 20
38.0
 30
0.0
 40
1.9800000000000002
 41
28.5
 71
5
  1
Дата
  7
ПТ
  0
LINE
  5
3D5
330
17
100
AcDbEntity
  8
ПТ_рамка_тонк
370
35
100
AcDbLine
 10
715.0
 20
41.0
 30
0.0
 11
715.0
 21
35.0
 31
0.0
  0
LINE
  5
3D6
330
17
100
AcDbEntity
  8
ПТ_рамка_тонк
100
AcDbLine
 10
525.0
 20
35.0
 30
0.0
 11
525.0
 21
26.0
 31
0.0
  0
TEXT
  5
3D7
330
17
100
AcDbEntity
  8
ПТ_текст
100
AcDbText
 10
526.2
 20
30.5
 30
0.0
 40
2.5
  1
ВК
  7
ПТ
 11
526.2
 21
30.5
 31
0.0
100
AcDbText
 73
2
  0
LINE
  5
3D8
330
17
100
AcDbEntity
  8
ПТ_рамка_тонк
100
AcDbLine
 10
550.0
 20
35.0
 30
0.0
 11
550.0
 21
26.0
 31
0.0
  0
LINE
  5
3D9
330
17
100
AcDbEntity
  8
ПТ_рамка_тонк
100
AcDbLine
 10
595.0
 20
35.0
 30
0.0
 11
595.0
 21
26.0
 31
0.0
  0
LINE
  5
3DA
330
17
100
AcDbEntity
  8
ПТ_рамка_тонк
100
AcDbLine
 10
650.0
 20
35.0
 30
0.0
 11
650.0
 21
26.0
 31
0.0
  0
LINE
  5
3DB
330
17
100
AcDbEntity
  8
ПТ_рамка_тонк
100
AcDbLine
 10
685.0
 20
35.0
 30
0.0
 11
685.0
 21
26.0
 31
0.0
  0
LINE
  5
3DC
330
17
100
AcDbEntity
  8
ПТ_рамка_тонк
100
AcDbLine
 10
715.0
 20
35.0
 30
0.0
 11
715.0
 21
26.0
 31
0.0
  0
LINE
  5
3DD
330
17
100
AcDbEntity
  8
ПТ_рамка_тонк
100
AcDbLine
 10
525.0
 20
26.0
 30
0.0
 11
715.0
 21
26.0
 31
0.0
  0
MTEXT
  5
3DE
330
17
100
AcDbEntity
  8
ПТ_текст
100
AcDbMText
 10
752.0
 20
172.0
 30
0.0
 40
2.5
 41
160.0
 71
1
  3
Требования к выполнению \P1. Трубопровод от точки подключения до сети и выбор сети приёма - раздел ВК, с учётом того, что вода условно чистая. \P2. При сбросе в самотечную сеть предусмотреть гашение напора (колодец-гаситель или разрыв струи) и защиту
  3
 насосной от подтопления обратным подпором. \P3. Обратные клапаны (поз. 26) и краны (поз. 27) на напорных патрубках насосов, кран в точке подключения - в составе раздела ПТ. \P4. Трубопровод прокладывать под балками перекрытия подвала (низ -0,248); п
  1
роход через перегородку насосной - в гильзе с заделкой негорючим материалом. \P5. Электроснабжение насосов и шкафа управления ШУД - раздел ЭМ, сигнал «Аварийный уровень» - раздел ПТ. \P6. Привязки - от осей здания; размеры - в мм, отметки - в м.
  7
ПТ
  0
ENDSEC
  0
SECTION
  2
OBJECTS
  0
DICTIONARY
  5
A
330
0
100
AcDbDictionary
281
1
  3
ACAD_COLOR
350
B
  3
ACAD_GROUP
350
C
  3
ACAD_LAYOUT
350
D
  3
ACAD_MATERIAL
350
E
  3
ACAD_MLEADERSTYLE
350
F
  3
ACAD_MLINESTYLE
350
10
  3
ACAD_PLOTSETTINGS
350
11
  3
ACAD_PLOTSTYLENAME
350
12
  3
ACAD_SCALELIST
350
14
  3
ACAD_TABLESTYLE
350
15
  3
ACAD_VISUALSTYLE
350
16
  0
DICTIONARY
  5
B
330
A
100
AcDbDictionary
281
1
  0
DICTIONARY
  5
C
330
A
100
AcDbDictionary
281
1
  0
DICTIONARY
  5
D
330
A
100
AcDbDictionary
281
1
  3
Model
350
1A
  3
Layout1
350
1E
  0
DICTIONARY
  5
E
330
A
100
AcDbDictionary
281
1
  3
ByBlock
350
1F
  3
ByLayer
350
20
  3
Global
350
21
  0
DICTIONARY
  5
F
330
A
100
AcDbDictionary
281
1
  3
Standard
350
2C
  0
DICTIONARY
  5
10
330
A
100
AcDbDictionary
281
1
  3
Standard
350
22
  0
DICTIONARY
  5
11
330
A
100
AcDbDictionary
281
1
  0
ACDBDICTIONARYWDFLT
  5
12
330
A
100
AcDbDictionary
281
1
  3
Normal
350
13
100
AcDbDictionaryWithDefault
340
13
  0
ACDBPLACEHOLDER
  5
13
330
12
  0
DICTIONARY
  5
14
330
A
100
AcDbDictionary
281
1
  0
DICTIONARY
  5
15
330
A
100
AcDbDictionary
281
1
  0
DICTIONARY
  5
16
330
A
100
AcDbDictionary
281
1
  3
2dWireframe
350
5A
  3
Basic
350
5B
  3
Brighten
350
5C
  3
ColorChange
350
5D
  3
Conceptual
350
5E
  3
Dim
350
5F
  3
EdgeColorOff
350
60
  3
Facepattern
350
61
  3
Flat
350
62
  3
FlatWithEdges
350
63
  3
Gouraud
350
64
  3
GouraudWithEdges
350
65
  3
Hidden
350
66
  3
JitterOff
350
67
  3
Linepattern
350
68
  3
Modeling
350
69
  3
OverhangOff
350
6A
  3
Realistic
350
6B
  3
Shaded
350
6C
  3
Shaded with edges
350
6D
  3
Shades of Gray
350
6E
  3
Sketchy
350
6F
  3
Thicken
350
70
  3
Wireframe
350
71
  3
X-Ray
350
72
  0
LAYOUT
  5
1A
330
D
100
AcDbPlotSettings
  1

  4
A3
  6

 40
7.5
 41
20.0
 42
7.5
 43
20.0
 44
420.0
 45
297.0
 46
0.0
 47
0.0
 48
0.0
 49
0.0
140
0.0
141
0.0
142
1.0
143
1.0
 70
1024
 72
1
 73
0
 74
5
  7

 75
16
 76
0
 77
2
 78
300
147
1.0
148
0.0
149
0.0
100
AcDbLayout
  1
Model
 70
1
 71
0
 10
0.0
 20
0.0
 11
420.0
 21
297.0
 12
0.0
 22
0.0
 32
0.0
 14
1e+20
 24
1e+20
 34
1e+20
 15
-1e+20
 25
-1e+20
 35
-1e+20
146
0.0
 13
0.0
 23
0.0
 33
0.0
 16
1.0
 26
0.0
 36
0.0
 17
0.0
 27
1.0
 37
0.0
 76
1
330
17
  0
LAYOUT
  5
1E
330
D
100
AcDbPlotSettings
  1

  4
A3
  6

 40
7.5
 41
20.0
 42
7.5
 43
20.0
 44
420.0
 45
297.0
 46
0.0
 47
0.0
 48
0.0
 49
0.0
140
0.0
141
0.0
142
1.0
143
1.0
 70
0
 72
1
 73
0
 74
5
  7

 75
16
 76
0
 77
2
 78
300
147
1.0
148
0.0
149
0.0
100
AcDbLayout
  1
Layout1
 70
1
 71
1
 10
0.0
 20
0.0
 11
420.0
 21
297.0
 12
0.0
 22
0.0
 32
0.0
 14
1e+20
 24
1e+20
 34
1e+20
 15
-1e+20
 25
-1e+20
 35
-1e+20
146
0.0
 13
0.0
 23
0.0
 33
0.0
 16
1.0
 26
0.0
 36
0.0
 17
0.0
 27
1.0
 37
0.0
 76
1
330
1B
  0
MATERIAL
  5
1F
102
{ACAD_REACTORS
330
E
102
}
330
E
100
AcDbMaterial
  1
ByBlock
  2

 70
0
 40
1.0
 71
1
 41
1.0
 91
-1023410177
 42
1.0
 72
1
  3

 73
1
 74
1
 75
1
 44
0.5
 73
0
 45
1.0
 46
1.0
 77
1
  4

 78
1
 79
1
170
1
 48
1.0
171
1
  6

172
1
173
1
174
1
140
1.0
141
1.0
175
1
  7

176
1
177
1
178
1
143
1.0
179
1
  8

270
1
271
1
272
1
145
1.0
146
1.0
273
1
  9

274
1
275
1
276
1
 42
1.0
 72
1
  3

 73
1
 74
1
 75
1
 94
63
  0
MATERIAL
  5
20
102
{ACAD_REACTORS
330
E
102
}
330
E
100
AcDbMaterial
  1
ByLayer
  2

 70
0
 40
1.0
 71
1
 41
1.0
 91
-1023410177
 42
1.0
 72
1
  3

 73
1
 74
1
 75
1
 44
0.5
 73
0
 45
1.0
 46
1.0
 77
1
  4

 78
1
 79
1
170
1
 48
1.0
171
1
  6

172
1
173
1
174
1
140
1.0
141
1.0
175
1
  7

176
1
177
1
178
1
143
1.0
179
1
  8

270
1
271
1
272
1
145
1.0
146
1.0
273
1
  9

274
1
275
1
276
1
 42
1.0
 72
1
  3

 73
1
 74
1
 75
1
 94
63
  0
MATERIAL
  5
21
102
{ACAD_REACTORS
330
E
102
}
330
E
100
AcDbMaterial
  1
Global
  2

 70
0
 40
1.0
 71
1
 41
1.0
 91
-1023410177
 42
1.0
 72
1
  3

 73
1
 74
1
 75
1
 44
0.5
 73
0
 45
1.0
 46
1.0
 77
1
  4

 78
1
 79
1
170
1
 48
1.0
171
1
  6

172
1
173
1
174
1
140
1.0
141
1.0
175
1
  7

176
1
177
1
178
1
143
1.0
179
1
  8

270
1
271
1
272
1
145
1.0
146
1.0
273
1
  9

274
1
275
1
276
1
 42
1.0
 72
1
  3

 73
1
 74
1
 75
1
 94
63
  0
MLINESTYLE
  5
22
102
{ACAD_REACTORS
330
10
102
}
330
10
100
AcDbMlineStyle
  2
Standard
 70
0
  3

 62
256
 51
90.0
 52
90.0
 71
2
 49
0.5
 62
256
  6
BYLAYER
 49
-0.5
 62
256
  6
BYLAYER
  0
MLEADERSTYLE
  5
2C
102
{ACAD_REACTORS
330
F
102
}
330
F
100
AcDbMLeaderStyle
179
2
170
2
171
1
172
0
 90
2
 40
0.0
 41
0.0
173
1
 91
-1056964608
 92
-2
290
1
 42
2.0
291
1
 43
8.0
  3
Standard
 44
4.0
300

342
29
174
1
175
1
176
0
178
1
 93
-1056964608
 45
4.0
292
0
297
0
 46
4.0
 94
-1056964608
 47
1.0
 49
1.0
140
1.0
294
1
141
0.0
177
0
142
1.0
295
0
296
0
143
3.75
271
0
272
9
273
9
  0
VISUALSTYLE
  5
5A
102
{ACAD_REACTORS
330
16
102
}
330
16
100
AcDbVisualStyle
  2
2dWireframe
 70
4
177
3
291
0
 70
58
 90
2
176
1
 90
2
176
1
 90
0
176
1
 90
0
176
1
 40
0.6
176
1
 40
30.0
176
1
 62
7
420
16777215
176
1
 90
1
176
1
 90
4
176
1
 62
7
176
1
 62
257
176
1
 90
1
176
1
 90
1
176
1
 40
1.0
176
1
 90
8
176
1
 62
7
176
1
 40
1.0
176
1
 90
1
176
1
 90
6
176
1
 90
2
176
1
 62
7
176
1
 90
5
176
1
 90
0
176
1
 90
0
176
1
290
0
176
1
 90
1
176
1
 40
0.0
176
1
 90
0
176
1
290
1
176
1
290
1
176
1
290
0
176
1
290
0
176
1
290
0
176
1
290
0
176
1
290
0
176
1
290
0
176
1
290
0
176
1
 90
50
176
1
 40
0.0
176
1
 40
1.0
176
1
 90
0
176
1
 62
18
420
0
176
1
 90
50
176
1
 90
3
176
1
 62
5
420
255
176
1
290
0
176
1
 90
50
176
1
 90
50
176
1
 90
50
176
1
290
0
176
1
 90
50
176
1
 62
256
176
0
 40
1.0
176
0
 90
2
176
1
  1
strokes_ogs.tif
176
1
290
0
176
1
 40
1.0
176
1
 40
1.0
176
1
  0
VISUALSTYLE
  5
5B
102
{ACAD_REACTORS
330
16
102
}
330
16
100
AcDbVisualStyle
  2
Basic
 70
7
177
3
291
1
 70
58
 90
2
176
1
 90
2
176
1
 90
0
176
1
 90
1
176
1
 40
0.6
176
1
 40
30.0
176
1
 62
7
420
16777215
176
1
 90
1
176
1
 90
4
176
1
 62
7
176
1
 62
257
176
1
 90
1
176
1
 90
1
176
1
 40
1.0
176
1
 90
8
176
1
 62
7
176
1
 40
1.0
176
1
 90
1
176
1
 90
6
176
1
 90
2
176
1
 62
7
176
1
 90
5
176
1
 90
0
176
1
 90
0
176
1
290
0
176
1
 90
1
176
1
 40
0.0
176
1
 90
0
176
1
290
0
176
1
290
1
176
1
290
1
176
1
290
0
176
1
290
0
176
1
290
0
176
1
290
0
176
1
290
0
176
1
290
0
176
1
 90
50
176
1
 40
0.0
176
1
 40
1.0
176
1
 90
0
176
1
 62
18
420
0
176
1
 90
50
176
1
 90
3
176
1
 62
5
420
255
176
1
290
0
176
1
 90
50
176
1
 90
50
176
1
 90
50
176
1
290
0
176
1
 90
50
176
1
 62
256
176
0
 40
1.0
176
0
 90
2
176
1
  1
strokes_ogs.tif
176
1
290
0
176
1
 40
1.0
176
1
 40
1.0
176
1
  0
VISUALSTYLE
  5
5C
102
{ACAD_REACTORS
330
16
102
}
330
16
100
AcDbVisualStyle
  2
Brighten
 70
12
177
3
291
1
 70
58
 90
2
176
1
 90
2
176
1
 90
0
176
1
 90
2
176
1
 40
0.6
176
1
 40
30.0
176
1
 62
7
420
16777215
176
1
 90
1
176
1
 90
4
176
1
 62
7
176
1
 62
257
176
1
 90
1
176
1
 90
1
176
1
 40
1.0
176
1
 90
8
176
1
 62
7
176
1
 40
1.0
176
1
 90
1
176
1
 90
6
176
1
 90
2
176
1
 62
7
176
1
 90
5
176
1
 90
0
176
1
 90
0
176
1
290
0
176
1
 90
1
176
1
 40
0.0
176
1
 90
0
176
1
290
0
176
1
290
1
176
1
290
1
176
1
290
0
176
1
290
0
176
1
290
0
176
1
290
0
176
1
290
0
176
1
290
0
176
1
 90
50
176
1
 40
0.0
176
1
 40
1.0
176
1
 90
0
176
1
 62
18
420
0
176
1
 90
50
176
1
 90
3
176
1
 62
5
420
255
176
1
290
0
176
1
 90
50
176
1
 90
50
176
1
 90
50
176
1
290
0
176
1
 90
50
176
1
 62
256
176
0
 40
1.0
176
0
 90
2
176
1
  1
strokes_ogs.tif
176
1
290
0
176
1
 40
1.0
176
1
 40
1.0
176
1
  0
VISUALSTYLE
  5
5D
102
{ACAD_REACTORS
330
16
102
}
330
16
100
AcDbVisualStyle
  2
ColorChange
 70
16
177
3
291
1
 70
58
 90
2
176
1
 90
2
176
1
 90
0
176
1
 90
2
176
1
 40
0.6
176
1
 40
30.0
176
1
 62
7
420
16777215
176
1
 90
1
176
1
 90
4
176
1
 62
7
176
1
 62
257
176
1
 90
1
176
1
 90
1
176
1
 40
1.0
176
1
 90
8
176
1
 62
7
176
1
 40
1.0
176
1
 90
1
176
1
 90
6
176
1
 90
2
176
1
 62
7
176
1
 90
5
176
1
 90
0
176
1
 90
0
176
1
290
0
176
1
 90
1
176
1
 40
0.0
176
1
 90
0
176
1
290
0
176
1
290
1
176
1
290
1
176
1
290
0
176
1
290
0
176
1
290
0
176
1
290
0
176
1
290
0
176
1
290
0
176
1
 90
50
176
1
 40
0.0
176
1
 40
1.0
176
1
 90
0
176
1
 62
18
420
0
176
1
 90
50
176
1
 90
3
176
1
 62
5
420
255
176
1
290
0
176
1
 90
50
176
1
 90
50
176
1
 90
50
176
1
290
0
176
1
 90
50
176
1
 62
256
176
0
 40
1.0
176
0
 90
2
176
1
  1
strokes_ogs.tif
176
1
290
0
176
1
 40
1.0
176
1
 40
1.0
176
1
  0
VISUALSTYLE
  5
5E
102
{ACAD_REACTORS
330
16
102
}
330
16
100
AcDbVisualStyle
  2
Conceptual
 70
9
177
3
291
0
 70
58
 90
2
176
1
 90
2
176
1
 90
0
176
1
 90
3
176
1
 40
0.6
176
1
 40
30.0
176
1
 62
7
420
16777215
176
1
 90
1
176
1
 90
4
176
1
 62
7
176
1
 62
257
176
1
 90
1
176
1
 90
1
176
1
 40
1.0
176
1
 90
8
176
1
 62
7
176
1
 40
1.0
176
1
 90
1
176
1
 90
6
176
1
 90
2
176
1
 62
7
176
1
 90
5
176
1
 90
0
176
1
 90
0
176
1
290
0
176
1
 90
1
176
1
 40
0.0
176
1
 90
0
176
1
290
0
176
1
290
1
176
1
290
1
176
1
290
0
176
1
290
0
176
1
290
0
176
1
290
0
176
1
290
0
176
1
290
0
176
1
 90
50
176
1
 40
0.0
176
1
 40
1.0
176
1
 90
0
176
1
 62
18
420
0
176
1
 90
50
176
1
 90
3
176
1
 62
5
420
255
176
1
290
0
176
1
 90
50
176
1
 90
50
176
1
 90
50
176
1
290
0
176
1
 90
50
176
1
 62
256
176
0
 40
1.0
176
0
 90
2
176
1
  1
strokes_ogs.tif
176
1
290
0
176
1
 40
1.0
176
1
 40
1.0
176
1
  0
VISUALSTYLE
  5
5F
102
{ACAD_REACTORS
330
16
102
}
330
16
100
AcDbVisualStyle
  2
Dim
 70
11
177
3
291
1
 70
58
 90
2
176
1
 90
2
176
1
 90
0
176
1
 90
2
176
1
 40
0.6
176
1
 40
30.0
176
1
 62
7
420
16777215
176
1
 90
1
176
1
 90
4
176
1
 62
7
176
1
 62
257
176
1
 90
1
176
1
 90
1
176
1
 40
1.0
176
1
 90
8
176
1
 62
7
176
1
 40
1.0
176
1
 90
1
176
1
 90
6
176
1
 90
2
176
1
 62
7
176
1
 90
5
176
1
 90
0
176
1
 90
0
176
1
290
0
176
1
 90
1
176
1
 40
0.0
176
1
 90
0
176
1
290
0
176
1
290
1
176
1
290
1
176
1
290
0
176
1
290
0
176
1
290
0
176
1
290
0
176
1
290
0
176
1
290
0
176
1
 90
50
176
1
 40
0.0
176
1
 40
1.0
176
1
 90
0
176
1
 62
18
420
0
176
1
 90
50
176
1
 90
3
176
1
 62
5
420
255
176
1
290
0
176
1
 90
50
176
1
 90
50
176
1
 90
50
176
1
290
0
176
1
 90
50
176
1
 62
256
176
0
 40
1.0
176
0
 90
2
176
1
  1
strokes_ogs.tif
176
1
290
0
176
1
 40
1.0
176
1
 40
1.0
176
1
  0
VISUALSTYLE
  5
60
102
{ACAD_REACTORS
330
16
102
}
330
16
100
AcDbVisualStyle
  2
EdgeColorOff
 70
22
177
3
291
1
 70
58
 90
2
176
1
 90
2
176
1
 90
0
176
1
 90
2
176
1
 40
0.6
176
1
 40
30.0
176
1
 62
7
420
16777215
176
1
 90
1
176
1
 90
4
176
1
 62
7
176
1
 62
257
176
1
 90
1
176
1
 90
1
176
1
 40
1.0
176
1
 90
8
176
1
 62
7
176
1
 40
1.0
176
1
 90
1
176
1
 90
6
176
1
 90
2
176
1
 62
7
176
1
 90
5
176
1
 90
0
176
1
 90
0
176
1
290
0
176
1
 90
1
176
1
 40
0.0
176
1
 90
0
176
1
290
0
176
1
290
1
176
1
290
1
176
1
290
0
176
1
290
0
176
1
290
0
176
1
290
0
176
1
290
0
176
1
290
0
176
1
 90
50
176
1
 40
0.0
176
1
 40
1.0
176
1
 90
0
176
1
 62
18
420
0
176
1
 90
50
176
1
 90
3
176
1
 62
5
420
255
176
1
290
0
176
1
 90
50
176
1
 90
50
176
1
 90
50
176
1
290
0
176
1
 90
50
176
1
 62
256
176
0
 40
1.0
176
0
 90
2
176
1
  1
strokes_ogs.tif
176
1
290
0
176
1
 40
1.0
176
1
 40
1.0
176
1
  0
VISUALSTYLE
  5
61
102
{ACAD_REACTORS
330
16
102
}
330
16
100
AcDbVisualStyle
  2
Facepattern
 70
15
177
3
291
1
 70
58
 90
2
176
1
 90
2
176
1
 90
0
176
1
 90
2
176
1
 40
0.6
176
1
 40
30.0
176
1
 62
7
420
16777215
176
1
 90
1
176
1
 90
4
176
1
 62
7
176
1
 62
257
176
1
 90
1
176
1
 90
1
176
1
 40
1.0
176
1
 90
8
176
1
 62
7
176
1
 40
1.0
176
1
 90
1
176
1
 90
6
176
1
 90
2
176
1
 62
7
176
1
 90
5
176
1
 90
0
176
1
 90
0
176
1
290
0
176
1
 90
1
176
1
 40
0.0
176
1
 90
0
176
1
290
0
176
1
290
1
176
1
290
1
176
1
290
0
176
1
290
0
176
1
290
0
176
1
290
0
176
1
290
0
176
1
290
0
176
1
 90
50
176
1
 40
0.0
176
1
 40
1.0
176
1
 90
0
176
1
 62
18
420
0
176
1
 90
50
176
1
 90
3
176
1
 62
5
420
255
176
1
290
0
176
1
 90
50
176
1
 90
50
176
1
 90
50
176
1
290
0
176
1
 90
50
176
1
 62
256
176
0
 40
1.0
176
0
 90
2
176
1
  1
strokes_ogs.tif
176
1
290
0
176
1
 40
1.0
176
1
 40
1.0
176
1
  0
VISUALSTYLE
  5
62
102
{ACAD_REACTORS
330
16
102
}
330
16
100
AcDbVisualStyle
  2
Flat
 70
0
177
3
291
1
 70
58
 90
2
176
1
 90
2
176
1
 90
0
176
1
 90
2
176
1
 40
0.6
176
1
 40
30.0
176
1
 62
7
420
16777215
176
1
 90
1
176
1
 90
4
176
1
 62
7
176
1
 62
257
176
1
 90
1
176
1
 90
1
176
1
 40
1.0
176
1
 90
8
176
1
 62
7
176
1
 40
1.0
176
1
 90
1
176
1
 90
6
176
1
 90
2
176
1
 62
7
176
1
 90
5
176
1
 90
0
176
1
 90
0
176
1
290
0
176
1
 90
1
176
1
 40
0.0
176
1
 90
0
176
1
290
0
176
1
290
1
176
1
290
1
176
1
290
0
176
1
290
0
176
1
290
0
176
1
290
0
176
1
290
0
176
1
290
0
176
1
 90
50
176
1
 40
0.0
176
1
 40
1.0
176
1
 90
0
176
1
 62
18
420
0
176
1
 90
50
176
1
 90
3
176
1
 62
5
420
255
176
1
290
0
176
1
 90
50
176
1
 90
50
176
1
 90
50
176
1
290
0
176
1
 90
50
176
1
 62
256
176
0
 40
1.0
176
0
 90
2
176
1
  1
strokes_ogs.tif
176
1
290
0
176
1
 40
1.0
176
1
 40
1.0
176
1
  0
VISUALSTYLE
  5
63
102
{ACAD_REACTORS
330
16
102
}
330
16
100
AcDbVisualStyle
  2
FlatWithEdges
 70
1
177
3
291
1
 70
58
 90
2
176
1
 90
2
176
1
 90
0
176
1
 90
2
176
1
 40
0.6
176
1
 40
30.0
176
1
 62
7
420
16777215
176
1
 90
1
176
1
 90
4
176
1
 62
7
176
1
 62
257
176
1
 90
1
176
1
 90
1
176
1
 40
1.0
176
1
 90
8
176
1
 62
7
176
1
 40
1.0
176
1
 90
1
176
1
 90
6
176
1
 90
2
176
1
 62
7
176
1
 90
5
176
1
 90
0
176
1
 90
0
176
1
290
0
176
1
 90
1
176
1
 40
0.0
176
1
 90
0
176
1
290
0
176
1
290
1
176
1
290
1
176
1
290
0
176
1
290
0
176
1
290
0
176
1
290
0
176
1
290
0
176
1
290
0
176
1
 90
50
176
1
 40
0.0
176
1
 40
1.0
176
1
 90
0
176
1
 62
18
420
0
176
1
 90
50
176
1
 90
3
176
1
 62
5
420
255
176
1
290
0
176
1
 90
50
176
1
 90
50
176
1
 90
50
176
1
290
0
176
1
 90
50
176
1
 62
256
176
0
 40
1.0
176
0
 90
2
176
1
  1
strokes_ogs.tif
176
1
290
0
176
1
 40
1.0
176
1
 40
1.0
176
1
  0
VISUALSTYLE
  5
64
102
{ACAD_REACTORS
330
16
102
}
330
16
100
AcDbVisualStyle
  2
Gouraud
 70
2
177
3
291
1
 70
58
 90
2
176
1
 90
2
176
1
 90
0
176
1
 90
2
176
1
 40
0.6
176
1
 40
30.0
176
1
 62
7
420
16777215
176
1
 90
1
176
1
 90
4
176
1
 62
7
176
1
 62
257
176
1
 90
1
176
1
 90
1
176
1
 40
1.0
176
1
 90
8
176
1
 62
7
176
1
 40
1.0
176
1
 90
1
176
1
 90
6
176
1
 90
2
176
1
 62
7
176
1
 90
5
176
1
 90
0
176
1
 90
0
176
1
290
0
176
1
 90
1
176
1
 40
0.0
176
1
 90
0
176
1
290
0
176
1
290
1
176
1
290
1
176
1
290
0
176
1
290
0
176
1
290
0
176
1
290
0
176
1
290
0
176
1
290
0
176
1
 90
50
176
1
 40
0.0
176
1
 40
1.0
176
1
 90
0
176
1
 62
18
420
0
176
1
 90
50
176
1
 90
3
176
1
 62
5
420
255
176
1
290
0
176
1
 90
50
176
1
 90
50
176
1
 90
50
176
1
290
0
176
1
 90
50
176
1
 62
256
176
0
 40
1.0
176
0
 90
2
176
1
  1
strokes_ogs.tif
176
1
290
0
176
1
 40
1.0
176
1
 40
1.0
176
1
  0
VISUALSTYLE
  5
65
102
{ACAD_REACTORS
330
16
102
}
330
16
100
AcDbVisualStyle
  2
GouraudWithEdges
 70
3
177
3
291
1
 70
58
 90
2
176
1
 90
2
176
1
 90
0
176
1
 90
2
176
1
 40
0.6
176
1
 40
30.0
176
1
 62
7
420
16777215
176
1
 90
1
176
1
 90
4
176
1
 62
7
176
1
 62
257
176
1
 90
1
176
1
 90
1
176
1
 40
1.0
176
1
 90
8
176
1
 62
7
176
1
 40
1.0
176
1
 90
1
176
1
 90
6
176
1
 90
2
176
1
 62
7
176
1
 90
5
176
1
 90
0
176
1
 90
0
176
1
290
0
176
1
 90
1
176
1
 40
0.0
176
1
 90
0
176
1
290
0
176
1
290
1
176
1
290
1
176
1
290
0
176
1
290
0
176
1
290
0
176
1
290
0
176
1
290
0
176
1
290
0
176
1
 90
50
176
1
 40
0.0
176
1
 40
1.0
176
1
 90
0
176
1
 62
18
420
0
176
1
 90
50
176
1
 90
3
176
1
 62
5
420
255
176
1
290
0
176
1
 90
50
176
1
 90
50
176
1
 90
50
176
1
290
0
176
1
 90
50
176
1
 62
256
176
0
 40
1.0
176
0
 90
2
176
1
  1
strokes_ogs.tif
176
1
290
0
176
1
 40
1.0
176
1
 40
1.0
176
1
  0
VISUALSTYLE
  5
66
102
{ACAD_REACTORS
330
16
102
}
330
16
100
AcDbVisualStyle
  2
Hidden
 70
6
177
3
291
0
 70
58
 90
2
176
1
 90
2
176
1
 90
0
176
1
 90
1
176
1
 40
0.6
176
1
 40
30.0
176
1
 62
7
420
16777215
176
1
 90
1
176
1
 90
4
176
1
 62
7
176
1
 62
257
176
1
 90
1
176
1
 90
1
176
1
 40
1.0
176
1
 90
8
176
1
 62
7
176
1
 40
1.0
176
1
 90
1
176
1
 90
6
176
1
 90
2
176
1
 62
7
176
1
 90
5
176
1
 90
0
176
1
 90
0
176
1
290
0
176
1
 90
1
176
1
 40
0.0
176
1
 90
0
176
1
290
0
176
1
290
1
176
1
290
1
176
1
290
0
176
1
290
0
176
1
290
0
176
1
290
0
176
1
290
0
176
1
290
0
176
1
 90
50
176
1
 40
0.0
176
1
 40
1.0
176
1
 90
0
176
1
 62
18
420
0
176
1
 90
50
176
1
 90
3
176
1
 62
5
420
255
176
1
290
0
176
1
 90
50
176
1
 90
50
176
1
 90
50
176
1
290
0
176
1
 90
50
176
1
 62
256
176
0
 40
1.0
176
0
 90
2
176
1
  1
strokes_ogs.tif
176
1
290
0
176
1
 40
1.0
176
1
 40
1.0
176
1
  0
VISUALSTYLE
  5
67
102
{ACAD_REACTORS
330
16
102
}
330
16
100
AcDbVisualStyle
  2
JitterOff
 70
20
177
3
291
1
 70
58
 90
2
176
1
 90
2
176
1
 90
0
176
1
 90
2
176
1
 40
0.6
176
1
 40
30.0
176
1
 62
7
420
16777215
176
1
 90
1
176
1
 90
4
176
1
 62
7
176
1
 62
257
176
1
 90
1
176
1
 90
1
176
1
 40
1.0
176
1
 90
8
176
1
 62
7
176
1
 40
1.0
176
1
 90
1
176
1
 90
6
176
1
 90
2
176
1
 62
7
176
1
 90
5
176
1
 90
0
176
1
 90
0
176
1
290
0
176
1
 90
1
176
1
 40
0.0
176
1
 90
0
176
1
290
0
176
1
290
1
176
1
290
1
176
1
290
0
176
1
290
0
176
1
290
0
176
1
290
0
176
1
290
0
176
1
290
0
176
1
 90
50
176
1
 40
0.0
176
1
 40
1.0
176
1
 90
0
176
1
 62
18
420
0
176
1
 90
50
176
1
 90
3
176
1
 62
5
420
255
176
1
290
0
176
1
 90
50
176
1
 90
50
176
1
 90
50
176
1
290
0
176
1
 90
50
176
1
 62
256
176
0
 40
1.0
176
0
 90
2
176
1
  1
strokes_ogs.tif
176
1
290
0
176
1
 40
1.0
176
1
 40
1.0
176
1
  0
VISUALSTYLE
  5
68
102
{ACAD_REACTORS
330
16
102
}
330
16
100
AcDbVisualStyle
  2
Linepattern
 70
14
177
3
291
1
 70
58
 90
2
176
1
 90
2
176
1
 90
0
176
1
 90
2
176
1
 40
0.6
176
1
 40
30.0
176
1
 62
7
420
16777215
176
1
 90
1
176
1
 90
4
176
1
 62
7
176
1
 62
257
176
1
 90
1
176
1
 90
1
176
1
 40
1.0
176
1
 90
8
176
1
 62
7
176
1
 40
1.0
176
1
 90
1
176
1
 90
6
176
1
 90
2
176
1
 62
7
176
1
 90
5
176
1
 90
0
176
1
 90
0
176
1
290
0
176
1
 90
1
176
1
 40
0.0
176
1
 90
0
176
1
290
0
176
1
290
1
176
1
290
1
176
1
290
0
176
1
290
0
176
1
290
0
176
1
290
0
176
1
290
0
176
1
290
0
176
1
 90
50
176
1
 40
0.0
176
1
 40
1.0
176
1
 90
0
176
1
 62
18
420
0
176
1
 90
50
176
1
 90
3
176
1
 62
5
420
255
176
1
290
0
176
1
 90
50
176
1
 90
50
176
1
 90
50
176
1
290
0
176
1
 90
50
176
1
 62
256
176
0
 40
1.0
176
0
 90
2
176
1
  1
strokes_ogs.tif
176
1
290
0
176
1
 40
1.0
176
1
 40
1.0
176
1
  0
VISUALSTYLE
  5
69
102
{ACAD_REACTORS
330
16
102
}
330
16
100
AcDbVisualStyle
  2
Modeling
 70
10
177
3
291
0
 70
58
 90
2
176
1
 90
2
176
1
 90
0
176
1
 90
2
176
1
 40
0.6
176
1
 40
30.0
176
1
 62
7
420
16777215
176
1
 90
1
176
1
 90
4
176
1
 62
7
176
1
 62
257
176
1
 90
1
176
1
 90
1
176
1
 40
1.0
176
1
 90
8
176
1
 62
7
176
1
 40
1.0
176
1
 90
1
176
1
 90
6
176
1
 90
2
176
1
 62
7
176
1
 90
5
176
1
 90
0
176
1
 90
0
176
1
290
0
176
1
 90
1
176
1
 40
0.0
176
1
 90
0
176
1
290
0
176
1
290
1
176
1
290
1
176
1
290
0
176
1
290
0
176
1
290
0
176
1
290
0
176
1
290
0
176
1
290
0
176
1
 90
50
176
1
 40
0.0
176
1
 40
1.0
176
1
 90
0
176
1
 62
18
420
0
176
1
 90
50
176
1
 90
3
176
1
 62
5
420
255
176
1
290
0
176
1
 90
50
176
1
 90
50
176
1
 90
50
176
1
290
0
176
1
 90
50
176
1
 62
256
176
0
 40
1.0
176
0
 90
2
176
1
  1
strokes_ogs.tif
176
1
290
0
176
1
 40
1.0
176
1
 40
1.0
176
1
  0
VISUALSTYLE
  5
6A
102
{ACAD_REACTORS
330
16
102
}
330
16
100
AcDbVisualStyle
  2
OverhangOff
 70
21
177
3
291
1
 70
58
 90
2
176
1
 90
2
176
1
 90
0
176
1
 90
2
176
1
 40
0.6
176
1
 40
30.0
176
1
 62
7
420
16777215
176
1
 90
1
176
1
 90
4
176
1
 62
7
176
1
 62
257
176
1
 90
1
176
1
 90
1
176
1
 40
1.0
176
1
 90
8
176
1
 62
7
176
1
 40
1.0
176
1
 90
1
176
1
 90
6
176
1
 90
2
176
1
 62
7
176
1
 90
5
176
1
 90
0
176
1
 90
0
176
1
290
0
176
1
 90
1
176
1
 40
0.0
176
1
 90
0
176
1
290
0
176
1
290
1
176
1
290
1
176
1
290
0
176
1
290
0
176
1
290
0
176
1
290
0
176
1
290
0
176
1
290
0
176
1
 90
50
176
1
 40
0.0
176
1
 40
1.0
176
1
 90
0
176
1
 62
18
420
0
176
1
 90
50
176
1
 90
3
176
1
 62
5
420
255
176
1
290
0
176
1
 90
50
176
1
 90
50
176
1
 90
50
176
1
290
0
176
1
 90
50
176
1
 62
256
176
0
 40
1.0
176
0
 90
2
176
1
  1
strokes_ogs.tif
176
1
290
0
176
1
 40
1.0
176
1
 40
1.0
176
1
  0
VISUALSTYLE
  5
6B
102
{ACAD_REACTORS
330
16
102
}
330
16
100
AcDbVisualStyle
  2
Realistic
 70
8
177
3
291
0
 70
58
 90
2
176
1
 90
2
176
1
 90
0
176
1
 90
2
176
1
 40
0.6
176
1
 40
30.0
176
1
 62
7
420
16777215
176
1
 90
1
176
1
 90
4
176
1
 62
7
176
1
 62
257
176
1
 90
1
176
1
 90
1
176
1
 40
1.0
176
1
 90
8
176
1
 62
7
176
1
 40
1.0
176
1
 90
1
176
1
 90
6
176
1
 90
2
176
1
 62
7
176
1
 90
5
176
1
 90
0
176
1
 90
0
176
1
290
0
176
1
 90
1
176
1
 40
0.0
176
1
 90
0
176
1
290
0
176
1
290
1
176
1
290
1
176
1
290
0
176
1
290
0
176
1
290
0
176
1
290
0
176
1
290
0
176
1
290
0
176
1
 90
50
176
1
 40
0.0
176
1
 40
1.0
176
1
 90
0
176
1
 62
18
420
0
176
1
 90
50
176
1
 90
3
176
1
 62
5
420
255
176
1
290
0
176
1
 90
50
176
1
 90
50
176
1
 90
50
176
1
290
0
176
1
 90
50
176
1
 62
256
176
0
 40
1.0
176
0
 90
2
176
1
  1
strokes_ogs.tif
176
1
290
0
176
1
 40
1.0
176
1
 40
1.0
176
1
  0
VISUALSTYLE
  5
6C
102
{ACAD_REACTORS
330
16
102
}
330
16
100
AcDbVisualStyle
  2
Shaded
 70
27
177
3
291
0
 70
58
 90
2
176
1
 90
2
176
1
 90
0
176
1
 90
2
176
1
 40
0.6
176
1
 40
30.0
176
1
 62
7
420
16777215
176
1
 90
1
176
1
 90
4
176
1
 62
7
176
1
 62
257
176
1
 90
1
176
1
 90
1
176
1
 40
1.0
176
1
 90
8
176
1
 62
7
176
1
 40
1.0
176
1
 90
1
176
1
 90
6
176
1
 90
2
176
1
 62
7
176
1
 90
5
176
1
 90
0
176
1
 90
0
176
1
290
0
176
1
 90
1
176
1
 40
0.0
176
1
 90
0
176
1
290
0
176
1
290
1
176
1
290
1
176
1
290
0
176
1
290
0
176
1
290
0
176
1
290
0
176
1
290
0
176
1
290
0
176
1
 90
50
176
1
 40
0.0
176
1
 40
1.0
176
1
 90
0
176
1
 62
18
420
0
176
1
 90
50
176
1
 90
3
176
1
 62
5
420
255
176
1
290
0
176
1
 90
50
176
1
 90
50
176
1
 90
50
176
1
290
0
176
1
 90
50
176
1
 62
256
176
0
 40
1.0
176
0
 90
2
176
1
  1
strokes_ogs.tif
176
1
290
0
176
1
 40
1.0
176
1
 40
1.0
176
1
  0
VISUALSTYLE
  5
6D
102
{ACAD_REACTORS
330
16
102
}
330
16
100
AcDbVisualStyle
  2
Shaded with edges
 70
26
177
3
291
0
 70
58
 90
2
176
1
 90
2
176
1
 90
0
176
1
 90
2
176
1
 40
0.6
176
1
 40
30.0
176
1
 62
7
420
16777215
176
1
 90
1
176
1
 90
4
176
1
 62
7
176
1
 62
257
176
1
 90
1
176
1
 90
1
176
1
 40
1.0
176
1
 90
8
176
1
 62
7
176
1
 40
1.0
176
1
 90
1
176
1
 90
6
176
1
 90
2
176
1
 62
7
176
1
 90
5
176
1
 90
0
176
1
 90
0
176
1
290
0
176
1
 90
1
176
1
 40
0.0
176
1
 90
0
176
1
290
0
176
1
290
1
176
1
290
1
176
1
290
0
176
1
290
0
176
1
290
0
176
1
290
0
176
1
290
0
176
1
290
0
176
1
 90
50
176
1
 40
0.0
176
1
 40
1.0
176
1
 90
0
176
1
 62
18
420
0
176
1
 90
50
176
1
 90
3
176
1
 62
5
420
255
176
1
290
0
176
1
 90
50
176
1
 90
50
176
1
 90
50
176
1
290
0
176
1
 90
50
176
1
 62
256
176
0
 40
1.0
176
0
 90
2
176
1
  1
strokes_ogs.tif
176
1
290
0
176
1
 40
1.0
176
1
 40
1.0
176
1
  0
VISUALSTYLE
  5
6E
102
{ACAD_REACTORS
330
16
102
}
330
16
100
AcDbVisualStyle
  2
Shades of Gray
 70
23
177
3
291
0
 70
58
 90
2
176
1
 90
2
176
1
 90
0
176
1
 90
2
176
1
 40
0.6
176
1
 40
30.0
176
1
 62
7
420
16777215
176
1
 90
1
176
1
 90
4
176
1
 62
7
176
1
 62
257
176
1
 90
1
176
1
 90
1
176
1
 40
1.0
176
1
 90
8
176
1
 62
7
176
1
 40
1.0
176
1
 90
1
176
1
 90
6
176
1
 90
2
176
1
 62
7
176
1
 90
5
176
1
 90
0
176
1
 90
0
176
1
290
0
176
1
 90
1
176
1
 40
0.0
176
1
 90
0
176
1
290
0
176
1
290
1
176
1
290
1
176
1
290
0
176
1
290
0
176
1
290
0
176
1
290
0
176
1
290
0
176
1
290
0
176
1
 90
50
176
1
 40
0.0
176
1
 40
1.0
176
1
 90
0
176
1
 62
18
420
0
176
1
 90
50
176
1
 90
3
176
1
 62
5
420
255
176
1
290
0
176
1
 90
50
176
1
 90
50
176
1
 90
50
176
1
290
0
176
1
 90
50
176
1
 62
256
176
0
 40
1.0
176
0
 90
2
176
1
  1
strokes_ogs.tif
176
1
290
0
176
1
 40
1.0
176
1
 40
1.0
176
1
  0
VISUALSTYLE
  5
6F
102
{ACAD_REACTORS
330
16
102
}
330
16
100
AcDbVisualStyle
  2
Sketchy
 70
24
177
3
291
0
 70
58
 90
2
176
1
 90
2
176
1
 90
0
176
1
 90
1
176
1
 40
0.6
176
1
 40
30.0
176
1
 62
7
420
16777215
176
1
 90
1
176
1
 90
4
176
1
 62
7
176
1
 62
257
176
1
 90
1
176
1
 90
1
176
1
 40
1.0
176
1
 90
8
176
1
 62
7
176
1
 40
1.0
176
1
 90
1
176
1
 90
6
176
1
 90
2
176
1
 62
7
176
1
 90
5
176
1
 90
0
176
1
 90
0
176
1
290
0
176
1
 90
1
176
1
 40
0.0
176
1
 90
0
176
1
290
0
176
1
290
1
176
1
290
1
176
1
290
0
176
1
290
0
176
1
290
0
176
1
290
0
176
1
290
0
176
1
290
0
176
1
 90
50
176
1
 40
0.0
176
1
 40
1.0
176
1
 90
0
176
1
 62
18
420
0
176
1
 90
50
176
1
 90
3
176
1
 62
5
420
255
176
1
290
0
176
1
 90
50
176
1
 90
50
176
1
 90
50
176
1
290
0
176
1
 90
50
176
1
 62
256
176
0
 40
1.0
176
0
 90
2
176
1
  1
strokes_ogs.tif
176
1
290
0
176
1
 40
1.0
176
1
 40
1.0
176
1
  0
VISUALSTYLE
  5
70
102
{ACAD_REACTORS
330
16
102
}
330
16
100
AcDbVisualStyle
  2
Thicken
 70
13
177
3
291
1
 70
58
 90
2
176
1
 90
2
176
1
 90
0
176
1
 90
2
176
1
 40
0.6
176
1
 40
30.0
176
1
 62
7
420
16777215
176
1
 90
1
176
1
 90
4
176
1
 62
7
176
1
 62
257
176
1
 90
1
176
1
 90
1
176
1
 40
1.0
176
1
 90
8
176
1
 62
7
176
1
 40
1.0
176
1
 90
1
176
1
 90
6
176
1
 90
2
176
1
 62
7
176
1
 90
5
176
1
 90
0
176
1
 90
0
176
1
290
0
176
1
 90
1
176
1
 40
0.0
176
1
 90
0
176
1
290
0
176
1
290
1
176
1
290
1
176
1
290
0
176
1
290
0
176
1
290
0
176
1
290
0
176
1
290
0
176
1
290
0
176
1
 90
50
176
1
 40
0.0
176
1
 40
1.0
176
1
 90
0
176
1
 62
18
420
0
176
1
 90
50
176
1
 90
3
176
1
 62
5
420
255
176
1
290
0
176
1
 90
50
176
1
 90
50
176
1
 90
50
176
1
290
0
176
1
 90
50
176
1
 62
256
176
0
 40
1.0
176
0
 90
2
176
1
  1
strokes_ogs.tif
176
1
290
0
176
1
 40
1.0
176
1
 40
1.0
176
1
  0
VISUALSTYLE
  5
71
102
{ACAD_REACTORS
330
16
102
}
330
16
100
AcDbVisualStyle
  2
Wireframe
 70
5
177
3
291
0
 70
58
 90
2
176
1
 90
2
176
1
 90
0
176
1
 90
0
176
1
 40
0.6
176
1
 40
30.0
176
1
 62
7
420
16777215
176
1
 90
1
176
1
 90
4
176
1
 62
7
176
1
 62
257
176
1
 90
1
176
1
 90
1
176
1
 40
1.0
176
1
 90
8
176
1
 62
7
176
1
 40
1.0
176
1
 90
1
176
1
 90
6
176
1
 90
2
176
1
 62
7
176
1
 90
5
176
1
 90
0
176
1
 90
0
176
1
290
0
176
1
 90
1
176
1
 40
0.0
176
1
 90
0
176
1
290
0
176
1
290
1
176
1
290
1
176
1
290
0
176
1
290
0
176
1
290
0
176
1
290
0
176
1
290
0
176
1
290
0
176
1
 90
50
176
1
 40
0.0
176
1
 40
1.0
176
1
 90
0
176
1
 62
18
420
0
176
1
 90
50
176
1
 90
3
176
1
 62
5
420
255
176
1
290
0
176
1
 90
50
176
1
 90
50
176
1
 90
50
176
1
290
0
176
1
 90
50
176
1
 62
256
176
0
 40
1.0
176
0
 90
2
176
1
  1
strokes_ogs.tif
176
1
290
0
176
1
 40
1.0
176
1
 40
1.0
176
1
  0
VISUALSTYLE
  5
72
102
{ACAD_REACTORS
330
16
102
}
330
16
100
AcDbVisualStyle
  2
X-Ray
 70
25
177
3
291
0
 70
58
 90
2
176
1
 90
2
176
1
 90
0
176
1
 90
2
176
1
 40
0.5
176
1
 40
30.0
176
1
 62
7
420
16777215
176
1
 90
1
176
1
 90
4
176
1
 62
7
176
1
 62
257
176
1
 90
1
176
1
 90
1
176
1
 40
1.0
176
1
 90
8
176
1
 62
7
176
1
 40
1.0
176
1
 90
1
176
1
 90
6
176
1
 90
2
176
1
 62
7
176
1
 90
5
176
1
 90
0
176
1
 90
0
176
1
290
0
176
1
 90
1
176
1
 40
0.0
176
1
 90
0
176
1
290
0
176
1
290
1
176
1
290
1
176
1
290
0
176
1
290
0
176
1
290
0
176
1
290
0
176
1
290
0
176
1
290
0
176
1
 90
50
176
1
 40
0.0
176
1
 40
1.0
176
1
 90
0
176
1
 62
18
420
0
176
1
 90
50
176
1
 90
3
176
1
 62
5
420
255
176
1
290
0
176
1
 90
50
176
1
 90
50
176
1
 90
50
176
1
290
0
176
1
 90
50
176
1
 62
256
176
0
 40
1.0
176
0
 90
2
176
1
  1
strokes_ogs.tif
176
1
290
0
176
1
 40
1.0
176
1
 40
1.0
176
1
  0
ENDSEC
  0
EOF
